<svg id="svg2208" xmlns="http://www.w3.org/2000/svg" viewBox="0 0 726.625 1000"><path d="M726.2419,286.1816c-4.1858-81.556-60.4531-128.6591-60.4531-128.6591s-10.52-55.5414-82.9377-102.6481c-61.0088-39.665-126.5738-16.8727-126.5738-16.8727S426.0508-1.3708,374.7472.0369c-51.337,1.4076-76.6481,36.5607-76.6481,36.5607S242.5578,3.5521,172.2514,40.8167c-60.6125,32.1269-68.1951,61.8682-76.6331,76.6334C52.03,139.95,23.9079,184.9448,10.5615,229.2364-2.8,273.5279-9.1265,323.4462,26.73,417.6559c35.857,94.1987,112.494,190.5091,139.2089,226.366S276.3182,784.6346,280.1855,789.2278c3.8672,4.5563,45.3472,76.27,49.2145,82.6046,3.3856,5.5564,7.5825,12.15,11.4088,15.15,0,.0742.0039.1852.0113.2964.0037.0371.0111.1481.0147.2222.0075.0742.015.1852.0222.2964s.0224.2223.0335.37c.0147.1851.0332.3335.0517.5557.0817.7777.2037,1.815.4038,3.3337.3111,2.2966.5112,3.8154.6482,5.0748a20.3806,20.3806,0,0,0-4.7487,2.9262c-2.4857,1.9634-3.756,4.6674.0517,4.9638a16.5859,16.5859,0,0,0,4.8453-.63c-.1555,2.4818-.4445,5.2229-.4445,5.2229a6.7563,6.7563,0,0,0-4.0413,1.1483A30.1517,30.1517,0,0,0,330.8,916.283c-.8779,1.26-1.3484,2.2227-.2075,3.0746,1.8745,1.4447,6.56,2.8894,6.56,2.8894s-.1556,4.482.0223,7.4824a37.4251,37.4251,0,0,1,.0667,6.26,9.182,9.182,0,0,0-.1444,1.7781s-3.482,1.0371-5.0676,3.6672-4.3967,3-4.219,10.557c.1741,7.5568-.1777,16.5209,0,22.8553.1555,5.5932,1.4,22.4847,1.4,22.4847a7.53,7.53,0,0,0,1.76,1.7409,6.5828,6.5828,0,0,0,4.3931.889c2.2856-.1852,17.7175-.1852,27.2781-.4445,9.55-.2962,25.8851-.2962,30.108-1.7038,4.1858-1.4077,3.3707-3.6672,3.9264-7.0382s-1.704-9.26-1.9633-14.8908c-.2962-5.4825-1.3706-25.3742-2.1854-30.0045a19.5607,19.5607,0,0,0,2.7411,3c8.1864,7.1863,14.039,2.0376,22.8551-11.6682,3.4449-5.3711,6.5936-14.2983,9.2606-24.4849.7779,2.4818.7779,4.7784.7779,7.964,0,3.519-1.0373,5.6305.37,9.1495s-.37,3.8524,2.8152,5.9638c3.1485,2.1115,3,4.63,3,4.63s4.7416-3.5561,4.371-6.3714.3706-2.815,0-5.297c-.37-2.4447.7038-2.7782.3706-4.5562a26.9481,26.9481,0,0,1-.3706-5.26c0-1.4076.3706.3332.3706-3.1856s1.7409-6.3343.6667-8.0752a24.0818,24.0818,0,0,1-2.4449-5.964c-.7038-2.4818-1.4076-4.2227-1.4076-6.3341s.37-6.3343.37-6.3343-.7038-2.4447-1.0744-4.5562a5.2058,5.2058,0,0,0-1.5557-2.8152c.9632-6.2973,1.7041-12.3352,2.1856-17.5951,1.778-19.7807,4.5562-57.49,5.6674-72.4178.2593-.5186.5186-1,.7409-1.4076,2.8152-4.89,7.0379-9.1125,19.67-25.3,12.6684-16.1875,62.5646-69.6027,101.9406-120.9434,39.376-51.3035,92.8281-129.3518,113.9052-166.6164v0C698.8307,440.1407,730.4648,367.7378,726.2419,286.1816ZM305.274,800.1926a43.054,43.054,0,0,1-13.3351-6.89,65.1561,65.1561,0,0,1,14.9429,3.2226c6.6639,2.5191,15.4059,6.6678,15.4059,6.6678A80.0417,80.0417,0,0,1,305.274,800.1926Zm36.3906,117.5353s-2.9708-.5557-4.4822-.926a2.6225,2.6225,0,0,1-.47-.1852.2342.2342,0,0,0-.0185-.1854.3626.3626,0,0,0-.2295-.2222.4244.4244,0,0,1,.0888-.111,5.3943,5.3943,0,0,1,1.0075-1.0373,14.9476,14.9476,0,0,1,3.8376-2.1854C342.3349,912.6531,341.6646,917.7279,341.6646,917.7279ZM414.79,798.8589c7.4084-1.4447,16.669-2.3707,16.669-2.3707a131.0475,131.0475,0,0,1-16.0021,5.0379c-7.3716,1.6669-18.7805,1.4076-18.7805,1.4076S407.4184,800.2665,414.79,798.8589ZM342.12,904.1332a15.3753,15.3753,0,0,1-5.234.63c-2.9079-.4816-1.704-2.7782.6407-4.63a24.2071,24.2071,0,0,1,4.5155-2.7413,38.4364,38.4364,0,0,1,.1779,3.9635C342.22,902.133,342.1794,903.1332,342.12,904.1332Zm12.2388,22.67a16.1034,16.1034,0,0,0-1.2817-4.26,3.6057,3.6057,0,0,0-1.1187-1.778l.3186-.2964-.7188-1.2966-.9592-.0739a3.6918,3.6918,0,0,1,.0813-1.5928c.2408-.8151,1.1226-1.2966,1.6819-2.3337s.3222-2.2227-.1594-4.0006c-.4815-1.7411-1.2817-2.482-3.2819-3.0375a6.9956,6.9956,0,0,0-2.2152-.1481v0l.0778-9.0754.5928-3.4449a9.4669,9.4669,0,0,1,.9889-.1854,8.7106,8.7106,0,0,1,2.5894-.1481c-.163.778-.3667,2.26-.3667,2.26s-.6595,1.8892,1.6855,2.1114c2.3409.2222,1.83.9261,4.408.9261,2.3113,0,3.1225.1854,4.6154-.2962-.0075.4816,0,1.1483.0778,2.1114.13,1.7409-.1149,4.63-.1334,6.0379a2.7455,2.7455,0,0,0-2.5114,2.63c.0185.2223.0185.3333.0481.6668a2.9789,2.9789,0,0,0,.3629,1.4447c.2186.2962-.1666.5926-.4036,1-.2111.3334-.5335.926-.6742,1.1483s.3925.4445.5926.4445.4.2964.4.4815-.1409.1854-.1409.3335c0,.111.2223.2223.2223.2223s-.2.037-.1592.1851c.0407.1113.263.1852.2815.4074.0222.2594-.1.2594-.1187.5558a.6864.6864,0,0,0,.4594.7038,3.9474,3.9474,0,0,0,1.641.0371v6.1489c-.6037,1.0744-1.6484,2.4078-2.16,3.1487-.5594.7778-.9593,2-1.6817,3.1856a25.3717,25.3717,0,0,1-2.0818,2.7411s-.2369-1.63-.3186-2.8153S354.5182,928.322,354.359,926.8031Zm-6.9122-31.6341,1.1-6.4453.0556-.1852,2.26-.0741.2,1.4076v2.593l-.1259,2.1854Zm13.7984,46.8958-5.5231.111-.0889-.2964a4.0815,4.0815,0,0,1-.137-.7038v0a12.0073,12.0073,0,0,0-.3667-1.4076l.9148-.778a15.845,15.845,0,0,1,1.7375-1.7411,20.9984,20.9984,0,0,0,2.1964-2.8892c.289-.3706.7594-.9631,1.267-1.63Zm-2.0262-136.02c-8.5753.2223-26.652-2.1856-26.652-2.1856s15.81-2.1853,27.215-1.8889c10.0125.2222,25.93,1.6667,25.93,1.6667S367.7979,805.7858,359.219,806.0451Zm13.4166,118.7578c-.2223-1.7038-2.1483-4.2968-2.8449-4.9635a2.7153,2.7153,0,0,0-1.463-.7409,4.4455,4.4455,0,0,1-.5815-.4074,2.0349,2.0349,0,0,1-.5187-1.0373,2.0132,2.0132,0,0,1,.33-1.5557,9.3075,9.3075,0,0,0,1.115-4.4823c-.0667-1.9631-.9927-3.1485-2.2263-3.519l0,0c.026-1.4818-.1146-5.3341.0335-6.9269.0517-.5186.1-1.1112.1444-1.704a6.2144,6.2144,0,0,0,.8519.0371c2.2413,0,5.6045.2222,8.494,0-.1484.37-.2594.7038-.3706,1-.5926,1.4076.4447,30.0413.4447,38.672A65.525,65.525,0,0,1,372.6356,924.8029Zm4.63-29.6339c-.3333,1.1854-.7778,2.9263-1.1484,4.0007a24.6,24.6,0,0,1-2.8152.0739c-.63.0371-1.1483,0-1.1483-.2222.0371-1.2223,0-3.7411,0-3.7411v-7.3346l4.408-.111a23.7855,23.7855,0,0,1,.1484,2.556C376.71,893.5021,377.8216,893.2059,377.2659,895.169Zm3.3709-2.5188a2.7209,2.7209,0,0,0,.1481-.5187c1.0744.1483,2.2966.2223,3.2227.4445,3.2968.7409,4.7415,2.8153,1.704,4.2229a20.1967,20.1967,0,0,1-4.9638,1.5189A10.1547,10.1547,0,0,1,380.6368,892.65Zm1.7041,45.2659s-.8522-10.5573-1.0744-17.7806c.2593.8522.5186,1.7412.8519,2.6672,1.4818,4.2229,3.2229,9.5939,5.4824,14.5947A17.5864,17.5864,0,0,0,382.3409,937.9161ZM429.1254,901.8c-.3706,1.63-.778,3.26-1.1854,4.9264-.63,1.556-1.1854,2.6672-1.0744,4.0007-5.5932,19.8178-14.8538,40.1169-24.9294,40.1169-3.6672,0-7.0011-3.0375-9.9644-7.52-.63-2.8521-1.3706-5.0006-3.1856-5.7044h-.0371a129.6568,129.6568,0,0,1-7.5565-20.4846V903.5406a24.8253,24.8253,0,0,0,10.4089,4.0007c9.1493,1.4076,18.2989-1.9634,30.93-19.1879a26.7456,26.7456,0,0,0,1.7041-2.63c1.2224,1.704,3.8523,5.4451,4.63,7.5565C429.7921,895.6877,429.6438,898.3917,429.1254,901.8Zm.1851-33.5606-4.1487,12.0387c-4.5932,10.335-13.039,20.5216-23.0034,25.0407-7.7419,3.482-16.4839-.1481-20.9658-2.5188V901.355a9.5366,9.5366,0,0,0-.3706-2.704c3.5191-.8148,6.1492-1.7779,6.7047-3.1485.37-1-.4075-2.2227-3.0375-2.9636a36.1491,36.1491,0,0,0-3.6672-.7038,34.65,34.65,0,0,1,1.63-4.1487h.2222c1.8521-2.815,15.8172-24.04,32.82-49.6a305.4068,305.4068,0,0,0,22.3-38.6723c-.2964,4.7413-.6668,10.0384-1.0371,14.78C434.4963,843.0875,432.1258,857.9044,429.3105,868.2392Zm3.3708,11.9277c-.9261-1.8892.3706.7038-.63-3.7784-1.0741-4.5561,0-3.8523-.7038-6.6675-.63-2.5189.4074-2.7782.111-3.8155,4.63-19.6695,5.5935-43.4877,6.5566-52.4148.5928-5.4454.778-11.335.8519-16.3358.667-1.3706,1.2225-2.5559,1.704-3.593C439.1637,811.2312,435.4965,855.9042,432.6813,880.1669Z"/></svg>