<?xml version="1.0" encoding="UTF-8"?>
<!--
  Copyright (c) 2026 Passion Highway, Inc.. All Rights Reserved.

  This image is digitally signed and the hash recorded.
  Unauthorized reproduction, distribution, or use of this
  image is strictly prohibited and constitutes copyright
  infringement under 17 U.S.C. Section 106.

  Violators may be subject to civil liability including
  statutory damages up to $150,000 per work (17 U.S.C. Section 504)
  and criminal prosecution with fines and imprisonment
  (17 U.S.C. Section 506).

  Contact: jim@passionhighway.com
  Asset ID: PHI-AID-SR22-f2a6ddab
  Hash: 6acaa2d838057f52
-->
<svg id="Layer_1" data-name="Layer 1" xmlns="http://www.w3.org/2000/svg" viewBox="0 0 1000 344.574">
  <metadata>
    <rdf:RDF xmlns:rdf="http://www.w3.org/1999/02/22-rdf-syntax-ns#"
             xmlns:dc="http://purl.org/dc/elements/1.1/"
             xmlns:cc="http://creativecommons.org/ns#">
      <rdf:Description>
        <dc:title>SR22 Aircraft Silhouette</dc:title>
        <dc:creator>Passion Highway, Inc.</dc:creator>
        <dc:rights>Copyright (c) 2026 Passion Highway, Inc.. All Rights Reserved. Unauthorized use prohibited under 17 U.S.C. 106, 504, 506.</dc:rights>
        <dc:publisher>Passion Highway, Inc.</dc:publisher>
        <dc:identifier>PHI-AID-SR22-f2a6ddab</dc:identifier>
        <dc:source>Airplane-ID.com</dc:source>
        <cc:license rdf:resource="https://airplane-id.com/terms"/>
      </rdf:Description>
    </rdf:RDF>
  </metadata>

<path d="M381.3607,344.574c12.385,0,19.7243-11.0089,19.7243-11.0089H364.8473S368.9757,344.574,381.3607,344.574Z"/><path d="M97.4227,344.574c13.3024,0,18.7-7.798,18.7-7.798H81.8268S84.12,344.574,97.4227,344.574Z"/><path d="M311.9679,93.5342l-21.4306,53.2342L324.64,86.929c-38.2617,6.5073-70.2122,17.5162-85.4778,27.3508-16.7825,10.8133-25.8831,18.2992-30.7273,23.0455,2.4465.3912,4.9908.8806,7.6332,1.4188C247.5292,105.2772,310.2066,92.9471,311.9679,93.5342Z"/><path d="M112.5355,154.1077C91.6919,157.19,70.2122,160.86,51.62,165.2145L44.2312,58.7951,37.3324,81.7423v87.0929c-.2445.049-.4891.1466-.734.1956a87.8992,87.8992,0,0,1,23.7305,15.07C66.4939,180.7248,89.98,167.661,112.5355,154.1077Z"/><path d="M221.4993,139.8693c20.06,4.4527,43.3505,11.743,59.6927,23.29l7.6329-13.3573h-11.743C270.7213,127.9308,237.7922,134.9278,221.4993,139.8693Z"/><path d="M282.4639,169.1777c-.1466,0-.3422.0487-.4891.0487a2.2591,2.2591,0,0,1-1.4678-.5381,93.1652,93.1652,0,0,0-14.336-8.7581l14.5316,45.3565,60.28.1469a45.2869,45.2869,0,0,1,7.29,0c5.9694.5871,19.7183.6361,34.2009.4892,1.6148-.8317,14.7765-9.3452,30.4827-70.6527,5.5289-21.6753,10.03-38.8,13.5529-52.1087-32.146-3.7186-65.6129-1.9572-95.655,2.74l-46.7756,82.0531A2.4049,2.4049,0,0,1,282.4639,169.1777ZM324.2,100.8735h85.6248c3.6206,48.9285-26.9107,62.3348-26.9107,62.3348l6.0671-27.3022-7.3393-8.758-20.1585,36.06h-58.127Z"/><path d="M440.21,220.5526c-4.5507-6.8011-6.85-10.2262-16.9784-10.2262-3.7186,0-9.9323.098-17.2716.1957l8.66,12.0854,26.6171-.5381C440.8943,221.531,440.5518,221.0418,440.21,220.5526Z"/><path d="M347.93,210.3264h-6.9477c-10.4218.6851-23.339,4.0122-27.2042,5.0885l-3.7676,9.4921L408.7,222.7542l-8.66-12.1342C380.5168,210.8646,356.64,211.1581,347.93,210.3264Z"/><path d="M301.2526,246.9738l62.0413,10.7643,3.8652-9.7856a2.4869,2.4869,0,0,1,2.2508-1.5658H398.669a2.4334,2.4334,0,0,1,2.3978,2.2018l1.81,15.51c11.596-.5382,22.9475-1.1253,34.152-1.7614l-24.8558-34.788-104.12,2.2995Z"/><path d="M912.9074,26.8447c-14.5319,31.2164-42.0787,104.8537-119.63,111.3123C756.2383,141.24,701.83,136.2,645.6112,127.6862c62.9219,20.11,179.5675,37.1858,181.0353,37.43a2.4317,2.4317,0,0,1-.3426,4.8439.8318.8318,0,0,1-.3425-.049c-6.8011-.9786-152.7058-22.36-204.8145-46.1395h-.0489c-59.4969-9.9813-118.5046-23.0941-158.724-33.9564-2.4464-.6361-4.9908-1.2722-7.4859-1.8593l47.1178-42.91v-3.67L446.5212,86.195c-4.9908-.9787-10.03-1.7614-15.119-2.3975-3.4737,13.0638-7.9754,30.2867-13.7489,52.6958-11.3025,44.2315-21.5283,62.09-27.7913,69.3318,3.474,0,6.8991-.049,10.2262-.0979a2.2292,2.2292,0,0,1,2.0059-.049c1.0766,0,2.2018-.049,3.2294-.049,7.6329-.0976,14.0425-.1956,17.9077-.1956,12.7213,0,16.3909,5.48,21.0392,12.379,1.0766,1.5655,2.2018,3.2782,3.572,5.1375,3.9142,5.1864,14.287,9.4431,24.3173,13.553,7.6328,3.1315,15.51,6.3609,21.5286,10.3241,8.3666,5.431,19.914,1.2719,26.8127-2.1529-5.48-1.2722-9.6387-3.376-12.77-6.41-7.4372-7.2906-7.9264-18.9353-7.3883-30.4826,1.4189-31.0205,12.1832-46.3841,32.9288-47.02,2.9359-.049,6.1161-.2936,9.3945-.4892,14.238-.9786,30.4333-2.0552,38.9958,6.7032,4.4524,4.5993,6.3117,11.4491,5.48,20.3541l-2.4464-.2446,2.4464.4892c-4.9908,54.1149-5.1864,56.2191-34.103,57.6868-2.74.1467-5.7249.2936-9.052.5382-3.18.1956-6.165.3425-8.954.3425-2.3484,0-4.55-.1469-6.6052-.2935-3.9632,2.5443-23.4366,14.189-37.3814,5.0394-5.6756-3.67-13.3084-6.8008-20.7456-9.8343-2.0549-.881-4.0612-1.7127-6.0181-2.5444l9.8836,21.48c86.3586-6.0184,165.1336-14.8745,254.8682-23.388,88.6094-8.3669,145.3666-7.3882,180.9864-11.2535L969.8112,26.8447ZM521.0882,141.1905c-1.7614,6.6052-10.03,11.547-21.0882,15.2167V135.9061H486.2511v24.2687c-29.6506,6.6052-67.2766,7.3392-67.2766,7.3392L432.43,105.13C449.5548,100.2374,527.84,116.7263,521.0882,141.1905ZM916.43,190.7551l-99.08,8.5624h-.2446a2.48,2.48,0,0,1-1.6148-.636,2.4245,2.4245,0,0,1-.8317-1.81V179.7462a2.4245,2.4245,0,0,1,.8317-1.81A2.5446,2.5446,0,0,1,817.35,177.3l99.08,8.5625a2.455,2.455,0,0,1,0,4.8929Z"/><path d="M915.3048,224.76c23.4856-3.0825,36.843-8.905,43.6931-22.4093C971.8661,177.0552,988.6,75.5286,996.0858,26.8447H974.9Z"/><path d="M59.1057,189.3849a.6689.6689,0,0,1-.1959-.1466,2.0263,2.0263,0,0,1-.5382-.3425.1792.1792,0,0,0-.1466-.049c-.098-.1466-12.6726-12.33-29.455-17.4675C14.0424,176.0275,3.4251,181.3119,0,187.0854c0,0,13.6023,11.0089,35.5221,18.1526l-4.5993,88.9029,6.41,17.4186,13.7-102.3583c2.3.44,4.6482.8317,7.0946,1.1252,0,0,9.3452,24.7578,69.185,41.6382-20.8436,14.8742-61.5032,44.7694-65.8579,54.2128-5.7245,5.2351-5.5289,12.5744-2.5443,18.2013,4.5506,8.7094,44.9166,12.5746,80.2428,5.382s36.2558-18.0546,36.2558-18.0546-39.485-13.0149-79.46-12.8679l51.9134-41.8828c11.3024,2.3485,24.0237,4.4524,38.3108,6.1161l4.4526-73.54H59.9863A2.3664,2.3664,0,0,1,59.1057,189.3849Z"/><polygon points="819.552 194.229 887.807 188.309 819.552 182.388 819.552 194.229"/><path d="M915.3048,21.9519H996.82C998.8258,8.79,1000,.57,1000,.57S930.13-5.4969,915.3048,21.9519Z"/><path d="M543.6441,240.9067c3.3271-.1956,6.3609-.3915,9.15-.5381,24.7091-1.2232,24.7091-1.2232,29.455-53.2342l.049-.2936c.6851-7.4862-.6851-12.8682-4.1588-16.44-4.5993-4.6973-12.6236-5.8715-21.382-5.8715-4.55,0-9.2473.3425-13.7976.6361-3.3274.1956-6.5565.44-9.5411.4891-17.908.5382-26.9106,13.9935-28.2318,42.3233-.6361,14.238,1.0766,22.0178,5.9694,26.7637C516.5868,240.075,526.96,242.032,543.6441,240.9067Z"/><path d="M124.7676,152.395C104.6581,164.823,81.515,177.8869,69.43,184.639H190.9679l2.3975-40.1214C179.8121,145.79,153.6355,148.4318,124.7676,152.395Z"/><path d="M393.287,264.5393c1.6148-.049,3.18-.147,4.7459-.1959L396.4675,251.28H371.1223L367.11,261.3588a2.4175,2.4175,0,0,1-2.6913,1.5168L297.436,251.28a2.7018,2.7018,0,0,1-1.7123-1.2233,2.4377,2.4377,0,0,1-.098-2.1038l7.5352-19.0333a2.4117,2.4117,0,0,1-.5385-1.4188,2.3806,2.3806,0,0,1,2.0552-2.3975l4.9906-12.6236a2.6677,2.6677,0,0,1,1.6147-1.4678c.1469-.049,1.2232-.3425,2.8379-.734l-35.2285-.098a2.4519,2.4519,0,0,1-2.2995-1.7124l-16.4889-51.3259c-15.3636-6.7031-33.0267-11.2045-47.8522-14.0914-2.691-.5381-5.3333-.9786-7.8284-1.4188a12.0752,12.0752,0,0,0-1.37,2.0059s-1.6634.147-4.7459.3915L191.0656,263.61a708.6365,708.6365,0,0,0,74.42,3.6207c36.892,0,71.2888-.6361,103.924-1.7614V294.777c-24.6108,2.9846-29.1125,15.3147-27.4978,24.4153,1.8593,10.3728,50.1517,12.8192,80.732,8.5625s33.0267-22.0178,33.0267-22.0178-30.8738-9.15-62.3838-11.2046Z"/><path d="M444.8088,226.8643l-26.715.5871,24.7088,34.5435c8.8561-.5381,17.5655-1.0763,26.1766-1.6637l-11.498-24.8554C452.1968,232.8824,447.6955,230.1424,444.8088,226.8643Z"/><polygon points="289.314 149.802 290.537 146.768 288.825 149.802 289.314 149.802"/><polygon points="478.359 255.901 474.166 259.989 497.773 287.31 507.085 287.31 478.359 255.901"/></svg>