<?xml version="1.0" encoding="UTF-8"?>
<!--
  Copyright (c) 2026 Passion Highway, Inc.. All Rights Reserved.

  This image is digitally signed and the hash recorded.
  Unauthorized reproduction, distribution, or use of this
  image is strictly prohibited and constitutes copyright
  infringement under 17 U.S.C. Section 106.

  Violators may be subject to civil liability including
  statutory damages up to $150,000 per work (17 U.S.C. Section 504)
  and criminal prosecution with fines and imprisonment
  (17 U.S.C. Section 506).

  Contact: jim@passionhighway.com
  Asset ID: PHI-AID-M20T-064d7a2a
  Hash: f56955f829b08fe0
-->
<svg id="Layer_1" data-name="Layer 1" xmlns="http://www.w3.org/2000/svg" viewBox="0 0 1000 286.8038">
  <metadata>
    <rdf:RDF xmlns:rdf="http://www.w3.org/1999/02/22-rdf-syntax-ns#"
             xmlns:dc="http://purl.org/dc/elements/1.1/"
             xmlns:cc="http://creativecommons.org/ns#">
      <rdf:Description>
        <dc:title>M20T Aircraft Silhouette</dc:title>
        <dc:creator>Passion Highway, Inc.</dc:creator>
        <dc:rights>Copyright (c) 2026 Passion Highway, Inc.. All Rights Reserved. Unauthorized use prohibited under 17 U.S.C. 106, 504, 506.</dc:rights>
        <dc:publisher>Passion Highway, Inc.</dc:publisher>
        <dc:identifier>PHI-AID-M20T-064d7a2a</dc:identifier>
        <dc:source>Airplane-ID.com</dc:source>
        <cc:license rdf:resource="https://airplane-id.com/terms"/>
      </rdf:Description>
    </rdf:RDF>
  </metadata>

<polygon points="829.506 179.597 737.425 166.878 737.425 182.452 827.365 182.452 829.506 179.597"/><polygon points="839.562 166.189 847.128 166.475 839.177 159.397 694.191 155.937 832.883 175.095 839.562 166.189"/><path d="M868.0063,240.2146l-6.4338-53.7668-7.8532.3862v55.452Q860.9414,241.245,868.0063,240.2146Z"/><polygon points="732.501 166.198 564.817 143.036 564.817 182.452 732.501 182.452 732.501 166.198"/><polygon points="476.299 239.729 457.462 228.489 436.513 233.823 457.781 249.466 476.299 239.729"/><path d="M509.3961,259.4753l-23.2625,10.844,10.9687,8.0675c13.6023-.71,27.0421-1.4586,40.2357-2.24Z"/><path d="M274.8274,286.3061c62.2362-1.054,140.1631-3.7267,214.5172-7.5178l-59.9805-44.1124-.0045-.0036-6.0776-4.47H404.3933a2.4657,2.4657,0,0,1-1.5892-.5819l-24.1-20.3456H312.6816v36.3154a2.472,2.472,0,0,1-1.0242,2l-36.83,26.496Z"/><path d="M493.643,182.4521h66.25V142.3559L514.8188,136.13q-10.6695-.8025-21.1758-1.6948Z"/><path d="M386.3369,209.2751l18.9557,16.0034H424.09a2.4577,2.4577,0,0,1,1.4595.4809l5.8329,4.29,20.1122-5.1209-26.2361-15.6536Z"/><path d="M942.8133,182.4524l-76.314,3.7532,6.3776,53.298c34.7444-5.0823,66.3485-9.9012,90.77-13.6932Z"/><path d="M489.1156,247.3751l-7.86-4.69L462.1916,252.71l19.4206,14.2836,22.6719-10.5683-13.181-7.8643A2.4182,2.4182,0,0,1,489.1156,247.3751Z"/><rect x="299.7558" y="199.4269" width="35.0844" height="4.9241"/><rect x="572.4289" y="204.9665" width="58.4739" height="38.6861" rx="4.3086"/><path d="M269.9033,272.827a2.4719,2.4719,0,0,1,1.0243-2l36.83-26.496V209.2751h-8.0017v32.6223a2.4625,2.4625,0,0,1-1.0964,2.0485L260.4975,269.36a2.47,2.47,0,0,1-1.3657.4136H188.3554l-7.5945,16.4713c20.9594.7153,52.09.7243,89.1424.14Z"/><path d="M214.1992,169.8244c-25.3939.0133-92.1036.9765-145.2615,9.8958v20.3222H214.1992Z"/><path d="M64.0136,180.5767C34.5368,185.8912,9.9093,193.8034,0,205.582c0,0,38.1619,21.543,57.8584,22.1585a76.8138,76.8138,0,0,0,6.1552,7.825Z"/><path d="M848.7952,187.3762h-6.1008l-19.7509.9714.7286-.9714H493.643v56.9649l52.4336,31.2846c44.2245-2.6947,85.1364-5.77,118.0641-9.1077,54.5749-5.533,122.9034-14.6621,184.6545-23.5251ZM635.827,239.344a9.2413,9.2413,0,0,1-9.2327,9.2327H576.7375a9.2413,9.2413,0,0,1-9.2327-9.2327V209.2751a9.2413,9.2413,0,0,1,9.2327-9.2327h49.8568a9.2413,9.2413,0,0,1,9.2327,9.2327Z"/><path d="M997.0676,185.0774,902.9605,0h-81.248l.3507,9.2327h41.4322a2.4567,2.4567,0,0,1,2.2168,1.397l5.7834,12.0362h29.0028a2.4621,2.4621,0,1,1,0,4.9241H873.8618l6.5948,13.7255c3.4238.2829,15.9592.0983,27.3463-.2828a2.2967,2.2967,0,0,1,2.5438,2.3779,2.463,2.463,0,0,1-2.38,2.5414c-9.7232.327-16.3592.4809-20.9082.4809-1.6906,0-3.0085-.0285-4.1761-.07l3.6435,7.5827.009.019,1.9569,4.0723c3.0583.3135,15.9387.1278,27.6065-.2626.0288-.0024.0577-.0024.0817-.0024a2.4615,2.4615,0,0,1,.0818,4.9217c-9.7232.327-16.3545.4808-20.9035.4808-1.8192,0-3.2179-.0324-4.4363-.08l5.58,11.6136c.0541.0211.1163.0139.1689.0388,2.438.3607,15.9168.1707,27.9771-.2332.0288-.0024.0577-.0024.0817-.0024a2.4615,2.4615,0,0,1,.0817,4.9217c-9.7183.327-16.35.4809-20.8986.4809-2.0771,0-3.6519-.0382-4.9578-.1l5.5577,11.5661a2.493,2.493,0,0,1,.4676.1064c2.4236.3583,15.9121.1707,27.9771-.2332.0289-.0024.0577-.0024.0818-.0024a2.4615,2.4615,0,0,1,.0817,4.9217c-9.7232.327-16.3592.4809-20.9083.4809-2.2066,0-3.8764-.04-5.2192-.11l5.5309,11.51a2.4878,2.4878,0,0,1,.7559.1719c2.4284.3607,15.9168.1708,27.9722-.2332.0289-.0024.0577-.0024.0818-.0024a2.4615,2.4615,0,0,1,.0817,4.9217c-9.7232.327-16.3544.4809-20.9034.4809-2.3359,0-4.1052-.0421-5.4808-.1205l5.5292,11.5072a2.4669,2.4669,0,0,1,.8123.1855c2.4236.3606,15.9121.1731,27.9771-.2333.0289-.0024.0577-.0024.0817-.0024a2.4615,2.4615,0,0,1,.0818,4.9218c-9.7232.3269-16.3592.4808-20.9083.4808-2.361,0-4.15-.0423-5.5315-.1223l5.5342,11.5178a2.4519,2.4519,0,0,1,1.3005.1791c2.438.3631,15.9072.1708,27.9771-.2332a2.2979,2.2979,0,0,1,2.5438,2.3779,2.463,2.463,0,0,1-2.38,2.5414c-9.7183.327-16.35.4809-20.8986.4809-2.6971,0-4.607-.06-6.052-.1635l5.5678,11.5874a2.51,2.51,0,0,1,.6429.1458c2.4236.3559,15.9168.1731,27.9771-.2332.0288-.0024.0577-.0024.0817-.0024a2.4627,2.4627,0,0,1,.0818,4.9241c-9.7377.327-16.3737.4809-20.9227.4809-2.2785,0-4.0033-.0412-5.3629-.116l3.1575,6.5711,27.73,1.0465,3.0776,9.8482L948.1467,182.19l20.58,42.83c2.9838-.4646,5.8907-.9184,8.6229-1.3464A26.7736,26.7736,0,0,0,997.0676,185.0774Z"/><path d="M488.7189,140.1965v-6.1843c-16.2384-1.4174-32.1534-2.9817-47.3947-4.7541-17.3633-2.019-33.1121-3.44-47.5767-4.3864l21.11-33.7755-6.7707-9.2327-31.0447,42.0948c-27.1936-1.1207-48.9821-.2413-66.8026,2.1045C365.1732,128.7409,462.9926,134.2012,488.7189,140.1965Z"/><path d="M184.5129,266.35l28.3026-61.3835H68.9377V240.85c16,16.1768,50.0572,41.9154,106.5249,45.1282l9.0479-19.6234Z"/><path d="M876.551,44.5575l-.0039-.0153-14.6-30.3854H822.25l1.4543,38.2966h56.6442l-3.7562-7.8168C876.5793,44.6092,876.5643,44.5852,876.551,44.5575Z"/><path d="M651.0736,149.9816l182.4169,4.3528-9.4785-8.4381c-17.2732.0856-102.6236.2723-200.2272-3.633L639.52,119.41V99.0979l-31.6014,42.4982c-8.9409-.3946-17.9677-.8388-27.0177-1.3074Z"/><path d="M219.1233,202.5044c0,.013-.0069.0235-.0072.0364a14.5218,14.5218,0,0,1-.2107.959c-.0048.0109-.003.0229-.0081.0337L190.626,264.8494h67.7605l36.4452-24.27v-43.615a2.4606,2.4606,0,0,1,2.462-2.4621h40.0085a2.4607,2.4607,0,0,1,2.4621,2.4621v7.3862h86.1721a2.48,2.48,0,0,1,1.2623.3462l31.8847,19.0239c.0144.0081.0277.0165.0415.0249l29.594,17.6573V145.2841c-25.6172-6.7809-153.8679-13.181-199.9155-15.2947-34.5413,8.45-49.8658,23.996-64.14,39.8927,0,0-1.986-.0312-5.54-.0478Zm262.2094-51.0877v36.9309H383.4658l-3.0775-44.9434Zm-108.3306-5.54v42.47H286.2145l19.0809-42.47Zm-75.7084-9.8483-24.005,52.3188-41.8551-16.6189C254.8232,147.7236,297.2937,136.0288,297.2937,136.0288Z"/><polygon points="823.891 57.378 827.107 142.063 854.854 166.766 936.761 169.857 882.715 57.378 823.891 57.378"/></svg>