<?xml version="1.0" encoding="UTF-8"?>
<!--
  Copyright (c) 2026 Passion Highway, Inc.. All Rights Reserved.

  This image is digitally signed and the hash recorded.
  Unauthorized reproduction, distribution, or use of this
  image is strictly prohibited and constitutes copyright
  infringement under 17 U.S.C. Section 106.

  Violators may be subject to civil liability including
  statutory damages up to $150,000 per work (17 U.S.C. Section 504)
  and criminal prosecution with fines and imprisonment
  (17 U.S.C. Section 506).

  Contact: jim@passionhighway.com
  Asset ID: PHI-AID-KODI-73c4d66f
  Hash: c29b045273bb398f
-->
<svg id="Layer_1" data-name="Layer 1" xmlns="http://www.w3.org/2000/svg" viewBox="0 0 1000 483.0583">
  <metadata>
    <rdf:RDF xmlns:rdf="http://www.w3.org/1999/02/22-rdf-syntax-ns#"
             xmlns:dc="http://purl.org/dc/elements/1.1/"
             xmlns:cc="http://creativecommons.org/ns#">
      <rdf:Description>
        <dc:title>KODI Aircraft Silhouette</dc:title>
        <dc:creator>Passion Highway, Inc.</dc:creator>
        <dc:rights>Copyright (c) 2026 Passion Highway, Inc.. All Rights Reserved. Unauthorized use prohibited under 17 U.S.C. 106, 504, 506.</dc:rights>
        <dc:publisher>Passion Highway, Inc.</dc:publisher>
        <dc:identifier>PHI-AID-KODI-73c4d66f</dc:identifier>
        <dc:source>Airplane-ID.com</dc:source>
        <cc:license rdf:resource="https://airplane-id.com/terms"/>
      </rdf:Description>
    </rdf:RDF>
  </metadata>

<path d="M53.7714,293.459s14.5845-83.9717-6.6294-83.9717-4.8615,78.2263-3.9776,83.9717S54.4176,300.7562,53.7714,293.459Z"/><path d="M47.7086,323.0321C36.794,342.24,35.8408,404.39,52.8874,404.39c16.2382,0,5.3573-60.4021,1.3256-80.33A3.5145,3.5145,0,0,0,47.7086,323.0321Z"/><ellipse cx="448.1438" cy="433.7801" rx="6.4153" ry="5.925"/><path d="M145.8456,336.3866l72.6282,6.64V267.9251c-6.5966.4986-37.4394,2.8807-72.6282,6.3715Zm43.6063-40.3772c9.9947,0,17.8256,5.101,17.8256,11.6152S199.4466,319.24,189.4519,319.24s-17.8255-5.1009-17.8255-11.6152S179.4573,296.0094,189.4519,296.0094Z"/><ellipse cx="189.452" cy="307.6246" rx="13.1114" ry="6.901"/><path d="M52.4455,316.4408c2.4146,0,4.6788,2.87,6.7283,7.2427V295.6109c-1.5716,5.1746-4.18,9.339-8.5327,9.339-7.26,0-13.2437-8.2341-16.6833-14.3343-1.4521.4558-2.793.9124-3.9048,1.37C0,304.3606,0,310.8426,0,310.8426s18.1268,8.4049,36.7773,17.98C40.2606,323.5146,46.0941,316.4408,52.4455,316.4408Z"/><polygon points="819.454 165.463 650.544 205.962 798.113 218.191 819.454 165.463"/><path d="M876.2522,239.2457a7.9632,7.9632,0,0,0,7.9552,7.9552h88.4031c4.3145-6.0035,7.4992-11.576,8.8829-15.91h-97.286A7.9631,7.9631,0,0,0,876.2522,239.2457Z"/><ellipse cx="104.5963" cy="302.4454" rx="11.1962" ry="4.8615"/><polygon points="965.913 226.576 1000 5.303 977.947 3.865 904.264 226.576 965.913 226.576"/><path d="M104.5963,292.87c7.7,0,13.7476,2.9811,15.4121,7.2185h21.123v-25.32c-26.6215,2.688-55.1375,5.9794-77.2434,9.55v15.77H89.1843C90.8488,295.8509,96.8961,292.87,104.5963,292.87Z"/><polygon points="963.197 33.441 973.087 3.548 940.459 1.42 933.126 33.441 963.197 33.441"/><path d="M145.8456,367.9039c19.7554,2.4264,41.8109,4.4751,63.8532,5.954l-66.76,24.5488.4186-8.9223a2.3416,2.3416,0,0,1-2.2256-2.3306V304.8025h-21.123c-1.6645,4.2375-7.7118,7.2187-15.4121,7.2187s-13.7475-2.9812-15.412-7.2187H63.888v32.4312c.7012,2.5453,1.3532,5.1544,1.9506,7.721,1.5831,1.001,2.9846,1.9442,4.2851,2.8546V326.4676a2.3558,2.3558,0,0,1,2.3571-2.3571h56.2758a2.3571,2.3571,0,0,1,0,4.7142H74.8379v22.7188c.1871.18.4276.3775.5893.5484,4.6092,4.8652,26.8092,9.84,56.57,14.0094V426.046a28.7175,28.7175,0,1,0,9.4834,3.421l1.2174-25.9456,75.7754-27.8637V347.7618l-72.6282-6.64Zm-18.7095,98.802a12.3748,12.3748,0,1,1,12.3748-12.3747A12.3747,12.3747,0,0,1,127.1361,466.7059Z"/><path d="M363.2881,363.0671c0,1.2522,7.3015,5.3772,23.4237,5.3772,15.7675,0,23.0482-3.9287,23.363-5.2733l-.9817-1.2125c-2.46-1.6988-9.616-4.2685-22.3813-4.2685C370.59,357.69,363.2881,361.815,363.2881,363.0671Z"/><path d="M413.0828,366.8856c-4.26,4.2783-15.6268,6.2729-26.371,6.2729-13.551,0-28.1379-3.1582-28.1379-10.0914a4.82,4.82,0,0,1,.5948-2.2834H274.6022a2.3558,2.3558,0,0,1-2.3571-2.3571V280.2a2.3671,2.3671,0,0,1,.5939-1.5653l44.2923-49.9618c-6.8563-3.5615-12.6115-7.03-16.2352-9.3107-15.371,3.4885-31.0541,8.88-43.3828,17.2314-20.8284,14.1095-30.1463,22.2679-34.3253,26.6869V374.6949c14.2419.8,28.2708,1.3507,41.3966,1.5573,41.58.6548,101.5251.4,156.2.1453Zm-187.39-95.9664s49.4991-44.6375,76.4585-44.6375l8.8391,7.5132-45.5216,48.1732S252.21,283.294,225.6924,270.9192Z"/><path d="M647.908,237.7725H544.7849a6.7838,6.7838,0,0,0-6.7767,6.7767V352.9758a6.7823,6.7823,0,0,0,6.7767,6.7766H647.908a6.7823,6.7823,0,0,0,6.7767-6.7766V244.5492A6.7838,6.7838,0,0,0,647.908,237.7725Zm-67.7666,39.3019a4.9353,4.9353,0,0,1-4.9352,4.9352h-26.812a4.9353,4.9353,0,0,1-4.9352-4.9352V254.4932a4.9351,4.9351,0,0,1,4.9352-4.9352h26.812a4.9351,4.9351,0,0,1,4.9352,4.9352Zm61.432,30.5272H618.5916v-9.723h22.9818Zm2.21-32.3365A4.935,4.935,0,0,1,638.848,280.2H612.0359a4.9351,4.9351,0,0,1-4.9351-4.9352V254.4932a4.9351,4.9351,0,0,1,4.9351-4.9352H638.848a4.935,4.935,0,0,1,4.9351,4.9352Z"/><path d="M871.538,239.2457a12.6849,12.6849,0,0,1,12.6694-12.6694H899.299L961.6373,38.1555H930.1708a2.36,2.36,0,0,1-2.2972-2.8842L935.6951,1.11,918.68,0,829.8905,152.25l-28.0573,69.3179a2.3631,2.3631,0,0,1-2.1868,1.4731,1.8125,1.8125,0,0,1-.1933-.0092l-163.565-13.5551-14.792,3.5466h-130.23s-53.624-15.91-90.7483-13.5533-40.0708,13.5533-40.0708,13.5533a283.1318,283.1318,0,0,0-52.3836,4.92c8.5727,5.096,22.6316,12.7278,36.0126,16.7385,3.7333-4.71,17.408-20.2071,39.2607-25.279,24.8923-5.7869,105.4964,5.2321,108.9146,5.7063a2.3654,2.3654,0,0,1,.64.1819l21.73,9.723c.0362.0161.0581.0486.0932.0665a2.244,2.244,0,0,1,.5524.3944c.05.0475.1045.0855.15.1367a2.3722,2.3722,0,0,1,.3567.5732c.0277.0595.07.11.093.1715.0052.0144.0161.0244.021.0388l5.3035,15.3212a2.3606,2.3606,0,0,1-2.1638,3.1282L381.2127,248.723V353.1548c1.8271-.1163,3.6715-.179,5.4991-.179,12.048,0,24.888,2.5044,27.5941,7.93l12.5218,15.463q7.1308-.0333,14.0975-.0651v25.2272c-16.2284,3.0825-28.4326,16.3487-28.4326,32.2487,0,18.1844,15.9617,32.9258,35.6511,32.9258s35.6512-14.7414,35.6512-32.9258c0-13.5415-8.8575-25.1627-21.5085-30.22V380.5244l3.1-4.3223c25.74-.0941,48.2967-.1191,64.3723.05,55.9811.5892,133.1762,7.66,195.05-15.3212s185.6217-65.9988,205.657-74.838c11.7576-5.1872,27.5348-20.1078,38.5973-34.1779H884.2074A12.685,12.685,0,0,1,871.538,239.2457ZM435.99,282.01H407.41a4.9353,4.9353,0,0,1-4.9351-4.9352V254.4932a4.9351,4.9351,0,0,1,4.9351-4.9352h28.58a4.9351,4.9351,0,0,1,4.9352,4.9352v22.5812A4.9353,4.9353,0,0,1,435.99,282.01Zm12.1537,164.8321c-7.8107,0-14.1426-5.8478-14.1426-13.0616s6.3319-13.0616,14.1426-13.0616,14.1427,5.8479,14.1427,13.0616S455.9546,446.8417,448.1437,446.8417Zm67.4721-169.7673a4.9353,4.9353,0,0,1-4.9352,4.9352H472.3777a4.9353,4.9353,0,0,1-4.9352-4.9352V254.4932a4.9351,4.9351,0,0,1,4.9352-4.9352h38.3029a4.9351,4.9351,0,0,1,4.9352,4.9352Zm143.7831,75.9014a11.5056,11.5056,0,0,1-11.4909,11.4908H544.7849a11.5056,11.5056,0,0,1-11.4909-11.4908V244.5492a11.5042,11.5042,0,0,1,11.4909-11.4909H647.908a11.5041,11.5041,0,0,1,11.4909,11.4909Z"/><path d="M276.9593,281.0934V356.07h83.6886L361.2,246.851a2.36,2.36,0,0,1,2.29-2.3456l151.7936-4.2837-3.6369-10.508c-16.9417,1.8461-133.7448,14.3889-156.5423,12.1722-10.7773-1.0519-23.0946-5.872-33.621-11.0167Zm71.8916,37.7045a2.3557,2.3557,0,0,1-2.3571,2.3571h-23.571a2.3558,2.3558,0,0,1-2.3571-2.3571V307.8962a2.3558,2.3558,0,0,1,2.3571-2.3571h23.571a2.3557,2.3557,0,0,1,2.3571,2.3571Zm9.87-64.6523v30.0323H283.1467v-8.3971l34.4726-36.24Z"/><path d="M365.3618,356.203a46.7339,46.7339,0,0,1,11.1367-2.6115V248.8559l-10.5954.2993Z"/><path d="M504.3378,225.7565l-13.4624-6.0237c-2.7392-.37-21.7744-2.9017-43.4866-4.8793l15.7386,15.1177C480.3893,228.28,495.4052,226.7086,504.3378,225.7565Z"/><path d="M384.0049,213.992a63.7686,63.7686,0,0,0-23.4326,11.1243l42.4436,10a2.2205,2.2205,0,0,1,.3743.1721c17.0775-1.3057,36.1513-3.0361,53.5611-4.7165l-17.0392-16.3673C417.99,212.4066,394.9545,211.4562,384.0049,213.992Z"/><path d="M348.7263,236.0124a55.4731,55.4731,0,0,0,6.8345,1.1823c5.6407.5487,17.51.1332,32.2792-.8094l-31.9365-7.5242A74.0354,74.0354,0,0,0,348.7263,236.0124Z"/><rect x="325.2799" y="310.2533" width="18.8568" height="6.1874"/></svg>