<svg id="Layer_1" data-name="Layer 1" xmlns="http://www.w3.org/2000/svg" viewBox="0 0 1000 304.2247"><path d="M181.2312,272.3245l-2.03-26.68h.0961v-64.75H110.0464v47.0592c1.4292.1,2.8623.1991,4.3555.2694,12.6122.5949,31.2264,1.2139,52.8455,1.8227v15.5989l-11.76,7.84,12.5314,15.5064a17.7583,17.7583,0,1,0,13.212,3.3337Zm-10.6084,25.1494A10.9974,10.9974,0,1,1,181.62,286.4765,10.9974,10.9974,0,0,1,170.6228,297.4739Z"/><path d="M414.67,256.7027l-3.0842-28.9152H386.324v48.1271c0,11.1851,9.75,20.2526,21.777,20.2526s21.777-9.0675,21.777-20.2526C429.878,266.8732,423.464,259.3057,414.67,256.7027Zm-6.5686,31.7686c-7.4569,0-13.5017-5.6218-13.5017-12.5567s6.0448-12.5566,13.5017-12.5566,13.5018,5.6217,13.5018,12.5566S415.558,288.4713,408.101,288.4713Z"/><path d="M394.3974,200.7114a2.3205,2.3205,0,0,1,.9323-3.9834c1.5409-.414,29.77-7.9574,52.6893-11.4587-3.3505-3.944-6.1662-7.2213-8.1377-9.5034l-64.4548,8.404L358.418,234.2216c13.6815.2481,21.9537.3893,21.9537.3893V222.9965h32.5118A115.9267,115.9267,0,0,0,394.3974,200.7114Z"/><path d="M807.3685,112.19l63.512-84.8438-9.672-.9454L828.3972,68.8154l-185.1978,28.15c16.14,1.3174,35.8589,2.7272,59.6035,4.0843C738.114,103.0676,775.9353,107.6569,807.3685,112.19Z"/><path d="M373.3939,179.751l63.0816-8.2262a2.2654,2.2654,0,0,1-.0961-1.5122L442.623,150.82V138.72a8.0236,8.0236,0,0,1,.2229-1.8147h-14.39l-23.6938,33.0035a2.3252,2.3252,0,0,1-1.8873.9686H364.4291l-23.0224,63.0314c4.339.0811,8.3938.1556,12.1325.2243l17.9538-52.8254A2.3383,2.3383,0,0,1,373.3939,179.751Z"/><path d="M420.6838,227.15l60.0954-1.5686c-3.6442-4.8046-7.6678-9.9125-11.7646-14.9975l-56.41,3.6468c1.9469,2.66,3.8512,5.6464,5.6881,8.7655h.9876v1.7155C419.7427,225.536,420.24,226.3,420.6838,227.15Z"/><path d="M400.5608,200.1624a121.633,121.633,0,0,1,8.6464,9.6324l56.22-3.6346c-4.8281-5.9226-9.62-11.6728-13.8627-16.7034C433.1956,192.0417,409.818,197.7939,400.5608,200.1624Z"/><path d="M47.619,174.5759c8.1849-3.3726,24.7212-3.5992,28.8909-3.5992s20.706.2266,28.8908,3.5992V147.5551c-19.5953,2.3575-40.0195,5.5083-57.7817,9.6621Z"/><path d="M920.3824,32.1846l-44.0922-4.31-63.6864,85.0767c32.2813,4.7532,56.9287,9.2813,63.5486,10.5241Z"/><path d="M47.619,183.9734v15.3514c3.3644,7.0353,15.8028,24.1637,57.7817,28.2372V183.9734c-8.1848,3.3726-24.7212,3.5992-28.8908,3.5992S55.8039,187.346,47.619,183.9734Z"/><path d="M0,178.8618s14.524,13.9135,42.9733,17.0612V158.3381C22.1675,163.5632,5.7278,170.27,0,178.8618Z"/><path d="M179.2973,141.3362c-10.7646.5345-38.53,2.14-69.2509,5.6708v29.2416h69.2509Z"/><path d="M183.9431,245.6446H253.194V232.1372c7.39.16,14.72.3159,21.9221.4656V210.5111h-91.173Z"/><path d="M104.8018,179.2746c-2.8015-1.4835-12.44-3.6521-28.2919-3.6521s-25.4905,2.1686-28.292,3.6521c2.8038,1.4791,12.4424,3.6522,28.292,3.6522S101.998,180.7537,104.8018,179.2746Z"/><path d="M879.56,127.1006c-.0281.0578-.0908.0822-.1231.1366a2.1865,2.1865,0,0,1-.1854.342l-15.2434,18.2073-3.0678,24.35,50.7906-8.1159L959.3771,37.1366l-34.0907-4.4192Z"/><path d="M787.588,167.2814c-9.9539,3.1985-95.8143,24.4243-129.31,32.6723l31.2633,3.1112c8.0549-1.6951,17.7434-3.35,30.5516-5.0393,52.8455-6.9687,72.59-7.5494,72.59-7.5494l3.4685-5.6759,8.4774-22.387C796.9323,164.5219,790.6357,166.3012,787.588,167.2814Z"/><path d="M803.1781,179.3668,856.1612,170.9l2.8937-22.9688c-8.3527,2.1837-30.9308,8.1032-48.8843,12.9715Z"/><path d="M991.2892,0H846.69a11.3237,11.3237,0,0,0-2.31,22.4093,2.351,2.351,0,0,1,2.5369-2.0728l77.2358,7.5494c.01.0011.019.0091.0295.01.015.0014.0281-.0051.0431-.0034L961.0813,32.67l5.8177-15.2487h24.39a8.7108,8.7108,0,0,0,0-17.4216ZM942.9533,20.7222c-3.0714.1815-6.5149.2722-10.2306.2722-5.9524,0-12.5853-.2314-19.4587-.6851-16.3373-1.082-43.681-3.8767-43.25-10.4325.1724-2.5951,2.6677-4.3463,14.5588-5.0473a250.4009,250.4009,0,0,1,29.6893.4129c16.3373,1.082,43.6811,3.8767,43.25,10.4325C957.34,18.27,954.8445,20.0212,942.9533,20.7222Z"/><path d="M876.7966,10.3259c5.3127,1.7853,18.388,4.1309,36.7759,5.3467,18.388,1.225,31.6538.6239,37.157-.4468-5.3127-1.7853-18.3879-4.1309-36.7759-5.3468C895.57,8.6586,882.3,9.26,876.7966,10.3259Z"/><path d="M582.7526,209.7851a5.0845,5.0845,0,0,0,5.0813-5.0812V125.4355a5.086,5.086,0,0,0-5.0813-5.0813h-87.108a5.0875,5.0875,0,0,0-5.0813,5.0813v62.1893c27.6131,6.9658,64.5373,20.4828,69.0847,22.16Zm-52.2648-58.87a8.0574,8.0574,0,0,1-8.0575,8.0575h-7.84a8.0574,8.0574,0,0,1-8.0575-8.0575V138.72a8.0574,8.0574,0,0,1,8.0575-8.0575h7.84a8.0574,8.0574,0,0,1,8.0575,8.0575Z"/><path d="M702.54,105.6865c-34.1626-1.952-60.1473-4.0165-78.8582-5.7544l-13.0544,1.9843s-25.8564-.2581-63.4308-.5544l9.8594-21.6582h-11.324l-12.3658,21.5519c-96.3312-.7245-250.55-1.5176-267.9768.6607-25.5517,3.1939-62.1371,26.4227-81.3008,39.1986l-.1452.0059v64.7444H277.439a2.3215,2.3215,0,0,1,2.3229,2.3229v24.5107c20.896.4313,40.4888.8121,56.7308,1.1175l24.13-66.0586a2.325,2.325,0,0,1,2.1823-1.5267h38.8787l23.6938-33.0035a2.3254,2.3254,0,0,1,1.8874-.9686h18.6429a7.9885,7.9885,0,0,1,4.7728-1.597h7.84a8.0576,8.0576,0,0,1,8.0575,8.0575v12.1951a8.0576,8.0576,0,0,1-8.0575,8.0575h-7.84a7.9857,7.9857,0,0,1-5.1922-1.9429l-4.2839,13.1672c1.8813,2.1609,6.4752,7.4651,12.27,14.3076a108.1676,108.1676,0,0,1,13.1022-.9965c4.6787,0,11.4968,1.1615,19.3407,2.9893V125.4355a9.7393,9.7393,0,0,1,9.7271-9.727h87.108a9.7393,9.7393,0,0,1,9.7271,9.727v79.2684a9.7393,9.7393,0,0,1-9.7271,9.727h-87.108a9.7393,9.7393,0,0,1-9.7271-9.727V191.2614c-7.9358-1.8965-14.7845-3.1081-19.3407-3.1081a91.2591,91.2591,0,0,0-9.5016.6173c10.5151,12.5127,23.7038,28.6515,32.7463,41.25,1.3906.0508,3.7424.1294,6.904.2082l20.2606,21.9491h8.7108l-11.2373-21.7c27.7322.11,71.8587-1.006,103.4266-8.0623,29.7942-6.66,41.6128-11.6263,57.9157-16.05l-31.434-3.1271a2.3207,2.3207,0,0,1-.3221-4.5641c1.2976-.3221,130.14-31.9668,142.1176-35.8163,11.5555-3.7135,66.9825-18.1884,74.3186-20.1007L873.139,127.64C854.7182,124.2307,773.5109,109.7431,702.54,105.6865ZM197.7352,139.3728l39.1986-23.0836h13.9373l-39.6342,31.3589Zm79.7038,11.76h-60.54l40.07-33.101h20.47Zm58.5075,60.9756a2.3215,2.3215,0,0,1-2.3228,2.3229H288.7631a2.3216,2.3216,0,0,1-2.3229-2.3229V118.0314a2.3215,2.3215,0,0,1,2.3229-2.3229h44.8606a2.3215,2.3215,0,0,1,2.3228,2.3229Zm32-61.1934a8.0574,8.0574,0,0,1-8.0575,8.0575h-7.84a8.0573,8.0573,0,0,1-8.0574-8.0575V138.72a8.0573,8.0573,0,0,1,8.0574-8.0575h7.84a8.0574,8.0574,0,0,1,8.0575,8.0575Zm38.63,0a8.0574,8.0574,0,0,1-8.0575,8.0575h-7.84a8.0573,8.0573,0,0,1-8.0574-8.0575V138.72a8.0573,8.0573,0,0,1,8.0574-8.0575h7.84a8.0574,8.0574,0,0,1,8.0575,8.0575Z"/><rect x="291.0859" y="120.3542" width="40.2148" height="89.4309"/><path d="M422.9128,231.7411a73.1446,73.1446,0,0,1,2.97,7.8122c5.5236,2.9365,15.0323,6.0913,30.5635,6.0913,19.81,0,27.4461-7.2933,30.3052-11.9314-.8342-1.1722-1.654-2.3317-2.5659-3.5714Z"/><path d="M490.5633,204.7039a5.086,5.086,0,0,0,5.0813,5.0812h50.2243c-13.89-4.8754-36.7416-12.5858-55.3056-17.3668Z"/><circle cx="170.6228" cy="286.4765" r="6.1783"/><circle cx="408.101" cy="275.9146" r="7.8819"/></svg>