<?xml version="1.0" encoding="UTF-8"?>
<!--
  Copyright (c) 2026 Passion Highway, Inc.. All Rights Reserved.

  This image is digitally signed and the hash recorded.
  Unauthorized reproduction, distribution, or use of this
  image is strictly prohibited and constitutes copyright
  infringement under 17 U.S.C. Section 106.

  Violators may be subject to civil liability including
  statutory damages up to $150,000 per work (17 U.S.C. Section 504)
  and criminal prosecution with fines and imprisonment
  (17 U.S.C. Section 506).

  Contact: jim@passionhighway.com
  Asset ID: PHI-AID-GSIS-b0b75922
  Hash: 6f68f18790a99a80
-->
<svg id="Layer_1" data-name="Layer 1" xmlns="http://www.w3.org/2000/svg" viewBox="0 0 1000 413.974">
  <metadata>
    <rdf:RDF xmlns:rdf="http://www.w3.org/1999/02/22-rdf-syntax-ns#"
             xmlns:dc="http://purl.org/dc/elements/1.1/"
             xmlns:cc="http://creativecommons.org/ns#">
      <rdf:Description>
        <dc:title>GSIS Aircraft Silhouette</dc:title>
        <dc:creator>Passion Highway, Inc.</dc:creator>
        <dc:rights>Copyright (c) 2026 Passion Highway, Inc.. All Rights Reserved. Unauthorized use prohibited under 17 U.S.C. 106, 504, 506.</dc:rights>
        <dc:publisher>Passion Highway, Inc.</dc:publisher>
        <dc:identifier>PHI-AID-GSIS-b0b75922</dc:identifier>
        <dc:source>Airplane-ID.com</dc:source>
        <cc:license rdf:resource="https://airplane-id.com/terms"/>
      </rdf:Description>
    </rdf:RDF>
  </metadata>

<path d="M913.6024,150.0408l2.5761.1429A2.1512,2.1512,0,0,0,913.6024,150.0408Z"/><polygon points="413.292 361.386 413.292 345.881 354.254 345.881 362.006 361.386 413.292 361.386"/><path d="M471.1374,365.8584c16.1013,0,38.7625-17.5922,38.7625-17.5922H436.8474C435.939,358.1807,455.036,365.8584,471.1374,365.8584Z"/><path d="M792.9975,138.543c15.171,7.49,38.8816,18.7017,47.8984,20.7053,5.391,1.145,32.2027,1.3834,62.64,1.24,6.059-5.9157,9.3505-9.8278,9.4461-9.9233a3.2875,3.2875,0,0,1,.62-.5247l-88.2593-4.2461-10.114-8.6351,107.0561,3.6736V1.8129L873.6711,0Z"/><path d="M916.3218,150.2315a2.3214,2.3214,0,0,1,.3339,3.34c-.0955.0955-2.29,2.7194-6.3452,6.9177,3.96-.0478,7.9671-.0478,11.9747-.0955V150.47l-6.059-.2863C916.274,150.1837,916.274,150.1837,916.3218,150.2315Z"/><path d="M927.056,160.3455c29.0063-.2862,57.2492-.7154,70.5118-.9542q.2149-2.6478.4295-5.2955l-70.9413-3.3871Z"/><path d="M995.3257,4.4845l-68.27-2.5286v139.02l71.657,2.4809c.2863-5.4388.5725-10.925.7632-16.4592C1001.8616,63.2127,995.3257,4.4845,995.3257,4.4845Z"/><polygon points="564.191 130.624 559.707 108.249 445.208 101.999 436.335 109.394 445.113 114.88 564.191 130.624"/><path d="M333.2859,268.642a99.2176,99.2176,0,0,0,2.1947-12.5471L323.3151,268.26Z"/><polygon points="927.056 169.362 927.056 172.272 932.685 169.362 927.056 169.362"/><path d="M845.4282,207.29c-26.5732,12.4994-69.7964,42.9847-101.3311,65.2163-19.8466,14.0261-35.5423,25.0943-41.2195,27.5752-12.3087,5.391-113.2581,34.2541-160.6318,34.2541-8.4443,0-15.1713-.9064-19.417-3.0056C479.6056,309.6705,446.067,306.14,420.4,320.548a2.3911,2.3911,0,1,1-2.29-4.1983c26.0482-14.5985,59.3962-11.8791,101.6651,8.2059,105.5772-12.0224,190.4013-57.5358,239.0632-89.9292L599.972,307.7146l-11.6407,1.0495,8.4919-136.73,4.914-2.6716,3.5781-17.27,208.0054,11.8314,13.74,5.4387,10.21,29.1971-54.1,24.9036a.1483.1483,0,0,0-.0955.0474c-41.6965,30.7238-134.345,88.975-254.7592,104.7185,32.3459,8.8261,159.63-26.86,172.6541-32.5367,5.2-2.29,21.5163-13.7873,40.3609-27.0979,31.7254-22.3272,75.0918-52.9555,102.0468-65.5981a220.7379,220.7379,0,0,0,50.6178-33.6339H851.3439L797.1,153.2371l-74.4242-7.2517-13.2626,8.11a2.3651,2.3651,0,0,1-1.24.3817c-.0956,0-.1908-.0477-.2863-.0477l-263.919-34.8743a3.2385,3.2385,0,0,1-.9542-.334l-16.7455-10.4958c-24.3308-6.44-97.085-24.6648-137.6365-24.6648-49.1867,0-73.3267,39.4066-73.3267,39.4066l10.7342.8587c.0477,0,141.3579,8.6829,202.1852,12.8334,60.78,4.1506,128.1906,9.5416,128.1906,9.5416l-62.02,52.4784S455.036,147.3214,394.2087,141.31c-45.7993-4.4846-122.704-5.9157-157.9123-6.3452C210.2,154.1436,147.7031,200.9925,108.869,237.06c0,0-84.3949,11.5929-108.869,47.9939,0,0,36.3055,32.0594,96.4651,44.3681L68.6037,374.8394c-27.8614,0-46.515,13.4059-46.515,13.4059s21.4684,25.0465,49.4728,24.9987c37.0213,0,60.2549-14.3123,60.2549-14.3123-17.4134-13.8828-34.0634-20.4665-48.9482-22.9l29.9606-43.8911c6.4882.8587,13.2149,1.5266,20.18,1.8129,31.5682,1.3828,94.31,2.3839,159.4469,3.1474l.0876.2874h26.764c34.7791.334,69.0809.62,98.6117.8112l1.5267,29.4833c-43.7956,4.5323-65.1686,24.7126-65.1686,24.7126s32.7752,26.2392,73.9469,20.8482c41.124-5.3432,91.2171-30.39,91.2171-30.39-34.2541-12.6427-63.022-16.6022-86.4463-16.03V338.2951c43.0324.2863,72.7065.43,72.7065.43s161.6337-2.3853,212.9194-35.2083c51.2858-32.7751,121.0344-85.8738,121.0344-85.8738l82.63-42.8892v-5.391H901.1507C888.7466,180.7168,869.4728,195.9833,845.4282,207.29ZM342.3505,146.7012v55.77l-56.6768-55.77ZM298.91,332.843l85.7577-57.3788-48.0895-1.9081c-6.2019,21.6114-20.8,44.702-54.6728,50.236a308.9766,308.9766,0,0,1-49.6161,4.1506c-35.4468,0-55.9611-6.8222-57.106-7.2517a2.41,2.41,0,0,1-1.6222-2.2421V260.9612l-1.8129,2.6238C130.0512,250.4654,124.04,234.96,124.04,234.96c61.4475-58.4419,116.8839-93.65,116.8839-93.65L248.7,152.6646,178.3314,254.0912v10.257l72.7542-103.9549,42.937,128.2383s-65.36,3.4825-115.6912-19.7988v47.8509c8.0626,2.3376,45.847,11.6885,102.7623,2.3854,31.2487-5.1048,44.9883-25.81,50.9043-45.7041l-13.2629-.5247-13.4058,13.4059-42.3167-139.545h14.3123l80.4828,87.0665L340.49,251.0856a110.3545,110.3545,0,0,1-2.7194,17.7472l53.6712,2.0991,10.4-6.9651-35.399-36.9735-2.0514,5.5817s-16.1252-16.0775-16.1252-30.1035V152.0922h45.9425l-25.9052,69.9393,37.5459,39.2636L577.12,146.7012l20.4665,5.391L402.8916,272.4586a2.1911,2.1911,0,0,1,.3817,1.3359,2.3737,2.3737,0,0,1-2.3854,2.29h-.0955l-3.53-.143-63.8807,39.5019L581.08,180.6213,572.9218,310.1l-60.0641,5.3433,17.3179-82.8683H500.3583L324.9839,334.1027Z"/><polygon points="714.804 145.222 600.974 134.154 607.701 53.671 600.544 40.552 583.37 132.484 564.191 130.624 707.648 149.611 714.804 145.222"/><path d="M844.3785,225.4666l16.1729,26.8117h61.7338V186.537c-2.6716,1.0974-5.1525,2.1469-7.4424,3.1011C900.34,195.6016,864.034,214.9231,844.3785,225.4666Z"/><path d="M927.056,184.5333v67.745h58.7281s6.7745-36.7827,10.925-82.916H962.312C952.9135,173.4651,939.0784,179.4286,927.056,184.5333Z"/></svg>