<?xml version="1.0" encoding="UTF-8"?>
<!--
  Copyright (c) 2026 Passion Highway, Inc.. All Rights Reserved.

  This image is digitally signed and the hash recorded.
  Unauthorized reproduction, distribution, or use of this
  image is strictly prohibited and constitutes copyright
  infringement under 17 U.S.C. Section 106.

  Violators may be subject to civil liability including
  statutory damages up to $150,000 per work (17 U.S.C. Section 504)
  and criminal prosecution with fines and imprisonment
  (17 U.S.C. Section 506).

  Contact: jim@passionhighway.com
  Asset ID: PHI-AID-EC20-168b8e14
  Hash: 68d2f167de7a6c42
-->
<svg id="Layer_1" data-name="Layer 1" xmlns="http://www.w3.org/2000/svg" viewBox="0 0 1000 355.7112">
  <metadata>
    <rdf:RDF xmlns:rdf="http://www.w3.org/1999/02/22-rdf-syntax-ns#"
             xmlns:dc="http://purl.org/dc/elements/1.1/"
             xmlns:cc="http://creativecommons.org/ns#">
      <rdf:Description>
        <dc:title>EC20 Aircraft Silhouette</dc:title>
        <dc:creator>Passion Highway, Inc.</dc:creator>
        <dc:rights>Copyright (c) 2026 Passion Highway, Inc.. All Rights Reserved. Unauthorized use prohibited under 17 U.S.C. 106, 504, 506.</dc:rights>
        <dc:publisher>Passion Highway, Inc.</dc:publisher>
        <dc:identifier>PHI-AID-EC20-168b8e14</dc:identifier>
        <dc:source>Airplane-ID.com</dc:source>
        <cc:license rdf:resource="https://airplane-id.com/terms"/>
      </rdf:Description>
    </rdf:RDF>
  </metadata>

<path d="M952.5686,204.32l.0487.3893a7.6647,7.6647,0,0,0,.73-1.1678Z"/><polygon points="337.468 62.609 337.468 67.474 359.36 67.474 359.36 62.609 378.235 62.609 815.455 46.799 831.266 34.321 376.386 46.799 318.058 46.799 0 57.137 5.473 67.474 316.209 62.609 337.468 62.609"/><path d="M349.9708,28.5561h-5.4972a28.19,28.19,0,0,0-22.767,11.5295h51.0313A28.19,28.19,0,0,0,349.9708,28.5561Z"/><polygon points="380.084 160.197 380.084 143.316 352.695 143.316 352.695 160.683 380.084 160.197"/><path d="M309.01,148.4239l-9.0486-10.4107c-11.7727-8.027-43.1017-10.8-75.5983-11.3837L189.7743,267.3186l91.0682,1.362Zm-101.4791,58.231,16.2484-64.4094H249.465L241.7786,196.78Zm46.8477-64.4094h38.7236l4.8647,38.3344-51.0312,14.6916Z"/><polygon points="322.68 164.186 312.95 152.948 285.805 268.729 295.68 268.875 322.68 164.186"/><path d="M228.0113,111.89l-2.4324,9.8753c30.6966.6324,60.4689,3.3083,74.4307,10.6538l8.9026-36.68-23.3994-.4863C263.1834,102.4031,245.9135,107.7059,228.0113,111.89Z"/><path d="M226.3087,86.3982l-32.3508,31.8641c-.73.0974-1.3619.1945-2.0918.2919a106.5049,106.5049,0,0,0-15.2267,3.6972c13.4755-.4866,28.7022-.73,43.9289-.535l2.1405-8.6107c-6.6163,1.4106-13.33,2.7242-20.5294,3.8917l27.5831-27.0967a2.46,2.46,0,0,0-3.4538-3.5025Z"/><path d="M935.25,0,923.1369,18.1942h65.8687C993.1408,8.4646,996.9839,1.5081,1000,0Z"/><path d="M488.2272,158.3966l-16.3942-59.35L313.8744,95.8358l-9.5837,39.6963,22.1346,25.5887,21.405-.3892V140.8835a2.4086,2.4086,0,0,1,2.4324-2.4323h32.2534a2.4393,2.4393,0,0,1,2.4324,2.4323v19.2156Z"/><path d="M186.6608,272.1347h-.0974l-27.2425-.3893v23.1563c16.2968,1.9944,33.2751,3.6973,48.0638,4.281q15.3969.6565,30.794.9243l-5.0108-27.2912-46.41-.6811Z"/><path d="M337.4684,72.0471v7.2484c-3.6486.7786-7.2,1.7029-10.6052,2.773-9.8756,3.1135-18.8753,5.9835-27.1454,8.6107L473.779,94.23a2.3822,2.3822,0,0,1,2.2863,1.8l17.1728,62.2689,9.8266-.1945-6.1781-38.1883h-1.8973c-3.0648-7.5893-2.4811-16.8808,6.081-27.8265,0,0-78.76-21.4535-141.71-16.0537V72.0471Z"/><path d="M528.8965,128.1376a8.242,8.242,0,0,0-8.2211-8.2212h-18.924l5.8378,35.7559,13.767-12.6482a77.06,77.06,0,0,1-11.9671-6.665h11.2863A8.2421,8.2421,0,0,0,528.8965,128.1376Z"/><path d="M413.1153,269.9942,407.57,164.6233l-55.9934.9243a2.491,2.491,0,0,1-1.3136.438,2.2855,2.2855,0,0,1-1.2649-.3893l-21.794.3406-26.513,103.0356,109.2139,1.6054C410.9261,270.4318,412.0452,270.1886,413.1153,269.9942Z"/><path d="M946.3419,212.8819a43.4658,43.4658,0,0,1-32.9833,14.4969,56.7251,56.7251,0,0,1-25.4426-6.3241l35.902,37.1181,38.772-1.8973-9.9727-51.5663A52.93,52.93,0,0,1,946.3419,212.8819Z"/><path d="M963.3685,171.4341c.4377,5.74-2.3353,19.6051-9.973,32.0589l33.8589-32.9345L968.4765,131.154C965.2655,143.8023,962.7845,163.1639,963.3685,171.4341Z"/><rect x="415.3045" y="197.6065" width="24.3238" height="10.1675"/><path d="M847.4412,183.0609a2.4237,2.4237,0,0,1,4.1349-2.53c.2432.3892,26.513,41.9829,61.7825,41.9829a38.7484,38.7484,0,0,0,29.4318-12.94c12.2106-13.1349,16.151-32.0589,15.7134-37.7992-.438-6.7134,1.8483-32.6427,6.8591-47.14L958.99,111.257s.6811-2.481,1.8486-6.6647H865.6841l-29.87,44.95-279.4319-4.8648v51.6637h108.29a2.4324,2.4324,0,1,1,0,4.8648H554.7771c-8.8052,6.4215-91.7006,65.9661-144.5318,74.1876l-127.3594-1.8487h-.3406l-44.4153-.6324,4.9619,27.2428c52.2962.827,104.641-2.1892,157.57-15.7617l1.07,29.383H160.391l-15.3725-20.7239c3.1135.4379,6.227.8269,9.4376,1.2162V271.648l-59.204-.8756-2.9678,8.7081H92.09c-43.8316-11.0918-62.5608-31.7183-55.6529-61.2474,7.7351-33.3722,74.48-65.0419,103.5709-77.35L96.9546,265.9563l87.8089,1.3136,34.5886-140.6888c-21.4537-.1947-43.0533.4864-59.4475,1.2162C114.76,144.24,43.2478,179.7529,31.67,217.1143c-6.7621,22.0372.827,52.2961,59.2528,67.0362,2.53.6811,22.4264,4.33,47.334,7.93l46.4584,62.6581a2.4661,2.4661,0,0,0,1.946.973H431.7474a2.4324,2.4324,0,1,0,0-4.8648H407.9587l-1.1675-32.2046h12.2106a2.4716,2.4716,0,0,0,2.4324-2.4324,2.4393,2.4393,0,0,0-2.4324-2.4324H406.5967L405.4776,283.08c2.6759-.73,5.3514-1.4107,8.027-2.1892,69.3228-20.0428,144.1428-69.2742,144.1428-69.2742l286.3884-21.0157L906.9858,259l10.3133-.4864-51.7124-53.561A124.2538,124.2538,0,0,1,847.4412,183.0609Zm62.9013-61.4419c24.81,0,44.95,18.7779,44.95,41.9342s-20.14,41.9342-44.95,41.9342c-24.8588,0-45.0477-18.7779-45.0477-41.9342S885.4837,121.619,910.3425,121.619ZM140.0079,176.9313h34.2478l-7.2971,23.6913H131.7378ZM160.9263,220.13l-39.94,11.5294,9.097-26.1724h35.3669Zm-8.9026-77.8849h55.6042L189.92,211.7628l-23.3995,6.7621,13.3781-43.2962a2.5254,2.5254,0,0,0-.3889-2.1892,2.4663,2.4663,0,0,0-1.9461-.973H141.6618ZM187.877,350.8464l-23.8858-32.2046H401.9264l1.1675,32.2046Z"/><path d="M417.9314,268.9238c50.35-12.0645,124.3432-64.7013,133.5864-71.366V144.5805l-24.2264-.4376-19.7022,18.1454c-.0487.0487-.1461.0974-.1948.1461a2.8025,2.8025,0,0,1-.3406.1945,3.318,3.318,0,0,1-.4863.1945c-.0974.0487-.1461.0974-.2432.0974h-.3406v.0487l-93.5492,1.5567,1.4593,28.2156h28.1669a2.4086,2.4086,0,0,1,2.4324,2.4323v15.0323a2.44,2.44,0,0,1-2.4324,2.4324H414.9639Z"/><path d="M986.9625,23.0589H919.9259L868.9434,99.7276h93.2089C967.309,81.7279,977.6222,46.5071,986.9625,23.0589Z"/><rect x="878.1452" y="178.3836" width="19.4591" height="5.4727" transform="translate(14.5349 422.7881) rotate(-26.9974)"/><rect x="878.3629" y="151.4291" width="5.4728" height="19.4591" transform="translate(540.2681 989.4957) rotate(-77.9998)"/><rect x="890.2144" y="131.8938" width="5.473" height="19.4591" transform="translate(109.876 593.5218) rotate(-39.0006)"/><rect x="923.04" y="143.9475" width="19.4591" height="5.4729" transform="translate(141.4207 661.7978) rotate(-41.9983)"/><rect x="907.8858" y="125.8513" width="5.4729" height="19.459"/><rect x="935.5317" y="161.8894" width="5.4728" height="19.4591" transform="translate(575.319 1053.7006) rotate(-77.9998)"/><rect x="920.7512" y="179.2541" width="5.473" height="19.4591" transform="translate(29.2317 487.0618) rotate(-29.9999)"/><rect x="903.5321" y="181.9723" width="5.473" height="19.4589" transform="translate(-11.7265 67.7771) rotate(-4.2555)"/><ellipse cx="910.3182" cy="163.5532" rx="13.9862" ry="13.0411"/></svg>