<?xml version="1.0" encoding="UTF-8"?>
<!--
  Copyright (c) 2026 Passion Highway, Inc.. All Rights Reserved.

  This image is digitally signed and the hash recorded.
  Unauthorized reproduction, distribution, or use of this
  image is strictly prohibited and constitutes copyright
  infringement under 17 U.S.C. Section 106.

  Violators may be subject to civil liability including
  statutory damages up to $150,000 per work (17 U.S.C. Section 504)
  and criminal prosecution with fines and imprisonment
  (17 U.S.C. Section 506).

  Contact: jim@passionhighway.com
  Asset ID: PHI-AID-C207-7a1b0a08
  Hash: 267eccf2ee84704c
-->
<svg id="Layer_1" data-name="Layer 1" xmlns="http://www.w3.org/2000/svg" viewBox="0 0 1000 333.7812">
  <metadata>
    <rdf:RDF xmlns:rdf="http://www.w3.org/1999/02/22-rdf-syntax-ns#"
             xmlns:dc="http://purl.org/dc/elements/1.1/"
             xmlns:cc="http://creativecommons.org/ns#">
      <rdf:Description>
        <dc:title>C207 Aircraft Silhouette</dc:title>
        <dc:creator>Passion Highway, Inc.</dc:creator>
        <dc:rights>Copyright (c) 2026 Passion Highway, Inc.. All Rights Reserved. Unauthorized use prohibited under 17 U.S.C. 106, 504, 506.</dc:rights>
        <dc:publisher>Passion Highway, Inc.</dc:publisher>
        <dc:identifier>PHI-AID-C207-7a1b0a08</dc:identifier>
        <dc:source>Airplane-ID.com</dc:source>
        <cc:license rdf:resource="https://airplane-id.com/terms"/>
      </rdf:Description>
    </rdf:RDF>
  </metadata>

<path d="M173.5967,304.3405c-11.8439-6.88-22.9789-9.8109-32.9713-10.4176l.5028-4.8357,18.6341-6.6965-16.64-12.48,1.2553-12.07-5.5645-2.2913L133.88,293.8539a70.7137,70.7137,0,0,0-32.2354,9.5564,5.17,5.17,0,0,0,.7192,9.2592c35.2092,13.8139,59.5721,6.3963,70.9813.7355A5.1715,5.1715,0,0,0,173.5967,304.3405Zm-31.0134-29.2437,6.7045,5.616-7.6654,3.6233Z"/><path d="M402.8758,290.1906a110.4833,110.4833,0,0,0-33.951-9.0578V261.1144H356.8137V280.803a79.5353,79.5353,0,0,0-43.0107,14.6456,4.9324,4.9324,0,0,0,1.7491,8.7637c48.7885,12.3193,76.2492,1.7879,88.0084-5.2884A4.9346,4.9346,0,0,0,402.8758,290.1906Z"/><path d="M397.0939,118.6471c-3.7736-2.5425-10.5209-5.9382-22.0576-8.6131l16.4818-30.1494a2.6195,2.6195,0,0,0-4.5979-2.5112l-17.2448,31.5453a193.3542,193.3542,0,0,0-27.8926-2.9578c-30.99-1.24-49.0324-2.19-62.35,1.9991,14.52,4.6744,37.0638,10.4208,62.247,11.26C359.1254,119.7992,379.2229,119.3708,397.0939,118.6471Z"/><ellipse cx="258.6255" cy="256.3681" rx="16.5403" ry="5.2372"/><path d="M363.5239,124.7062c-1.3863.008-2.7788.0224-4.1555.0224-6.1272,0-12.1316-.0844-17.8624-.2762a224.2752,224.2752,0,0,1-40.6127-5.2919l-4.0123,19.3219,65.3272,1.0491v44.15H284.47l-15.956,62.6875h95.01Z"/><path d="M282.7848,169.0793l10.2265-40.1783,2.7765-10.9089q-3.1281-.7579-6.0437-1.54L255.677,246.1666a50.9693,50.9693,0,0,1,7.4614.0994Z"/><path d="M943.644,0l2.9287,7.2715h53.1022c.1921-.4833.3251-.8183.3251-.8183Z"/><path d="M885.5583,153.3l73.5132-131.11-11.5229-1.8591a2.6187,2.6187,0,0,1-2.01-1.6059l-2.5039-6.2167H929.5778L837.0169,126.2815s-104.57,24.2411-198.237,26.6267l4.0877,2.8091C657.2387,155.4181,796.886,152.5693,885.5583,153.3Z"/><polygon points="938.579 1.445 933.839 7.272 940.925 7.272 938.579 1.445"/><path d="M949.845,15.3959l13.7631,2.22a2.6225,2.6225,0,0,1,1.8668,3.8666L891.5359,153.356c19.2164.2,35.6768.5856,47.4881,1.2224,18.3508-41.5042,49.7046-119.8346,58.5664-142.07H948.6821Z"/><path d="M280.4031,256.3681c0,6.879-10.9553,10.4745-21.7776,10.4745s-21.7775-3.5955-21.7775-10.4745c0-5.0346,5.851-8.2068,13.2472-9.5568L284.7,115.0484c-4.8428-1.4058-9.0213-2.78-12.5551-4.0152a48.285,48.285,0,0,0-13.53,11.2679s-31.4235,10.4745-50.3823,34.723c0,0-19.086-.8327-46.7737.4117L144.9328,215.35a2.6208,2.6208,0,0,1-2.1481,1.877L64.2292,228.4835l-.0007,0h-.0019L51.29,230.3379c10.5637,11.9426,27.3734,25.3634,51.5177,28.8125,3.4417.4878,7.7574.99,12.7658,1.4985V248.5276a11.9443,11.9443,0,0,1,23.8812-.44l14.2531,9.0776,2.1372-25.0761a2.6193,2.6193,0,0,1,2.6084-2.3987h20.1307a12.4526,12.4526,0,0,1,12.4385,12.4384v18.9851a2.6171,2.6171,0,0,1-2.6187,2.6186H155.998a2.61,2.61,0,0,1-1.9282-.849c-.0192-.0205-.024-.05-.0422-.071v.9986c42.1166,2.8792,99.8776,5.46,153.0322,6.3874V251.6065H278.2323A6.6429,6.6429,0,0,1,280.4031,256.3681ZM261.0766,124.7628l16.7069,14.7687-12.7789,41.7411c-26.029,2.9328-53.5245-19.6921-53.5245-19.6921C228.1869,136.0751,261.0766,124.7628,261.0766,124.7628Z"/><path d="M178.5836,234.9281H160.8568l-2.0075,23.5676h26.9355V242.1293A7.21,7.21,0,0,0,178.5836,234.9281Z"/><path d="M380.8106,270.1536c4.0663-2.165,9.4541-6.3615,9.2371-8.8091-.9129-2.0845-12.2134-6.6738-24.2411-9.738H312.2971V270.292c12.7073.1966,25.11.2954,36.9225.2756V255.5367h26.0293v14.7691C377.1614,270.2629,378.9521,270.2038,380.8106,270.1536Z"/><path d="M642.1362,160.9725a2.3662,2.3662,0,0,1-1.5394-.46l-10.8322-7.4442c-.6393.0064-1.2853.024-1.9234.0281,0,0-24.4885-19.3877-212.9668-30.0489-13.52.7234-29.8936,1.41-46.1132,1.6142v122.3c10.4907,2.7673,25.9679,7.8623,26.5033,13.9226.2982,3.38-2.0787,6.506-4.8364,8.9683,10.18-.37,19.4284-.8637,27.2948-1.5369,74.5783-6.5466,207.5-29.4333,297.1613-43.8882,85.6289-13.7215,189.6933-21.525,210.9041-43.8357H810.9355a8.28,8.28,0,1,1,.4188-16.55l120.3,6.6511c1.4835-3.0754,3.2055-6.8119,5.0848-10.99C866.9016,156.28,644.5966,160.9213,642.1362,160.9725Zm-201.8408,9.25a13.5,13.5,0,0,1-13.5122,13.46H384.571a13.4671,13.4671,0,0,1-13.5122-13.46V152.9913a13.4671,13.4671,0,0,1,13.5122-13.46h42.2122a13.5,13.5,0,0,1,13.5122,13.46Zm64.4705-3.5612a14.6067,14.6067,0,0,1-14.56,14.6118H460.7208a14.6068,14.6068,0,0,1-14.56-14.6118v-9.1652a14.5956,14.5956,0,0,1,14.56-14.56h29.4854a14.5956,14.5956,0,0,1,14.56,14.56Zm59.2333,14.6118H509.5317V145.8687h29.6954a24.7989,24.7989,0,0,1,24.7721,24.8245Zm24.0912-7.8559c-14.7688-2.9853-17.2305-30.4808-17.2305-30.4808s43.26,5.3945,57.4528,17.1783C628.3127,160.1142,602.807,176.35,588.09,173.4167Z"/><path d="M52.9763,172.935q-3.9169,1.0759-7.7788,2.2414v47.62c.6665.9133,1.3882,1.85,2.1436,2.8146l13.4927-1.9336Z"/><path d="M134.2614,248.5276a6.7256,6.7256,0,0,0-13.4512,0v12.6261c3.3021.3091,6.7633.6188,10.54.9295l2.9111-10.5275Z"/><path d="M140.36,212.2811l15.5721-54.5685c-28.2944,1.5018-64.2164,5.2152-97.8654,13.8766l7.9512,51.3454Z"/><path d="M37.3416,210.0774s.8883,1.8742,2.6186,4.8064v-38.05c-14.4209,4.6913-28.0431,10.44-39.96,17.5316C0,194.3657,13.0931,206.7779,37.3416,210.0774Z"/><path d="M638.3784,240.9952l-12.6018,2.04a4.91,4.91,0,0,0,1.5692,9.6939l12.6018-2.04a4.91,4.91,0,0,0,4.0622-5.6311v0A4.91,4.91,0,0,0,638.3784,240.9952Z"/><path d="M132.3978,327.4964a18.559,18.559,0,0,1-13.3553-5.29c-3.404-.7329-6.3893-1.5186-8.8509-2.2,3.2474,8.0131,11.9935,13.774,22.2062,13.774,8.5888,0,16.078-3.98,20.1632-10.003a62.57,62.57,0,0,1-9.846.89A19.6137,19.6137,0,0,1,132.3978,327.4964Z"/><path d="M351.6813,323.3591c-7.8559,0-14.4549-4.347-16.6023-10.2651-2.5662-.3667-4.8706-.7333-6.756-1.0475,1.7284,9.9509,11.522,17.5974,23.3583,17.5974,11.3647,0,20.8441-7.07,23.0961-16.4451a62.952,62.952,0,0,1-7.0177.9951C365.2456,319.5881,359.0132,323.3591,351.6813,323.3591Z"/></svg>