<?xml version="1.0" encoding="UTF-8"?>
<!--
  Copyright (c) 2026 Passion Highway, Inc.. All Rights Reserved.

  This image is digitally signed and the hash recorded.
  Unauthorized reproduction, distribution, or use of this
  image is strictly prohibited and constitutes copyright
  infringement under 17 U.S.C. Section 106.

  Violators may be subject to civil liability including
  statutory damages up to $150,000 per work (17 U.S.C. Section 504)
  and criminal prosecution with fines and imprisonment
  (17 U.S.C. Section 506).

  Contact: jim@passionhighway.com
  Asset ID: PHI-AID-R66-387a6b38
  Hash: a70397259061d9d7
-->
<svg id="Layer_1" data-name="Layer 1" xmlns="http://www.w3.org/2000/svg" viewBox="0 0 1000 314.1124">
  <metadata>
    <rdf:RDF xmlns:rdf="http://www.w3.org/1999/02/22-rdf-syntax-ns#"
             xmlns:dc="http://purl.org/dc/elements/1.1/"
             xmlns:cc="http://creativecommons.org/ns#">
      <rdf:Description>
        <dc:title>R66 Aircraft Silhouette</dc:title>
        <dc:creator>Passion Highway, Inc.</dc:creator>
        <dc:rights>Copyright (c) 2026 Passion Highway, Inc.. All Rights Reserved. Unauthorized use prohibited under 17 U.S.C. 106, 504, 506.</dc:rights>
        <dc:publisher>Passion Highway, Inc.</dc:publisher>
        <dc:identifier>PHI-AID-R66-387a6b38</dc:identifier>
        <dc:source>Airplane-ID.com</dc:source>
        <cc:license rdf:resource="https://airplane-id.com/terms"/>
      </rdf:Description>
    </rdf:RDF>
  </metadata>

<path d="M475.0576,159.31l1.04-.0992c-.3963-.05-.7924-.1485-1.1392-.198Z"/><path d="M501.0644,205.0324a292.62,292.62,0,0,1-4.6565,45.029l-4.9044-.7431a294.3857,294.3857,0,0,0,4.6072-43.84c-24.0255,2.3777-53.45,7.7774-79.0608,19.7652-1.8328,4.1116-8.9661,19.0715-17.7342,22.2915-8.867,3.2693-61.6238,17.5855-63.853,18.18a2.8924,2.8924,0,0,1-.644.0992,2.5929,2.5929,0,0,1-1.8328-.7925,2.4986,2.4986,0,0,1-.4953-2.5264l3.7649-10.2541-53.8464,13.5234a2.823,2.823,0,0,1-.644.05,2.3885,2.3885,0,0,1-1.4861-.5449,2.35,2.35,0,0,1-.9908-1.932v-27.84l-44.7814,5.5481c-5.1021-74.3051,86.8381-86.3921,86.8381-86.3921l-34.3785,79.9028-2.7245.3468v25.2636l54.0445-13.5234,33.9824-92.3862c-24.57-1.1392-48.893-2.08-63.6549-2.6253-48.6451,12.0374-74.8995,38.8367-80.15,62.763-8.025,36.5581-14.8611,75.5931,113.9345,64.3978,6.9845-.5944,13.7714-1.2384,20.4091-1.8329v27.2453h-58.85L284.1427,299.4l-2.3776,9.61,21.0531,5.1024h212.364v-9.9073H498.4388V259.9192c32.1-5.2013,49.5367-8.9662,49.5367-8.9662l23.4308-41.5118-27.9385-5.3993A325.1253,325.1253,0,0,0,501.0644,205.0324Zm-133.9476-39.233L346.6085,218.11l-48.9423,7.6285,26.948-59.9393ZM481.1009,304.2051h-101.55v-28.88c40.62-4.1113,74.85-8.6689,101.55-12.6814Z"/><path d="M338.7819,259.6716c13.4243-3.6161,51.6668-14.1675,58.85-16.7931,6.2414-2.2788,12.8794-14.96,15.1086-20.0623l5.5481-66.0326c-12.2357-.7924-26.4527-1.5852-40.8678-2.2785Zm66.6267-50.676-46.6635,7.2321,16.6442-50.4283h39.7782Z"/><polygon points="546.588 199.583 573.982 204.884 580.521 193.292 549.511 180.016 546.588 199.583"/><path d="M435.5766,54.4408l9.5606-16.8922,413.9786-27.79V0l-403.08,28.3349s-10.7-7.4305-29.722-5.1022C407.2417,25.5608,409.867,29.92,409.867,29.92L0,59.6421V70.7383l410.61-33.19,16.5451,16.8922h-.768a8.7166,8.7166,0,0,0-8.6111,7.3646L404.3189,147.52c-28.0376-3.2693-52.608-2.9721-73.81,0,39.2829,1.5356,99.0735,4.26,118.4425,7.0341,6.8857.9908,16,2.576,26.0068,4.4585L443.8894,60.535A8.7166,8.7166,0,0,0,435.5766,54.4408Z"/><path d="M997.4224,190.2705c-.2477,0-8.57.2972-21.1027.6936l-16.87-58.8993,7.8986-16.2167-.0006,0,18.8789-18.41a2.438,2.438,0,0,0,.0992-3.4676l-11.641-12.087a2.5113,2.5113,0,0,0-3.5668,0l-2.6749,2.8236V44.1371l-15.951-.446-32.5454,82.6276-125.9157,9.3465-10.5166-9.0336-4.15,10.1224L576.2611,151.83l38.1431-38.9854h-8.3718l-37.4,39.53-92.5347,6.8361c6.8361,1.3376,14.0686,2.7248,21.2019,4.1612a.1816.1816,0,0,0,.1485.05c25.8583,5.2013,50.1807,10.5513,50.5771,10.65.0992,0,.1485.0992.2476.0992.05.05.1488,0,.1981.05l34.4777,14.7618.2972-.5448,237.6279-30.3661c3.6657,13.6722,14.4647,38.7874,44.2363,39.4807,4.8545.0992,10.5018.1487,16.7927.1487,21.5983,0,49.9332-.5944,73.1659-1.1888l4.6565,7.3809h21.6971l-3.17-8.0745c11.5421-.3468,19.0718-.5944,19.369-.5944a2.4788,2.4788,0,0,0-.1983-4.9537ZM972.9019,87.1846l8.1238,8.4709-30.6632,29.8209-4.1114-10.353Zm-50.3295,57.8589,2.9721,4.6564L894.386,180.066l-3.0713-7.381,25.66-26.8984Zm-57.3636,47.5551c-26.4525-.6437-36.1122-22.5887-39.4807-35.171l83.4693-10.6505-22.5887,23.6787a2.418,2.418,0,0,0-.4953,2.6749l5.1022,12.1862a2.3646,2.3646,0,0,0,1.7835,1.486,1.6817,1.6817,0,0,0,.4953.05,2.5637,2.5637,0,0,0,1.7336-.6936L928.22,154.01l23.7775,37.5985C922.5724,192.4006,886.0143,193.0942,865.2088,192.5986Z"/><path d="M494.5748,167.88c-17.2387-3.4673-34.9234-6.8361-46.3168-8.421-5.4489-.7927-14.2666-1.5852-25.016-2.3284l-5.2509,62.2678c25.66-11.3934,54.54-16.5947,78.2185-18.8735A238.4521,238.4521,0,0,0,494.5748,167.88Z"/><path d="M541.6843,198.989l3.0219-20.5578c-6.2417-1.3869-24.8675-5.3994-45.029-9.511a246.0889,246.0889,0,0,1,1.486,31.1585A351.48,351.48,0,0,1,541.6843,198.989Z"/></svg>