<?xml version="1.0" encoding="UTF-8"?>
<!--
  Copyright (c) 2026 Passion Highway, Inc.. All Rights Reserved.

  This image is digitally signed and the hash recorded.
  Unauthorized reproduction, distribution, or use of this
  image is strictly prohibited and constitutes copyright
  infringement under 17 U.S.C. Section 106.

  Violators may be subject to civil liability including
  statutory damages up to $150,000 per work (17 U.S.C. Section 504)
  and criminal prosecution with fines and imprisonment
  (17 U.S.C. Section 506).

  Contact: jim@passionhighway.com
  Asset ID: PHI-AID-P28R-c2cbe383
  Hash: b0681f1302a2a0c1
-->
<svg id="Layer_1" data-name="Layer 1" xmlns="http://www.w3.org/2000/svg" viewBox="0 0 1000 277.5141">
  <metadata>
    <rdf:RDF xmlns:rdf="http://www.w3.org/1999/02/22-rdf-syntax-ns#"
             xmlns:dc="http://purl.org/dc/elements/1.1/"
             xmlns:cc="http://creativecommons.org/ns#">
      <rdf:Description>
        <dc:title>P28R Aircraft Silhouette</dc:title>
        <dc:creator>Passion Highway, Inc.</dc:creator>
        <dc:rights>Copyright (c) 2026 Passion Highway, Inc.. All Rights Reserved. Unauthorized use prohibited under 17 U.S.C. 106, 504, 506.</dc:rights>
        <dc:publisher>Passion Highway, Inc.</dc:publisher>
        <dc:identifier>PHI-AID-P28R-c2cbe383</dc:identifier>
        <dc:source>Airplane-ID.com</dc:source>
        <cc:license rdf:resource="https://airplane-id.com/terms"/>
      </rdf:Description>
    </rdf:RDF>
  </metadata>

<path d="M924.9009,123.8212H853.1782a2.534,2.534,0,0,1-.6963-.14l-4.0571,5.3759h74.6977Z"/><path d="M928.6806,112.6956h-66.34a2.5462,2.5462,0,0,1-1.28-.3813l-4.7329,6.2713H926.68Z"/><polygon points="945.021 64.593 897.076 64.593 891.766 71.629 942.631 71.629 945.021 64.593"/><polygon points="940.853 76.864 887.815 76.864 883.617 82.427 938.963 82.427 940.853 76.864"/><path d="M906.3829,181.02,837.66,170.6144h-.7461a2.5685,2.5685,0,0,1-1.1377-.2854L559.555,128.5062v18.2063l346.8279,44.3553Z"/><path d="M836.9141,144.7636a2.4712,2.4712,0,0,1-.2982-.06l-4.49,5.95h83.66l2.0011-5.89Z"/><polygon points="914.007 155.889 828.174 155.889 822.759 163.064 838.047 165.379 910.783 165.379 914.007 155.889"/><polygon points="916.315 165.379 952.935 165.379 955.808 155.889 919.539 155.889 916.315 165.379"/><polygon points="909.005 170.614 872.624 170.614 907.225 175.853 909.005 170.614"/><polygon points="921.317 150.654 957.393 150.654 959.177 144.764 923.318 144.764 921.317 150.654"/><path d="M921.3439,134.2924H845.11a2.4971,2.4971,0,0,1-.5525-.1116l-4.0357,5.3472h79.0435Z"/><path d="M932.3488,101.8971H870.7256a2.5482,2.5482,0,0,1-1.4361-.4864L864.724,107.46h65.7352Z"/><path d="M877.6076,200.898l77.1292,5.4363c-.1911-1.3111-.4515-2.6111-.7621-3.9l-76.3671-9.7666Z"/><path d="M948.5231,54.2858H905.9739a2.6,2.6,0,0,1-.9711-.1959l-3.9756,5.2679H946.8Z"/><polygon points="960.206 19.894 931.085 1.502 911.612 22.709 959.25 22.709 960.206 19.894"/><path d="M911.6185,181.8125v9.9251l40.7386,5.21a77.2045,77.2045,0,0,0-4.1117-9.59Z"/><polygon points="955.834 49.05 988.159 49.05 990.455 41.47 958.409 41.47 955.834 49.05"/><polygon points="928.654 129.057 963.933 129.057 965.518 123.821 930.433 123.821 928.654 129.057"/><path d="M872.372,203.3369V191.9981L559.555,151.9922V245.693l346.8279-30.3568v-7.16L874.8057,205.95A2.6193,2.6193,0,0,1,872.372,203.3369Z"/><polygon points="939.66 96.661 973.742 96.661 976.467 87.663 942.716 87.663 939.66 96.661"/><polygon points="944.495 82.427 978.053 82.427 979.737 76.864 946.385 76.864 944.495 82.427"/><polygon points="948.163 71.629 981.323 71.629 983.453 64.593 950.554 64.593 948.163 71.629"/><polygon points="952.877 41.47 914.527 41.47 908.806 49.05 950.302 49.05 952.877 41.47"/><polygon points="935.991 107.46 970.473 107.46 972.157 101.897 937.881 101.897 935.991 107.46"/><polygon points="957.472 27.944 924.735 27.944 918.478 36.235 954.655 36.235 957.472 27.944"/><polygon points="937.185 87.663 879.665 87.663 872.874 96.661 934.127 96.661 937.185 87.663"/><path d="M467.2775,233.6621a118.9747,118.9747,0,0,0,35.34-1.3962V213.3815c-5.5133.4381-18.5834,1.3725-35.34,1.8892Z"/><path d="M391.3613,277.439q5.798.05,11.6427.0751c-3.727-.5417-7.5687-1.0661-11.6427-1.5441Z"/><path d="M293.8482,242.9471c14.9657,7.0657,58.2253,11.1065,92.2775,12.6566v-4.939L293.8482,233.324Z"/><path d="M276.4845,246.3945c-7.7953.0671-15.24,1.0158-17.5957,3.6947a2.3155,2.3155,0,0,0-.46,2.3519c.3068,1.2271.5266,2.3724.7286,3.4461,1.5952,8.4311,2.1909,11.5858,74.8655,11.5858a501.8512,501.8512,0,0,1,52.103,2.6488v-9.31c-33.5911-1.5272-79.9472-5.52-95.6163-13.6627Z"/><path d="M293.8482,227.9986l92.2775,17.3407V212.8507c-38.3963-3.28-80.9119-8.381-92.2775-9.774Z"/><path d="M406.8917,214.4574c-4.9963-.3378-10.21-.734-15.53-1.1689v42.537c8.9143.3493,17.0243.5218,23.56.5218,18.2607,0,35.5652,8.4894,47.12,15.8091V259.3377c-11.922-.2348-24.9573-8.1461-25.7179-8.62a2.6179,2.6179,0,0,1,2.7533-4.4533c4.4032,2.7178,14.5494,7.6486,22.9646,7.8467V238.3167a107.16,107.16,0,0,1-21.873-5.6983A2.62,2.62,0,0,1,442.03,227.72a100.2581,100.2581,0,0,0,20.0119,5.2349v-17.54c-5.5727.1346-11.4737.218-17.5935.218C432.428,215.6334,419.5921,215.3164,406.8917,214.4574Z"/><path d="M273.5474,240.9952l2.3158.1247a122.9189,122.9189,0,0,1,12.7494.5432V200.1157c0-.0722.0233-.1412.029-.2131.0032-.0393-.0134-.0745-.0086-.1141.0054-.0444.0329-.0786.0406-.1221a2.4284,2.4284,0,0,1,.0336-.246c.3668-1.3361,3.3793-9.1553,24.112-15.0342l-39.2718-3.2086Z"/><path d="M53.0105,206.0189v25.698c12.7844,16.028,39.6089,35.54,94.8953,37.065,11.1525.3077,23.548.8,36.9508,1.3929l12.619-60.691Z"/><path d="M507.8534,275.4807q23.1672-1.055,46.466-2.7526V251.4064l-46.466,4.067Z"/><path d="M911.6185,232.8453c15.9184-2.3692,26.9568-4.377,32.0988-5.9482,8.3628-2.5555,11.1461-8.589,11.3279-15.29l-43.4267-3.062Z"/><path d="M559.555,272.33q19.6593-1.5171,39.267-3.5477c132.0967-13.9048,248.6834-26.6749,307.5609-35.1735V220.5916L559.555,250.9481Z"/><path d="M207.4019,161.7435C119.0157,168.728,63.9051,180.06,53.0105,182.4347V200.78l145.549,3.4908Z"/><path d="M0,190.9023s21.5969,17.67,41.8848,19.6335c0,0,1.1718,5.7661,5.89,13.66V167.9227C25.0928,173.7744,7.0005,181.277,0,190.9023Z"/><polygon points="960.187 36.235 992.04 36.235 994.55 27.944 963.004 27.944 960.187 36.235"/><path d="M495.4128,208.6587c-18.284-8.3365-64.496-26.3-122.3506-25.7069-53.9509.5282-71.5265,10.1967-76.9963,15.122,15.8707,1.9327,70.5327,8.4148,111.1786,11.1582C442.455,211.6121,478.67,209.7925,495.4128,208.6587Z"/><polygon points="912.486 176.65 947.898 182.012 951.349 170.614 914.537 170.614 912.486 176.65"/><path d="M938.51,0l26.2365,16.568a2.6143,2.6143,0,0,1,1.0839,3.055l-1.0481,3.0856h31.3532L1000,9.9469Z"/><polygon points="932.211 118.586 967.104 118.586 968.887 112.696 934.212 112.696 932.211 118.586"/><polygon points="925.097 139.528 960.762 139.528 962.348 134.292 926.876 134.292 925.097 139.528"/><path d="M918.1723,27.9442H906.8047L789.9215,155.2348S749.2069,149.52,691.7539,141.81V116.5711L722.58,78.6794a2.6168,2.6168,0,0,0-4.06-3.3029l-31.4136,38.6126a2.6244,2.6244,0,0,0-.588,1.6514v25.4667c-21.1312-2.83-44.3741-5.9073-68.5683-9.0543l198.9225,30.12Z"/><polygon points="952.332 59.358 985.038 59.358 986.574 54.286 954.055 54.286 952.332 59.358"/><path d="M391.3613,261.0362v9.6646a393.2087,393.2087,0,0,1,40.4717,6.7561q13.9165-.1089,28.02-.4011c-11.0134-7.0471-27.7233-15.4729-44.9317-15.4729C409.18,261.5829,400.9393,261.4149,391.3613,261.0362Z"/><path d="M570.0262,100.0846l31.613-46.4532a2.6165,2.6165,0,1,0-4.3255-2.9451l-32.0681,47.12a2.6146,2.6146,0,0,0-.455,1.4725v24.7243l5.2356.7928Z"/><path d="M254.0136,256.8637c-.1866-.9816-.3834-2.0349-.6621-3.1546a7.5129,7.5129,0,0,1,1.608-7.0814,9.2406,9.2406,0,0,1,1.4757-1.3124l-60.3852-3.25-5.8935,28.3465c52.9123,2.3938,121.1934,6.19,195.9692,6.9762v-2.0144a497.3047,497.3047,0,0,0-52.103-2.6648C259.8346,272.7086,256.44,269.6818,254.0136,256.8637Z"/><path d="M467.2775,238.9948v14.4583a10.2494,10.2494,0,0,0,4.0954-2.2851,2.6187,2.6187,0,0,1,3.5893,3.8142,15.75,15.75,0,0,1-7.6847,3.8564v16.7978c.6234.4371,1.1207.8132,1.6869,1.2242q16.74-.4194,33.6534-1.1383V237.6169a117.4393,117.4393,0,0,1-22.3868,2.0777A122.3952,122.3952,0,0,1,467.2775,238.9948Z"/><path d="M538.6126,123.0849v-1.1312c-82.5665-10.2463-162.4989-19.2181-198.9909-20.5775l7.5974-14.6337a2.6184,2.6184,0,1,0-4.6476-2.4133l-8.7686,16.89c-2.33-.0349-4.4422-.0317-6.2506.0239-63.8088,1.9634-120.746,47.12-120.746,47.12S115.204,151.6941,53.0105,166.61v10.467c13.5405-2.8939,69.565-14.06,157.4617-20.8194a2.4423,2.4423,0,0,1,2.1679.88,2.6189,2.6189,0,0,1,.5982,2.26l-16.1107,77.4859,71.1842,3.8311V180.7861L238.0486,178.79a2.6183,2.6183,0,1,1,.3426-5.2254l32.71,2.1576c.0093.0007.0166.0064.0259.0071.0048,0,.01-.0023.015-.002l59.84,4.8931q5.8632-.8709,12.8487-1.52a543.5611,543.5611,0,0,1-64.5276-6.6334l43.3848-59.485c16.0037,2.0215,39.7189,5.13,66.0561,8.9543V178.01q3.9693.183,7.8534.4646V123.0855c27.0168,3.9938,56.1628,8.6776,82.2111,13.6687L460.7234,179.11c-14.6174.5624-30.4537.9874-46.9258,1.15,54.8974,7.2929,92.2554,27.7333,92.7111,27.99.0483.0265.0678.0814.1138.1108a2.5275,2.5275,0,0,1,.7886.7683c.0269.0409.0659.0687.09.1115a2.6105,2.6105,0,0,1,.3419,1.0545c.0048.05-.0176.0949-.0157.1451.0013.0339.0259.061.0259.0952v39.6828l46.466-4.0673V127.7133l-13.4827-2.0413A2.6155,2.6155,0,0,1,538.6126,123.0849ZM266.93,170.18c-39.3658-7.96-54.8885-17.89-54.8885-17.89s74.6715-43.7091,89.66-41.8848c0,0,2.9587.3461,8.19.9855Zm277.5722,3.7065s-26.7666,2.5529-65.9058,4.4476l13.5619-38.9366c27.7905,5.7,50.5362,11.7034,60.8518,17.4733Z"/></svg>