<svg id="Layer_1" data-name="Layer 1" xmlns="http://www.w3.org/2000/svg" viewBox="0 0 1000 351.2776"><path d="M350.9888,256.2434H338.3577V300.27c-30.0324,2.7249-40.3639,32.7444-13.2326,34.4669,28.42,1.8044,65.4112,1.8044,84.3579-14.4356,0,0-28.0876-17.0327-58.4942-19.8624Z"/><path d="M344.0718,351.2776c17.1422,0,21.3526-11.4282,21.3526-11.4282H328.4333S329.6362,351.2776,344.0718,351.2776Z"/><path d="M89.9289,307.6061l.3175-11.3642,45.7126-39.0963-35.4874-6.6163L61.9767,290.8286,76.69,313.0737c-9.7541,6.2733-11.6082,14.9634,5.2859,17.6031,43.3067,6.7667,82.1023-2.2555,82.1023-2.2555s-33.3822-20.3-59.5467-22.1045A48.3863,48.3863,0,0,0,89.9289,307.6061Z"/><path d="M100.4716,349.7224c14.8867,0,19.3978-11.7764,19.3978-11.7764H81.0738S85.5849,349.7224,100.4716,349.7224Z"/><path d="M38.6693,155.3C21.6357,158.6656,7.419,162.542,0,166.9233c0,0,10.8919,11.8934,38.6693,23.9127V304.0612l3.6089-4.06V40.6121l-3.6089,4.06Z"/><path d="M336.1868,204.9482c-35.9136,0-54.7966-7.1355-60.6261-9.8137l-29.0465,42.5193c9.8094,4.8354,54.1922,22.4428,161.67,10.8784l-26.0033-46.99A338.2935,338.2935,0,0,1,336.1868,204.9482Z"/><path d="M875.7819,212.0345a2.4062,2.4062,0,0,1-1.8937-3.8909l6.3758-8.1147h-1.4747a7.8434,7.8434,0,0,1,0-15.6867h82.7159a53.9041,53.9041,0,0,0-4.8548-8.2037c-35.8008-1.7751-173.4935-9.4437-241.4192-25.24-34.8966-2.09-76.6091-5.3126-112.7342-10.1227-9.5829,2.5066-21.043,5.277-34.1758,8.0513-29.67,6.2662-81.6676,13.6461-116.0766,18.5284-14.9642,2.124-26.7824,3.8016-31.357,4.6286-12.8173,2.32-51.8437,9.6505-63.073,11.7618l20.2292,2.4435c.027.0033.0476.0232.0743.0273.0355.0062.0687-.0067.1043.0009L429.95,196.4429a2.4075,2.4075,0,0,1,1.1889.6156l20.2474,19.21h2.1554a2.4046,2.4046,0,0,1,2.406,2.406,2.3525,2.3525,0,0,1-.52,1.4282l34.7506,32.97c14.8649-1.0062,29.21-2.0655,42.7833-3.1443,105.2353-8.4207,369.2618-32.48,410.1626-38.4948a49.1874,49.1874,0,0,0,7.7282-1.7131l-74.9949,2.3146ZM563.6127,184.3663H473.39a2.406,2.406,0,0,1,0-4.8119h90.2223a2.406,2.406,0,1,1,0,4.8119Zm133.5291,0H611.13a2.406,2.406,0,0,1,0-4.8119h86.012a2.406,2.406,0,0,1,0,4.8119Zm139.243,3.0074h-91.726a2.406,2.406,0,0,1,0-4.8119h91.726a2.406,2.406,0,0,1,0,4.8119Z"/><path d="M248.5419,179.6625c5.465,1.6776,66.2077.8552,105.6964-.1081-.0118-.0282,50.8087-9.5955,65.7941-12.3069,4.6638-.8411,16.522-2.5234,31.5355-4.6544,34.3456-4.8753,86.2516-12.2411,115.7571-18.4744,8.2108-1.7343,15.7393-3.4641,22.5794-5.1294-24.3539-3.6538-45.22-8.112-58.1943-13.5442-55.9137-23.4819-135.3094-51.4387-217.4-44.2209-76.1956,6.6994-139.17,51.47-147.8263,57.8691V179.48C181.0634,179.0443,241.1256,177.3749,248.5419,179.6625ZM405.4471,101.53c26.1283,0,81.6091,22.52,81.6091,22.52l-87.9608,31.6136ZM388.2687,88.8751l-23.0005,78.0482-80.7431,2.6946-7.651-75.7867S323.2605,80.5023,388.2687,88.8751Zm-125.83,9.0461,6.7368,76.6531s-61.7844.9142-96.5259-30.6518C172.6494,143.9225,224.5214,106.5346,262.4385,97.9212Z"/><polygon points="914.253 0 906.332 9.822 995.731 15.463 1000 0 914.253 0"/><path d="M906.3424,168.3871c19.5807,1.2943,35.8995,2.1938,46.4157,2.7328L994.4228,20.2022,952.7076,17.57Z"/><path d="M947.7727,17.2582l-45.1411-2.8488L805.36,135.0207A49.7612,49.7612,0,0,1,764.7,153.402c-4.067-.1683-8.5867-.3662-13.4106-.59,46.2839,7.2671,105.615,12.2352,150.1238,15.2467Z"/><path d="M880.8569,207.0628l79.247-2.4453a13.2734,13.2734,0,0,0,3.1816-4.5886H886.3842Z"/><path d="M335.3383,259.696v-2.4546c-68.2612-.7475-92.3572-15.8917-93.6359-16.7305a2.4065,2.4065,0,0,1-.6673-3.3693l35.328-51.7168c-14.8186-.04-26.5757-.3469-29.2356-1.1666-5.32-1.6359-50.2537-.89-80.6433.0376V252.623c2.25.3037,4.4145.6453,6.7426.9137C220.768,259.0223,277.596,260.514,335.3383,259.696Z"/><path d="M161.6724,140.1621c-10.6984.8223-42.8865,3.4576-76.2379,7.7514v32.7123H153.402a2.406,2.406,0,0,1,0,4.8119H83.0286a2.4046,2.4046,0,0,1-2.4059-2.406V148.544c-10.57,1.4086-21.155,2.98-31.1088,4.7135V201.28c11.8646,13.781,43.1011,40.3839,112.1585,50.691Z"/><path d="M398.4924,221.08l15.652,28.2837a2.4065,2.4065,0,0,1-1.8373,3.5572c-21.5241,2.413-40.56,3.6876-57.3845,4.1473v2.2908c44.191-.9792,88.2983-3.2,128.7171-5.8615L449.4674,221.08Z"/><polygon points="428.331 201.029 382.366 191.94 395.83 216.268 444.395 216.268 428.331 201.029"/><path d="M327.3992,184.9164c-13.8194.2525-30.5317.4884-45.2081.5122l-3.8506,5.6365c8.3512,3.554,39.7375,14.1172,101.3286,5.9382l-3.4227-6.1852Z"/><polygon points="887.365 197.5 890.701 192.688 955.431 192.688 970.788 190.254 943.923 180.833 945.512 176.293 990.388 192.03 955.807 197.472 887.365 197.5"/></svg>