<?xml version="1.0" encoding="UTF-8"?>
<!--
  Copyright (c) 2026 Passion Highway, Inc.. All Rights Reserved.

  This image is digitally signed and the hash recorded.
  Unauthorized reproduction, distribution, or use of this
  image is strictly prohibited and constitutes copyright
  infringement under 17 U.S.C. Section 106.

  Violators may be subject to civil liability including
  statutory damages up to $150,000 per work (17 U.S.C. Section 504)
  and criminal prosecution with fines and imprisonment
  (17 U.S.C. Section 506).

  Contact: jim@passionhighway.com
  Asset ID: PHI-AID-R22-e9fdf49c
  Hash: ddbdd0bc7b761167
-->
<svg id="Layer_1" data-name="Layer 1" xmlns="http://www.w3.org/2000/svg" viewBox="0 0 1000 383.4214">
  <metadata>
    <rdf:RDF xmlns:rdf="http://www.w3.org/1999/02/22-rdf-syntax-ns#"
             xmlns:dc="http://purl.org/dc/elements/1.1/"
             xmlns:cc="http://creativecommons.org/ns#">
      <rdf:Description>
        <dc:title>R22 Aircraft Silhouette</dc:title>
        <dc:creator>Passion Highway, Inc.</dc:creator>
        <dc:rights>Copyright (c) 2026 Passion Highway, Inc.. All Rights Reserved. Unauthorized use prohibited under 17 U.S.C. 106, 504, 506.</dc:rights>
        <dc:publisher>Passion Highway, Inc.</dc:publisher>
        <dc:identifier>PHI-AID-R22-e9fdf49c</dc:identifier>
        <dc:source>Airplane-ID.com</dc:source>
        <cc:license rdf:resource="https://airplane-id.com/terms"/>
      </rdf:Description>
    </rdf:RDF>
  </metadata>

<polygon points="289.96 27.246 289.96 37.979 278.732 37.979 268.164 130.449 337.517 142.338 325.627 37.979 313.078 37.979 313.078 27.246 289.96 27.246"/><path d="M289.96,12.2844v4.063h23.1175V12.4125c2.4324-.2158,4.6745-.51,6.7321-.8537H873.1836l13.8706-4.6235L330.4877,4.8631C327.2913,2.07,315.8477,0,302.18,0c-13.3252,0-24.5457,1.9667-28.0633,4.6532L0,3.6328l10.8983,7.926H284.6044C286.2741,11.8371,288.0392,12.089,289.96,12.2844Z"/><polygon points="959.656 141.098 986.442 170.351 1000 84.875 982.166 84.875 966.975 116.579 951.783 79.59 933.289 79.59 959.709 141.017 959.656 141.098"/><path d="M380.235,238.24c2.4869-3.7853,5.1924-7.7258,7.9954-11.7194q-2.1073.0763-4.2214.1635C382.5932,230.7958,381.3254,234.7036,380.235,238.24Z"/><path d="M295.9049,250.7482l74.5629,2.564c1.0623-4.242,3.6982-14.2124,7.8037-26.3778-36.55,1.7047-73.0057,5.324-82.3666,6.2908Z"/><path d="M431.77,249.0747l-9.3761-22.9192c-8.5365-.1948-17.87-.12-27.5234.1519-6.9627,9.7685-13.2652,19.1929-17.9154,27.228l56.5806,1.9457A28.7239,28.7239,0,0,0,431.77,249.0747Z"/><path d="M953.1247,150.8941l-1.3413,2.0121L437.4116,171.0091c-10.17,12.516-25.2055,31.4161-38.63,49.87,7.431-.1635,14.64-.2,21.4215-.0778l-2.1056-5.1469L945.8388,171.4l5.2841,67.3712,24.4385-5.9446-6.605-38.3091L986.13,231.5059l13.87-5.284L986.8845,186.875Z"/><path d="M138.2491,269.6016c.0054-.0139.0132-.0252.019-.0387.0493-.0874.0774-.1765.1277-.2639,9.62-16.735,56.9847-103.23,67.3506-122.1677q-1.8291-.0842-3.4938-.1412l-67.51,125.467-85.8653,5.9445s6.7534-112.5888,137.816-133.7426a2.5331,2.5331,0,0,1-.0884-.3961,2.6447,2.6447,0,0,1,2.57-2.7142c2.7555-.0826,68.251-1.6074,105.4894,21.6675.0719.0452.1032.1277.17.179a2.5506,2.5506,0,0,1,.587.6192,2.4937,2.4937,0,0,1,.1925.3142,2.606,2.606,0,0,1,.2548.9846c.0029.05.0368.0919.0368.1425v62.453c10.6106-1.1059,47.5326-4.7787,84.2511-6.4032,7.23-20.2985,18.1631-44.7454,32.36-58.82l11.5259-21.6688H413.4742l-27.741,26.42s-115.5879-42.2722-204.7557-31.7041S40.9511,234.8085,43.5931,278.4016a56.6789,56.6789,0,0,0,.7589,5.9468l91.1041-8.4234A38.1906,38.1906,0,0,1,138.2491,269.6016Z"/><path d="M411.2231,171.9308c-10.5812,13.1359-19.1687,32.4443-25.3035,49.3387q3.1081-.1186,6.1922-.2132c12.8682-17.9226,27.5759-36.57,38.2723-49.8Z"/><path d="M196.14,236.7451l-15.3866,34.9328a2.6394,2.6394,0,0,1-2.4176,1.579h-36a33.2154,33.2154,0,0,0-.5077,29.5884c2.0486,4.123,4.2391,5.8465,5.14,5.96,4.9615.3767,56.29-13.5867,88.4221-22.7047l54.4869-119.5851c-22.7638-13.2919-56.2936-17.66-78.2847-19.0617-6.6872,12.2245-52.5321,95.977-66.3659,120.5191H176.612L190.18,237.1708l-22.4126,1.6007L210.7,154.8877c57.4637-1.321,73.9763,15.8521,73.9763,15.8521l-26.42,61.5692Z"/><path d="M352.7558,303.1965c2.6733-2.4865,7.6751-8.1134,7.2252-14.8874h12.94l-16.9338-15.0522H322.4982l24.991,15.0522h8.72c.45,5.4608-3.9731,10.3239-6.1487,12.3328l-12.8163-12.3328-45.344-27.3128a2.6433,2.6433,0,0,1-1.28-2.2653V177.6279L239.69,289.4031a2.6381,2.6381,0,0,1-1.6822,1.4448c-13.8551,3.9424-82.1448,23.226-91.2164,23.226a4.4472,4.4472,0,0,1-.4954-.0258c-3.2638-.418-6.6153-3.6483-9.2031-8.8549a38.7385,38.7385,0,0,1-3.0807-23.8265l-88.4837,8.1809c9.387,33.87,51.73,41.0336,105.066,41.0336h7.926v47.5562H86.5258c-17.8981,0-35.7136-15.6818-35.889-15.8417a2.6423,2.6423,0,1,0-3.5193,3.9423c.787.7018,19.4745,17.1834,39.4083,17.1834H370.5416a2.642,2.642,0,0,0,0-5.284h-13.87V321.9947a2.6418,2.6418,0,0,0-.6863-1.7751l-29.01-31.9105h3.5989l18.1613,16.0991-.0007.0007,4.7964,4.7886h27.625v5.573h3.7v-9.2677H355.0637Zm-61.4744-14.8874H316.7v6.9459H295.9049v5.9339H283.03Zm60.1057,89.8283H163.8045V330.5812h82.7624a2.6341,2.6341,0,0,0,2.4423,1.6513H351.3871Zm0-51.1889H266.528l13.1172-20.4756h23.1021V319.6h7.9879v-3.6947h-4.2881v-9.4328h29.901l15.039,16.5435Z"/><path d="M410.96,260.1268v9.22h-9.0338l-7.3294-5.625H378.2715L365.3,257.4964l-69.3953-1.458V257.24l17.82,10.7332H354.37s2.8693-2.733,5.67-5.4085l9.0284,7.3219c-2.784,1.8348-5.1251,3.3706-5.1251,3.3706l16.9338,15.0522H388.23c-.6789,0-.0258-14.491-.0023-15.0045l1.7638-.0477H394L412.1532,289.46H414.79V286.7a28.546,28.546,0,0,0,19.0655-25.917l-19.0655-.6557Z"/></svg>