<svg id="Layer_1" data-name="Layer 1" xmlns="http://www.w3.org/2000/svg" viewBox="0 0 1000 283.2917"><path d="M429.9056,171.8551c-6.8257-7.9869-27.6071-29.9281-62.3121-48.69L413.36,174.0358C418.8592,173.4194,424.4063,172.7085,429.9056,171.8551Z"/><path d="M958.3275,5.4965,908.3324.0478a8.0375,8.0375,0,0,0-8.6748,6.0656l-.07.2839H958.28Z"/><path d="M898.4023,11.1159l-39.7288,160.622L406.77,143.3874c19.485,15.5975,29.2988,28.4455,29.4886,28.6824l2.323,3.1289-3.84.6164c-26.8338,4.5513-54.473,5.9261-77.8932,5.9261a572.3937,572.3937,0,0,1-59.6407-2.9393l-2.56-.2845,8.4387-43.2371h-2.8444c-97.9-21.8555-207.1778,33.0443-225.7149,42.9052C50.9648,186.6245,0,223.2716,0,223.2716c50.9173,29.0618,189.02,31.4323,226.9473,29.0618,9.3395-.5689,26.6439-3.1289,49.0211-6.78l.1421-.0474s3.6506-.6164,10.0982-1.7067c1.0428-.19,2.1334-.3793,3.3187-.5214,10.0981-1.707,25.3163-4.2669,43.3791-7.2537,1.0906-.19,2.1809-.3319,3.2713-.5215,65.8987-10.8565,167.07-27.0707,203.0532-30.5789,80.4534-7.87,280.33-12.3262,364.3862-13.8908.19,5.784,8.0122,10.4775,17.731,10.4775,9.8137,0,17.7784-4.7884,17.7784-10.6671a1.3854,1.3854,0,0,0-.0946-.4268c1.8015,0,2.75-.0474,2.75-.0474l11.52-4.03,4.8355-175.2241ZM266.6287,182.3575,96.8567,205.4932,80.4531,180.4613c25.6959-13.2273,124.7333-59.4983,214.7634-41.3408Z"/><polygon points="991.135 9.052 963.021 5.97 958.09 184.655 1000 169.959 991.135 9.052"/><path d="M357.4172,119.2309a74.976,74.976,0,0,0-35.6517-2.323l-3.6506,6.258H360.878Z"/><polygon points="365.619 128.476 315.081 128.476 311.098 135.303 307.97 135.303 305.409 148.198 383.065 148.198 365.619 128.476"/><path d="M407.4812,174.6521,387.427,152.9387H304.5085l-4.22,21.4764C311.5253,175.5054,358.0336,179.5354,407.4812,174.6521Z"/><path d="M334.566,238.0158l-46.0343,7.7277-3.0814.5217-9.34,1.5643v8.0121l8.2492-1.3747a29.253,29.253,0,0,0,58.5029-.4268,27.9415,27.9415,0,0,0-1.4222-8.96l4.646-.7587v-7.7277l.0474-.5215-8.3915,1.4222Zm5.4519,16.0243a26.4068,26.4068,0,1,1-52.8135,0v-.0472l16.93-2.78a9.83,9.83,0,0,0-.4532,2.8123,9.9406,9.9406,0,1,0,18.0632-5.7039l16.8513-2.7672A25.1085,25.1085,0,0,1,340.0179,254.04Z"/></svg>