<?xml version="1.0" encoding="UTF-8"?>
<!--
  Copyright (c) 2026 Passion Highway, Inc.. All Rights Reserved.

  This image is digitally signed and the hash recorded.
  Unauthorized reproduction, distribution, or use of this
  image is strictly prohibited and constitutes copyright
  infringement under 17 U.S.C. Section 106.

  Violators may be subject to civil liability including
  statutory damages up to $150,000 per work (17 U.S.C. Section 504)
  and criminal prosecution with fines and imprisonment
  (17 U.S.C. Section 506).

  Contact: jim@passionhighway.com
  Asset ID: PHI-AID-C206-7a8d4d3b
  Hash: 92fca31e2638c1f8
-->
<svg id="Layer_1" data-name="Layer 1" xmlns="http://www.w3.org/2000/svg" viewBox="0 0 1000 350.6091">
  <metadata>
    <rdf:RDF xmlns:rdf="http://www.w3.org/1999/02/22-rdf-syntax-ns#"
             xmlns:dc="http://purl.org/dc/elements/1.1/"
             xmlns:cc="http://creativecommons.org/ns#">
      <rdf:Description>
        <dc:title>C206 Aircraft Silhouette</dc:title>
        <dc:creator>Passion Highway, Inc.</dc:creator>
        <dc:rights>Copyright (c) 2026 Passion Highway, Inc.. All Rights Reserved. Unauthorized use prohibited under 17 U.S.C. 106, 504, 506.</dc:rights>
        <dc:publisher>Passion Highway, Inc.</dc:publisher>
        <dc:identifier>PHI-AID-C206-7a8d4d3b</dc:identifier>
        <dc:source>Airplane-ID.com</dc:source>
        <cc:license rdf:resource="https://airplane-id.com/terms"/>
      </rdf:Description>
    </rdf:RDF>
  </metadata>

<path d="M240.7252,179.5131,253.87,123.2013a22.22,22.22,0,0,0-9.8645-1.5555l6.9348,3.0926Z"/><polygon points="268.876 130.434 257.28 183.104 262.599 183.104 274.094 130.886 268.876 130.434"/><path d="M126.8238,345.3861c-4.3023-.2936-8.71-2.04-13.8628-3.8406a15.59,15.59,0,0,0,5.4488,6.11,16.8845,16.8845,0,0,0,8.0462,2.9094,13.0329,13.0329,0,0,0,8.5319-2.3124,12.5148,12.5148,0,0,0,4.9211-6.7068c-2.539,1.22-4.5765,2.51-6.77,3.0993A15.4485,15.4485,0,0,1,126.8238,345.3861Z"/><path d="M333.608,335.8167c-5.5195-1.1173-10.9445-3.5746-17.0756-5.6349a24.29,24.29,0,0,0,6.92,6.7659,26.0776,26.0776,0,0,0,9.0716,3.9462,17.8986,17.8986,0,0,0,10.3062-.6608,12.8844,12.8844,0,0,0,6.9815-7.1292,19.1106,19.1106,0,0,1-16.2037,2.7128Z"/><path d="M346.1591,272.39h-9.4968l-1.4832,24.92c-31.65,1.0276-46.7311,14.8523-46.7311,14.8523,37.5,32.2212,115.4221,0,115.4221,0-23.6715-10.0823-43.5-14.0882-59.7013-14.7933Z"/><path d="M155.9805,272.39H139.909L127.65,306.8023c-27.1444,1.2455-41.3128,16.5614-41.3128,16.5614,44.8052,29.2208,99.3507,0,99.3507,0-17.8321-10.3241-33.3614-14.9434-46.525-16.2459Z"/><path d="M265.91,262.0162l53.9018-4.0594A31.071,31.071,0,0,0,348.5079,228.33l3.9852-92.1573c-35.9645-1.7309-68.8908-5.563-78.09-6.6911l-.3092,1.4046,74.2565,6.4384v45.7792h-85.752l-15.7794,71.6778C255.4735,255.4982,263.4658,257.8372,265.91,262.0162Z"/><ellipse cx="240.9643" cy="264.7597" rx="20.5357" ry="5.0325"/><path d="M387.24,107.1784a247.5268,247.5268,0,0,0-36.5906-7.5421c-45.8449-6.1073-78.0477-14.884-100.156-1.2587C277.47,102.749,329.4963,109.3677,387.24,107.1784Z"/><path d="M65.5857,228.6767a2.5312,2.5312,0,0,1-.3469-1.1024c-.0009-.0162.0073-.03.0067-.0463L49.0437,172.8389q-3.7362.9645-7.3489,1.981V214.416c.3754.0533.7308.1348,1.11.1814,0,0,.2128,16.4475,6.4159,32.114l22.3338,2.1139Z"/><path d="M935.0421.8092l-2.54,8.043,25.8929,6.4732a2.5937,2.5937,0,0,1,1.5878,3.8707L866.8679,171.785l52.4119,1.3465L1000,7.2729Z"/><path d="M272.7587,124.04c1.9423.2511,110.74,13.9626,162.4473,4.2915-3.4474-.4924-5.3879-.7467-5.3879-.7467s-8.3207-8.0367-29.132-15.923c-12.4289.759-24.6934,1.14-36.5583,1.14A734.6046,734.6046,0,0,1,244.69,102.6792a50.8975,50.8975,0,0,0-8.4438,9.82l18.3959,8.2038Z"/><path d="M860.8779,171.6312l92.83-152.1231L928.5657,13.22a2.5915,2.5915,0,0,1-1.8466-3.3L929.762.2838,926.9091,0,826.4934,110.4936a57.6108,57.6108,0,0,1-23.896,15.74c-29.008,9.9635-98.6081,31.1818-176.3041,36.0523l11.7641,3.62Z"/><path d="M264.0974,130.02l4.7782.4144.3865-1.7559-13.3127-2.4525-24.038,128.8938a69.07,69.07,0,0,1,9.0529-.5868c.1956,0,.3928.0079.5888.01l15.727-71.4381h-3.41Z"/><rect x="169.2922" y="193.0065" width="13.7987" height="13.7987"/><rect x="121.0779" y="177.4221" width="22.0779" height="25.974"/><path d="M59.4384,252.898l-7.7735-.7353c5.5781,11.0551,14.6554,20.6416,29.4779,22.1749,1.8114.1865,4.0353.38,6.4758.5762C78.3159,268.2065,67.4424,259.4831,59.4384,252.898Z"/><path d="M36.5,213.4528V176.3146C21.5066,180.8014,8.5712,185.9794,0,191.8961,0,191.8961,13.6855,208.2355,36.5,213.4528Z"/><path d="M636.87,170.9768,610.9784,163.01c-13.3944.4458-26.956.3839-40.5369-.3609,0,0-47.1169-18.8571-81.5065-25.2986-16.1326-3.07-30.09-5.4-40.4144-7.018-20.42,6.8509-56.5414,7.5113-90.8381,6.0737l-3.9849,92.147a36.277,36.277,0,0,1-33.4948,34.588l-54.1054,4.0746c-2.7223,5.32-14.2889,7.771-25.1331,7.771-12.3935,0-25.7306-3.2011-25.7306-10.2273,0-4.1865,4.7494-7.0049,11.1988-8.6074l14.2927-76.6392-.0044.0194-58.9286-24.1884s36.9962-32.509,62.2134-33.6983l-13.4481-5.9973c-8.6337,1.428-31.1679,7.8835-58.5056,37.2866,0,0-1.7644.1566-4.8194.4594l-13.0834,69.6394a2.5941,2.5941,0,0,1-2.4021,2.11l-80.4053,4.6748,6.2855,21.218a2.5979,2.5979,0,0,1-2.4909,3.333c-.0811,0-.1623-.0051-.2435-.01l-6.1431-.5812c10.83,8.719,21.7751,17.0375,28.9465,21.8537q5.4712.3516,12.0127.7017c5.1738-5.0708,13.4363-14.7565,20.3508-23.7143a2.66,2.66,0,0,1,2.2626-.9994l18.5065,1.4611a2.5946,2.5946,0,0,1,2.3843,2.79,2.5528,2.5528,0,0,1-2.7952,2.3844l-17.1063-1.3495c-4.6679,6.0062-11.0447,13.8831-16.7234,19.7786,4.2922.2093,8.7935.4154,13.5936.6135l8.1039-10.7533h26.2857l-2.3377,11.948c47.9482,1.4547,109.0389,2.13,166.4417.4677l1.1947-12.104h23.3767v11.2207c20.5715-.8831,40.3117-2.0778,58.39-3.74,113.6624-10.39,316.8831-46.7532,377.9741-51.2727,60.987-4.5714,111.6883-12.987,111.6883-12.987l15.4826-31.8124L637.57,171.0909A2.7328,2.7328,0,0,1,636.87,170.9768ZM188.2857,209.4026A2.5959,2.5959,0,0,1,185.6883,212H166.6948a2.5959,2.5959,0,0,1-2.5974-2.5974V190.4091a2.5959,2.5959,0,0,1,2.5974-2.5974h18.9935a2.5959,2.5959,0,0,1,2.5974,2.5974ZM424.3246,186.026l-63.3116-2.9221-1.9481-43.1365,65.26,2.7144Zm9.74-2.9221V143.6558h14.61a39.4481,39.4481,0,0,1,39.4481,39.4481Zm84.74-3.5714c-15.5844-2.76-22.4027-35.8767-22.4027-35.8767L566.0454,167.52S534.39,182.2922,518.8052,179.5325Zm311.3766,3.2207c38.1817,0,69.1428,3.2208,69.1428,7.1689s-30.9611,7.1688-69.1428,7.1688-69.1428-3.2207-69.1428-7.1688S792,182.7532,830.1818,182.7532Z"/><path d="M149.4185,220.0763l12.4261-66.1288c-20.3857,2.15-67.7189,7.8213-107.7564,17.6279l15.7386,53.1294Zm-33.5354-45.2516a2.5959,2.5959,0,0,1,2.5974-2.5974h27.2727a2.5959,2.5959,0,0,1,2.5974,2.5974v31.1688a2.5959,2.5959,0,0,1-2.5974,2.5974H118.4805a2.5959,2.5959,0,0,1-2.5974-2.5974Z"/></svg>