<svg id="Layer_1" data-name="Layer 1" xmlns="http://www.w3.org/2000/svg" viewBox="0 0 1000 332.2997"><rect x="333.5626" y="316.0119" width="49.7024" height="8.0041"/><path d="M48.8147,184.5054V133.79c-1.25.5-2.5508,1.05-3.8012,1.6006L9.6028,147.6444C22.7568,162.6489,40.8622,178.0035,48.8147,184.5054Z"/><path d="M810.3933,159.2479c-.45,0-.85.05-1.3.05a12.9588,12.9588,0,0,1-8.8527-3.4511,13.23,13.23,0,0,1-4.3513-9.7527,13.2527,13.2527,0,0,1,13.9541-13.204l10.9533.6c24.8075-2.4507,48.5146-19.3058,57.3673-26.308l-8.0523-2.1005-6.0519,9.3528L504.3014,72.0217c-.7-.35-1.4507-.7-2.3008-1.15a2.5649,2.5649,0,0,1,.15,2.8509l-53.0161,85.4757a2.4552,2.4552,0,0,1-2.1006,1.2H262.5788a2.6408,2.6408,0,0,1-1.6506-.65l-53.7661-47.5142a2.515,2.515,0,1,1,3.3512-3.7511l53.0158,46.9141H445.6336l52.2657-84.3253a2.5088,2.5088,0,0,1,1.9507-1.2c-21.8566-10.2032-76.4729-32.01-144.0933-32.01-80.5741,0-137.5412,58.4175-147.2942,69.1708-27.058-.05-96.2288,2.2505-154.6463,24.7572v57.9675a2.4636,2.4636,0,0,1-1.45,2.2508,2.6912,2.6912,0,0,1-1.0505.25,2.55,2.55,0,0,1-1.55-.55c-1.3-.95-27.8083-21.9066-45.2635-42.2627L0,150.9953s.45,8.3024,25.6577,30.009V284.1352L40.212,270.081V192.7577c2.1509,1.7007,4.3015,3.3512,6.7021,5.1517a261.3917,261.3917,0,0,0,83.2751,40.8121c-3.201,5.6517-7.4525,14.5045-9.1028,17.9555-37.4114,4.0512-35.8109,31.0595-32.06,45.7639a13.1446,13.1446,0,0,0,5.4018,7.5022l14.8045,21.3062a2.629,2.629,0,0,0,2.1,1.05h63.119a2.4711,2.4711,0,0,0,2.4506-2.05l3.0509-15.9548,60.5684,1.7c10.003.3,13.8539-12.904,5.3016-18.0053-20.7564-12.3038-48.0647-27.5583-76.323-35.8109L164.55,245.6737a134.5964,134.5964,0,0,0,15.5045.95c7.4021,0,25.2075-.15,50.015-.4v-3.9511c-42.7627-.2-91.3775-4.9514-91.8775-5.0015a2.5137,2.5137,0,0,1,.5-5.0015c.5.05,48.8648,4.8015,91.3775,5.0015v-34.36c0-.15.1-.25.1-.35a1.4692,1.4692,0,0,1,.1-.45,1.6963,1.6963,0,0,1,.3-.6c.05-.1.05-.2.1-.25,1.25-1.4,30.4092-34.66,108.2325-34.66,77.1731,0,136.7409,28.1084,137.3413,28.4085.05,0,.05.05.1.1a2.431,2.431,0,0,1,.8505.75c.05.1.1.15.15.25a2.1924,2.1924,0,0,1,.3,1.15v33.76a2.4763,2.4763,0,0,1-2.5008,2.5008,2.5078,2.5078,0,0,1-2.5007-2.5008V200.76c-13.9541,4.7515-69.6709,22.1566-131.2393,22.1566-59.718,0-95.4788-12.0037-106.332-16.3049v39.562c28.8087-.3,66.12-.8,107.1321-1.4506l-3.651,11.8535c-37.9615,3.8513-36.361,31.1095-32.56,45.864a13.0669,13.0669,0,0,0,5.3516,7.5022l14.8546,21.3062a2.5348,2.5348,0,0,0,2.05,1.05h63.169a2.5108,2.5108,0,0,0,2.4507-2.05l3.0007-15.9548,60.6185,1.7c9.9529.3,13.8539-12.904,5.2515-18.0053-21.8565-12.954-50.9152-29.1088-80.7743-37.0112l-7.7523-16.805c73.5221-1.3,154.4464-3.201,217.8653-5.6517,89.8769-3.5011,214.5645-10.8532,302.941-22.2568l15.9548-66.77ZM355.7567,42.8629c59.4179,0,108.6826,17.105,133.84,27.9085l-43.8131,73.672H261.9786L220.066,107.2322s-1.7-.05-4.8015-.15C230.5193,91.3775,283.3852,42.8629,355.7567,42.8629ZM172.4019,327.2982h-59.768l-10.6032-15.2045,72.8719,2.05Zm.4-56.9672a2.4751,2.4751,0,0,1,.8,3.4511,2.5049,2.5049,0,0,1-3.4511.75c-9.2529-5.8516-48.2646-15.6547-64.92-3.9514-6.802,4.8016-9.953,12.654-9.2527,23.3573a11.3437,11.3437,0,0,0,11.3034,10.703h31.86a2.5008,2.5008,0,0,1,0,5.0015h-31.86a16.4057,16.4057,0,0,1-16.3049-15.4044c-.8-12.3539,3.151-21.9567,11.4036-27.7583C120.9362,253.4259,162.5988,263.8291,172.8018,270.331Zm72.2968-109.9579H63.169a2.5008,2.5008,0,1,1,0-5.0015h181.93a2.5008,2.5008,0,0,1,0,5.0015ZM389.3169,327.2982h-59.768l-10.6031-15.2045,72.8719,2.05Zm.45-56.9672a2.4973,2.4973,0,0,1-2.7007,4.2014c-9.2029-5.8516-48.2646-15.6547-64.87-3.9514-6.8521,4.8016-9.953,12.654-9.3027,23.3573a11.4131,11.4131,0,0,0,11.3034,10.703h31.86a2.5008,2.5008,0,1,1,0,5.0015h-31.86a16.4056,16.4056,0,0,1-16.3049-15.4044c-.75-12.3539,3.201-21.9567,11.4035-27.7583C337.9014,253.4259,379.5139,263.8291,389.7669,270.331ZM782.76,153.4961H466.4149a2.5008,2.5008,0,0,1,0-5.0015H782.76a2.5008,2.5008,0,1,1,0,5.0015Z"/><path d="M809.0928,137.8413a8.1906,8.1906,0,0,0-8.2025,8.2526,8.2348,8.2348,0,0,0,9.0026,8.1525l102.2808-9.9032.2-.75-102.8308-5.7519Z"/><path d="M938.1315,0l-65.17,100.68,49.2149,12.904a2.5169,2.5169,0,0,1,1.8,3.0008l-5.3516,22.3568,31.91,1.75a2.4692,2.4692,0,0,1,2.3509,2.4507,2.5073,2.5073,0,0,1-2.2508,2.5508l-34.41,3.3009-15.9048,66.57c51.0655-6.8019,89.0767-15.0045,99.68-24.5572V0Z"/><path d="M918.5757,117.7853l-34.3606-9.0027c-4.3512,3.7011-22.5067,18.3555-44.8633,25.7078l74.2224,4.1513Z"/><path d="M468.24,196.9591c-16.655-6.852-67.17-25.3576-129.3387-25.3576-63.0688,0-93.428,22.7067-101.8805,30.4092,10.7033,4.1012,46.4137,15.9047,104.3813,15.9047C398.72,217.9154,450.9354,202.6108,468.24,196.9591Z"/><polygon points="43.476 58.155 21.438 17.83 21.438 136.686 43.476 131.528 43.476 58.155"/><rect x="116.6225" y="316.0119" width="49.7024" height="8.0041"/></svg>