<?xml version="1.0" encoding="UTF-8"?>
<!--
  Copyright (c) 2026 Passion Highway, Inc.. All Rights Reserved.

  This image is digitally signed and the hash recorded.
  Unauthorized reproduction, distribution, or use of this
  image is strictly prohibited and constitutes copyright
  infringement under 17 U.S.C. Section 106.

  Violators may be subject to civil liability including
  statutory damages up to $150,000 per work (17 U.S.C. Section 504)
  and criminal prosecution with fines and imprisonment
  (17 U.S.C. Section 506).

  Contact: jim@passionhighway.com
  Asset ID: PHI-AID-BL17-7b72f0a4
  Hash: 800aaa6f7c127272
-->
<svg id="Layer_1" data-name="Layer 1" xmlns="http://www.w3.org/2000/svg" viewBox="0 0 1000 295.9975">
  <metadata>
    <rdf:RDF xmlns:rdf="http://www.w3.org/1999/02/22-rdf-syntax-ns#"
             xmlns:dc="http://purl.org/dc/elements/1.1/"
             xmlns:cc="http://creativecommons.org/ns#">
      <rdf:Description>
        <dc:title>BL17 Aircraft Silhouette</dc:title>
        <dc:creator>Passion Highway, Inc.</dc:creator>
        <dc:rights>Copyright (c) 2026 Passion Highway, Inc.. All Rights Reserved. Unauthorized use prohibited under 17 U.S.C. 106, 504, 506.</dc:rights>
        <dc:publisher>Passion Highway, Inc.</dc:publisher>
        <dc:identifier>PHI-AID-BL17-7b72f0a4</dc:identifier>
        <dc:source>Airplane-ID.com</dc:source>
        <cc:license rdf:resource="https://airplane-id.com/terms"/>
      </rdf:Description>
    </rdf:RDF>
  </metadata>

<path d="M53.987,229.7458A214.8625,214.8625,0,0,0,73.2237,246.09V178.1459c-6.6417,1.148-13.0947,2.3318-19.2367,3.5475Z"/><polygon points="899.669 173.571 821.377 164.576 824.416 173.105 897.746 178.304 899.669 173.571"/><path d="M813.4524,223.8925l46.3587-43.299-33.574-2.38,2.0382,5.7188a2.4734,2.4734,0,0,1-.0242,1.7307Z"/><path d="M0,201.6755c0,19.8709,45.92,19.8572,45.92,19.8572s1.14,1.2732,3.1027,3.2982V182.6954C20.6381,188.5584,0,195.0865,0,201.6755Z"/><path d="M945.7146,17.6854C950.14,23.0681,955.1382,29.0169,960,34.6872a2.4864,2.4864,0,0,1,.412,2.5476L906.7276,169.3819l34.0957,3.9166L1000,17.6854Z"/><path d="M866.5646,181.0722l-56.12,52.4168c26.51-3.9916,50.2695-7.627,69.166-10.541l16.17-39.8042Z"/><path d="M203.5371,274.3271c-.2215-11.9133-.1045-81.2828-.037-113.4088C182.859,163.0529,126.4238,169.2014,78.188,177.3v72.4011c13.8289,9.7326,30.9161,18.9913,49.0227,22.0952,43.4378,7.4465,67.0183,6.8259,67.0183,6.8259s10.5492,17.3751,34.13,17.3751c11.4821,0,17.6436-3.8268,20.9681-7.7522-17.3943-.3636-36.5007-2.22-43.0336-8.2315A7.7766,7.7766,0,0,1,203.5371,274.3271Z"/><path d="M543.4378,127.6494l274.4,31.5215.0209.0024,83.75,9.62L955.2436,36.767c-4.1705-4.8774-10.3946-12.23-15.9631-19.0816H919.02V0h-7.4465V17.6854H897.6109L760.7819,123.7978H540.753Z"/><polygon points="902.953 178.673 937.839 181.146 939.001 178.089 904.787 174.158 902.953 178.673"/><path d="M306.2919,289.5228a89.9248,89.9248,0,0,0,34.3845,6.4747c33.5092,0,63.2951-24.201,63.2951-24.201s-.09,2.1773,8.4548,3.8729l2.1016-9.4578H315.67Z"/><path d="M277.7061,266.2116a102.8422,102.8422,0,0,0,7.5062,13.6519h4.58a54.49,54.49,0,0,0,11.9721,7.614l8.5551-21.2659Z"/><path d="M436.4868,266.1971a2.1553,2.1553,0,0,1-.25.0145,2.4822,2.4822,0,0,1-2.4288-1.978l-5.2128-25.1621L260.205,252.55a2.448,2.448,0,0,1-2.5234-1.6046,2.4816,2.4816,0,0,1,.8508-2.8652l9.7254-7.1783c-7.482,2.9691-18.4969,9.5844-16.9561,22.5367.9408,7.9116,10.5213,12.4153,22.1628,16.4249H279.3a99.4971,99.4971,0,0,1-7.6589-15.2711,2.4823,2.4823,0,0,1,2.327-3.3451H417.6234a2.4845,2.4845,0,0,1,2.4239,3.02l-2.7082,12.186c1.8192.23,3.91.4335,6.2576.6078,41.4134-4.3487,79.8975-13.4668,103.8986-20.0134Z"/><path d="M885.3247,222.066c24.3677-3.7653,39.28-6.1181,39.28-6.1181l11.3906-29.9529-35.0084-2.4821Z"/><path d="M815.8839,163.9452,541.76,132.4538a2.4787,2.4787,0,0,1-1.7549-1.0448L534.7,123.7978H512.263l43.2753-53.987-5.1194-2.7925L496.238,122.9905c-22.7067-4.5852-139.6466-26.7956-197.5892-10.3-64.0847,18.2438-87.0447,47.4092-87.0447,47.4092s-1.12.1088-3.1384.3118c-.0673,31.88-.187,101.8876.0357,113.8191a2.8565,2.8565,0,0,0,1.1514,2.1282c5.54,5.0989,24.7143,6.6975,42.6385,6.9223a13.989,13.989,0,0,0,.889-3.4172h7.1562c-7.5286-3.759-13.1029-8.5958-13.9652-15.8432-2.2349-18.7955,16.9485-27.8564,27.4031-30.0234a2.4177,2.4177,0,0,1,2.51.9808L336.7205,190.37a2.5578,2.5578,0,0,1,1.5465-.4848L443.57,192.9879a2.4939,2.4939,0,0,1,1.6216.669l55.8607,52.1448,52.6441,3.66a2.3525,2.3525,0,0,1,.343.0854,2.3206,2.3206,0,0,1,.2721.0676,2.4348,2.4348,0,0,1,.6866.3669c.0251.0194.053.0318.0776.0518a2.4573,2.4573,0,0,1,.909,1.59c.0021.0157-.004.03-.0022.046.0009.0079.0061.014.007.0219.0055.0542-.0173.1024-.0151.156a2.4506,2.4506,0,0,1-.0719.7378,2.3624,2.3624,0,0,1-.1254.3039,2.435,2.435,0,0,1-.2645.4933,2.3937,2.3937,0,0,1-.2424.2712,2.44,2.44,0,0,1-.4042.3354,2.381,2.381,0,0,1-.34.1845,2.326,2.326,0,0,1-.2142.1164,695.7057,695.7057,0,0,1-95.7828,23.0072c11.8221-.4209,26.2066-1.28,43.7-2.7415l8.4751,15.8565h11.79L512.9705,273.62c63.628-5.8124,192.1925-24.3262,288.8134-38.8289l3.3366-3.1163,18.1711-46.9429ZM295.377,184.7658H227.8933l-12.566-19.0816s45.61-42.3519,80.05-46.5405Zm90.304-4.0217a10.0968,10.0968,0,0,1-9.5481,6.8141h-68.19s-2.2667-40.8181,6.8926-61.8192a10.0653,10.0653,0,0,1,10.2929-5.9224l66.0535,6.8581a10.0962,10.0962,0,0,1,8.5052,13.3243Zm100.6478-26.7726-9.6505,25.2467a8.6283,8.6283,0,0,1-8.0595,5.5476H400.0931l13.205-48.4188a8.6289,8.6289,0,0,1,10.1516-6.1624l56.6464,12.2735A8.6285,8.6285,0,0,1,486.3288,153.9715Z"/><path d="M361.7748,208.9959H319.8432L268.478,246.907l159.1037-12.73-7.6483-36.9188-80.9562-2.3849-12.4078,9.1578h35.2054a2.4822,2.4822,0,0,1,0,4.9643Z"/><path d="M524.2377,252.39l-24.4122-1.6962a2.4663,2.4663,0,0,1-1.5174-.6642l-19.4113-18.1169-45.347,6.5921,4.6677,22.53Z"/><polygon points="425.036 197.409 432.542 233.64 474.248 227.573 442.489 197.923 425.036 197.409"/></svg>