<svg id="Layer_1" data-name="Layer 1" xmlns="http://www.w3.org/2000/svg" viewBox="0 0 1000 395.5012"><path d="M251.4479,260.8071a6.9753,6.9753,0,0,0-10.446,3.5738l-20.3878,59.8958a32.2185,32.2185,0,0,0-4.3806-.2953,35.76,35.76,0,1,0,.5,71.5164,36.1966,36.1966,0,0,0,35.196-34.0746A35.6871,35.6871,0,0,0,232.3783,327.87l21.7686-58.82a6.9753,6.9753,0,0,0-2.699-8.2424Zm-18.3805,98.91a16.8586,16.8586,0,1,1-16.8339-16.8342A16.8265,16.8265,0,0,1,233.0674,359.7168Z"/><circle cx="216.2119" cy="359.7198" r="9.6888"/><path d="M840.1008,33.5047l-502.092,54.091a753.5287,753.5287,0,0,0-99.8716-1.7518L229.95,93.5815c38.491-.4363,99.5015-1.1273,145.6907-1.6479q-7.1094-1.0554-14.1644-1.9155L836.6636,38.8253c-21.8937,35.4806-37.0624,89.9355-41.4742,106.9476L903.4012,168.88V.0245C890.44-.3261,876.9274,3.0814,863.4081,10.14,855.0655,14.5058,847.2613,22.9211,840.1008,33.5047Z"/><path d="M908.3235.2979V9.5493h26.79A63.25,63.25,0,0,0,908.3235.2979Z"/><path d="M942.1644,14.4716H908.3235v8.6139h43.06A83.6117,83.6117,0,0,0,942.1644,14.4716Z"/><polygon points="249.346 248.286 344.574 217.869 344.574 185.752 312.596 186.781 249.346 248.286"/><path d="M971.0573,52.6189a125.5432,125.5432,0,0,0-15.3264-24.6112H908.3235V56.3105h64.375C972.1686,55.07,971.64,53.8272,971.0573,52.6189Z"/><polygon points="245.199 229.469 289.449 187.527 249.528 188.811 245.199 229.469"/><path d="M250.0492,183.8946l94.5069-3.0517V123.3513H256.4973Zm89.7814-8.22H313.349l26.4816-23.0853Zm3.6424-46.1213-41.8389,46.1213-36.2768-46.1213Zm-83.6779,10.4351,27.7122,35.6862H256.7434Z"/><path d="M812.7294,221.9608l25.1158.4888c29.58-3.8374,50.41-7.2337,65.556-10.2762V177.5628l-90.6718-.5243Z"/><path d="M974.6351,61.2328H908.3235V81.537h71.4838A112.8756,112.8756,0,0,0,974.6351,61.2328Z"/><path d="M980.5178,86.4592H908.3235v4.7684h72.7188C980.8972,89.6311,980.7155,88.0433,980.5178,86.4592Z"/><path d="M981.4224,96.15H908.3235V115.3h73.0926A171.5646,171.5646,0,0,0,981.4224,96.15Z"/><path d="M981.0931,120.2226h-72.77v5.153h72.2928C980.7993,123.6676,980.9549,121.9483,981.0931,120.2226Z"/><path d="M961.123,188.5281h-52.8v5.6048h48.0491A31.6629,31.6629,0,0,0,961.123,188.5281Z"/><path d="M980.029,130.2978H908.3235V149.047h68.2749C977.9918,143.07,979.1676,136.7853,980.029,130.2978Z"/><polygon points="243.301 247.3 305.294 187.016 296.852 187.288 244.396 237.014 243.301 247.3"/><path d="M969.1381,173.0206c1.1417-2.8117,2.2379-5.8115,3.2789-8.9762H908.3235v5.8869l13.178,2.8138Z"/><path d="M967.024,177.9308l-45.77-.2647-.0051.0009-.009-.0009-12.9166-.0748v6.0146h55.8194C965.1181,181.8478,966.0819,179.9686,967.024,177.9308Z"/><path d="M975.3816,153.9692H908.3235v5.1529h65.6257Q974.6928,156.5985,975.3816,153.9692Z"/><path d="M521.9285,256.9455c46.0392-4.8712,93.4764-10.047,139.0529-14.9851V223.9316l-139.0529-2.7063Z"/><path d="M71.7827,267.4761a43.7764,43.7764,0,0,0,12.6826,4.182,117.279,117.279,0,0,1,13.3823,2.3776v14.85h8.3063V276.7608a45.843,45.843,0,0,1,10.8966,6.5629c3.4,2.7246,12.3371,3.1858,26.7892,2.5687V210.6349H58.3205Z"/><path d="M49.4173,173.044l7.7372,32.6687H143.84V160.2551L49.96,172.9182C49.7724,172.9434,49.6035,173.0143,49.4173,173.044Z"/><path d="M31.896,189.4075v.0493a10.7358,10.7358,0,0,1,.5906,18.163c4.3809,31.0593,19.8857,47.9917,33.4711,56.6056L44.6936,174.3948A21.8224,21.8224,0,0,0,31.896,189.4075Z"/><polygon points="812.729 172.116 897.284 172.605 812.729 154.55 812.729 172.116"/><path d="M986.4639,218.1535a14.2932,14.2932,0,0,0-5.2669.9352l-44.94-15.5544c4.3316-1.6241,7.58-3.1008,10.6811-4.4791h-38.59V211.164c5.2668-1.1323,9.7952-2.2151,13.7329-3.2489l54.0463,14.6192a11.3009,11.3009,0,0,0-3.2,7.7279c0,6.7435,6.0543,12.1578,13.5362,12.1578S1000,237.0057,1000,230.2622C1000,223.5678,993.9458,218.1535,986.4639,218.1535Zm0,17.2278c-3.15,0-5.71-2.2644-5.71-5.1191,0-2.8057,2.5594-5.07,5.71-5.07s5.71,2.2643,5.71,5.07C992.1735,233.1169,989.6142,235.3813,986.4639,235.3813Z"/><polygon points="665.904 219.103 807.807 221.865 807.807 177.01 665.904 176.19 665.904 219.103"/><path d="M234.93,189.281l-86.1679,2.7733v93.5974c18-.964,43.2862-3.1836,75.987-4.8876Z"/><path d="M665.9037,241.4274c33.9806-3.68,66.8587-7.216,97.2386-10.3777,14.4759-1.507,27.717-2.9569,39.86-4.3541l-137.0981-2.6682Z"/><path d="M240.4968,184.1794l4.59-.1478,6.7485-63.3764a2.4592,2.4592,0,0,1,2.4467-2.2015h92.7533a2.46,2.46,0,0,1,2.4611,2.4611V219.667a2.463,2.463,0,0,1-1.7112,2.3458L251.9978,252.61a17.4981,17.4981,0,0,1,7.7973,14.5693v12.1085c2.4119-.0983,4.873-.1968,7.3834-.2461,22.4534-.6069,53.9513-2.79,91.1087-5.9854L361.5955,115.07H248.7444Z"/><path d="M235.7253,182.7133l8.0726-67.6313H207.2257l-43.66,41.2483c8.4171,7.334,20.23,15.2588,33.3236,16.8832C216.6271,175.7239,229.8189,180.3015,235.7253,182.7133Zm-60.1987-24.9064s31.9945-38.098,38.7872-36.9167c6.7434,1.28,25.7924-5.5129,25.7924-5.5129L225.9794,166.47S198.218,156.6256,175.5266,157.8069Z"/><path d="M196.2922,178.1165c-15.4907-1.9582-29.0085-11.578-38.016-19.8085l-9.5143,1.2831v27.5407l77.72-2.5014A168.4615,168.4615,0,0,0,196.2922,178.1165Z"/><polygon points="521.928 216.301 660.981 219.007 660.981 176.161 521.928 175.357 521.928 216.301"/><path d="M224.7,98.5433,212.4433,110.16H364.0972a2.3387,2.3387,0,0,1,1.7719.7385,2.3,2.3,0,0,1,.6892,1.7719l-1.1813,56.8517,151.6539.886v-58.23c-42.8235-6.0542-82.0535-11.6164-110.061-15.6526C359.667,97.0175,271.6086,98.0509,224.7,98.5433ZM373.0064,166.47V129.5533s55.4243,4.2823,55.4243,18.4091C428.4307,162.1385,373.0064,166.47,373.0064,166.47ZM448.12,120.89l-54.7845-3.0518s1.2306-13.5361,22.79-13.5361A39.3358,39.3358,0,0,1,448.12,120.89Z"/><path d="M232.31,252.7848a17.4076,17.4076,0,0,1,5.7288-2.5548l6.523-61.259-4.6543.15Z"/><path d="M521.9285,170.4345l139.0529.804V132.445c-43.9894-6.1763-93.3613-13.1213-139.0529-19.5787Z"/><path d="M793.857,151.0634s-56.2007-7.8547-127.9533-17.9275V171.267l141.9034.8208V153.4987l-13.8248-2.9523C793.9069,150.8558,793.857,151.0634,793.857,151.0634Z"/><polygon points="364.464 213.237 517.006 216.205 517.006 175.328 365.277 174.451 364.464 213.237"/><path d="M363.2205,272.6266c45.2056-3.9431,98.3683-9.313,153.7857-15.1623V221.13l-152.645-2.9706Z"/><path d="M25.8417,190.7883v-4.8261S23.5281,85.8439,23.5281,70.142,12.9452,48.9272,12.9452,48.9272v137.035h-1.87a11.0544,11.0544,0,0,0-.4431,22.1007v99.2813c0,31.4039,15.21,38.7872,15.21,38.7872V204.2457a10.5816,10.5816,0,0,0,0-13.4574Z"/></svg>