<?xml version="1.0" encoding="UTF-8"?>
<!--
  Copyright (c) 2026 Passion Highway, Inc.. All Rights Reserved.

  This image is digitally signed and the hash recorded.
  Unauthorized reproduction, distribution, or use of this
  image is strictly prohibited and constitutes copyright
  infringement under 17 U.S.C. Section 106.

  Violators may be subject to civil liability including
  statutory damages up to $150,000 per work (17 U.S.C. Section 504)
  and criminal prosecution with fines and imprisonment
  (17 U.S.C. Section 506).

  Contact: jim@passionhighway.com
  Asset ID: PHI-AID-BE55-9ebb4f68
  Hash: f38e8df6a6467a47
-->
<svg id="Layer_1" data-name="Layer 1" xmlns="http://www.w3.org/2000/svg" viewBox="0 0 1000 309.8656">
  <metadata>
    <rdf:RDF xmlns:rdf="http://www.w3.org/1999/02/22-rdf-syntax-ns#"
             xmlns:dc="http://purl.org/dc/elements/1.1/"
             xmlns:cc="http://creativecommons.org/ns#">
      <rdf:Description>
        <dc:title>BE55 Aircraft Silhouette</dc:title>
        <dc:creator>Passion Highway, Inc.</dc:creator>
        <dc:rights>Copyright (c) 2026 Passion Highway, Inc.. All Rights Reserved. Unauthorized use prohibited under 17 U.S.C. 106, 504, 506.</dc:rights>
        <dc:publisher>Passion Highway, Inc.</dc:publisher>
        <dc:identifier>PHI-AID-BE55-9ebb4f68</dc:identifier>
        <dc:source>Airplane-ID.com</dc:source>
        <cc:license rdf:resource="https://airplane-id.com/terms"/>
      </rdf:Description>
    </rdf:RDF>
  </metadata>

<path d="M441.7432,288.4282h-.0364L345.87,287.13l2.169,6.477c25.4989-.928,77.6712-1.8759,90.2261,5.3037q6.7782-.5177,12.9163-1.0132l-8.1669-9.8372A2.591,2.591,0,0,1,441.7432,288.4282Z"/><path d="M346.2509,299.009a2.5774,2.5774,0,0,1-2.6309-1.8164l-3.3976-10.1394-4.5653-.0621-.0026.0006-.003-.0006-95.2376-1.29c17.8088,6.0655,49.76,15.6311,84.1468,19.7749,36.2719-1.3818,69.9646-3.4087,97.7938-5.3906C405.1061,298.2237,374.3689,297.9264,346.2509,299.009Z"/><path d="M6.4362,276.7568c.5224.2641,1.0914.5113,1.6255.7712V254.2023c-1.2664.8842-2.4536,1.7481-3.491,2.5691A11.9272,11.9272,0,0,0,6.4362,276.7568Z"/><path d="M423.1475,255.7855l34.52,41.5814q4.0113-.3327,7.6689-.6453l-28.3789-40.9361Z"/><path d="M195.8873,285.0973a2.6632,2.6632,0,0,1-2.1651-1.1658c-.1067-.1509-10.7889-15.5042-26.47-15.66-17.7786-.1821-48.5737-16.7637-49.8749-17.4715a2.6657,2.6657,0,0,1-.82-3.9971c14.3951-18.2064,56.9006-25.48,88.0265-28.3874V194.5733C180.642,197.5076,147.55,205.9354,101.1688,218.5l3.7706,82.2553c57.8664,6.6738,127.4117,7.3712,191.8071,5.6255a456.3818,456.3818,0,0,1-72.5408-20.9Z"/><path d="M850.26,169.8486h25.0194L936.0678,21.9572H922.7234a2.6631,2.6631,0,0,1-2.6647-2.6647V5.9179l-9.3265.69L794.1245,140.8032l-56.5269,3.3162,30.1195,20.8386Z"/><polygon points="757.477 164.351 728.967 144.626 603.095 152.01 614.143 155.859 757.477 164.351"/><path d="M43.3691,274.0794a4.3091,4.3091,0,0,0-4.3042-4.3042H13.3911v10.1989c4.1028,1.7735,8.4977,3.4386,13.15,5.0064l14.4107-7.029A4.3391,4.3391,0,0,0,43.3691,274.0794Z"/><path d="M91.3339,221.1709c-40.8031,11.0668-64.3246,21.3548-77.9428,29.5815v13.6934H39.0649A9.6355,9.6355,0,0,1,43.291,282.74l-9.3834,4.5764c18.7216,5.5854,41.0486,9.76,65.667,12.7985l-3.6754-80.184C94.3778,220.3441,92.8832,220.7494,91.3339,221.1709Z"/><path d="M459.73,255.7855H443.4471l28.0113,40.4055c16.4154-1.4423,25.924-2.4334,25.924-2.4334s6.4337-1.2182,17.573-3.3227l-38.2665-34.6494Z"/><path d="M925.3881,5.5236V16.6278H940.044a2.6687,2.6687,0,0,1,2.467,3.677L881.047,169.8486H954.38l5.5109-20.5181-20.4664-4.8695a2.66,2.66,0,0,1-1.9309-3.36l20.6515-68.6163a2.6889,2.6889,0,0,1,3.0082-1.858l18.9845,3.3221L1000,0Z"/><polygon points="943.411 139.93 961.274 144.181 978.75 79.118 962.564 76.284 943.411 139.93"/><path d="M164.4862,262.767a289.62,289.62,0,0,0-4.0712-31.98c-15.6936,3.8-29.7132,9.2006-37.4924,16.89C130.5323,251.552,150.9,261.36,164.4862,262.767Z"/><path d="M320.0253,219.1135c-3.1838,3.0144-6.6354,6.4162-10.15,10.0249H429.7459c-16.8877-10.7359-30.7483-12.6509-30.9607-12.6782Z"/><path d="M437.4105,234.4678H405.45l13.3222,16.0472a2.5331,2.5331,0,0,1,.2928-.0589h35.0042A111.15,111.15,0,0,0,437.4105,234.4678Z"/><path d="M338.3192,234.4678v47.23l4.02.0543c.0078.0007.0156,0,.0234,0l96.5,1.3066-40.3405-48.5916Z"/><path d="M291.16,241.747c7.4483-8.8279,15.6718-17.2078,20.9192-22.3658l-28.0178.944C287.6253,224.3945,291.4857,231.2827,291.16,241.747Z"/><path d="M276.5084,220.58,239.98,221.81c-.6658.0036-40.2029.406-74.3611,7.7821a287.8149,287.8149,0,0,1,4.2241,33.6169c14.5411,1.3974,24.5679,12.8229,27.4444,16.5793l27.3871.3708c.0163,0,.0322.0007.0485.0007L332.99,281.6259V234.4678H307.1754a2.63,2.63,0,0,1-1.7426-.6841c-5.8176,6.19-11.4844,12.6756-16.0133,18.6124-.0162.025-.037.0455-.054.07-5.5916,7.3393-9.424,13.8115-9.4774,17.7048a2.14,2.14,0,0,0,.52,1.7123c2.5424,2.5293,7.95,2.9509,13.7659,1.0773,6.3261-2.035,11.1923-6.1361,11.8351-9.9771.4371-2.597-1.0539-5.1993-4.4291-7.7287a2.6658,2.6658,0,0,1,3.1956-4.2677c6.3521,4.7622,7.0339,9.6336,6.49,12.876-1.2022,7.177-9.0792,12.1213-15.46,14.1719a27.9869,27.9869,0,0,1-8.5172,1.4364c-4.3744,0-8.1086-1.2959-10.638-3.81a7.4108,7.4108,0,0,1-2.0922-5.5636c.07-5.0845,4.3412-12.4768,10.128-20.2221C289.348,230.2655,279.0284,222.2144,276.5084,220.58Z"/><path d="M811.1445,172.8688,613.4609,161.1571a2.5944,2.5944,0,0,1-.7182-.1458L587.0454,152.06c-15.5407-.9976-54.5228-3.4512-98.1974-5.8206l13.4862-24.4a2.6638,2.6638,0,1,0-4.6633-2.5763L482.9373,145.92c-46.5079-2.49-97.1819-4.8-129.7355-5.1037l-14.3127-23.5959h18.7492a2.6647,2.6647,0,0,0,0-5.3294H334.1556a2.6668,2.6668,0,0,0-2.28,4.0465l15.0706,24.8463c-11.916-.0107-20.7666.3113-25.1153,1.0851-29.9513,5.3295-59.2631,60.6489-59.2631,60.6489H251.9093c-4.0339-3.5141-11.7385-10.707-11.7385-10.707s-19.2507,1.1655-30.2573,2.1833v23.9528c16.3629-1.3347,28.5626-1.4573,29.96-1.4661l159.1462-5.3294c1.793.1874,34.4955,4.4759,62.0092,39.3045h16.6882a2.6656,2.6656,0,0,1,1.7878.687l42.0271,38.05c6.3443-1.198,13.7467-2.5951,22.0661-4.1643l10.2923,23.25a2.663,2.663,0,0,0,2.4357,1.5874,2.6219,2.6219,0,0,0,1.0773-.229,2.6583,2.6583,0,0,0,1.3584-3.5131l-9.7871-22.1087c82.3175-15.52,240.7887-45.29,306.4384-56.8749,74.3455-13.1105,89.9606-30.6976,93.1582-36.6131l-77.05,2.6211ZM270.1892,207.4743s19.0261-44.4475,45.46-57.451h48.4976l3.4642,54.4665Zm179.8679-4.9563h-73.919l-3.5173-52.4947,69.5489,2.2383a8.1347,8.1347,0,0,1,7.8874,8.1538Zm17.0009,0-4.4769-44.0211,51.7488,4.21a11.786,11.786,0,0,1,10.8189,10.9786l1.8652,28.8324Zm121.6174-20.2518-2.7181,20.2518H535.0081V164.5192l45.2467,6.5551A10.0189,10.0189,0,0,1,588.6754,182.2662Zm204.81,13.5366,14.4588-18.7772,48.6514,16.63Z"/></svg>