<svg id="Layer_1" data-name="Layer 1" xmlns="http://www.w3.org/2000/svg" viewBox="0 0 1000 442.3595"><path d="M233.5556,382.3727l12.8207-63.4041H230.1077l-3.4258,62.3756c-.3614-.0127-.715-.0544-1.0793-.0544a30.6595,30.6595,0,1,0,7.953,1.0829Zm-7.077,46.4714c-9.8834,0-17.8955-7.62-17.8955-17.0194s8.0121-17.0195,17.8955-17.0195,17.8954,7.62,17.8954,17.0195S236.3619,428.8441,226.4786,428.8441Z"/><ellipse cx="226.4786" cy="411.8247" rx="10.0003" ry="9.5109"/><rect x="308.6974" y="328.2292" width="5.7566" height="22.776"/><path d="M843.4746,199.172v15.319L953.4785,217.99q1.3642-.723,2.6319-1.41l-81.3967-14.629Z"/><path d="M912.3814,11.6239,859.5721,1.7162l45.6221,40.6212C906.7933,29.8834,909.1143,19.2283,912.3814,11.6239Z"/><path d="M907.4943,111.3149h46.8018l-2.9574-17.6868h-43.84C907.4344,99.513,907.4383,105.4293,907.4943,111.3149Z"/><path d="M941.4889,34.7275l-3.0458-18.2142-20.6959-3.8827c-2.6032,5.4962-4.6032,13.0859-6.117,22.0969Z"/><path d="M830.8215,251.5922c2.5146-.3777,4.9448-.74,7.3137-1.0914v-30.835l-8.6456-.275Z"/><path d="M904.4407,48.8126,849.6193,0,829.2517,102.2111a87.5576,87.5576,0,0,1-75.8734,69.8933c-21.6064,2.4826-46.7311,5.123-72.1237,7.2772l224.87,20.0026C904.7255,182.0708,898.8533,102.2525,904.4407,48.8126Z"/><path d="M909.8825,47.5536c.0013.0229-.0082.0453-.0072.0685-.2346,2.1646-.4527,4.3686-.6485,6.6277h35.5269l-2.3719-14.1829H910.8044Q910.2989,43.6912,909.8825,47.5536Z"/><path d="M907.8212,129.3355H957.31l-2.1206-12.6812H907.5527Q907.648,123.0743,907.8212,129.3355Z"/><path d="M907.58,88.2887h42.8653l-1.5346-9.1772h-41.1Q907.6644,83.6635,907.58,88.2887Z"/><path d="M970.1766,208.2928,911.19,195.5237c.3008,3.9954.5022,6.3852.5185,6.5719a2.66,2.66,0,0,1-.1392,1.0527l51.832,9.3156C967.04,210.3244,969.3974,208.8054,970.1766,208.2928Z"/><path d="M909.9092,176.6069l56.7324,8.5342-2.526-15.1062L909.3,165.928C909.5025,169.7048,909.7068,173.2913,909.9092,176.6069Z"/><path d="M910.7865,189.9731,969.5779,202.7l-2.01-12.0182L910.2514,182.06Q910.5345,186.4354,910.7865,189.9731Z"/><path d="M908.004,73.772h40.0141l-2.3718-14.1828H908.79C908.4586,64.1784,908.2051,68.9322,908.004,73.772Z"/><polygon points="829.268 214.039 838.135 214.321 838.135 198.697 828.599 197.849 829.268 214.039"/><path d="M909.0215,160.5537l54.1875,4.06-2.4954-14.9213h-52.195C908.6773,153.4473,908.8468,157.0615,909.0215,160.5537Z"/><path d="M908.3068,144.3527H959.821l-1.6184-9.6778H907.9705C908.0715,137.9645,908.1855,141.1846,908.3068,144.3527Z"/><path d="M297.5858,153.5949c.01.002.0172.0092.0274.0111,7.767,1.2788,13.8481,2.093,16.7574,2.093,14.3992,0,54.458,6.4343,56.1552,6.7081l19.4959-.0078L366.284,146.5739a2.67,2.67,0,0,1,1.4809-4.8909h39.7882c-19.1967-8.8034-42.8542-16.3873-69.1551-17.6869-61.03-3.0155-88.1863-4.8308-97.0138,18.8519,17.7909,3.6536,40.4544,8.159,56.1651,10.7476C297.562,153.5976,297.5731,153.5927,297.5858,153.5949Z"/><path d="M114.8094,333.3663a243.669,243.669,0,0,0,34.0389,2.8721c4.1522.0818,8.2229.0583,12.3474.1091v-9.4531H114.8094Z"/><path d="M285.0239,156.8317,252.7286,309.48l13.3952-1.7565L293.9723,158.4Q289.7218,157.6808,285.0239,156.8317Z"/><path d="M224.081,309.7016h23.1419L279.77,155.8661c-13.1582-2.4449-27.7178-5.3662-39.93-7.8772-.3089,1.3111-.6315,2.5994-.8619,4.0392,0,0-37.3761,9.344-58.7338,52.7535,0,0-5.0621.2806-13.709,1.1462V336.3945c18.2855.1665,36.4251.128,54.5558-.3165ZM185.5836,204.5682s23.4936-42.0216,56.064-49.0163l35.9877,9.5044-30.0076,65.0342S207.582,230.6243,185.5836,204.5682Z"/><path d="M648.6321,181.84c-27.7358,1.782-54.0943,2.61-74.6585,1.5838-44.8986-2.3151-76.5223-5.4606-95.4488-7.7386L373.438,178.6522v118.041a2.6736,2.6736,0,0,1-2.323,2.6489l-118.5666,15.55-2.251,20.1717c17.5666-.801,35.2936-1.869,53.3943-3.3107v-9.7709h15.5376v8.3829c51.3656-4.5921,106.2013-11.9606,169.3134-22.8529,110.479-19.0227,256.4223-42.9383,336.9635-55.12l-2.2757-55.0211ZM376.7885,224.11v-43.57h69.0388l3.5242,43.57Zm101.8764-38.55c9.1837,0,25.3623,7.0478,26.2165,16.1783a17.8057,17.8057,0,0,1-17.727,19.3822H456.88l-4.5383-35.56Zm30.5948,102.28a15.046,15.046,0,0,1-15.03,15.0275H469.7276a15.046,15.046,0,0,1-15.03-15.0275V242.4542a15.0472,15.0472,0,0,1,15.03-15.0328H494.23a15.0472,15.0472,0,0,1,15.03,15.0328Z"/><path d="M985.24,240.7961a14.5932,14.5932,0,0,0-6.864,1.767l-63.7675-7.5575a281.5953,281.5953,0,0,0,28.9028-11.988l-100.0364-3.182v29.8756c10.192-1.4972,18.848-2.7209,25.5559-3.6024a213.3954,213.3954,0,0,0,26.1575-5.1941l77.1619,7.5878a14.5982,14.5982,0,0,0-1.87,7.0539,14.76,14.76,0,1,0,14.76-14.76Zm0,21.1775a6.4173,6.4173,0,1,1,6.4174-6.4172A6.4172,6.4172,0,0,1,985.24,261.9736Z"/><path d="M5.2175,265.5978,39.39,277.88V234.6194A263.2181,263.2181,0,0,0,4.043,251.2882,7.8857,7.8857,0,0,0,5.2175,265.5978Z"/><path d="M469.73,232.7609H494.23a9.6908,9.6908,0,0,1,9.6908,9.6908v45.3878a9.6881,9.6881,0,0,1-9.6881,9.6881H469.7276a9.6908,9.6908,0,0,1-9.6908-9.6908V242.4542A9.6934,9.6934,0,0,1,469.73,232.7609Z"/><path d="M44.7294,290.2871a52.5011,52.5011,0,0,0,13.0148,18.8093V228.0882q-6.5283,2.1348-13.0148,4.5234Z"/><path d="M153.1865,280.1744a2.6681,2.6681,0,0,1-2.67,2.67H109.8037a2.6682,2.6682,0,0,1-2.67-2.67V260.1515h-44.05v53.4624c9.9684,7.6337,24.6955,14.6479,46.3863,18.7968v-8.1861a2.6681,2.6681,0,0,1,2.67-2.67h49.056V260.1515h-8.0092Z"/><path d="M399.6414,162.3954l44.08-.0183a234.99,234.99,0,0,0-25.3261-15.3547H376.5822Z"/><path d="M314.3706,161.0384a121.8362,121.8362,0,0,1-15.126-1.7729l-2.33,12.4954,68.3414,4.7753V224.11H287.151l-15.4574,82.8824,96.4049-12.6407V176.0555a2.6717,2.6717,0,0,1,2.5942-2.67l84.45-2.3839c-1.008-.8333-2.423-1.9567-4.1535-3.2892H370.1008C369.264,167.611,328.3422,161.0384,314.3706,161.0384Z"/><rect x="112.4734" y="260.1515" width="35.3737" height="17.3531"/><path d="M153.1865,254.8121h8.0092V206.4939c-2.4817.2741-5.1387.583-8.0092.9415Z"/><path d="M147.8471,208.1289c-10.2125,1.372-22.2708,3.2648-35.3737,5.8556v40.8276h35.3737Z"/><path d="M107.1339,215.0746c-13.9983,2.9122-28.9891,6.6137-44.05,11.302v28.4355h44.05Z"/></svg>