<?xml version="1.0" encoding="UTF-8"?>
<!--
  Copyright (c) 2026 Passion Highway, Inc.. All Rights Reserved.

  This image is digitally signed and the hash recorded.
  Unauthorized reproduction, distribution, or use of this
  image is strictly prohibited and constitutes copyright
  infringement under 17 U.S.C. Section 106.

  Violators may be subject to civil liability including
  statutory damages up to $150,000 per work (17 U.S.C. Section 504)
  and criminal prosecution with fines and imprisonment
  (17 U.S.C. Section 506).

  Contact: jim@passionhighway.com
  Asset ID: PHI-AID-C150-f83c4657
  Hash: 50838d3e526117ae
-->
<svg id="Layer_1" data-name="Layer 1" xmlns="http://www.w3.org/2000/svg" viewBox="0 0 1000 323.6541">
  <metadata>
    <rdf:RDF xmlns:rdf="http://www.w3.org/1999/02/22-rdf-syntax-ns#"
             xmlns:dc="http://purl.org/dc/elements/1.1/"
             xmlns:cc="http://creativecommons.org/ns#">
      <rdf:Description>
        <dc:title>C150 Aircraft Silhouette</dc:title>
        <dc:creator>Passion Highway, Inc.</dc:creator>
        <dc:rights>Copyright (c) 2026 Passion Highway, Inc.. All Rights Reserved. Unauthorized use prohibited under 17 U.S.C. 106, 504, 506.</dc:rights>
        <dc:publisher>Passion Highway, Inc.</dc:publisher>
        <dc:identifier>PHI-AID-C150-f83c4657</dc:identifier>
        <dc:source>Airplane-ID.com</dc:source>
        <cc:license rdf:resource="https://airplane-id.com/terms"/>
      </rdf:Description>
    </rdf:RDF>
  </metadata>

<ellipse cx="313.4868" cy="284.7039" rx="56.2892" ry="14.7079"/><path d="M305.6043,310.5812c-5.6306-.0578-11.3464-1.7093-18.4332-3.6733a18.4975,18.4975,0,0,0,7.3084,8.1967,21.1136,21.1136,0,0,0,10.9253,3.3666,18.79,18.79,0,0,0,11.1695-3.1144,17.7454,17.7454,0,0,0,7.11-8.4489c-3.6679,1.0048-6.61,2.2262-9.5954,2.8118A31.8608,31.8608,0,0,1,305.6043,310.5812Z"/><path d="M115.9417,275.1693c-31.0874,0-56.2892,6.5847-56.2892,14.7079s25.2018,14.7075,56.2892,14.7075,56.29-6.5847,56.29-14.7075S147.03,275.1693,115.9417,275.1693Z"/><path d="M108.0592,315.7545c-5.63-.0579-11.3464-1.7093-18.4329-3.6734a18.4954,18.4954,0,0,0,7.3085,8.1967,21.1133,21.1133,0,0,0,10.9252,3.3666,18.7879,18.7879,0,0,0,11.1692-3.1144,17.745,17.745,0,0,0,7.11-8.4489c-3.6682,1.0048-6.61,2.2262-9.5957,2.8118A31.8586,31.8586,0,0,1,108.0592,315.7545Z"/><path d="M38.8158,163.8158c.168-10.0711,1.106-20.6395,1.9852-28.5918C17.2874,139.3192,0,143.0921,0,143.0921,8.5526,161.1842,38.8158,163.8158,38.8158,163.8158Z"/><path d="M45.2158,187.6841a56.74,56.74,0,0,0,7.7981,11.23l3.9682-49.0206-6.8986-1.5393A311.9944,311.9944,0,0,0,45.2158,187.6841Z"/><path d="M53.196,133.14c-.6752,2.9776-1.4,6.3795-2.1285,10.0432l6.3435,1.4154.9945-12.2851C56.657,132.5876,54.9079,132.8623,53.196,133.14Z"/><path d="M148.3424,125.8355c-21.1969-2.4153-54.7292,1.1472-84.5883,5.6567l-1.1548,14.2636,83.9773,18.7372Z"/><path d="M807.2368,163.4762l-140.1315-12.16-17.7487-9.3316.007-.0033c-27.955.1619-57.2632-.3456-84.89-1.1914-14.8361-.4543-38.7528-.382-67.201.0167C455.9,89.8884,349.8355,60.6908,349.8355,60.6908L250.2647,51.01a19.4577,19.4577,0,0,0-12.8749,3.23c-1.7074,1.17-3.3694,2.37-5.037,3.566l121.9209,15.24a2.5922,2.5922,0,0,1,1.064.3778l35.3872,22.0375c60.83-1.8041,100.7225,47.63,100.7225,47.63L412.0066,147.04c-10.8553-27.1382-46.875-47.8619-46.875-47.8619a115.0309,115.0309,0,0,1,16.677-3.07L353.0479,78.197,251.2438,65.4718a2.4913,2.4913,0,0,1-.0359.4076L207.8507,212.2032a37.7327,37.7327,0,0,1,7.7277.0035l23.6139-79.268,8.5051-51.0308,85.8552,17.27V147.04H240.4808l-16.4529,55.23L322.9,200.6579a11.9488,11.9488,0,0,0,11.968-11.9243V93.2566a2.6316,2.6316,0,1,1,5.2632,0v95.477a17.2063,17.2063,0,0,1-17.1875,17.1875L222.4519,207.56l-1.682,5.6467c6.2076,1.7151,10.3156,5.14,10.3156,9.3265,0,6.0033-8.3444,10.5263-19.4079,10.5263s-19.4079-4.523-19.4079-10.5263c0-4.0569,3.8613-7.3975,9.7464-9.1633L240.0908,84.8681,215.1316,147.04c-41.4474,0-54.2763-13.8158-54.2763-13.8158l50.3289-53.7829h30.5147L246.0311,64.82l-19.83-2.4787c-33.2185,25.124-57.5908,54.0306-67.4111,66.5261-1.1963-.9509-1.8821-1.5648-1.8821-1.5648-1.0418-.26-2.1851-.4744-3.3319-.6865l-4.8545,106.2568c4.2426.2933,8.5764.54,13.1206.68,39.54,1.2166,90.7882.7418,159.4544-1.5464l-7.81,30.9872h10.1974l14.94-31.587c77.3518-2.7973,175.6383-7.7289,302.1655-14.959,106.7013-6.0971,172.3022-10.56,212.5-13.6831V181.3788l-101.3158-4.4051Z"/><path d="M111.9937,267.501l7.8948-.1336c-.3036-17.546,3.66-30.0377,6.5677-36.7968,5.4122.77,11.0721,1.4189,17.0137,1.9255l2.8629-62.6674L62.1707,151.0508l-4.2744,52.8005c12.8643,11.7095,32.6,20.5881,60.4888,25.51C115.254,237.2183,111.6921,250.0546,111.9937,267.501Z"/><ellipse cx="211.6776" cy="222.5329" rx="14.1447" ry="5.2632"/><path d="M918.935,14.3375l4.2757-13.51C917.8358.3007,914.4737,0,914.4737,0L901.452,14.4737h17.4737C918.9376,14.4287,918.9206,14.3821,918.935,14.3375Z"/><path d="M928.5625,1.3617l-4.1484,13.112h74.6835L1000,12.5C991.4374,8.2189,950.5567,3.5953,928.5625,1.3617Z"/><path d="M859.0557,163.4762,938.8775,42.2209l-17.22-22.4841H896.7166L801.9737,125.0434a23.89,23.89,0,0,1-2.301.96l2.1587,28.0251C818.0972,156.7338,838.703,160.1309,859.0557,163.4762Z"/><path d="M796.4889,153.1382l-1.96-25.4414c-7.6345,2.2744-22.1021,5.7244-47.8188,9.2263-8.7036,1.185-18.5948,2.1217-29.3078,2.86,23.4883,3.8472,48.0842,7.92,52.992,8.9015C772.6151,149.1282,782.5093,150.8066,796.4889,153.1382Z"/><path d="M944.192,40.5042a2.6356,2.6356,0,0,1,.1131,3.0479L864.7438,164.4107c23.8513,3.9182,46.76,7.668,61.2247,10.0332L996.6916,19.7368h-68.405Z"/><path d="M859.7145,181.658h0l-1.1619-.05v20.744c50.4192-3.9911,57.2369-5.641,57.2369-5.641l5.6541-12.3686,1.9223-5.6281-43.2939-4.27Z"/></svg>