<svg id="Layer_1" data-name="Layer 1" xmlns="http://www.w3.org/2000/svg" viewBox="0 0 1000 410.7443"><rect x="293.1518" y="306.9209" width="18.0012" height="9.9006"/><rect x="293.1518" y="321.022" width="18.0012" height="9.9006"/><rect x="293.1518" y="295.5201" width="18.0012" height="7.2006"/><path d="M300.8022,362.1658a11.51,11.51,0,1,0,11.51,11.51A11.5094,11.5094,0,0,0,300.8022,362.1658Z"/><path d="M311.1688,338.132v-2.998H293.1423v2.2972a37.08,37.08,0,1,0,18.0265.7008Zm-10.3564,59.53a23.9835,23.9835,0,1,1,23.9445-23.9834A23.9939,23.9939,0,0,1,300.8124,397.6624Z"/><rect x="293.1518" y="274.8187" width="18.0012" height="3.3003"/><rect x="293.1518" y="282.3192" width="18.0012" height="9.0007"/><polygon points="325.254 282.319 463.413 282.319 483.215 274.819 316.253 272.719 325.254 282.319"/><polygon points="426.363 220.909 380.296 221.41 380.296 228.48 426.363 228.48 426.363 220.909"/><path d="M508.1164,217.6226l.429,43.2217c14.736-.6609,25.5087-1.3312,29.948-1.6219v-49.47H491.19c5.0343,1.7547,10.1411,3.6028,15.4007,5.6581.1623.0632.2507.2165.3918.3106a2.4462,2.4462,0,0,1,.5459.4325,2.1914,2.1914,0,0,1,.221.3106,2.1631,2.1631,0,0,1,.3671,1.1542l-.0007.003Z"/><polygon points="746.183 162.952 746.183 242.535 806.467 234.293 812.026 163.465 746.183 162.952"/><polygon points="426.363 247.429 380.296 246.727 380.296 254.567 426.363 254.567 426.363 247.429"/><path d="M380.2959,261.0826c15.0172.8669,30.6691,1.2864,46.0671,1.4116v-3.1266H380.2959Z"/><polygon points="426.363 233.28 380.296 233.28 380.296 241.925 426.363 242.628 426.363 233.28"/><path d="M543.2939,161.5458v51.7875h55.1286a2.3986,2.3986,0,0,1,2.4,2.4V262.406l140.56-19.2152v-80.276L548.216,161.4115Zm61.2791,45.8057a2.3988,2.3988,0,0,1,2.4-2.4h11.2506a2.3989,2.3989,0,0,1,2.4,2.4v16.7638a2.3988,2.3988,0,0,1-2.4,2.4H606.9732a2.3986,2.3986,0,0,1-2.4-2.4Z"/><path d="M461.1631,215.7287c.0141,0,.0255.0078.04.008l31.5894-.3483c-99.0166-35.3177-155.51-13.3362-164.3014-9.3774l-.48,11.1953,49.7919-.5494c.0325-.0012.06-.0188.0929-.0188.03,0,.0539.0157.0832.0169l50.7091-.5594c.0263-.001.0484-.0152.0753-.0152.024,0,.0435.0128.0673.0135l32.2882-.3565C461.1344,215.7372,461.1475,215.7287,461.1631,215.7287Z"/><polygon points="458.763 233.28 431.164 233.28 431.164 242.701 458.763 243.122 458.763 233.28"/><path d="M431.1635,262.5194c9.4137.0394,18.6656-.025,27.5995-.1645v-2.9873H431.1635Z"/><polygon points="458.763 220.557 431.164 220.857 431.164 228.48 458.763 228.48 458.763 220.557"/><polygon points="458.763 247.923 431.164 247.502 431.164 254.567 458.763 254.567 458.763 247.923"/><polygon points="928.482 151.925 870.535 151.925 869.113 159.086 928.147 159.086 928.482 151.925"/><polygon points="887.774 205.42 888.144 205.546 906.563 163.886 869.843 163.886 887.774 205.42"/><path d="M973.2828,147.1249,959.4546,26.4018H895.4535L886.2219,72.905H938.041a2.3966,2.3966,0,0,1,2.4,2.4329l-1.0109,71.787Z"/><polygon points="935.608 77.705 885.269 77.705 871.488 147.125 934.629 147.125 935.608 77.705"/><polygon points="925.791 209.366 927.922 163.886 911.809 163.886 893.047 206.321 921.995 201.014 925.791 209.366"/><path d="M936.9956,151.9251h-3.7121l-.3355,7.1607h28.6493a2.4,2.4,0,0,1,0,4.8005H932.7232l-2.3265,49.668L979.35,200.092l-5.5175-48.1669Z"/><path d="M547.4846,156.6293a272.4488,272.4488,0,0,1,80.1638-30.9119c-28.7508-36.9212-90.28-66.3134-90.28-66.3134L876.9916,8.4007,821.7879,142.21,630.9749,130.209c-.054-.0777-.1146-.1545-.169-.2322a269.0758,269.0758,0,0,0-73.6236,26.7039l307.04,2.3887L895.7767.1307,894.3927,0,483.9648,58.8039l-56.9872,55.8245L440.0012,159.56Zm-1.7157-14.42H466.1136l44.5529-56.7037H561.52ZM521.9174,61.6541,555.22,75.3051l-49.5033-3.3Zm-42.303,13.651H500l-46.4873,52.9536-13.501-14.401Z"/><polygon points="970.598 7.2 900.579 0.585 896.406 21.602 972.86 21.602 970.598 7.2"/><polygon points="978.118 147.125 992.573 147.125 973.614 26.402 964.29 26.402 978.118 147.125"/><rect x="609.3733" y="209.7519" width="6.4504" height="11.9633"/><polygon points="503.34 220.072 463.563 220.505 463.563 228.48 503.424 228.48 503.34 220.072"/><path d="M538.4934,161.6767l-97.8817,2.6689V195.87A354.396,354.396,0,0,1,477.0783,205.1a2.3478,2.3478,0,0,1,.736-.1483h60.6791Z"/><polygon points="375.496 221.463 327.806 221.981 327.528 228.48 375.496 228.48 375.496 221.463"/><path d="M46.57,207.5392c1.672-.7792,3.5627-5.1329,5.3043-11.0567.0038-.0119.0064-.024.0105-.0356,1.0553-3.5947,2.0384-7.7793,2.9005-12.0907V163.3611c0-13.5008-18.9013-20.7014-18.9013-20.7014v54.39C40.5178,203.7551,44.8927,208.3021,46.57,207.5392Z"/><path d="M266.8709,145.5586c-40.2957,7.8619-84.1038,16.7771-126.1295,26.0532-15.4924,3.4193-29.277,6.6044-41.7029,9.5874v6.0852L271.6721,171.59Z"/><polygon points="463.563 243.195 469.932 243.292 474.188 233.28 463.563 233.28 463.563 243.195"/><polygon points="467.904 248.063 463.563 247.997 463.563 254.567 465.14 254.567 467.904 248.063"/><path d="M503.4714,233.28H479.4005l-5.6916,13.3907-.005.0114-4.7651,11.2108-.0073.0175-1.8251,4.2934c13.4357-.2809,25.9427-.702,36.6408-1.1532Z"/><path d="M543.2939,261.4678a2.401,2.401,0,0,1-2.2269,2.3954c-.4406.0283-13.9041.9753-34.4553,1.8659a2.7948,2.7948,0,0,1-.4408.0421c-.08,0-.1571-.0048-.2319-.0093-12.1069.5219-26.6307,1.0214-42.3627,1.312-.0511.0031-.0929.0428-.1442.0428-.0618,0-.1229-.0333-.1847-.0378-.6741.0124-1.3725.02-2.0512.0309-.0117,0-.0214.0069-.0331.0069-.01,0-.0185-.006-.0282-.006-10.3417.1752-21.1427.26-32.1436.1944a.5946.5946,0,0,1-.46-.0009c-16.8626-.1079-34.0958-.5637-50.5318-1.5584-.0364.0016-.0668.0206-.1034.0206-.0751,0-.1383-.0358-.2115-.0427-20-1.22-38.804-3.2354-54.2634-6.4029a905.7165,905.7165,0,0,0-.6008-.2419,3.0923,3.0923,0,0,1-.6915-.529,2.3577,2.3577,0,0,1-.2883-.4277,2.3132,2.3132,0,0,1-.1672-.3144,2.386,2.386,0,0,1-.1189-.5886,2.3068,2.3068,0,0,1-.0506-.2517c0-.0173.01-.0314.01-.0487s-.0084-.0354-.0074-.0544l.5133-11.9747a2.276,2.276,0,0,1,.13-3.0308l.8332-19.4332-35.96,5.9236,7.6006,41.2089,236.1061,2.2487,20.441,30.9138,9-3.6-14.6388-29.156,50.4914-6.9026V218.1335H543.2939Z"/><path d="M885.2186,209.6252a2.3982,2.3982,0,0,1-1.43-1.322l-19.1813-44.4293-47.7731-.3719L811.33,233.6286l38.5731-5.2732.087-14.1407,23.8924-4.38Z"/><polygon points="993.327 151.925 978.667 151.925 984.037 198.803 1000 194.413 993.327 151.925"/><path d="M58.35,221.7836c.57,7.1082,1.2265,14.6472,1.8975,21.0978,19.2645,7.5542,30.69,24.7369,30.69,24.7369l3.3.0314V255.6244L63.7061,221.06Z"/><path d="M191.6235,268.5772l98.1087.9344L287.84,259.2538,99.0385,248.26v19.435l81.8608.78c7.922,14.2375,24.2619,22.8449,49.8481,22.8449,28.3521,0,30.1522-18.6012,30.1522-18.6012H219.4968C200.8155,272.7187,194.0662,272.7582,191.6235,268.5772Z"/><path d="M53.8855,240.8018c.467.1165.9064.2757,1.3657.404-1.0936-10.95-2.1237-24.3479-2.7794-33.4308a9.931,9.931,0,0,1-3.872,4.1144,5.1255,5.1255,0,0,1-2.1867.4829c-4.8661,0-10.4734-6.483-14.9466-13.127C21.2638,202.3868,13.6728,205.0205,8.11,207.15c-9.225,3.532-11.09,16.2127-2.9453,21.8026,8.7674,6.0175,21.3079,9.0376,37.92,10.283V321.022c0,33.9023,22.5015,38.5526,22.5015,38.5526V299.1205c0-32.5523-11.7007-43.9531-11.7007-43.9531Z"/><polygon points="375.496 246.654 326.781 245.911 326.41 254.567 375.496 254.567 375.496 246.654"/><polygon points="246.039 220.182 216.956 221.757 216.956 238.099 246.039 236.524 246.039 220.182"/><circle cx="96.6383" cy="216.0148" r="11.1007"/><path d="M81.0109,218.7222,69.4264,220.287l24.8118,28.089V231.6728A15.8654,15.8654,0,0,1,81.0109,218.7222Z"/><path d="M112.54,216.0148a15.8815,15.8815,0,0,1-13.501,15.658v11.78l187.9053,10.9412L275.97,194.8923l-.0011-.0031v-.0036l-3.422-18.5539L99.0385,192.1053v8.2512A15.8817,15.8817,0,0,1,112.54,216.0148Zm99.616,3.469a2.3964,2.3964,0,0,1,2.2713-2.3956l33.8836-1.8377a2.2074,2.2074,0,0,1,1.7789.6516,2.404,2.404,0,0,1,.75,1.744v21.1515a2.3964,2.3964,0,0,1-2.2713,2.3954l-33.8835,1.8376a1.158,1.158,0,0,1-.1288.0048,2.399,2.399,0,0,1-2.4-2.4Z"/><path d="M375.4957,259.3676H357.7516c5.7435.5547,11.6931,1.0083,17.7441,1.4006Z"/><path d="M80.952,213.89a15.8421,15.8421,0,0,1,13.2862-13.5336v-18c-13.8031,3.3524-25.729,6.421-36.066,9.2222-.4814,2.02-1.0111,4.0569-1.5978,6.0238.1345,2.0237.6675,9.9166,1.3992,19.3918Z"/><path d="M289.4836,169.9709a2.3665,2.3665,0,0,1,2.6088,2.173,2.4006,2.4006,0,0,1-2.173,2.6087l-12.5718,1.1428,2.8917,15.68L435.181,160.1758,422.62,116.8446c-12.8972,2.2228-75.2391,13.0628-151.0368,27.7981l4.89,26.5109Zm28.5909-30.1215,64.3544-11.7007a2.399,2.399,0,0,1,.8579,4.7206L318.9324,144.57a2.2581,2.2581,0,0,1-.4313.04,2.4,2.4,0,0,1-.4266-4.7606Z"/><path d="M435.8114,194.96V164.9471l-154.7009,31.35,5.0412,27.3336,37.0389-6.077.5656-13.1933a2.4026,2.4026,0,0,1,1.268-2.0159C327.0042,201.2916,364.3679,182.1426,435.8114,194.96Z"/><polygon points="375.496 233.28 327.322 233.28 326.987 241.113 375.496 241.852 375.496 233.28"/><path d="M950.0062,261.6342a16.9388,16.9388,0,0,0-9.5751,2.9574l-6.0366-5.8886V234.76H909.8493l-14.8249-14.4611,29.61-4.8568-5.0238-7.6611-66.1883,10.173v9.1684l34.917-5.727,48.1736,46.988a16.8777,16.8777,0,0,0-3.552,10.2955,17.0433,17.0433,0,1,0,17.0452-17.0451Zm-21.0641-21.4215v13.1717L915.439,240.2127Zm21.0641,50.0595a11.5845,11.5845,0,0,1-9.5958-18.087l4.16,4.0574a5.9592,5.9592,0,1,0,5.4345-3.5291,5.9875,5.9875,0,0,0-1.13.1138l-4.3865-4.2789a11.4446,11.4446,0,0,1,5.5184-1.4619,11.5929,11.5929,0,0,1,0,23.1857Z"/><path d="M300.8117,353.5517A20.1287,20.1287,0,1,0,320.94,373.68,20.17,20.17,0,0,0,300.8117,353.5517Zm0,36.364A16.2353,16.2353,0,1,1,317.047,373.68,16.274,16.274,0,0,1,300.8117,389.9157Z"/><polygon points="540.375 136.858 553.141 88.97 549.109 88.97 543.485 110.069 530.205 110.069 522.607 136.858 536.344 136.858 540.375 136.858"/></svg>