<?xml version="1.0" encoding="UTF-8"?>
<!--
  Copyright (c) 2026 Passion Highway, Inc.. All Rights Reserved.

  This image is digitally signed and the hash recorded.
  Unauthorized reproduction, distribution, or use of this
  image is strictly prohibited and constitutes copyright
  infringement under 17 U.S.C. Section 106.

  Violators may be subject to civil liability including
  statutory damages up to $150,000 per work (17 U.S.C. Section 504)
  and criminal prosecution with fines and imprisonment
  (17 U.S.C. Section 506).

  Contact: jim@passionhighway.com
  Asset ID: PHI-AID-AS50-82da2df6
  Hash: 47c15eea7eed9be1
-->
<svg id="Layer_1" data-name="Layer 1" xmlns="http://www.w3.org/2000/svg" viewBox="0 0 1000 272.0742">
  <metadata>
    <rdf:RDF xmlns:rdf="http://www.w3.org/1999/02/22-rdf-syntax-ns#"
             xmlns:dc="http://purl.org/dc/elements/1.1/"
             xmlns:cc="http://creativecommons.org/ns#">
      <rdf:Description>
        <dc:title>AS50 Aircraft Silhouette</dc:title>
        <dc:creator>Passion Highway, Inc.</dc:creator>
        <dc:rights>Copyright (c) 2026 Passion Highway, Inc.. All Rights Reserved. Unauthorized use prohibited under 17 U.S.C. 106, 504, 506.</dc:rights>
        <dc:publisher>Passion Highway, Inc.</dc:publisher>
        <dc:identifier>PHI-AID-AS50-82da2df6</dc:identifier>
        <dc:source>Airplane-ID.com</dc:source>
        <cc:license rdf:resource="https://airplane-id.com/terms"/>
      </rdf:Description>
    </rdf:RDF>
  </metadata>

<path d="M366.2884,142.5273c-.5023-1.5574-1.0048-3.0142-1.5574-4.4713H350.6139v4.4713Z"/><path d="M261.4905,91.3843c27.179,3.2656,63.5018,8.5909,93.3936,16.3779V89.6261c-35.72-1.5075-82.19-2.8637-93.3936-3.2154Z"/><path d="M600.7525,133.0824V111.7309c-64.7575-.1505-102.9894-1.4065-125.4962-2.7631v27.48Z"/><path d="M971.0624,13.2128,894.7,125.2954l53.6549-1.4568L1000,13.2128Z"/><path d="M882.9438,114.9966l34.4637-60.99-7.6779-3.768L872.092,113.69c-.8264-.01-1.624-.0062-2.3844.0075a8.1337,8.1337,0,0,0-7.8645,6.9918l-.8036,5.51,22.6693-.6089a4.9308,4.9308,0,0,0,2.8208-8.8773A9.9881,9.9881,0,0,0,882.9438,114.9966Zm-8.9929,7.8875c-4.12,0-7.4353-1.4069-7.4353-3.1148s3.3156-3.1151,7.4353-3.1151c4.0693,0,7.4355,1.4068,7.4355,3.1151S878.02,122.8841,873.9509,122.8841Z"/><path d="M261.4905,142.5273h84.1V135.544a2.5526,2.5526,0,0,1,2.5119-2.5119h14.4185c-7.6364-15.7248-18.89-22.306-20.6983-23.21-26.6768-6.0787-56.87-10.5-80.3317-13.3131Z"/><path d="M726.8017,129.7668,855.9656,126.3l1.7582-12.158c-12.4088-.3514-53.3535-1.4065-130.9221-2.0094Z"/><path d="M605.7764,132.9818l116.0014-3.1148V112.1329c-29.1887-.2008-63.4013-.3517-102.9894-.3517-4.4713,0-8.7918,0-13.012-.05Z"/><path d="M261.4905,81.3868c11.3037.3517,57.5737,1.658,93.3936,3.2154V58.93c-35.3177-1.6576-75.5589-2.16-93.3936-2.361Z"/><path d="M448.2781,78.724v22.4066l9.1435-6.33V82.8939S453.9048,81.236,448.2781,78.724Z"/><path d="M470.2324,108.6664c-13.9162-1.0048-20.7486-1.9594-24.0643-2.7128l-33.7606,30.4447.4523,1.708,57.3726-1.5071Z"/><path d="M399.8479,89.1738l11.1028,41.7484,32.3035-29.1385v-25.27c-7.3849-3.2653-16.93-7.3849-26.6768-11.2031-7.3849-2.914-30.2438-4.8231-56.6694-6.1793V84.803c18.5381.854,33.51,1.708,37.93,2.512A2.5448,2.5448,0,0,1,399.8479,89.1738Z"/><path d="M430.2422,142.6782l-19.2412.5022H410.9a2.518,2.518,0,0,1-2.4113-1.8588L395.4268,92.0374c-5.6267-.7034-19.0906-1.4568-35.5188-2.16v19.2412a215.4972,215.4972,0,0,1,24.366,8.1889,2.5957,2.5957,0,0,1,1.3565,3.316,2.5287,2.5287,0,0,1-2.3614,1.5071,2.3318,2.3318,0,0,1-.9545-.2009,215.1185,215.1185,0,0,0-28.0833-9.0932c6.129,5.7773,13.3131,15.3228,17.3321,29.691h22.5575a1.4848,1.4848,0,0,1,.5022.1006l28.0333,5.8778h7.5858Z"/><path d="M225.67,81.638s-1.5071-.1006-4.22-.2512l2.01,6.0287c4.421.4017,16.73,1.4569,33.0069,3.3659V56.5186h-4.421Z"/><path d="M384.0731,175.8356V151.0177a2.5191,2.5191,0,0,1,2.512-2.512h11.7557l-4.4714-.9545h-21.05a93.2425,93.2425,0,0,1,1.658,23.5619h.05v4.7225Z"/><path d="M973.3735,225.0192a2.5032,2.5032,0,0,0-3.3159,1.3063c-.1.2511-.2511.5026-.9043.6531-6.1289,1.6077-25.5213-9.8969-39.94-19.8444L945.0891,199.9a8.7326,8.7326,0,0,0,5.0239-9.1935L943.4311,140.97l-52.3989,6.5813c11.5548,31.0475,21.2508,48.33,26.6264,56.5688a12.8823,12.8823,0,0,0,1.0049,1.3063,3.7435,3.7435,0,0,0,.7034.854c6.129,4.5216,35.6191,25.8228,48.7816,25.8228a11.24,11.24,0,0,0,2.3111-.2512,6.1551,6.1551,0,0,0,4.17-3.5167A2.54,2.54,0,0,0,973.3735,225.0192Z"/><polygon points="430.242 153.53 389.097 153.53 389.097 201.156 430.242 192.766 430.242 153.53"/><path d="M970.359,128.31,724.29,134.8409l-251.5454,6.6816-17.6841.5025v63.803c35.2174-7.1841,74.5544-14.2174,119.7693-19.9446,19.1912-2.4114,38.4327-4.8731,57.5234-7.335L658.0751,222.96a2.4883,2.4883,0,0,0,2.16,1.2559,2.7779,2.7779,0,0,0,1.2559-.3517,2.5373,2.5373,0,0,0,.9043-3.4665l-24.6168-42.502c87.9678-11.2535,170.8117-22.1049,216.2274-28.0833l-23.26,38.5833h12.71l24.818-40.4924c4.0693-.5526,7.5861-1.0049,10.6006-1.3566v-.05a2.5263,2.5263,0,0,1,2.16-2.8133l79.0757-9.8969a2.5642,2.5642,0,0,1,2.8134,2.21v.3014h19.4926v-6.9329ZM765.2844,153.6805l-14.72.7031A17.2407,17.2407,0,0,1,732.78,140.4174l-.3517-1.6077,49.3345-2.3614A17.246,17.246,0,0,1,765.2844,153.6805Z"/><path d="M435.2661,194.826a2.527,2.527,0,0,1-2.0094,2.4616l-46.1694,9.445c-.1508,0-.3517.05-.5022.05a2.5628,2.5628,0,0,1-1.6077-.6028,2.483,2.483,0,0,1-.9043-1.9091V180.86h-9.5455v33.9111h2.512v7.6867c22.5068-4.8733,46.6214-10.2489,72.9967-15.6245V142.1253l-14.77.402Z"/><path d="M228.4836,240.5431V222.6079h8.29l.854-3.4665c-67.5712.804-159.8095-.6029-196.2828-1.3063C92.1355,240.0908,165.6349,240.6437,228.4836,240.5431Z"/><path d="M221.4,92.2885a2.5423,2.5423,0,0,1-2.21-1.7079l-3.165-9.4449c-18.3373-.9046-58.1766-2.3614-77.619.5023a86.6673,86.6673,0,0,0-35.77,13.715c-28.9879,8.6915-65.7627,46.0189-78.6741,59.9348A11.8679,11.8679,0,0,0,19.2894,157.7c-9.4449,8.1386-14.67,14.72-17.483,19.4926a12.65,12.65,0,0,0,1.6579,15.2222A105.8452,105.8452,0,0,0,30.5931,212.61c17.7847.402,84.25,1.5574,148.4054,1.7079l37.0763-107.7618a2.526,2.526,0,0,1,4.7724,1.6576L184.2735,214.3183c18.99.05,37.6288,0,54.66-.2008l15.5236-69.2288,2.01-48.9828C236.07,93.4942,221.8017,92.3388,221.4,92.2885ZM180.7568,86.36v15.2222S118.6115,111.48,114.19,93.8962C114.19,93.8962,138.4055,82.7431,180.7568,86.36ZM63.3488,210.0482h-27.38a5.7056,5.7056,0,0,1-3.0142-10.55l33.5091-21.1507,10.7009,5.677Zm-32.3034-54.81h-.1006c14.0668-14.72,44.3106-44.0594,68.9277-53.6552,3.4162,2.9642,10.9017,7.4858,24.1145,7.6364L83.4946,167.4458A450.7633,450.7633,0,0,1,31.0454,155.2378Zm155.9912,15.9256c-15.4736.3517-32.9063.7035-50.54.9043a284.0641,284.0641,0,0,1-40.4924-2.7128l41.0953-60.1359c16.88.1508,45.6169.9042,70.1334,1.7082Zm61.8439-39.6887-6.28,38.0811s-15.1722.5525-37.5784,1.1554L223.2086,111.43c16.73.5026,28.837.9545,28.837.9545Z"/><path d="M367.5947,147.5512H353.8293l15.6745,17.1815A80.9485,80.9485,0,0,0,367.5947,147.5512Z"/><path d="M369.5038,172.118l-22.5069-24.5668H260.8876l-16.78,66.4657c35.0166-.452,62.0954-1.6073,68.6766-3.8179,17.5333-5.9284,43.8584-6.9832,56.72.452Z"/><path d="M247.6245,240.4928c36.0714,0,71.9419-5.9784,112.4344-14.3682v-11.354H366.59c-10.6-5.7273-34.6145-5.7775-52.1981.2009-7.0835,2.3614-35.3177,3.567-71.54,4.0693l-.9043,3.5671h3.5168v17.8849Z"/><polygon points="371.991 265.009 371.991 219.668 366.025 219.668 366.025 265.009 240.428 265.009 240.428 226.388 234.462 226.388 234.462 265.009 159.732 265.009 144.66 249.938 125.821 249.938 151.568 272.074 404.96 272.074 404.96 261.241 389.888 265.009 371.991 265.009"/><rect x="298.8304" y="46.6278" width="24.1774" height="4.8669"/><path d="M320.1693,28.5859v-9.445h-14.77v9.445h-6.5813v7.5358h27.0285V28.5859ZM339.3605,3.4665V1.5574H320.1693V0h-14.77V1.5574H284.0979L256.8686,10.5,2.7609,21.3515V29.49l231.852-11.6554L188.996,32.806H221.45l62.6479-22.5071v32.404h55.2626V20.6983l22.306-8.5909L757.0958,9.7463v-6.28ZM335.5423,38.935H287.8155V5.3253h17.5836v8.1889h14.77V5.3253h15.373Zm-15.373-19.7941h-14.77v9.445h-6.5813v7.5358h27.0285V28.5859h-5.677Z"/></svg>