<svg id="Layer_1" data-name="Layer 1" xmlns="http://www.w3.org/2000/svg" viewBox="0 0 1000 359.0425"><path d="M252.0085,610.8865,224.143,562.663H204.1962L101.6548,544.1937l-9.4562,24.2317c21.3017,3.9631,95.3083,5.019,118.7089,5.2571l24.3182,39.93c-13.256,3.6021-23.9826,10.6334-22.46,21.5978,2.955,21.2766,83.3333,20.6856,119.9763,0,0,0-43.1442-18.3215-61.4657-23.05C266.24,610.8609,259.3241,610.4153,252.0085,610.8865Z" transform="translate(0 -306.9006)"/><path d="M255.1353,665.9431c14.0006,0,17.5467-9.4562,17.5467-9.4562H237.5887S241.1348,665.9431,255.1353,665.9431Z" transform="translate(0 -306.9006)"/><path d="M50.9752,459.1713C27.3665,466.957,8.7109,476.9549,0,489.82c0,0,21.7551,11.9427,50.9752,25.384V617.6275l6.0579-11.9681V356.2505l-6.0579-6.058Z" transform="translate(0 -306.9006)"/><path d="M210.1064,434.2078c-42.6562,2.663-100.1886,8.392-145.0946,20.7315v16.5819c14.9956-9.2121,63.9732-34.8919,145.0946-35.7409Z" transform="translate(0 -306.9006)"/><path d="M893.617,458.0129v6.2611c16.9969-.7431,28.9841-1.954,34.8931-3.13C922.6008,459.9687,910.6148,458.7569,893.617,458.0129Z" transform="translate(0 -306.9006)"/><path d="M204.694,555.8888c9.2009.6081,18.9027,1.146,29.019,1.6086-9.3345-5.6395-17.1958-7.648-23.0133-5.759A12.8559,12.8559,0,0,0,204.694,555.8888Z" transform="translate(0 -306.9006)"/><path d="M199.2179,555.516a17.9838,17.9838,0,0,1,9.9419-8.2471c.3036-.101.6366-.1279.9466-.213V440.5087c-85.79.9064-134.7065,29.765-145.0946,36.5957V521.51c25.27,11.0631,53.9926,22.0509,78.6052,27.4122C156.297,551.6839,175.8323,553.8537,199.2179,555.516Z" transform="translate(0 -306.9006)"/><path d="M970.4492,518.78a68.085,68.085,0,0,0-18.5781,2.37L922.8847,505.967c32.12-5.5056,57.6118-10.2366,57.6118-10.2366L941.7848,320.1985,893.617,312.9v140.29c23.65.9528,43.07,3.1824,43.07,7.9539,0,4.77-19.4208,6.9989-43.07,7.9516v47.537L941.69,527.0066a4.4463,4.4463,0,0,0-.7916,2.4117c0,5.8753,13.23,10.6383,29.5509,10.6383S1000,535.2936,1000,529.4183,986.77,518.78,970.4492,518.78Z" transform="translate(0 -306.9006)"/><path d="M787.1371,461.1444c9.4562,1.8815,34.4775,3.8531,70.6865,3.8531,11.5441,0,21.9374-.2017,31.0653-.5359v-6.6365c-9.1276-.3342-19.5206-.5362-31.0653-.5362C821.61,457.2889,796.5933,459.2628,787.1371,461.1444Z" transform="translate(0 -306.9006)"/><path d="M260.1512,551.7153a13.7678,13.7678,0,0,0-.4113,6.795c79.3362,2.5946,171.7726,1.4472,208.7775-1.7067-33.8556-8.62-102.2987-24.6308-148.2511-25.9077C281.2823,529.7461,263.6811,540.9385,260.1512,551.7153Z" transform="translate(0 -306.9006)"/><path d="M783.0969,431.9006S610.2245,414.17,510.9338,392.007,347.8132,375.163,269.799,431.9006c0,0-22.6721.1223-54.9645,2.0195V546.3887c7.76-.2115,17.12,3.6347,27.9475,11.4957q6.0018.2445,12.1349.4591a18.5339,18.5339,0,0,1,.7416-8.1011c5.2615-16.0544,29.5139-24.9658,64.7371-24.0746,53.2631,1.4821,136.2025,22.4989,161.9761,29.3525,72.7951-6.9312,294.9132-28.8352,345.6425-34.9672,14.4536-1.7471,32.1561-4.3507,50.31-7.22l10.5644,2.28V469.2665c-10.1624.3319-20.88.4591-31.0653.4591-35.9782,0-78.8638-1.489-78.8638-8.5812,0-7.0946,42.8856-8.5836,78.8638-8.5836,10.1849,0,20.9029.1272,31.0653.4591V312.1839l-34.87-5.2833ZM277.7778,437.22s66.7848-39.0071,86.8794-43.7352,79.7872-4.7281,79.7872-4.7281L429.669,453.7682S297.8723,461.4514,277.7778,437.22Zm161.3475,17.7054L453.31,388.7564l74.4681,17.7305S506.5087,455.0276,439.1253,454.9251Z" transform="translate(0 -306.9006)"/></svg>