<?xml version="1.0" encoding="UTF-8"?>
<!--
  Copyright (c) 2026 Passion Highway, Inc.. All Rights Reserved.

  This image is digitally signed and the hash recorded.
  Unauthorized reproduction, distribution, or use of this
  image is strictly prohibited and constitutes copyright
  infringement under 17 U.S.C. Section 106.

  Violators may be subject to civil liability including
  statutory damages up to $150,000 per work (17 U.S.C. Section 504)
  and criminal prosecution with fines and imprisonment
  (17 U.S.C. Section 506).

  Contact: jim@passionhighway.com
  Asset ID: PHI-AID-P28A-5df3b9c7
  Hash: 244510be83e9138f
-->
<svg id="Layer_1" data-name="Layer 1" xmlns="http://www.w3.org/2000/svg" viewBox="0 0 1000 360.6611">
  <metadata>
    <rdf:RDF xmlns:rdf="http://www.w3.org/1999/02/22-rdf-syntax-ns#"
             xmlns:dc="http://purl.org/dc/elements/1.1/"
             xmlns:cc="http://creativecommons.org/ns#">
      <rdf:Description>
        <dc:title>P28A Aircraft Silhouette</dc:title>
        <dc:creator>Passion Highway, Inc.</dc:creator>
        <dc:rights>Copyright (c) 2026 Passion Highway, Inc.. All Rights Reserved. Unauthorized use prohibited under 17 U.S.C. 106, 504, 506.</dc:rights>
        <dc:publisher>Passion Highway, Inc.</dc:publisher>
        <dc:identifier>PHI-AID-P28A-5df3b9c7</dc:identifier>
        <dc:source>Airplane-ID.com</dc:source>
        <cc:license rdf:resource="https://airplane-id.com/terms"/>
      </rdf:Description>
    </rdf:RDF>
  </metadata>

<polygon points="933.11 81.659 877.315 81.659 872.888 87.654 931.087 87.654 933.11 81.659"/><path d="M924.99,105.7194h-64.167a2.55,2.55,0,0,1-1.0854-.2548l-5.87,7.9508h68.5255Z"/><path d="M920.6431,118.6H850.5448a2.4423,2.4423,0,0,1-.44-.0886l-4.1331,5.5974h72.8124Z"/><path d="M929.3372,92.8386h-60.251c-.0082,0-.0149-.0047-.0228-.0047l-5.6856,7.7008H926.74Z"/><path d="M907.9715,174.9126V190.05c17.149,2.7964,32.1272,5.4,44.08,7.7109-.8187-4.9376-2.8955-10.5536-6.49-16.9446l.193-.6408Z"/><path d="M834.136,140.1389l-5.87,7.9493h82.4249l2.6246-7.7771H834.9907A2.5449,2.5449,0,0,1,834.136,140.1389Z"/><path d="M824.6921,153.2729c-.0784,0-.1442-.0377-.2208-.0447l-3.2256,4.3686L903.61,169.0706l5.3315-15.7977Z"/><path d="M917.0343,129.2936h-73.71a2.5791,2.5791,0,0,1-1.0237-.2133l-4.4642,6.0461h77.2288Z"/><polygon points="938.195 66.591 888.44 66.591 881.143 76.474 934.86 76.474 938.195 66.591"/><polygon points="908.835 169.799 947.266 175.152 953.853 153.273 914.412 153.273 908.835 169.799"/><polygon points="944.046 49.255 901.24 49.255 892.268 61.406 939.945 61.406 944.046 49.255"/><polygon points="920.536 135.126 959.317 135.126 961.073 129.294 922.505 129.294 920.536 135.126"/><path d="M907.9715,215.72c17.0623-.2753,30.5949-.0738,39.7751.1892a20.45,20.45,0,0,0,3.093-5.0322c-13.4292-1.3607-29.0491-2.41-42.8681-3.1714Z"/><path d="M907.9715,220.9022V230.64c13.476-1.2044,25.8735-4.0733,34.1461-9.6833C933.38,220.7721,921.8566,220.6772,907.9715,220.9022Z"/><path d="M874.3215,200.9934c4.7411.1614,15.4738.5585,28.4653,1.2272v-7.753c-8.9793-1.4465-18.5114-2.942-28.4653-4.4724Z"/><polygon points="966.139 0 960.015 18.146 994.537 18.146 1000 0 966.139 0"/><polygon points="955.64 31.108 990.634 31.108 992.975 23.331 958.265 23.331 955.64 31.108"/><polygon points="924.255 124.109 962.634 124.109 964.292 118.6 926.114 118.6 924.255 124.109"/><path d="M869.1368,203.5V189.2019c-116.7745-17.8316-287.1056-39.92-311.2089-43.03l-2.4651,96.19c72.4951-5.5052,201.55-15.5082,260.8751-21.353,33.4354-3.2911,62.925-4.6955,86.4489-5.192V207.429c-17.3975-.9028-30.8041-1.3268-31.1386-1.337A2.5945,2.5945,0,0,1,869.1368,203.5Z"/><polygon points="945.415 61.406 981.512 61.406 985.171 49.255 949.516 49.255 945.415 61.406"/><path d="M948.42,36.2929H910.9486c-.0427,0-.0781-.0221-.12-.024l-5.76,7.8011h40.7273Z"/><polygon points="960.669 0 937.608 0 924.209 18.146 954.545 18.146 960.669 0"/><polygon points="940.33 76.474 976.975 76.474 979.951 66.591 943.666 66.591 940.33 76.474"/><polygon points="932.211 100.535 969.732 100.535 972.049 92.839 934.808 92.839 932.211 100.535"/><polygon points="936.557 87.654 973.61 87.654 975.414 81.659 938.581 81.659 936.557 87.654"/><polygon points="952.795 23.331 920.381 23.331 914.639 31.108 950.17 31.108 952.795 23.331"/><path d="M435.095,224.841l24.2527,2.15V211.8808c-11.4764.32-24.4192.55-37.9537.55-10.9571,0-22.285-.1639-33.5133-.5395V250c26.4872,1.5246,56.3094,3.2483,71.467,4.1246V232.1962l-24.7084-2.1907a2.593,2.593,0,0,1-2.3544-2.81A2.644,2.644,0,0,1,435.095,224.841Z"/><path d="M205.5253,149.9865c-.84.6146-1.3775,1.018-1.3775,1.018s-87.0818-1.799-151.1666,12.9374v12.2824c11.4865-5.1661,49.1038-19.549,112.1193-19.549a2.5924,2.5924,0,0,1,0,5.1847c-66.5069,0-104.8562,16.6231-112.1193,20.0844v22.8793L198.102,208.63Z"/><path d="M464.5324,254.424l4.8328.28-.2988,5.1746s-1.6588-.0959-4.534-.2624v13.6824q18.7993-.3708,36.44-1.1595V235.8867l-36.44-3.2307Z"/><path d="M464.5324,227.4511l36.44,3.2309V210.1407c-5.6692.3291-19.0265,1.0427-36.44,1.587Z"/><path d="M311.2908,179.9935a38.1864,38.1864,0,0,0-12.1893,13.094c37.4331,20.3177,181.4682,13.008,201.8706,11.8552v-.9316C483.8573,163.9847,322.0859,178.94,311.2908,179.9935Z"/><path d="M382.696,211.71c-35.6464-1.4237-69.3726-5.2708-85.7507-13.907a32.9676,32.9676,0,0,0-2.0652,11.5292v20.2252c31.0949,3.1752,75.75,9.8963,87.8159,11.7469Z"/><path d="M156.1335,301.2926l11.177-6.0783a2.5945,2.5945,0,0,0,1.2253-3.0886l-9.6434-29.35c10.0184.749,20.7913,1.5069,32.07,2.2569l6.4847-51.2315-144.4661-3.79v10.8767c7.3264,14.42,29.0526,35.8853,93.4867,40.939,1.04.0817,2.1414.1642,3.1993.2462l-8.4011,38.191c-22.0252.2608-50.7572,7.2407-49.3477,25.2131,0,7.7255,3.7369,10.2254,21.5942,10.9292a11.1674,11.1674,0,0,0-.3693,2.4376c0,9.22,11.1744,16.4453,25.4374,16.4453s25.4375-7.2252,25.4375-16.4453a11.2277,11.2277,0,0,0-.4174-2.7556c22.7426-1.3535,42.99-5.9224,46.9177-21.3047,0,0-33.0525-6.3188-49.0927-12.1516A32.3191,32.3191,0,0,0,156.1335,301.2926Zm-1.7265-34.1183,6.0758,25.7615L148.3312,294.88Zm-15.8263,82.931c-10.977,0-20.2527-5.1544-20.2527-11.2606a6.292,6.292,0,0,1,.4462-2.2825c3.4214.0667,7.234.0952,11.5434.0952,8.935,0,18.5557.0564,27.9475-.3091a6.3563,6.3563,0,0,1,.5684,2.4964C158.8335,344.9509,149.5577,350.1053,138.5807,350.1053Z"/><path d="M506.1568,271.897c12.2178-.5981,23.9733-1.342,34.9968-2.2923,2.7509-.2371,5.5936-.4943,8.4429-.7532l.5354-20.8853c-22.1606,1.68-38.1726,2.8759-43.9751,3.3081Z"/><path d="M47.7965,207.1866v-41.983c-19.5632,4.8812-36.63,11.3976-47.7965,20.15C0,185.3532,13.2713,202.9608,47.7965,207.1866Z"/><path d="M555.3293,247.5719l-.5329,20.8c114.4252-10.6836,298.9341-37.0046,335.6767-37.0046,4.11,0,8.24-.1133,12.3137-.3519V221c-23.3806.4956-52.6936,1.8953-85.9426,5.173C757.3318,232.0317,627.7458,242.0723,555.3293,247.5719Z"/><path d="M271.2812,240.0151a2.5211,2.5211,0,0,1,.2652,1.2053,2.46,2.46,0,0,1-.0943.3791c5.3224-.0167,11.4919.2836,18.2433.7845v-8.1549c-7.3894-.694-13.6962-1.1215-18.24-1.16Z"/><path d="M397.5844,305.6305l11.8785-32.0066c16.9832.1117,33.6813.0392,49.8848-.2323V259.3163c-15.0023-.8674-44.8738-2.5943-71.467-4.1253v18.1946c.8709.0127,1.7465.031,2.6168.043l-6.4657,33.0085c-19.1028,2.2959-38.3008,9.6435-37.1426,24.4119,0,7.7255,3.7369,10.2254,21.5942,10.9292a11.1674,11.1674,0,0,0-.3693,2.4376c0,9.22,11.1744,16.4453,25.4374,16.4453s25.4374-7.2252,25.4374-16.4453a11.2276,11.2276,0,0,0-.4173-2.7556c22.7426-1.3535,42.99-5.9224,46.9177-21.3047,0,0-33.0525-6.3188-49.0927-12.1516C412.2249,306.4868,405.381,305.6356,397.5844,305.6305Zm-4.0329,49.8459c-10.977,0-20.2527-5.1544-20.2527-11.2606a6.292,6.292,0,0,1,.4462-2.2825c3.4214.0667,7.234.0952,11.5434.0952,8.9349,0,18.5556.0563,27.9475-.3092a6.3571,6.3571,0,0,1,.5683,2.4965C413.8042,350.322,404.5285,355.4764,393.5515,355.4764Z"/><path d="M302.8651,180.0533l-30.083.0041-1.1974,47.8317c4.5876.0566,10.8327.48,18.1107,1.1594v-19.716A39.5906,39.5906,0,0,1,302.8651,180.0533Z"/><polygon points="951.266 44.07 986.732 44.07 989.073 36.293 953.891 36.293 951.266 44.07"/><path d="M382.696,254.8926c-20.8559-1.2-38.8245-2.229-44.5358-2.5433-3.5746-.1974-9.5289-.8557-17.068-1.6911-10.1988-1.1341-33.9509-3.7569-49.9806-3.8771l-.3133,12.5162c10.26,3.043,24.1549,4.954,37.2714,5.2847,8.5957.2168,19.7455,3.7176,29.694,7.6533,14.9627.4573,29.9868.818,44.9323,1.0645Z"/><path d="M586.8438,127.9215v-.2893c-7.4464-.7746-14.86-1.598-22.1644-2.5338l36.4223-59.6415-5.8328-2.43-40.63,60.7225c-4.3183-.6082-8.61-1.2361-12.8368-1.9085-114.0635-18.1465-195.7226-33.0525-246.2735-17.4984-37.9676,11.6823-70.4445,32.1348-84.2638,41.5954l-3.6639,28.9449H310.4342c6.99-.7291,177.5255-17.7085,195.54,27.66a2.5727,2.5727,0,0,1,.1822.957v42.5719c6.167-.4589,22.1724-1.6531,44.1086-3.3161l2.5538-99.5888a2.594,2.594,0,0,1,.9063-1.9012,2.6267,2.6267,0,0,1,2.0151-.6051c11.9758,1.5377,227.0682,29.1985,347.0462,48.55V174.19l-313.71-43.7016A2.5893,2.5893,0,0,1,586.8438,127.9215ZM217.5956,152.4627s27.7057-24.7893,78.7427-40.83h11.6656l-43.746,58.814S235.094,171.4194,217.5956,152.4627Zm68.5353,17.9845V157.81l33.0525-46.1763c40.3435-2.43,62.7025,4.8606,62.7025,4.8606l3.4025,50.0649Zm109.851-2.9164v-51.523l84.5754,17.4984-12.6377,36.95Zm138.5288.4861-56.3837,2.4388,14.0959-36.9495L545.69,147.6021Z"/><path d="M294.88,242.7979c8.2916.7057,17.319,1.6563,26.7817,2.706,7.167.7949,13.3542,1.4784,16.7845,1.6708,5.6857.3127,23.515,1.3339,44.25,2.5269v-3.15c-10.42-1.6057-56.22-8.5619-87.8159-11.8112Z"/><polygon points="927.863 113.415 965.854 113.415 968.171 105.719 930.461 105.719 927.863 113.415"/><polygon points="916.162 148.088 955.414 148.088 957.756 140.311 918.787 140.311 916.162 148.088"/><path d="M913.9359,23.3312h-1.0614L814.661,126.0088a27.4466,27.4466,0,0,1-19.1553,8.4847c-16.1047.4022-47.9683.9256-86.65.1607l28.8307-48.2965h-3.8885L701.8143,134.5c-20.962-.4911-43.6941-1.3743-66.8645-2.855l180.4517,25.1378Z"/><path d="M250.1949,250.1721a5.251,5.251,0,0,1,1.43-4.5416,11.1236,11.1236,0,0,1,5.1132-2.575l-57.3948-2.9471-3.1986,25.27c21.4454,1.399,44.806,2.7566,69.2138,3.9562l.16-6.3793C257.4207,260.0678,251.13,255.978,250.1949,250.1721Z"/><path d="M907.9715,202.4956c14.207.7784,30.376,1.8664,44.244,3.3053a23.3092,23.3092,0,0,0,.22-2.7069c-11.8576-2.3091-27.0051-4.9423-44.4636-7.7856Z"/><path d="M270.6664,264.575l-.1254,5.0075c16.0159.7674,32.4431,1.46,49.0633,2.0516a53.8158,53.8158,0,0,0-11.6662-1.8674C307.6036,269.7575,287.1594,269.1569,270.6664,264.575Z"/><polygon points="199.996 234.953 266.135 238.35 267.594 180.058 206.944 180.067 199.996 234.953"/><path d="M255.3012,249.3063c.5094,3.1484,4.4337,5.9376,10.3529,8.2508l.268-10.71C260.12,247.0605,256.0252,247.7716,255.3012,249.3063Z"/></svg>