<?xml version="1.0" encoding="UTF-8"?>
<!--
  Copyright (c) 2026 Passion Highway, Inc.. All Rights Reserved.

  This image is digitally signed and the hash recorded.
  Unauthorized reproduction, distribution, or use of this
  image is strictly prohibited and constitutes copyright
  infringement under 17 U.S.C. Section 106.

  Violators may be subject to civil liability including
  statutory damages up to $150,000 per work (17 U.S.C. Section 504)
  and criminal prosecution with fines and imprisonment
  (17 U.S.C. Section 506).

  Contact: jim@passionhighway.com
  Asset ID: PHI-AID-PA11-14f70584
  Hash: c850d719fc875417
-->
<svg id="Layer_1" data-name="Layer 1" xmlns="http://www.w3.org/2000/svg" viewBox="0 0 1000 415.4282">
  <metadata>
    <rdf:RDF xmlns:rdf="http://www.w3.org/1999/02/22-rdf-syntax-ns#"
             xmlns:dc="http://purl.org/dc/elements/1.1/"
             xmlns:cc="http://creativecommons.org/ns#">
      <rdf:Description>
        <dc:title>PA11 Aircraft Silhouette</dc:title>
        <dc:creator>Passion Highway, Inc.</dc:creator>
        <dc:rights>Copyright (c) 2026 Passion Highway, Inc.. All Rights Reserved. Unauthorized use prohibited under 17 U.S.C. 106, 504, 506.</dc:rights>
        <dc:publisher>Passion Highway, Inc.</dc:publisher>
        <dc:identifier>PHI-AID-PA11-14f70584</dc:identifier>
        <dc:source>Airplane-ID.com</dc:source>
        <cc:license rdf:resource="https://airplane-id.com/terms"/>
      </rdf:Description>
    </rdf:RDF>
  </metadata>

<path d="M220.2882,336.2726s20.8836-2.6947,33.3464,8.084l33.3464-43.1145H225.6776Z"/><path d="M224.1618,344.3566a35.5358,35.5358,0,1,0,35.5358,35.5358A35.536,35.536,0,0,0,224.1618,344.3566Zm0,50.8617a15.3259,15.3259,0,1,1,15.3258-15.3259A15.326,15.326,0,0,1,224.1618,395.2183Z"/><circle cx="224.1618" cy="379.8924" r="7.9665"/><polygon points="312.719 188.74 271.766 188.74 287.568 250.849 312.719 188.74"/><path d="M946.1481,217.7077a15.4418,15.4418,0,0,0-7.5452,1.994l-14.3354-9.7007v9.97l9.1619,4.9045a12.7143,12.7143,0,0,0-1.7246,6.3054c0,7.4372,6.4672,13.4733,14.4433,13.4733,8.03,0,14.4973-6.0361,14.4973-13.4733S954.1781,217.7077,946.1481,217.7077Zm0,20.2639a6.81,6.81,0,1,1,7.3294-6.7906A7.0162,7.0162,0,0,1,946.1481,237.9716Z"/><polygon points="87.9 205.15 37.725 205.15 37.725 210.917 89.57 210.917 87.9 205.15"/><path d="M389.378,108.8435c22.6352,2.1019,195.5245,18.3238,293.4482,22.5273L514.1408,110.676h-.1619l-.2154-.054L389.378,106.3106Z"/><polygon points="83.966 191.408 37.725 191.408 37.725 199.761 86.337 199.761 83.966 191.408"/><path d="M419.3426,85.3461S253.2978,64.1122,228.3992,70.1482a29.6368,29.6368,0,0,0-17.138,10.8865l212.8779,8.138Z"/><path d="M9.7546,188.0664a9.7547,9.7547,0,0,0,0,19.5093h7.7607S15.8446,228.7018,32.3359,244.6V166.1858l-16.168,21.8806Z"/><polygon points="80.84 180.629 37.725 180.629 37.725 186.018 82.403 186.018 80.84 180.629"/><polygon points="91.133 216.306 37.725 216.306 37.725 224.282 93.451 224.282 91.133 216.306"/><polygon points="924.267 168.342 924.267 175.617 950.783 175.617 950.783 170.228 924.267 168.342"/><path d="M793.9,167.6947a7.935,7.935,0,0,0,7.9225,7.9224H918.8782v-7.6527l-117.2176-8.1919A7.9026,7.9026,0,0,0,793.9,167.6947Z"/><path d="M997.67,138.9159c-12.072-43.8151-21.5572-86.93-28.6172-109.1875C959.19-1.26,911.4409-22.7635,871.021,42.8783q-2.5869,4.2847-5.1738,8.4073h55.7256a2.7024,2.7024,0,0,1,2.6947,2.6947V162.9524L953.6393,165a2.7485,2.7485,0,0,1,2.5328,2.6947v10.6171a2.7381,2.7381,0,0,1-2.6946,2.6947h-29.21v23.3358c10.7786-1.8325,19.0244-3.6647,24.2519-5.4972C971.424,190.7611,1009.85,182.6771,997.67,138.9159Z"/><path d="M37.7252,175.24H82.8877a2.75,2.75,0,0,1,2.5868,1.994l14.12,48.989a2.8651,2.8651,0,0,1-.4309,2.3713,2.7316,2.7316,0,0,1-2.1558,1.0776H37.7252v19.4557A58.7189,58.7189,0,0,0,50.5518,256.08c10.8865,4.3114,31.9586,10.5631,58.5818,16.7067V159.7725H37.7252Z"/><path d="M822.3557,125.2272a37.21,37.21,0,0,1-36.971,18.7007l-51.7373-6.4133h-.4312c-3.6107.1619-7.7606.2155-12.2875.2155-85.69,0-322.9816-22.6888-334.5148-23.7667a2.7365,2.7365,0,0,1-2.4252-2.6947v-7.7606a2.9817,2.9817,0,0,1,.8085-1.94,3.06,3.06,0,0,1,1.994-.7546l65.48,2.2634-12.7187-1.5627-8.4073-6.6827h-.054l-.0539-.054L207.9738,86.2622a42.8327,42.8327,0,0,0-4.5272,17.6232l-66.6658,55.8871H114.5229V274.0261c47.7493,10.7786,111.3971,21.0181,166.0448,20.5333L248.9325,188.7131H198.758l43.6533-63.9172,17.138,63.9172h-5.0121l31.6353,105.7923c.8085,0,1.617-.0539,2.4252-.1079l38.7492-105.6844h-3.88L351.06,120.5382l19.9406,1.2937,2.964,66.8812H333.1135L294.4183,294.236c9.3773-.4312,18.3774-1.24,26.8926-2.4252,90.325-12.7727,332.8441-45.1086,427.8038-61.2765,60.0371-10.24,114.6848-16.9765,152.5715-22.5813l17.192,9.1619V206.3363l-1.2934-.8625c.4312-.0539.8621-.1615,1.2934-.2154V181.0065H801.8224a13.3117,13.3117,0,1,1,0-26.6233l117.0558,8.1919v-105.9H862.6137C844.5057,86.5316,831.0863,109.8135,822.3557,125.2272Zm-637.071,63.4859-39.7732-28.24,57.3424-46.0246-14.9285,74.2645Zm8.6227-2.3713,15.09-74.9113,30.3415,1.94,1.24,4.5269Zm128.5354-9.4313a2.6915,2.6915,0,0,1,.0539,2.048l-33.0365,81.54a2.6339,2.6339,0,0,1-2.4792,1.6706h-.1618a2.7026,2.7026,0,0,1-2.425-2.0479l-18.1619-71.4085h-1.0779l-18.7551-69.7917,3.3417-4.9041,95.66,6.1439Zm177.5619,11.83H379.3411L376.39,122.1523l155.8052,10Z"/><rect x="119.1734" y="139.4757" width="5.2155" height="37.5514"/></svg>