<?xml version="1.0" encoding="UTF-8"?>
<!--
  Copyright (c) 2026 Passion Highway, Inc.. All Rights Reserved.

  This image is digitally signed and the hash recorded.
  Unauthorized reproduction, distribution, or use of this
  image is strictly prohibited and constitutes copyright
  infringement under 17 U.S.C. Section 106.

  Violators may be subject to civil liability including
  statutory damages up to $150,000 per work (17 U.S.C. Section 504)
  and criminal prosecution with fines and imprisonment
  (17 U.S.C. Section 506).

  Contact: jim@passionhighway.com
  Asset ID: PHI-AID-PA27-1f3b65ea
  Hash: ac946026bb214f40
-->
<svg id="Layer_1" data-name="Layer 1" xmlns="http://www.w3.org/2000/svg" viewBox="0 0 1000 315.0449">
  <metadata>
    <rdf:RDF xmlns:rdf="http://www.w3.org/1999/02/22-rdf-syntax-ns#"
             xmlns:dc="http://purl.org/dc/elements/1.1/"
             xmlns:cc="http://creativecommons.org/ns#">
      <rdf:Description>
        <dc:title>PA27 Aircraft Silhouette</dc:title>
        <dc:creator>Passion Highway, Inc.</dc:creator>
        <dc:rights>Copyright (c) 2026 Passion Highway, Inc.. All Rights Reserved. Unauthorized use prohibited under 17 U.S.C. 106, 504, 506.</dc:rights>
        <dc:publisher>Passion Highway, Inc.</dc:publisher>
        <dc:identifier>PHI-AID-PA27-1f3b65ea</dc:identifier>
        <dc:source>Airplane-ID.com</dc:source>
        <cc:license rdf:resource="https://airplane-id.com/terms"/>
      </rdf:Description>
    </rdf:RDF>
  </metadata>

<rect x="386.4241" y="270.5127" width="50.6493" height="8.9521"/><path d="M475.4444,279.4648V266.7379l-34.2-3.236v3.0925a2.35,2.35,0,0,1,.5958,1.5348v11.3446Z"/><path d="M475.4444,245.7746c-9.8375,1.0448-46.1029,4.6274-81.7255,4.6274-8.61,0-17.1779-.2095-25.3177-.717-36.9968-2.2985-54.1119-5.6922-60.1652-7.1734l-1.2837,8.7376h32.9936a2.3821,2.3821,0,0,1,2.3835,2.3835v12.113h94.1481V260.881a2.39,2.39,0,0,1,.78-1.7644,2.49,2.49,0,0,1,1.8272-.61l36.36,3.44Z"/><path d="M0,244.01s12.84,15.4749,56.608,27.0468V210.7129C32.6654,219.3682,12.2073,230.277,0,244.01Z"/><polygon points="978.186 138.243 986.326 45.67 973.113 47.409 961.759 138.243 978.186 138.243"/><path d="M883.7133,191.8713a2.1182,2.1182,0,1,0,0,4.2363h115.75a40.3125,40.3125,0,0,0,.5371-4.2363Z"/><path d="M975.8243,165.1044,977.767,143.01H959.0587a2.3812,2.3812,0,0,1-2.3649-2.6791l11.9175-95.34a2.3834,2.3834,0,0,1,2.053-2.0669l16.09-2.117L990.3421,0h-23.07L917.9652,170.9992C941.4237,169.12,961.5839,166.8717,975.8243,165.1044Z"/><path d="M912.8887,171.3966,962.31,0H907.2177L787.4538,140.7015a28.015,28.015,0,0,1-20.5905,9.8581c-22.6336.6145-73.129,1.5072-128.3256-.6014,42.5966,9.4208,92.5,18.789,136.005,22.517C820.5608,176.4182,871.3544,174.56,912.8887,171.3966Z"/><path d="M310.4735,227.2839l-1.5406,10.4845c5.28,1.3093,22.26,4.8278,59.7616,7.159,37.1726,2.3014,83.3569-1.6189,101.2593-3.385-10.7994-5.3416-35.3617-15.5791-76.6615-22.926C367.0634,217.5591,319.9463,225.6165,310.4735,227.2839Z"/><path d="M158.2417,251.795a31.4219,31.4219,0,0,1,7.744,2.9829c3.2148,1.929,11.2937,5.5453,21.2955,9.767V245.8177l-29.04-3.607Z"/><path d="M187.2812,213.5521c-10.68,1.0919-20.4252,2.3788-29.04,3.8266v5.6791l29.04,2.5592Z"/><path d="M876.8281,193.99a6.89,6.89,0,0,1,6.8852-6.8852h93.8475a60.2847,60.2847,0,0,0-2.4135-14.3009l.25-2.8406c-30.4041,3.7489-86.4587,9.5116-143.85,9.5116-19.3007,0-38.7411-.6518-57.4134-2.2509-52.9175-4.5345-115.1985-17.3591-162.4727-28.53-31.545-1.7766-63.4012-4.6632-91.4626-9.2594-103.682-16.9824-236.86-28.6019-281.55,39.3277,0,0-103.2857,4.902-177.2724,30.272v63.2333a354.282,354.282,0,0,0,42.307,7.4953c26.6081,3.1813,73.0734,5.705,126.6444,7.364-23.404-9.2258-58.78-23.4532-66.794-28.2615-3.7289-2.2392-10.9794-3.6125-18.656-5.0649-16.0979-3.0492-34.3418-6.5081-34.3418-20.2178a9.0646,9.0646,0,0,1,3.2237-6.5546c5.797-5.5247,20.4777-10.25,41.1677-13.8971a2.3768,2.3768,0,0,1,.9322-.19c.0224,0,.041.0123.0634.0129,9.8837-1.71,21.1184-3.1729,33.38-4.3667a2.2389,2.2389,0,0,1,.3634-.0733c.0472,0,.0862.0241.1324.0268,37.5447-3.6245,84.72-4.7024,132.9826-2.3637,110.218,5.33,154.5268,33.7413,156.3586,34.947.0364.0242.0506.0678.0856.0937a2.3338,2.3338,0,0,1,.6872.7515c.0256.0466.0262.101.0486.1493a2.2818,2.2818,0,0,1,.2354.7233c.0064.0547-.0158.1036-.0131.1577.002.041.0293.0757.0293.117v38.7318a2.3821,2.3821,0,0,1-2.3834,2.3835H373.3149c-.3018.0753-57.8539,9.1894-105.5718,11.0053,2.9928,6.25,11.5488,12.2337,33.4711,12.2337,28.9481,0,52.1779-10.4286,65.4009-18.1325,43.0606.0977,84.2826-.4056,118.2445-1.5918v20.0688a7.2378,7.2378,0,0,0,7.2273,7.23h4.3806v-4.767h-4.3806a2.463,2.463,0,0,1-2.46-2.4626V287.578c21.647-.8144,40.1124-1.9194,53.81-3.3462C622.0092,276.0472,839.2,248.38,904.09,238.9692l16.0252,8.1069,4.9209-3.998-12.11-5.4223c1.9369-.2973,3.6375-.5662,5.0166-.796,27.3413-4.5569,51.2769-15.0138,57.8225-35.9852H883.7133A6.89,6.89,0,0,1,876.8281,193.99ZM244.6062,179.9539s36.9441-37.1869,51.841-35.2779l16.0886,7.8677L296.4472,197.83S266.6535,203.7888,244.6062,179.9539Zm68.4591-7.6882h16.7508a3.9636,3.9636,0,0,1,3.9593,3.9593v5.7679a3.9616,3.9616,0,0,1-3.9593,3.9569H310.6125Zm85.8721,26.2266H308.3646l1.3937-7.7755h20.0578a8.7363,8.7363,0,0,0,8.7263-8.7239V176.225a8.7368,8.7368,0,0,0-8.7263-8.7263H313.92l2.7874-15.5509s40.0643-1.2852,82.2305-1.8531Zm6.5546,0V150.0129c27.5828-.3183,55.1661-.2831,72.3353.6559L456.28,198.4923Zm110.2367,0H464.1231l21.3048-47.2867c2.3314.2173,4.3282.462,5.87.7422a185.4567,185.4567,0,0,1,47.67,16.0886Z"/><rect x="289.2967" y="256.0162" width="48.2658" height="9.7295"/><path d="M145.7633,249.1171c2.6558.5034,5.2488,1.0009,7.7114,1.5313v-32.43c-18.864,3.469-31.668,7.7274-36.4274,12.2637a4.5893,4.5893,0,0,0-1.7457,3.1C115.3016,243.3446,131.4856,246.4124,145.7633,249.1171Z"/><path d="M381.6571,279.49v-8.9777H286.9132a2.3821,2.3821,0,0,1-2.3835-2.3835v-6.1618l-92.4815-24.3933v28.9685c18.01,7.4994,40.32,16.28,52.3973,20.9953q10.7986.2972,21.86.5516a16.8888,16.8888,0,0,0,.1,2.4283c47.6152-1.6933,105.8918-10.9192,106.5342-11.0251Z"/><polygon points="187.281 230.402 158.242 227.843 158.242 237.408 187.281 241.015 187.281 230.402"/><path d="M270.8851,209.6731c-29.3348,0-56.0793,1.2653-78.8369,3.41V232.645L284.53,257.0383v-3.4056a2.3821,2.3821,0,0,1,2.3835-2.3835h15.2221l3.8714-26.3534a2.3912,2.3912,0,0,1,1.9273-2.0018c1.7009-.311,32.0195-5.83,59.59-8.14-13.5849-1.6855-28.533-3.0233-44.9725-3.8194C304.6893,210.0734,287.3787,209.6731,270.8851,209.6731Z"/></svg>