<svg id="Layer_1" data-name="Layer 1" xmlns="http://www.w3.org/2000/svg" viewBox="0 0 1000 335.7412"><path d="M145.6665,329.895l-28.7673-2.4426C134.4863,344.551,145.6665,329.895,145.6665,329.895Z"/><path d="M356.7678,258.081H338.6922L335.9515,283.84a119.739,119.739,0,0,0-43.3272,10.6472c-5.1516,2.3924-5.44,8.92-.4227,11.0934,57.1336,24.7513,117.2547-4.0193,117.2547-4.0193-22.6553-12.3258-43.5009-17.0629-61.5282-17.8037Z"/><path d="M353.42,321.9583l-35.7973-1.3571C339.508,342.7438,353.42,321.9583,353.42,321.9583Z"/><path d="M146.9957,262.7672c4.1372.4145,8.3559.81,12.7313,1.1695V212.322a2.6025,2.6025,0,0,1,.9364-2l6.88-5.7351V191.9185L67.2319,183.4818v44.2629c13.8837,15.3,33.548,29.142,60.6039,32.8051q3.8481.517,7.8718.9936l2.2843,32.3661a89.3017,89.3017,0,0,0-40.1009,8.2932,5.9394,5.9394,0,0,0-.3581,10.5661c48.396,26.0521,99.3225,1.1676,99.3225,1.1676-14.4473-9.5808-28.0317-15.02-40.3849-17.7646Z"/><ellipse cx="237.322" cy="253.6842" rx="15.2259" ry="5.211"/><path d="M47.0393,198.4065a143.0773,143.0773,0,0,0,14.9816,23.2017V182.6043l-14.9816-4.0161Z"/><path d="M167.5435,145.1706c-8.5938-.0226-20.3961-.0327-33.6552.0146v38.69l33.6552,2.817Z"/><polygon points="944.63 1.844 951.839 11.047 998.573 11.047 1000 6.462 944.63 1.844"/><path d="M390.054,114.0942,364.709,95.0873l-98.1594,1.35L277.5775,112.41l181.8565,9.9767c-5.1957-1.7884-10.8542-3.5189-17.0105-5.1391,0,0-.1345-.1683-.3607-.4361l-50.5584-2.198A2.5981,2.5981,0,0,1,390.054,114.0942Z"/><path d="M949.3022,16.2583H906.8646L792.8264,134.7448l6.7313,27.7652,79.5755,1.1478c.0267-.055.0213-.1205.0521-.1736L957.1365,26.26Z"/><path d="M244.121,243.9671l29.2454-128.4846-3.9181-5.6744L233.2178,243.6159A44.4752,44.4752,0,0,1,244.121,243.9671Z"/><path d="M794.1736,162.4324l-5.9574-24.5716c-10.35,2.2254-60.4287,12.4079-127.81,16.541l125.8794,11.9464Z"/><polygon points="937.55 1.254 922.513 0 911.88 11.047 945.221 11.047 937.55 1.254"/><path d="M341.2105,246.8448a21.1071,21.1071,0,0,1,4.9139-.99,16.363,16.363,0,0,1,7.1263.99h4.9649l7.1177-124.4036-84.5419-4.6375c9.6049,5.25,34.4624,15.6075,76.9535,12.2823l2.9311,34.6856H267.4891L249.1854,245.19a20.4121,20.4121,0,0,1,3.7454,1.6545Z"/><path d="M365.5257,89.8636a2.4072,2.4072,0,0,1,1.5979.5216l25.4113,19.0578,43.9184,1.9093c-10.7139-9.1915-37.1111-26.3588-88.5051-30.5819-52.464-4.3529-70.4175-6.1839-88.59,5.2514l3.6264,5.2527Z"/><rect x="446.3318" y="177.7991" width="41.688" height="69.0457"/><path d="M47.0393,173.2l14.9816,4.0475V146.1722c-5.3258.1577-10.3619.3384-14.9816.5461Z"/><path d="M962.317,24.4234a2.6,2.6,0,0,1,.2137,2.893L885.0289,163.7431l58.9265.85c-4.0679,7.3588-16.4978,16.5289-52.7384,17.7468l-8.2888.1514-1.7662,27.69c14.4228-1.726,26.6889-3.2063,36.0874-4.3465a33.6023,33.6023,0,0,0,27.983-23.3451l.3553-1.1415,5.1823-16.6565L996.9521,16.2583H955.9209Z"/><path d="M785.3709,171.4963,621.7248,155.9631a776.5469,776.5469,0,0,1-112.2358-5.5217s-9.6211-10.9923-34.5508-21.9877l-104.4034-5.7269-7.2584,126.8711a2.6052,2.6052,0,0,1-2.6,2.4579h-.5276a31.0491,31.0491,0,0,1,5.2046,10.839c32.7249-1.98,68.7331-4.69,108.3365-8.2335C597.4939,243.5351,780.5857,222.1982,875.9,210.81l1.8015-28.2234-81.5939,1.4889a10.7068,10.7068,0,0,1-10.7368-12.5791Zm-410.5275-41.41,69.3714,3.4047,21.9839,31.2809-91.3553,5.3739ZM493.2307,249.45a2.6039,2.6039,0,0,1-2.6055,2.6055H443.7263a2.6039,2.6039,0,0,1-2.6055-2.6055V175.1936a2.604,2.604,0,0,1,2.6055-2.6055h46.8989a2.604,2.604,0,0,1,2.6055,2.6055ZM480.61,162.329l-25.6478-32.243s37.1283,5.3738,51.2957,25.4036Z"/><path d="M128.6773,145.2069c-19.8131.0919-42.14.3187-61.4454.8209v32.2684l61.4454,5.143Z"/><path d="M2.5636,156.2255a6.2581,6.2581,0,0,0,1.7715,10.9952l34.2363,11.2037s1.0079,3.4038,3.2569,8.8174V146.9762c-1.1088.0595-2.2134.119-3.2569.1823C18.3006,148.409,7.8786,152.3694,2.5636,156.2255Z"/><path d="M332.8648,252.0558H257.4485a6.276,6.276,0,0,1,.31,1.6284c0,6.8446-10.2821,10.422-20.4369,10.422s-20.4369-3.5774-20.4369-10.422c0-4.5736,4.5972-7.583,10.6736-9.1l38.0129-140.39L255.0573,88.966a161.8327,161.8327,0,0,0-16.54,14.5764s-34.4968,7.1391-56.6435,41.688c0,0-3.3787-.0229-9.1193-.0439v60.6217a2.6024,2.6024,0,0,1-.9363,2l-6.88,5.7352V264.36c41.1289,3.0845,93.1424,3.6411,160.4465.6193A33.0662,33.0662,0,0,1,332.8648,252.0558ZM189.69,146.2075s42.5-38.0889,58.1351-35.6628c28.3348,4.3968-6.8394,54.2269-6.8394,54.2269S200.4379,168.68,189.69,146.2075Z"/></svg>