<svg id="Layer_1" data-name="Layer 1" xmlns="http://www.w3.org/2000/svg" viewBox="0 0 1000 275.3314"><path d="M221.3827,267.1465l-25.6847,7.94c.3512.0055.6851.0191,1.0373.024,32.9937.4774,64.3775.1538,94.4673-.7023-23.3288-3.2035-49.6667-6.3914-66.4685-7.0807C223.57,267.2793,222.499,267.2072,221.3827,267.1465Z"/><path d="M179.1877,210.3806c-17.4168-5.4447-29.1591-8.4859-48.392-9.5072v44.8649c11.8536,5.2711,26.8208,9.4884,45.0116,6.8266,8.3354-1.2177,20.8841-1.6928,34.9822-1.748V218.1412C197.6582,215.4956,186.7983,212.7578,179.1877,210.3806Z"/><path d="M307.67,258.7025c-3.3881.109-12.3167-.2545-24.688-.7478-19.21-.7584-46.275-1.8258-69.498-1.8245-.0123,0-.0227.0071-.0354.0071s-.0234-.0068-.036-.0071c-9.5481.0013-18.4128.1882-25.8323.6507,7.4036,2.1273,19.3549,4.49,37.3724,5.2292,22.743.9347,62.6679,6.3813,89.343,10.3235l-5.9559-13.6461C308.1251,258.6934,307.8778,258.6963,307.67,258.7025Z"/><path d="M35.9175,248.8392V211.0414C24.3394,216.9073,12.331,223.6119,0,231.2968,0,231.2968,11.2643,239.5163,35.9175,248.8392Z"/><path d="M933.5146,166.3193c3.1276-9.4485,9.8915-26.4152,17.9662-45.85l-41.5563,53.3352Z"/><path d="M927.6594,1.2485,912.1547,21.8314l35.325,4.4163a2.6606,2.6606,0,0,1,1.781,4.2527L830.1041,186.3375l25.1611,4.81,45.7-14.5005,58.3824-74.9259C978.2968,56.9324,1000,7.9758,1000,7.9758Z"/><path d="M942.2248,30.95l-35.2886-4.411a2.6613,2.6613,0,0,1-1.7914-4.2372L921.4387.67,914.234,0,758.7068,146.86H623.5883l200.6732,38.3606Z"/><path d="M422.97,256.1893l48.5971-8.2925L396.4926,223.166c-.5962.1174-1.168.2391-1.7752.355,15.2842,5.5813,22.4912,16.3325,25.8225,24.5851a2.6319,2.6319,0,0,1,.4336,1.0161c.0071.0386-.0072.0747-.0016.1133A45.005,45.005,0,0,1,422.97,256.1893Z"/><path d="M114.8014,237.4783c.3946.219.7458.4082,1.154.6357,2.85,1.5889,6.037,3.3528,9.5232,5.1023V200.6475q-4.9464-.1591-10.6318-.1645v36.7691C114.8468,237.3322,114.8082,237.4,114.8014,237.4783Z"/><path d="M852.6066,224.6445c23.7988-2.937,51.834-8.36,70.7936-12.1148,0,0,4.5795-.234,5.6086-7.9524-2.1082.308-4.5613.6234-7.302.9431H783.5146a2.6586,2.6586,0,1,0,0,5.3172h75.8433c-41.2188,2.9188-83.317,5.2522-83.317,5.2522a9.12,9.12,0,1,1-.2126-18.2378H929.8665a79.7882,79.7882,0,0,1,1.9644-25.4205l-75.6,23.9864a2.66,2.66,0,0,1-.8048.1246,2.6951,2.6951,0,0,1-.4985-.0468L595.2659,146.86h-31.965S391.61,108.3639,307.0133,107.9385L319.5088,88.85h24.4589a2.6328,2.6328,0,0,0,2.6586-2.6586,2.6662,2.6662,0,0,0-2.6586-2.6586H318.0731a2.6809,2.6809,0,0,0-2.2331,1.2229l-15.2074,23.1828c-10.1556.2125-18.8226,1.0635-25.4159,2.7118C215.3453,125.5915,174.51,170.4684,174.51,170.4684s-56.3995.2645-133.2748,37.94V250.79c28.9153,10.2935,73.987,21.29,137.988,23.8263l28.0109-8.6589c-19.6022-2.3405-28.8738-6.5546-31.6-8.02-28.1644,3.7633-48.66-7.5921-62.2665-15.1759-1.3942-.7788-2.7053-1.5058-3.9359-2.17-12.5686-6.7711-57.8554-20.0952-58.31-20.23a2.6561,2.6561,0,0,1-1.1554-4.4033c.8049-.8256,20.129-20.2353,56.7-20.7442,1.9134-.0273,3.73-.0393,5.5219-.0467h.0007c5.4664-.0228,10.3789.0525,14.8971.22a2.64,2.64,0,0,1,1.0515-.22,2.5986,2.5986,0,0,1,1.18.306c4.4572.2025,8.5187.5108,12.333.9187,3.4254-5.0007,16.3542-20.6325,47.7163-29.4157l48.63-35.4288h19.8862l-25.8946,39.2407H195.7539c-29.0261,7.0048-42.8528,20.201-47.9565,26.3717,11.1582,1.6356,20.6923,4.3049,32.974,8.1432,24.21,7.5655,81.6814,18.823,140.7778,18.823,52.5356,0,77.5273-6.5011,99.5775-12.2388,2.8662-.7426,5.665-1.47,8.4508-2.1653,18.0649-4.4968,42.418-12.3427,52.93-15.801l-9.67-6.3813L339.0227,170.7874l7.2845-33.1258,128.9414,20.471,7.0086,29.2528,7.7486,5.1121a2.6561,2.6561,0,0,1-.6127,4.7356c-.3453.1142-34.7745,11.7351-58.533,17.6495-2.7676.6906-5.5482,1.4123-8.3964,2.15-4.9838,1.2975-10.14,2.631-15.6967,3.9236l76.6235,25.2377a2.6585,2.6585,0,0,1-.3842,5.1458l-61.8121,10.5461a2.5576,2.5576,0,0,1-.444.0363,2.6648,2.6648,0,0,1-2.656-2.482,32.38,32.38,0,0,0-1.4461-6.8068L370.4656,261.26l4.1183,9.3437c62.8717-3.8785,119.98-9.4563,173.7758-14.1033,100.3349-8.6138,209.3369-16.59,209.3369-16.59s.23.1185.59.296c21.2819-6.7941,49.2321-10.1719,78.644-13.672C842.1177,225.9167,847.3569,225.2936,852.6066,224.6445Zm-518.901-53.8571h-94.433L269.9,131.5467l69.1232,6.1149Z"/><path d="M109.53,234.7019V200.5063c-.935.0088-1.8236.01-2.791.0241-25.6824.3582-42.5244,10.8316-49.4227,16.128C68.6237,220.0657,97.08,228.8547,109.53,234.7019Z"/><path d="M929.7471,216.69c-18.7763,3.7334-50.2067,9.9852-76.4862,13.2306-5.26.649-10.5046,1.2721-15.7023,1.8953-26.36,3.134-51.55,6.16-71.4994,11.61,13.817,5.0284,44.2337,12.9334,86.7084,5.7907,59.1269-9.9431,82.4161-27.9152,82.4161-27.9152s-.8266-1.9339-1.8518-5.3233C932.1665,216.2083,930.9751,216.4452,929.7471,216.69Z"/><path d="M226.3646,235.8864c-.2476-5.887,3.3424-10.6515,6.5916-13.7781-5.9059-.9411-11.5353-1.9258-16.85-2.939V250.82c6.6818.0207,13.6022.12,20.5492.2742C230.0613,246.4283,226.595,241.3363,226.3646,235.8864Z"/><path d="M321.5492,229.4425a569.3763,569.3763,0,0,1-81.5954-6.26c-2.1312,1.4773-8.5434,6.4284-8.2772,12.4959.2284,5.1978,5.5716,10.5305,15.4478,15.4167a2.5017,2.5017,0,0,1,.3541.2736c12.9651.3732,25.458.8661,35.7133,1.2738,11.7949.4673,21.1077.8463,24.3219.7425,11.8884-.3375,33.3076.0156,33.5205.0156a2.6614,2.6614,0,0,1,2.6145,2.6586v16.2948c8.542-.4287,16.9507-.9015,25.2818-1.3987L350.3068,228.7C341.69,229.1692,332.1991,229.4425,321.5492,229.4425Z"/><path d="M355.9657,228.3611l12.2986,27.9038,46.3762-8.6631c-4.1446-8.6362-13.25-19.2326-33.2628-21.8733C373.8693,226.8024,365.5187,227.713,355.9657,228.3611Z"/><path d="M314.1011,258.5879l6.4031,14.6715c.27.0406.4985.0757.7646.1159,5.7452-.2366,11.4142-.5017,17.0627-.7734V258.6765C333.5115,258.6148,322.9288,258.4977,314.1011,258.5879Z"/></svg>