<?xml version="1.0" encoding="UTF-8"?>
<!--
  Copyright (c) 2026 Passion Highway, Inc.. All Rights Reserved.

  This image is digitally signed and the hash recorded.
  Unauthorized reproduction, distribution, or use of this
  image is strictly prohibited and constitutes copyright
  infringement under 17 U.S.C. Section 106.

  Violators may be subject to civil liability including
  statutory damages up to $150,000 per work (17 U.S.C. Section 504)
  and criminal prosecution with fines and imprisonment
  (17 U.S.C. Section 506).

  Contact: jim@passionhighway.com
  Asset ID: PHI-AID-BE23-66a094bf
  Hash: 946189e3834e4539
-->
<svg id="Layer_1" data-name="Layer 1" xmlns="http://www.w3.org/2000/svg" viewBox="0 0 1000 382.1138">
  <metadata>
    <rdf:RDF xmlns:rdf="http://www.w3.org/1999/02/22-rdf-syntax-ns#"
             xmlns:dc="http://purl.org/dc/elements/1.1/"
             xmlns:cc="http://creativecommons.org/ns#">
      <rdf:Description>
        <dc:title>BE23 Aircraft Silhouette</dc:title>
        <dc:creator>Passion Highway, Inc.</dc:creator>
        <dc:rights>Copyright (c) 2026 Passion Highway, Inc.. All Rights Reserved. Unauthorized use prohibited under 17 U.S.C. 106, 504, 506.</dc:rights>
        <dc:publisher>Passion Highway, Inc.</dc:publisher>
        <dc:identifier>PHI-AID-BE23-66a094bf</dc:identifier>
        <dc:source>Airplane-ID.com</dc:source>
        <cc:license rdf:resource="https://airplane-id.com/terms"/>
      </rdf:Description>
    </rdf:RDF>
  </metadata>

<path d="M101.0647,338.657a21.7284,21.7284,0,1,0,21.7284,21.7284A21.7284,21.7284,0,0,0,101.0647,338.657Zm0,37.3065a15.5781,15.5781,0,1,1,15.5781-15.5781A15.5779,15.5779,0,0,1,101.0647,375.9635Z"/><circle cx="101.0647" cy="360.3854" r="8.4567"/><path d="M384.3364,323.0789a21.5255,21.5255,0,0,0-7.234,1.3277l-7.808-14.5741,10.7131-12.342c3.19.0262,6.3748.0588,9.5195.0161L387.1444,264.14H370.8816l-4.5574,33.3671c2.2833-.0452,4.5476-.0174,6.82-.0114l-8.93,10.2889a2.5961,2.5961,0,0,0-.3287,2.9234l8.5452,15.9508a21.6967,21.6967,0,1,0,11.9061-3.5794Zm0,37.3065a15.5781,15.5781,0,1,1,15.5781-15.5781A15.5779,15.5779,0,0,1,384.3364,360.3854Z"/><circle cx="384.3364" cy="344.8073" r="8.4567"/><path d="M62.5636,249.12H155.116V174.6945c-22.5812,5.5937-60.3379,14.45-92.5524,19.94Z"/><path d="M445.98,219.0285c-16.1591,1.1915-31.6449,1.8648-46.3021,2.2274v12.7925H445.98Z"/><path d="M36.6676,247.9286l7.0955,27.916,13.6213,1.5537V195.5669c-7.7688,1.3985-14.6572,3.0555-20.7168,4.7648Z"/><path d="M62.5636,277.9679c9.1155,1.0878,22.5813,2.59,42.6766,4.8685L86.4915,332.8159l36.2545-21.39v-26.673c9.0636.8807,19.9916,1.5021,32.37,2.02V254.2989H62.5636Z"/><path d="M3.7279,228.0921c8.8044,6.2152,21.8561,9.9443,27.7605,11.3944V201.8338c-12.8962,3.9878-21.6491,8.2348-27.2427,11.6014A8.74,8.74,0,0,0,3.7279,228.0921Z"/><polygon points="943.288 186.762 913.3 183.447 911.125 190.232 941.786 191.372 943.288 186.762"/><rect x="418.1163" y="239.2276" width="27.8638" height="30.7645"/><path d="M909.7265,177.8022,957.22,31.0752l-16.9361-5.2829a2.5643,2.5643,0,0,1-1.8126-2.4859V0h-8.39V14.9161L818.0545,132.7431l-174.902,8.2351,1.6056,2.434Z"/><polygon points="907.551 201.212 973.732 202.986 974.564 195.865 908.858 197.22 907.551 201.212"/><path d="M881.5,201.1087a2.605,2.605,0,0,1,2.8485-2.3307l17.972,1.9163v-.1037l2.9-8.9081v-.1037l2.8485-8.7529-265.1236-34.39a2.64,2.64,0,0,1-1.8644-1.14l-3.9881-6.0077-11.3425.5178s-41.6407-5.4381-96.4368-12.0676V282.2149c116.5321-11.6532,405.9462-71.11,405.9462-71.11l.57-1.7611L883.83,203.9572A2.6051,2.6051,0,0,1,881.5,201.1087Z"/><path d="M278.7437,106.8471C224.362,110.11,175.16,169.6709,175.16,169.6709s-5.6451,1.5018-14.8643,3.7807V286.9282c53.3976,1.8644,130.775.8285,200.7461-.4663l1.3985-6.94-90.3254-5.6454a2.5959,2.5959,0,0,1-2.3825-2.59v-59.302c.0518-.1552.1037-.2589.1552-.4144a1.3507,1.3507,0,0,1,.1555-.4142,2.0286,2.0286,0,0,1,.4145-.5181,1.1369,1.1369,0,0,1,.1552-.2589c1.3466-1.0874,33.4059-27.1389,105.5522-19.37,69.9711,7.5617,74.7359,22.0116,74.9433,25.0156v.0519l.0515.0515v56.4535a2.597,2.597,0,0,1-2.59,2.59H412.73l-2.4341,10.3065c8.96-.1552,17.661-.3107,25.9479-.4659v9.8921a2.4289,2.4289,0,0,0,.7767,1.8126l23.3064,23.669a2.6282,2.6282,0,0,0,3.6255,0,2.61,2.61,0,0,0,.0519-3.677l-22.5813-22.84v-8.96c22.3739-.4144,41.7959-.6733,56.505-.6733,6.8884,0,15.7447-.5178,26.2068-1.5019V129.1694C434.12,118.3447,311.9941,104.8789,278.7437,106.8471Zm-64.0668,157.5a2.597,2.597,0,0,1-2.59,2.59H197.5337a2.597,2.597,0,0,1-2.59-2.59V243.4227a2.597,2.597,0,0,1,2.59-2.59h14.5536a2.597,2.597,0,0,1,2.59,2.59Zm12.948-75.3056-44.6966-15.02c27.2427-41.2781,70.4371-51.481,70.4371-51.481Zm68.3138,1.1912c-11.1355.1555-22.2706.0518-32.3182-.57l5.3344-20.665h26.9838Zm76.86-61.3735L448.57,143.4122,427.18,190.284l-54.3817-4.1433Zm-10.2032,57.8s-29.7286,2.797-61.4771,3.47V166.4079a2.597,2.597,0,0,0-2.59-2.59H266.9352a2.596,2.596,0,0,0-2.4862,1.9163l-6.06,23.5135a127.7218,127.7218,0,0,1-18.1272-2.59l17.4539-57.8H362.595Z"/><rect x="200.1233" y="246.0123" width="9.3744" height="15.7447"/><polygon points="962.969 30.143 962.917 30.143 914.958 178.424 944.945 181.738 996.374 25.896 964.315 25.896 962.969 30.143"/><path d="M943.65,13.0517v8.39l15.1232,4.7129,1.1914-3.6255a2.5961,2.5961,0,0,1,2.4341-1.8126h35.6848L1000,14.9161Z"/><polygon points="385.798 258.96 412.937 258.96 412.937 251.709 390.459 251.709 385.798 258.96"/><path d="M279.5207,210.7419c20.3024,2.4859,84.2654,9.0118,164.4916,3.2629-4.5577-4.04-19.6294-12.5335-68.4174-17.8164C322.0936,190.3877,291.2257,203.9053,279.5207,210.7419Z"/><polygon points="412.937 239.228 398.487 239.228 393.826 246.53 412.937 246.53 412.937 239.228"/><path d="M394.7062,285.7886c3.47-.0519,6.8366-.1034,10.2029-.1552l1.45-6.0081H394.0328Z"/><path d="M412.9371,269.9921V264.14H392.3755l1.0877,10.3066h14.1391l.57-2.4859a2.5524,2.5524,0,0,1,2.4862-1.9681Z"/><path d="M274.9111,268.8528l88.5643,5.5415,2.7451-13.3622a2.6049,2.6049,0,0,1,2.5378-2.0718h10.8762l14.8643-23.0475V221.3592c-5.3344.1037-10.5655.1556-15.641.1556-54.2265,0-93.3294-4.7133-103.9467-6.1633Z"/></svg>