<svg id="Layer_1" data-name="Layer 1" xmlns="http://www.w3.org/2000/svg" viewBox="0 0 1000 377.8285"><path d="M347.24,295.3841l10.892,2.5584c24.4727-.7483,48.95-1.797,73.1158-3.2293V279.7751H347.24Z"/><path d="M336.2337,217.0927a2.3677,2.3677,0,0,1,2.2867-1.1973l72.0816,7.22H426.61l-10.1547-7.6971-88.6722-7.4426,8.14,9.6776Z"/><path d="M434.0632,252.0364l31.2658,40.3615c15.9865-1.2113,31.7351-2.5983,47.1509-4.1938l-51.2968-38.8823Z"/><path d="M339.5892,220.721l-1.1772,2.121-.0032.0054-22.9176,41.2872,17.4283,9.1589a2.3475,2.3475,0,0,1-1.0619,4.4266c-2.4142.0309-27.8633.3388-58.5864.2887l69.272,16.2718V277.4265a2.3472,2.3472,0,0,1,2.3486-2.3485h88.7049a2.3472,2.3472,0,0,1,2.3486,2.3485v16.9891q11.9517-.7341,23.77-1.5877l-50.4484-65.1253Z"/><path d="M484.6211,139.8141l-2.0183-1.8721q-9.3018-.3843-18.385-.7494V245.7278l55.067,41.7421c1.1218-.1213,2.2477-.2394,3.3655-.3629V144.1653c-12.8694-1.3225-25.16-2.5748-36.6691-3.7365A2.3571,2.3571,0,0,1,484.6211,139.8141Zm33.332,22.4019v29.12a6.3854,6.3854,0,0,1-6.3852,6.3852h-36.11a6.3854,6.3854,0,0,1-6.3852-6.3852V159.2883a6.3851,6.3851,0,0,1,6.9013-6.3643l36.1094,2.9277A6.3853,6.3853,0,0,1,517.9531,162.216Z"/><path d="M913.1024,0V17.6144h15.8529a2.3444,2.3444,0,0,1,2.22,3.1077L876.9413,179.2346c29.9235,3.88,55.2886,7.4819,72.9,10.5211,1.7663-6.7852,4.2006-16.0657,7.0788-27l-28.5019-6.7075a2.3519,2.3519,0,0,1-1.7109-2.9747l19.3758-63.3407a2.3522,2.3522,0,0,1,2.2476-1.66H976.65C988.7814,42.2527,1000,0,1000,0Z"/><path d="M931.9369,152.05l26.18,6.161c5.0647-19.2279,11.2389-42.5853,17.29-65.4421H950.07Z"/><path d="M792.9026,189.4372a5.8565,5.8565,0,0,0,5.9173,5.9173H900.7035a5.8782,5.8782,0,0,0,5.9632-5.9173,5.5336,5.5336,0,0,0-.2534-1.568c-10.0727-1.39-21.0493-2.8457-32.7569-4.3517H798.82A5.9249,5.9249,0,0,0,792.9026,189.4372Z"/><path d="M925.671,22.3115H910.7538a2.3472,2.3472,0,0,1-2.3486-2.3485V0h-3.5229L809.2309,117.2357a87.7291,87.7291,0,0,1-72.0415,32.1783c-49.5121-2.2978-130.9866-6.1638-209.842-9.5766v.1026c75.54,7.8021,237.5256,24.8812,344.8437,38.6823Z"/><polygon points="455.686 245.155 432.806 227.813 415.298 227.813 430.672 247.66 455.686 245.155"/><path d="M155.684,267.9224V217.1357c-4.3938.8308-9.0013,1.7938-13.6878,2.891v44.648C146.4872,265.8453,151.0706,266.9379,155.684,267.9224Z"/><path d="M911.3639,189.4372a10.6507,10.6507,0,0,1-10.66,10.6145H798.82a10.6157,10.6157,0,0,1,0-21.2313h37.3222c-93.2163-11.3926-215.8051-24.5971-308.7947-34.1723V286.6c2.8584-.3254,5.6809-.67,8.5136-1.0089v13.5594h-8.5136V306.49h21.7244v-7.3393h-5.5779v-14.49c12.5443-1.5731,24.8207-3.2835,36.6967-5.1791,125.0621-19.963,155.5937-25.2473,206.0882-34.0545s154.4195-19.9629,161.4652-47.5588c.2577-1.0091.5806-2.2629.9363-3.6384-9.9986-1.7075-22.6489-3.62-37.4231-5.688C911.2839,188.8411,911.3639,189.1361,911.3639,189.4372ZM582.686,188.3477a6.0391,6.0391,0,0,1-6.0389,6.0392h-40.325a6.0391,6.0391,0,0,1-6.0389-6.0392v-26.99a7.5958,7.5958,0,0,1,8.4069-7.5526l37.211,3.9956a7.5958,7.5958,0,0,1,6.7849,7.5524Z"/><path d="M8.7636,264.4631c14.4011,8.2129,38.5421,18.7847,75.2886,25.9569V202.99C53.7113,210.66,25.237,221.2,6.7,235.6419A17.3958,17.3958,0,0,0,8.7636,264.4631Z"/><path d="M88.7494,246.8832v44.3882c5.3078.9863,15.166,2.3455,20.99,3.1442,7.4744-9.2828,7.1676-24.6338,6.3692-32.76C102.8629,257.1465,93.1177,252.4728,88.7494,246.8832Z"/><path d="M162.8708,274.1737c-1.2683-.2348-2.8655-.5637-4.7442-.9865-.047,0-.047.047-.094.047a2.0085,2.0085,0,0,1-1.0332-.2818c-6.858-1.4561-16.7222-3.8047-26.915-6.811,2.5834,8.69,6.55,23.8118,13.7833,28.2742,4.4624,2.7712,8.3185,3.7076,19.9423,3.9956,54.0645,1.2211,114.6581,1.55,176.0031.0468l-87.4613-20.5266C215.4789,277.65,176.7742,276.71,162.8708,274.1737Z"/><path d="M113.2684,223.2565l.9866-26.8679c-8.5019,1.5972-17.0508,3.4288-25.5056,5.4486v35.6516C92.5541,231.9932,102.23,227.202,113.2684,223.2565Z"/><path d="M131.2117,217.8547c11.6021-3.0533,22.1237-5.073,26.398-5.8715,1.0806-.094,89.8569-8.5959,161.7238,1.2213l5.0257-8.8777a2.3642,2.3642,0,0,1,2.2548-1.1743l90.9371,7.6564a2.0891,2.0891,0,0,1,1.2213.47l40.7714,30.9075v-105.17c-44.529-1.7849-84.455-3.194-112.4032-3.8047L369.1233,99.533h-8.3611l-27.4783,33.4438c-9.4883-.094-16.8159-.094-21.419.1411-52.8432,2.3486-86.287,50.0717-86.287,50.0717a871.3,871.3,0,0,0-87.5553,9.0184c-1.4561,6.3414-3.6169,13.9978-6.1063,16.0646C129.5207,210.2923,130.1314,214.4726,131.2117,217.8547ZM386.7377,153.55a5.994,5.994,0,0,1,6.0123-6.0125h49.1324a6.034,6.034,0,0,1,6.0593,6.0125v34.8059a6.034,6.034,0,0,1-6.0593,6.0125H392.75a5.994,5.994,0,0,1-6.0123-6.0125Zm-73.98-6.0125h64.2573l2.2078,50.166H273.5361Zm-12.4943-8.7837a6.0138,6.0138,0,0,1,5.3075,9.958l-37.53,42.5564a9.2509,9.2509,0,0,1-9.2533,2.8184l-26.6329-6.9517S268.7449,143.2166,300.263,138.7542Z"/><polygon points="317.9 225.302 300.422 256.216 311.335 261.951 327.519 232.793 317.9 225.302"/><polygon points="250.215 250.977 250.215 234.757 231.155 248.546 250.215 250.977"/><path d="M316.8441,217.6248c-25.5615-3.3715-53.1688-4.4587-78.0583-4.4587-38.3007,0-70.1485,2.563-78.4046,3.2892v52.4229c1.12.22,2.2425.4533,3.36.6585,23.917,4.399,127.03,3.8669,158.745,3.5779l-11.3441-5.96-.0089-.0029-.0057-.0048-15.033-7.8987a2.3454,2.3454,0,0,1-.9518-3.2339Zm-61.9324,36.0223a2.35,2.35,0,0,1-2.3486,2.3486,2.186,2.186,0,0,1-.2982-.0184l-27.5958-3.5229a2.35,2.35,0,0,1-1.078-4.2338l27.5959-19.963a2.3818,2.3818,0,0,1,2.4449-.1881,2.3555,2.3555,0,0,1,1.28,2.0917Z"/><polygon points="333.48 222.053 325.261 212.281 320.237 221.168 329.826 228.636 333.48 222.053"/><path d="M130.26,203.74c1.0072-1.4278,2.22-5.4254,3.1591-10.78,3.5229-19.963,3.9454-63.6466,3.9454-83.3748a10.0731,10.0731,0,0,0-10.0987-10.052,10.1038,10.1038,0,0,0-10.052,10.052V221.8942c3.5229-1.1273,7.0928-2.2075,10.6156-3.147C125.9979,214.097,126.6581,208.8451,130.26,203.74Z"/><path d="M127.1111,260.4067q4.9273,1.5521,10.1879,3.0172V221.1694c-22.9641,5.7307-45.6139,14.0267-45.6139,21.3219,0,3.8744,12.37,10.142,29.5462,15.9886-.4914,9.597-1.25,25.722-1.143,31.94.1215,7.0979-1.5092,56.2929-2.2325,77.6027a9.4918,9.4918,0,0,0,18.936,1.21c.1543-1.6855.324-3.6935.5072-6.083.9908-12.9172.1835-71.0447-5.1008-78.0905C128.6658,280.35,127.4993,268.0568,127.1111,260.4067Z"/></svg>