<svg id="Layer_1" data-name="Layer 1" xmlns="http://www.w3.org/2000/svg" viewBox="0 0 1000 396.3224"><polygon points="46.484 70.179 41.051 65.349 41.051 188.502 46.484 188.502 46.484 70.179"/><polygon points="41.051 359.929 46.484 364.758 46.484 241.605 41.051 241.605 41.051 359.929"/><path d="M362.6849,340.73l6.1695-60.0141H348.329l3.84,59.2663c-1.0789-.033-2.158-.1047-3.236-.1047-30.13,0-33.9679,23.82-21.4808,32.49a11.9938,11.9938,0,0,0-1,4.5233c0,9.626,11.5338,17.1674,26.2582,17.1674,14.722,0,26.2557-7.5414,26.2557-17.1674a11.9436,11.9436,0,0,0-.6284-3.7248c18.8479-2.209,37.3468-6.2747,45.4524-13.3672C423.79,359.7991,394.6489,344.5356,362.6849,340.73Zm-9.9744,48.4992c-11.6164,0-21.4287-5.65-21.4287-12.3379a7.0951,7.0951,0,0,1,.4546-2.469,19.68,19.68,0,0,0,6.33,1.0729c9.1947,0,22.0753-.4731,35.22-1.7892a7.3206,7.3206,0,0,1,.85,3.1853C374.1367,383.5788,364.3244,389.229,352.7105,389.229Z"/><path d="M113.4141,348.7673l-3.5426-11.38L124.0544,324.8l-.21.0062,32.0413-30.8321,10.8782-.0978c.53.0545,1.108.0742,1.6425.1258V226.45H59.7653v18.1266c8.41,9.9441,24.25,24.6687,50.8308,35.6808l8.6506,2.7808-36.273,42.9546.45,26.2449c-19.3947,8.3865-20.7277,27.4835.49,27.4835.7546,0,1.5879.0008,2.3764.0014-.02.28-.1126.5451-.1126.8286,0,8.6969,9.5128,15.7715,21.2046,15.7715s21.2046-7.0746,21.2046-15.7715a11.6161,11.6161,0,0,0-.2367-1.7418c19.91-1.2866,38.7228-4.3714,46.1171-11.7657C174.4663,367.0434,146.74,351.4686,113.4141,348.7673Zm-26.4828-9.9464a8.3008,8.3008,0,1,1,8.3008,8.3007A8.3008,8.3008,0,0,1,86.9313,338.8209Zm20.45,52.672c-8.8761,0-16.3751-5.0088-16.3751-10.942a6.9635,6.9635,0,0,1,.1294-.8277c9.6461,0,21.0375-.071,32.3906-.6455a7.066,7.066,0,0,1,.23,1.4732C123.7564,386.4841,116.2574,391.4929,107.3813,391.4929Z"/><path d="M942.7476,33.2029H906.2745L805.9951,194.8235c38.4074.8424,74.9754,1.7483,104.5527,2.5182Z"/><path d="M240.5586,272.109,351.4872,258.77l-2.7349-20.9081c-4.4431.2022-8.9855.3178-13.6078.3178-39.45,0-83.2272-6.6515-94.5859-8.4947Z"/><path d="M240.5586,284.2789c30.448.5344,63.0608.9477,80.17.6627,3.9765-.0637,9.4595-.2,16.078-.3977a10.15,10.15,0,0,1,10.0912-9.2614h6.749l-1.5339-11.7274L240.5586,276.97Z"/><path d="M708.8591,259.1668c52.64-3.7182,116.0535-8.2028,168.9916-14.3111l14.8629-18.1351a6.9146,6.9146,0,0,1,5.8786-10.6h8.2716l.5344-2.7245c-135.1888-.3747-356.7424-.8325-469.9062-.6046-.5468.0858-1.037.1627-1.4647.23l5.1676,67.1788c61.1935-3.0854,128.336-7.3976,162.16-12.139C624.0218,265.166,663.3371,262.3881,708.8591,259.1668Z"/><path d="M336.7139,289.3785c-6.531.1945-11.9668.33-15.9094.3926-3.7471.0613-8.2418.0849-13.2882.0849-41.175,0-119.4127-1.7905-134.2809-2.1392v6.6548c6.5642.5064,13.3386.8569,20.5732.8569,44.9628,0,93.451-.0967,142.9053-1.0143Z"/><path d="M358.5157,275.2825h3.712l-6.9442-58.7766-.0035-.0292-8.4938-71.893h-5.3657L356.5929,260.582l.0015.0045,0,.0041Z"/><path d="M336.5511,144.5837H320.7668c-5.9054,0-11.2608-.1928-16.3486-.47l-63.86,61.8154v18.8639c10.92,1.79,64.7867,10.1528,107.567,8.278Zm-92.0326,75.1594,71.8149-72.153h17.5312l9.659,72.153C306.6744,229.4021,244.5185,219.7431,244.5185,219.7431Z"/><path d="M370.4338,275.2825a10.1518,10.1518,0,0,1,9.8306,7.6924c17.0445-.693,36.1675-1.5446,56.1054-2.5342l-5.2027-67.635c-38.2862.0893-62.7631.2649-64.9114.5609-4.2278.8811-5.6746,2.5076-6.1058,3.1661l6.9409,58.75Z"/><path d="M941.1282,0a60.6589,60.6589,0,0,0-51.2895,28.3492l-.015.0242H994.7425L1000,0Z"/><path d="M253.3186,133.8207l-80.0832,40.0417v9.5131l84.86-47.5527C256.31,135.1484,254.7459,134.48,253.3186,133.8207Z"/><path d="M235.7291,210.6043l-5.6991,5.5166L173.2354,186.01v96.8757c7.6908.1831,33.64.7859,62.4937,1.3076Z"/><path d="M560.1062,198.0055c-31.2958,2.37-64.7446,6.5209-89.35,9.9117,144.9536-.1445,392.8711.5264,437.5887.652l1.2607-6.4272C801.9573,199.3335,602.8467,194.75,560.1062,198.0055Z"/><path d="M88.5915,185.5733c-9.6352,1.3191-19.4033,2.8711-28.8262,4.6857V221.62H88.5915Z"/><path d="M168.4059,176.2771l-4.83,2.4151s-33.2947,1.45-70.1548,6.2367V221.62h74.9849Z"/><path d="M0,213.1267a243.57,243.57,0,0,0,51.9173,20.4771,47.2648,47.2648,0,0,0,3.0185,4.77v-47.165C29.944,196.3418,8.2465,203.4287,0,213.1267Z"/><path d="M896.5486,229.6645l-11.78,14.3741c32.7781-3.9437,60.9927-8.55,79.3439-14.0328h-65.52A6.869,6.869,0,0,1,896.5486,229.6645Z"/><path d="M265.6235,131.6044l20.6758,5.9646a248.31,248.31,0,0,0,34.4675,2.1852h161.19c-80.0455-25.457-159.3-47.0386-214.546-12.9794l-8.3635,4.1817q2.1449.8387,4.7393,1.6775Z"/><path d="M914.4992,202.27l-2.7172,13.8509h60.6635c-.237-4.0259-2.232-8.1975-6.1976-12.4428C954.9782,203.3594,936.9516,202.86,914.4992,202.27Z"/><path d="M915.441,197.4693c20.0609.5256,36.5235.9781,47.7283,1.2914L993.8476,33.2029H947.665Z"/><path d="M604.0246,272.8442c-33.9121,4.7546-101.1619,9.0777-162.4591,12.1714l.4312,5.6083c36.42-1.855,72.36-4.4608,106.7815-8.0971,114.0732-12.0738,287.9358-19.9459,345.3105-27.19,26.076-3.2952,48.6012-9.8391,62.733-18.3156-52.8149,13.2-159.6364,20.748-247.623,26.9659C663.7663,267.1987,624.5265,269.9719,604.0246,272.8442Z"/><path d="M359.4769,210.8351a18.2954,18.2954,0,0,1,5.8662-2.2084c1.705-.3579,29.4874-.5595,71.7424-.6565,15.2856-2.3906,71.7731-10.9289,122.6528-14.7848,30.63-2.3127,140.864-.6464,240.6494,1.5157L900.591,33.2029H886.794L808.3164,158.3117A55.1271,55.1271,0,0,1,760.0212,184.15c-53.2213-1.5938-161.4024-7.4856-230.8992-29.3152-10.6415-3.3453-21.3517-6.8033-32.0728-10.2506H351.65ZM500,166.6184c4.1534,22.409-62.3009,28.9771-62.3009,28.9771l-4.25-41.0509S495.8465,144.2093,500,166.6184Zm-73.7951-14.44v43.4173l-56.119,6.0369-4.25-54.0423Z"/><path d="M380.4059,287.8023l-.6609,5.3012c19.1678-.5642,38.3517-1.3141,57.4257-2.25l-.4306-5.5983C416.739,286.2489,397.5159,287.1061,380.4059,287.8023Z"/><circle cx="95.2321" cy="338.8209" r="4.0955"/></svg>