<?xml version="1.0" encoding="UTF-8"?>
<!--
  Copyright (c) 2026 Passion Highway, Inc.. All Rights Reserved.

  This image is digitally signed and the hash recorded.
  Unauthorized reproduction, distribution, or use of this
  image is strictly prohibited and constitutes copyright
  infringement under 17 U.S.C. Section 106.

  Violators may be subject to civil liability including
  statutory damages up to $150,000 per work (17 U.S.C. Section 504)
  and criminal prosecution with fines and imprisonment
  (17 U.S.C. Section 506).

  Contact: jim@passionhighway.com
  Asset ID: PHI-AID-PA18-4efd2e77
  Hash: 3860c3da6a48c943
-->
<svg id="Layer_1" data-name="Layer 1" xmlns="http://www.w3.org/2000/svg" viewBox="0 0 1000 387.1475">
  <metadata>
    <rdf:RDF xmlns:rdf="http://www.w3.org/1999/02/22-rdf-syntax-ns#"
             xmlns:dc="http://purl.org/dc/elements/1.1/"
             xmlns:cc="http://creativecommons.org/ns#">
      <rdf:Description>
        <dc:title>PA18 Aircraft Silhouette</dc:title>
        <dc:creator>Passion Highway, Inc.</dc:creator>
        <dc:rights>Copyright (c) 2026 Passion Highway, Inc.. All Rights Reserved. Unauthorized use prohibited under 17 U.S.C. 106, 504, 506.</dc:rights>
        <dc:publisher>Passion Highway, Inc.</dc:publisher>
        <dc:identifier>PHI-AID-PA18-4efd2e77</dc:identifier>
        <dc:source>Airplane-ID.com</dc:source>
        <cc:license rdf:resource="https://airplane-id.com/terms"/>
      </rdf:Description>
    </rdf:RDF>
  </metadata>

<path d="M230.1737,328.8123c-17.6952,0-32.04,13.0588-32.04,29.1675s14.345,29.1677,32.04,29.1677,32.04-13.0589,32.04-29.1677S247.8688,328.8123,230.1737,328.8123Zm0,40.2311c-6.7122,0-12.1532-4.9533-12.1532-11.0636s5.441-11.0635,12.1532-11.0635,12.1531,4.9533,12.1531,11.0635S236.8858,369.0434,230.1737,369.0434Z"/><path d="M228.185,290.364l1.9887,32.7031,25.853,5.7452,45.9611-38.4483C268.3284,295.7866,228.185,290.364,228.185,290.364Z"/><path d="M990.6364,92.2305H928.06V131.71h70.7189A245.3633,245.3633,0,0,0,990.6364,92.2305Z"/><path d="M928.06,178.4076h58.9173a43.0593,43.0593,0,0,0,6.9032-6.9973H928.06Z"/><rect x="886.8131" y="160.1082" width="36.5332" height="18.2994"/><path d="M999.2386,136.4239H928.06v12.4952h60.6922v11.1891H928.06v6.5881h68.88a26.263,26.263,0,0,0,3.0078-11.4166A157.2791,157.2791,0,0,0,999.2386,136.4239Z"/><path d="M876.2067,30.9491c-2.4864,3.5973-5.08,7.3506-7.7364,11.1956h54.876V.1113C908.2774-1.1365,892.0384,8.0437,876.2067,30.9491Z"/><path d="M373.4769,94.5875H228.0774c-.7867.6013-1.6524,1.1235-2.3967,1.7677-2.5555,2.2117-5.3219,4.5678-8.22,7.012l207.7056,4.3857Q397.56,100.2448,373.4769,94.5875Z"/><path d="M235.4927,89.8736H351.9482C298.165,78.8068,259.4661,77.2477,235.4927,89.8736Z"/><path d="M972.5617,46.8587H928.06V87.5166h61.1742A242.1524,242.1524,0,0,0,972.5617,46.8587Z"/><ellipse cx="789.2195" cy="175.0194" rx="5.3768" ry="6.9236"/><path d="M954.5763,19.1642C946.5794,9.408,937.5961,3.0368,928.06.8369V42.1447h41.9872A159.064,159.064,0,0,0,954.5763,19.1642Z"/><path d="M224.8659,286.2865c23.5669.5179,51.1555.5628,75.978.0006l-9.659-37.4924h-66.319Z"/><path d="M32.4085,194.5306V227.61s4.3963,15.5965,12.9633,28.5326v-71.864C39.7113,187.1363,35.17,190.5173,32.4085,194.5306Z"/><path d="M332.7227,250.6959,321.3279,285.65c14.1266-.5743,26.4222-1.396,35.1651-2.5043,9.4285-1.1952,20.2515-2.8271,32.4084-4.766V235.7125l-49.6729,5.0822Z"/><path d="M136.1155,181.1763v78.4a2.3543,2.3543,0,0,1-2.7137,2.3294l-83.316-12.724V262.4c5.4537,6.2895,12.1394,10.8648,20.0343,10.7287,34.1762-.5892,80.7265,5.8925,101.35,10.0172,3.74.748,10.8639,1.3974,20.2184,1.9306V193.9883c-13.823-2.8-31.27-6.7372-43.9493-10.9888A44.8265,44.8265,0,0,0,136.1155,181.1763Z"/><path d="M882.0992,180.7645V160.1082H818.7553v29.495a2.36,2.36,0,0,1-2.1175,2.3455L455.4861,228.9v38.5607c31.7211-5.1473,68.9891-10.9324,112.5457-16.7233,86.0265-11.437,217.3726-29.5882,279.3019-37.4553V189.6032a2.3556,2.3556,0,0,1,2.357-2.357h73.6556v-4.1247h-38.89A2.3556,2.3556,0,0,1,882.0992,180.7645Z"/><path d="M928.06,183.1215V207.48l29.9606,13.97a11.5726,11.5726,0,1,0,7.7511-6.8558l-26.0036-15.54c15.2108-3.92,29.67-9.0909,40.62-15.9323Zm40.5106,36.862a5.5636,5.5636,0,1,1-5.5636,5.5636A5.5638,5.5638,0,0,1,968.5708,219.9835Z"/><path d="M852.0477,212.6876c9.22-1.1586,16.6792-2.0566,21.802-2.6081,11.9158-1.2833,28.51-3.2527,45.7514-6.5436l3.7452,1.7462V191.96H852.0477Z"/><path d="M196.4026,194.9286V285.325c7.0272.3455,15.0562.6318,23.7493.8516v-77.95l-7.5425-10.304C210.0985,197.4964,204.12,196.4411,196.4026,194.9286Z"/><path d="M807.8543,129.9422s-244.6659,5.712-360.3927-17.0024l-235.4895-4.9726c-31.7378,26.4513-75.8566,60.8651-75.8566,60.8651s-55.0158.3919-86.03,13.3026v6.1111c11.7918-2.7361,55.71-12.4279,83.4647-11.8427.0719-.0066.1344-.042.208-.042a2.2152,2.2152,0,0,1,.2394.0484c6.0331.1519,11.29.7935,15.2421,2.12,23.6227,7.9241,64.4124,14.8169,65.09,14.9311l.0017,0,.0267.0046,65.6064-.0322a2.3585,2.3585,0,0,1,2.2834,1.77l23.4357,90.9675c1.5177-.04,3.0043-.0851,4.4953-.13l-23.7373-95.8717a2.3585,2.3585,0,0,1,2.288-2.9232h61.4287a2.3581,2.3581,0,0,1,2.2419,3.0867L338.2762,233.66l29.7991-45.35a2.3609,2.3609,0,0,1,1.97-1.0634H533.1191a2.357,2.357,0,0,1,0,4.714H371.3162l-28.7519,43.7577,46.3371-4.7413V215.1617a2.357,2.357,0,0,1,4.714,0v15.3324l57.1567-5.8484V212.4364a2.357,2.357,0,0,1,4.714,0v11.7268l358.5553-36.6891V165.7388H799.6049v-25.19h14.5838v8.37H923.3463V46.8587h-58.133C838.9,84.9481,807.8543,129.9422,807.8543,129.9422ZM145.7178,168.216l72.7446-59.0447,7.071,6.629-58.3352,52.1482Zm32.5287-4.2449,55.2417-41.5418-39.3321,58.3352Zm21.2128,22.0966L243.6526,115.8h11.9322l16.7935,70.2674Zm109.1576-5.3032H288.73l-19.8871-58.3352h39.7741Zm32.4821,0H319.6652V122.4293h42.8675Zm28.9466,0h-19.887l19.887-52.5017Zm69.0619-18.9361-.0132.2509a19.73,19.73,0,0,1-19.7023,18.6852H375.3488V122.4293h26.3937A37.4175,37.4175,0,0,1,439.1075,161.8284ZM789.22,186.657c-4.8653,0-8.9345-3.99-9.8817-9.2806H729.7794a2.357,2.357,0,1,1,0-4.7139h49.5584c.9472-5.2909,5.0164-9.2807,9.8817-9.2807,5.5656,0,10.0908,5.22,10.0908,11.6377S794.7851,186.657,789.22,186.657Z"/><path d="M291.7405,191.96l23.2568,93.9264c.4393-.0153.8741-.03,1.31-.0461l30.6031-93.88Z"/><path d="M131.4015,181.0646c-27.8095-.0489-71.9661,9.8529-81.3157,12.0257v51.3236l81.3157,12.4184Z"/><path d="M393.6154,277.6277c16.4991-2.6626,35.4994-5.87,57.1567-9.4009V229.3821L393.6154,235.23Z"/><polygon points="218.615 198.147 243.521 232.176 286.904 232.176 278.137 198.147 218.615 198.147"/><path d="M242.3268,236.89a2.3532,2.3532,0,0,1-1.9012-.9667l-15.56-21.2572v29.4145h65.1049l-1.8526-7.1906Z"/><path d="M18.7085,195.3483H10.901a10.9011,10.9011,0,0,0,0,21.8021h7.8075V342.07h8.3968V68.0715H18.7085Z"/></svg>