<svg id="Layer_1" data-name="Layer 1" xmlns="http://www.w3.org/2000/svg" viewBox="0 0 1000 402.2483"><path d="M366.7344,393.6853c14.5475,0,19.0621-8.8954,19.0621-8.8954h-38.124S352.1871,393.6853,366.7344,393.6853Z"/><path d="M114.7307,402.2483c12.7341,0,16.6861-7.904,16.6861-7.904H98.0444S101.9965,402.2483,114.7307,402.2483Z"/><path d="M42.7166,200.7962V96.0187l-5.8548-9.93V202.5761C18.1733,208.4309,4.3559,215.41,0,223.7c0,0,16.8617,8.3371,36.8618,18.2671V343.8409l5.8548,4.5432V244.8713c1.8268.89,3.6535,1.8265,5.48,2.7165.0469-13.2551-.2341-32.2249-.562-48.15C45.9485,199.8594,44.3092,200.328,42.7166,200.7962Z"/><path d="M923.6066,184.6838l-.1407-11.241L817.33,160.0936l-2.67,7.6816s-.9368-.0938-2.7636-.2341l18.6888,19.9532Z"/><path d="M921.5457,30.1639,886.089,25.1991a2.4083,2.4083,0,0,1-2.0609-2.3419V1.8737L872.6464,0l-53.77,155.5505L923.4193,168.712Z"/><path d="M298.548,225.5739H421.5457V115.1758c-32.0376-3.7-64.0281-4.2156-94.8009,1.78h-.0469l-28.15,81.92Zm26.37-100.14c36.0656-7.9157,90.726-2.4357,90.726-2.4357v66.1358l-104.7775,5.2459Z"/><path d="M177.9391,178.97c-35.6909,3.3722-87.0259,9.4611-125.6207,19.2974.1876,9.04.3279,16.8617.4217,23.6533H188.4308Z"/><polygon points="940.796 175.597 928.15 174.005 928.29 184.543 931.101 184.497 940.796 175.597"/><path d="M958.6885,14.0515,888.7119,2.6229v18.22l35.4567,4.9649a2.2848,2.2848,0,0,1,2.014,2.295l1.9206,141.1711,18.3137,2.295a2.3823,2.3823,0,0,1,1.92,1.6392,2.288,2.288,0,0,1-.6555,2.4357L933.63,188.5246a2.2559,2.2559,0,0,1-1.4989.6089l-3.747.0938.562,42.0139C971.4287,225.7143,1000,221.92,1000,221.92Z"/><path d="M79.157,284.59c2.623,10.96,75.9718,17.5175,75.9718,17.5175L74.7542,352.2249l1.92,8.4777C62.2481,371.8033,70.07,390.117,97.1428,390.5387c35.7377.562,72.0375-4.6839,85.527-21.6394,0,0-42.67-18.9695-79.5315-16.44l84.918-55.5972.7962-3.7a542.3484,542.3484,0,0,1-106.2764-22.623C80,274.6605,77.9861,279.7657,79.157,284.59Z"/><path d="M829.6487,192.2247h-.0468a2.4506,2.4506,0,0,1-1.733-.7493l-22.9979-24.59c-43.981-3.9812-225.1053-20.9835-308.1029-38.6417-23.1381-4.918-46.8384-9.5549-70.5386-12.4589v5.6673c14.7542,2.014,94.2389,14.1452,94.2389,41.3584,0,30.82-79.4847,27.4-94.2389,26.51v38.5951a2.3488,2.3488,0,0,1-2.3419,2.3419H296.206a2.3488,2.3488,0,0,1-2.3419-2.3419V198.5012a1.9387,1.9387,0,0,1,.1407-.7493l27.4-79.7191c-36.3,7.9626-70.7259,25.34-101.2646,57.6112,0,0-15.1287.89-37.4707,2.904L193.7236,223.7a2.277,2.277,0,0,1,.0469.562v62.0609c24.7774,1.3116,53.3021,2.014,84.7308,1.8268,3.5595-11.9906,15.0818-33.2086,51.7095-32.8807,27.6347.3279,75.4566,14.4263,112.8335,26.979,53.068-3.1381,106.1829-7.26,157.0494-11.71,68.1029-5.9955,228.4778-26.3232,324.1687-38.6886L923.7,189.3676ZM269.3208,167.4942l-35.1288,2.9039s60.281-50.3512,84.3092-44.4964L296.815,189.1335S271.0538,175.644,269.3208,167.4942ZM587.822,234.801a2.45,2.45,0,0,1-.75,1.733l-27.5407,25.7611a2.4017,2.4017,0,0,1-1.5926.6089H514.0046a2.3486,2.3486,0,0,1-2.3419-2.3419V195.3162a2.3486,2.3486,0,0,1,2.3419-2.3419H585.48a2.3486,2.3486,0,0,1,2.3419,2.3419Z"/><path d="M52.8336,249.93c11.944,5.9017,23.7471,11.7565,32.7869,16.3-.0935.0935-.14.1873-.2342.2811a539.1608,539.1608,0,0,0,103.7,21.9672V226.6042H52.787C52.9273,236.815,52.9273,244.3559,52.8336,249.93Z"/><path d="M343.6534,286.8384c28.4309-.89,57.33-2.2013,86.3231-3.8408-35.035-11.3817-75.7376-22.7634-99.8126-23.0444-32.74-.2811-43.4193,17.33-46.8853,28.15,2.53,0,5.1055,0,7.6816-.0469,6.6978-.0469,13.5363-.2341,20.328-.3748L342.81,338.97c-39.3912,7.4475-35.6908,40.89,3.8408,41.5457,40.7961.6558,82.2951-5.2928,97.658-24.4027,0,0-38.6417-16.9088-76.8149-18.5949Z"/><polygon points="516.347 258.22 557.002 258.22 583.138 233.771 583.138 197.658 516.347 197.658 516.347 258.22"/></svg>