<svg id="Layer_1" data-name="Layer 1" xmlns="http://www.w3.org/2000/svg" viewBox="0 0 1000 350.9121"><path d="M146.2305,298.2649,135.4591,279.502c4.4722.537,9.07.9955,13.9138,1.2847,7.7262.4613,16.3571.8135,25.6556,1.0824V226.3843H54.1619v22.3824c12.1369,9.5805,35.1059,23.312,71.6977,29.3748l1.4142,20.3442c-22.9019-.0284-41.1517,17.8473-38.9044,31.3318,2.2805,13.683,114.5953,3.9909,108.894-34.7776C197.2634,295.04,169.5294,297.4665,146.2305,298.2649Z"/><path d="M371.7218,286.488c-25.0855,9.122-25.0855,28.8765-6.2714,28.8765h63.854c16.5337,0,19.3843-12.3429,19.3843-12.3429S396.8073,277.366,371.7218,286.488Z"/><path d="M388.2554,335.6889c14.2532,0,19.3843-14.4233,19.3843-14.4233H368.8712S374.0023,335.6889,388.2554,335.6889Z"/><path d="M125.2906,350.9121c13.5461,0,17.537-10.2622,17.537-10.2622H107.7537S111.7446,350.9121,125.2906,350.9121Z"/><rect x="179.5895" y="210.6613" width="47.3204" height="29.0764"/><path d="M43.33,238.5974a57.9229,57.9229,0,0,0,6.2714,6.3446V190.2064C29.3083,196.5924,11.7872,205.5638,0,218.0729,0,218.0729,21.6648,235.7468,43.33,238.5974Z"/><path d="M175.0285,175.5167c-36.9538-.1987-83.162,2.3649-120.8666,13.3106v32.996H175.0285Z"/><path d="M927.9768,158.66l37.5985,3.2114c-.5512-2.2685-.9231-3.6612-.9231-3.6612L995.1016,21.9242l-34.8893-4.551Z"/><polygon points="964.176 0 961.231 12.908 996.1 17.457 1000 0 964.176 0"/><path d="M955.6705,16.7808l-27.4183-3.5764L810.1282,147.6727c-.2648.3015-.5584.5679-.84.85l114.1008,9.7453Z"/><polygon points="959.499 0 939.852 0 931.876 9.08 956.689 12.316 959.499 0"/><path d="M469.2132,280.7388c1.5242.0156,3.08.0284,4.561.0479,6.4576.0849,12.6875.13,18.8142.1537V247.2562H469.2132Z"/><path d="M460.6168,226.0252v16.67h31.9716V225.7117a105.7354,105.7354,0,0,0-11.0159-4.6328A175.4788,175.4788,0,0,1,460.6168,226.0252Z"/><path d="M473.8842,218.4679c-16.5921-5.2285-44.2836-11.61-85.7758-14.274-62.3524-4.0042-75.4809,9.5958-78.0117,13.7515,4.5638,3.1432,23.7415,13.3356,78.0607,10.96C434.7866,226.8954,462.0691,221.43,473.8842,218.4679Z"/><path d="M803.2923,152.587a18.755,18.755,0,0,1-8.8267,1.4259c-62.3834-5.1089-415.2779-33.45-464.363-24.88-53.8769,9.4071-89.7948,49.6009-89.7948,49.6009s-25.6536-2.7735-60.7183-3.1789V206.1H229.19a2.2792,2.2792,0,0,1,2.28,2.28v33.6374a2.2792,2.2792,0,0,1-2.28,2.28H179.59v37.6937c30.4878.7725,67.8842.6837,106.8339.3062a103.9539,103.9539,0,0,1-16.4913-10.58,2.285,2.285,0,0,1,.1225-3.6212c.606-.4357,13.62-9.4784,34.9625-8.6056V218.643l.0042-.0206a2.251,2.251,0,0,1,.2619-.9977c1.6609-5.0331,12.4957-22.511,83.1192-17.9829,38.5352,2.4729,65.21,8.0247,82.3739,13.0263l17.888-71.9273a2.2979,2.2979,0,0,1,2.4409-1.7193l78.1071,7.7969a2.2791,2.2791,0,0,1,2.0534,2.2693v113.455a2.2792,2.2792,0,0,1-2.2805,2.28H497.1494v16.1219c73.6553.0807,126.2165-4.8694,211.5165-22.9634,94.0707-19.9544,250.8552-52.4515,258.837-55.8723,5.6736-2.4317,1.8476-23.5369-.8435-35.5691ZM283.3523,202.68l-37.0581-19.3842s63.854-45.61,78.1072-45.04Zm106.0434-5.7012H307.2976l23.3751-45.04h67.2748Zm71.8358,0H403.6488l10.2623-42.1893h53.0216Z"/><path d="M456.0558,244.9757V226.8314c-15.1593,2.5934-37.2547,5.3226-67.7024,6.6349q-8.4249.3607-15.7942.3519c-38.6068,0-56.0639-6.8362-62.9811-10.8188v36.6927c0,.0459-.0234.0843-.0262.13,1.2475.13,2.5.2653,3.7966.4671,22.1558,3.4472,42.2386,16.7956,48.2433,21.0894q5.6669-.074,11.27-.1445V269.9543a2.2792,2.2792,0,0,1,2.28-2.28h37.0582a2.2792,2.2792,0,0,1,2.2805,2.28v10.8313c18.1223-.1489,35.0919-.2052,50.171-.0907V247.2562h-6.3159A2.2792,2.2792,0,0,1,456.0558,244.9757Z"/><path d="M409.92,272.2348H377.423v8.9422c11.11-.137,21.9819-.2589,32.4972-.353Z"/><path d="M312.6492,264.7965c-18.3843-2.8685-31.682,2.5344-37.17,5.3984a102.8942,102.8942,0,0,0,21.799,11.9924c18.71-.203,37.65-.4583,56.2344-.7032C344.7864,275.9571,329.1263,267.3609,312.6492,264.7965Z"/><path d="M497.1494,260.2622h69.5553v-109.11l-74.09-7.396-17.4668,70.2395c13.91,4.3807,20.323,8.0561,20.8786,8.3843a2.2827,2.2827,0,0,1,1.1225,1.9643Zm-11.4025-63.2839,8.5518-35.3478h65.5645l-11.4025,35.3478Z"/></svg>