<?xml version="1.0" encoding="UTF-8"?>
<!--
  Copyright (c) 2026 Passion Highway, Inc.. All Rights Reserved.

  This image is digitally signed and the hash recorded.
  Unauthorized reproduction, distribution, or use of this
  image is strictly prohibited and constitutes copyright
  infringement under 17 U.S.C. Section 106.

  Violators may be subject to civil liability including
  statutory damages up to $150,000 per work (17 U.S.C. Section 504)
  and criminal prosecution with fines and imprisonment
  (17 U.S.C. Section 506).

  Contact: jim@passionhighway.com
  Asset ID: PHI-AID-DA40-0f2a77ca
  Hash: d05aafe260e22316
-->
<svg id="Layer_1" data-name="Layer 1" xmlns="http://www.w3.org/2000/svg" viewBox="0 0 1000 267.4285">
  <metadata>
    <rdf:RDF xmlns:rdf="http://www.w3.org/1999/02/22-rdf-syntax-ns#"
             xmlns:dc="http://purl.org/dc/elements/1.1/"
             xmlns:cc="http://creativecommons.org/ns#">
      <rdf:Description>
        <dc:title>DA40 Aircraft Silhouette</dc:title>
        <dc:creator>Passion Highway, Inc.</dc:creator>
        <dc:rights>Copyright (c) 2026 Passion Highway, Inc.. All Rights Reserved. Unauthorized use prohibited under 17 U.S.C. 106, 504, 506.</dc:rights>
        <dc:publisher>Passion Highway, Inc.</dc:publisher>
        <dc:identifier>PHI-AID-DA40-0f2a77ca</dc:identifier>
        <dc:source>Airplane-ID.com</dc:source>
        <cc:license rdf:resource="https://airplane-id.com/terms"/>
      </rdf:Description>
    </rdf:RDF>
  </metadata>

<path d="M83.2215,96.7518a2.3172,2.3172,0,1,1,.9265,4.5409l-24.4195,4.7729,19.5078,33.5016h99.393l19.2764-18.1641-33.4092-31.88a2.8365,2.8365,0,0,0-.278.2317s-63.8526-7.3214-114.0354-.0928l7.0894,12.1867Z"/><path d="M54.0289,139.9843a2.4917,2.4917,0,0,1-.2316-.9731V105.046L45.2714,90.4036c-2.41.4169-4.8192.88-7.1361,1.3437L47.1711,0H37.3477L26.9218,94.4813C15.8008,97.7247,6.3945,102.08,0,108.0117c0,0,3.8924,15.4767,30.0263,25.3L19.3689,224.0859h9.2674l7.6921-88.6428c2.5021.7416,5.0969,1.4365,7.97,2.0852,0,0,15.9864,43.001,108.0117,52.778l-67.374,33.78,1.5753,5.0509C73.676,231.5461,65.15,235.8557,65.15,240.8135c0,7.5994,20.2493,13.7623,45.1786,13.7623s45.1786-6.1629,45.1786-13.7623-20.2492-13.7619-45.1786-13.7619h-.556l64.7327-34.9844c3.8461.278,7.7849.556,11.77.834a592.2236,592.2236,0,0,0-58.5237-14.55C67.56,166.6743,54.5388,141.0964,54.0289,139.9843Zm111.0237,51.4341c.278,0,.556.0464.834.0464L99.2539,227.4685c-2.8265.2319-5.5605.51-8.1554.88l-.556-1.8533,70.5252-35.4016C162.3649,191.1867,163.6625,191.3256,165.0526,191.4184Z"/><path d="M75.9,143.0425,58.431,113.0161v25.3927c1.946,3.2436,16.7276,25.0221,70.2007,35.3552,4.2629.834,8.4334,1.7144,12.5111,2.5948V144.2009h-63.25A2.2414,2.2414,0,0,1,75.9,143.0425Z"/><polygon points="377.554 169.455 401.047 169.455 387.378 154.905 370.14 154.905 377.554 169.455"/><path d="M822.668,152.727,896.5293,46.8931H882.9062l2.41,3.4753L833.1866,130.3l-55.79,22.7053,28.6363,6.2553A15.9908,15.9908,0,0,0,822.668,152.727Z"/><path d="M900.9777,42.2594h.0928l50.4608,2.456,4.3093-12.8819H872.5731l7.1822,10.4259Z"/><path d="M318.2429,136.0919H282.8877L269.4962,178.49a2.2942,2.2942,0,0,1-2.2241,1.6217h-16.774v8.8042l57.3653,3.6141-.3708-3.1509H331.866l.7412,4.7265,54.0292,3.3825-22.3809-43.8349a2.4563,2.4563,0,0,1,.0928-2.27,2.3516,2.3516,0,0,1,1.9925-1.1121h19.8785l2.5487-35.8648-55.4192,6.9969,14.4571-59.45c21.1761-1.8072,112.3674,20.8517,112.3674,20.8517V105.37l-66.6791,8.4334-1.39,19.3689h76.1782V74.4173A405.3423,405.3423,0,0,0,345.9523,48.7L320.467,134.4238A2.294,2.294,0,0,1,318.2429,136.0919Z"/><path d="M278.0223,136.0919h-54.77a2.33,2.33,0,0,1-1.112-.278L201.6126,124.276l-20.4809,19.2761a2.2884,2.2884,0,0,1-1.5756.6488h-33.78v33.2236a601.6169,601.6169,0,0,1,59.7282,16.8667c13.0671.9268,26.5977,1.9,40.36,2.9193V177.7953a2.2942,2.2942,0,0,1,2.3169-2.3169H265.604Z"/><path d="M223.9007,131.4582h92.6277L341.18,48.4687c-5.0509-.2319-10.1479-.3708-15.384-.4172C234.141,47.31,182.707,77.0122,168.389,86.7428l34.2429,32.76Zm103.61-70.664-18.5348,60.6089H214.5869L182.7534,88.5964S258.0047,45.7347,327.51,60.7942Z"/><polygon points="405.356 174.088 379.917 174.088 392.011 197.813 429.915 200.176 405.356 174.088"/><path d="M394.4674,202.6319l1.4828,2.9192c13.9936.3244,27.2.4636,39.2937.3244l-.6951-.7413Z"/><path d="M913.9984,198.3689a145.69,145.69,0,0,0,20.7126-3.1972H816.8759C850.007,204.1611,893.3784,223.9932,913.9984,198.3689Z"/><path d="M333.3024,198.74l.6488,4.17c19.6469,1.0659,38.7841,1.9463,56.7165,2.456l-1.5756-3.1045Z"/><path d="M950.0024,49.3027,902.1362,46.94,826.4677,155.4144a20.7307,20.7307,0,0,1-16.9593,8.8505,21.4632,21.4632,0,0,1-4.4948-.4635l-35.17-7.6918h-.0464l-4.9581,1.9924s-121.0323-9.2674-181.8729-32.7139c-31.7872-12.2331-66.3547-32.5287-110.05-49.21V135.49a2.2942,2.2942,0,0,1-2.3169,2.3169H391.78l-1.0193,13.9475,50.6927,53.9827c16.45-.3244,30.6288-1.2975,41.6106-3.0584,54.9093-8.7577,244.9376-12.4183,301.7005-11.6306a2.3943,2.3943,0,0,1,1.4828-.51H902.7386Z"/><path d="M960.7063,31.8335,956.3506,44.947,997.1735,46.94c1.7608-9.3138,2.8265-15.106,2.8265-15.106Z"/><path d="M308.4194,197.2105l-57.9213-3.66v3.9849c19.2761,1.39,38.9694,2.7337,58.431,3.9385Z"/><path d="M907.65,190.538h42.3521c10.8891-4.3094,20.6662-10.8891,23.0758-20.8517,4.4945-18.5812,17.0056-84.7043,23.2613-118.1595l-41.5181-1.9925Z"/><path d="M340.8554,219.4986c-2.9657-.3244-5.7458-.4632-8.4334-.51l-3.9849-20.5273-15.1059-.9732,5.8385,22.4734c-12.3258,2.2243-20.0177,7.5993-24.5586,12.4186a9.4482,9.4482,0,0,0,2.5021,14.874c21.3149,10.6574,65.0571,7.2285,85.26,4.9117a6.7774,6.7774,0,0,0,4.4018-11.1207C379.8711,232.9365,366.2016,222.2787,340.8554,219.4986Z"/><ellipse cx="104.7375" cy="264.1704" rx="13.4667" ry="3.2581"/><ellipse cx="323.85" cy="262.7173" rx="16.356" ry="3.2581"/></svg>