<?xml version="1.0" encoding="UTF-8"?>
<!--
  Copyright (c) 2026 Passion Highway, Inc.. All Rights Reserved.

  This image is digitally signed and the hash recorded.
  Unauthorized reproduction, distribution, or use of this
  image is strictly prohibited and constitutes copyright
  infringement under 17 U.S.C. Section 106.

  Violators may be subject to civil liability including
  statutory damages up to $150,000 per work (17 U.S.C. Section 504)
  and criminal prosecution with fines and imprisonment
  (17 U.S.C. Section 506).

  Contact: jim@passionhighway.com
  Asset ID: PHI-AID-T34P-7c202c21
  Hash: 4def114afca66843
-->
<svg id="Layer_1" data-name="Layer 1" xmlns="http://www.w3.org/2000/svg" viewBox="0 0 1000 341.4093">
  <metadata>
    <rdf:RDF xmlns:rdf="http://www.w3.org/1999/02/22-rdf-syntax-ns#"
             xmlns:dc="http://purl.org/dc/elements/1.1/"
             xmlns:cc="http://creativecommons.org/ns#">
      <rdf:Description>
        <dc:title>T34P Aircraft Silhouette</dc:title>
        <dc:creator>Passion Highway, Inc.</dc:creator>
        <dc:rights>Copyright (c) 2026 Passion Highway, Inc.. All Rights Reserved. Unauthorized use prohibited under 17 U.S.C. 106, 504, 506.</dc:rights>
        <dc:publisher>Passion Highway, Inc.</dc:publisher>
        <dc:identifier>PHI-AID-T34P-7c202c21</dc:identifier>
        <dc:source>Airplane-ID.com</dc:source>
        <cc:license rdf:resource="https://airplane-id.com/terms"/>
      </rdf:Description>
    </rdf:RDF>
  </metadata>

<path d="M454.6484,269.5944h.1954l-2.64-2.3465A2.4322,2.4322,0,0,0,454.6484,269.5944Z"/><path d="M965.81,187.0732c-.5377.3912-1.1243.6845-1.6623,1.0268H965.81Z"/><path d="M273.4245,244.1242h43.2648V229.556c-2.7376-.049-5.133.0489-7.1373.1957C295.2282,230.925,282.1752,236.4,273.4245,244.1242Z"/><path d="M338.6884,231.0225v13.1017h37.79l-3.1288-7.1862h10.4129C369.7318,234.7869,353.1591,232.4894,338.6884,231.0225Z"/><path d="M312.2407,277.1229h78.4635l-5.0083-11.6119h64.58l1.9278,1.7369v-18.235H431.9648l2.1713,1.9562H379.4242l-.8439-1.9562h-66.34Zm127.3212-21.2651,5.2882,4.7645H383.5875l-2.055-4.7645Z"/><path d="M45.025,279.4207a57.5847,57.5847,0,0,0,18.528,21.51v-99.583c-6.2577,2.0535-12.4661,4.2535-18.528,6.6Z"/><path d="M39.11,257.7149a43.7959,43.7959,0,0,0,1.0268,7.5774v-55.34C25.5188,215.9656,11.8306,223.0539,0,231.4137,0,231.4137,7.92,244.271,39.11,257.7149Z"/><path d="M263.256,259.1325c-.6842,2.4933-1.76,5.4753-2.8842,8.6042h46.98V249.0129H268.7313A29.3259,29.3259,0,0,0,263.256,259.1325Z"/><path d="M268.4869,242.12H192.1745v8.8485h69.3216A40.6176,40.6176,0,0,1,268.4869,242.12Z"/><path d="M946.4018,202.6682c-59.8376-3.08-87.8008,6.3552-93.9606,8.8485v2.2489c5.5243.0489,19.7992.2444,32.3632.1954h7.7242c4.2531-.0489,7.9686-.0975,10.51-.2443,8.8974-.44,55.2911-2.2,82.6679-3.2754C973.6807,207.997,960.0414,205.3083,946.4018,202.6682Z"/><rect x="77.1434" y="269.1546" width="61.9889" height="29.0388"/><path d="M852.4412,239.5291h17.746V218.85c-7.5774-.0975-14.2749-.1465-17.746-.1954Z"/><path d="M998.9552,208.1435c-.2933-1.3687-.6353-2.7866-1.0754-4.2042-1.5644-5.3288-3.9109-15.6928-6.6485-28.7945-11.44,10.12-27.9635,19.3593-36.9585,24.0526C970.4543,202.3749,986.2937,205.5526,998.9552,208.1435Z"/><path d="M887.4441,218.8987v17.4037h17.4527V218.85H892.92C891.16,218.85,889.3508,218.85,887.4441,218.8987Z"/><path d="M255.7275,194.4552h-29.43a2.4515,2.4515,0,0,1-2.4444-2.4443v-24.59c-5.28,5.3285-8.164,8.4084-8.164,8.4084s-8.9464.2933-23.5146,1.4665v26.9368h63.553Z"/><rect x="266.0915" y="194.4552" width="132.5813" height="9.7774"/><path d="M582.2431,172.6029a2.4228,2.4228,0,0,1-.4887-1.76,2.4773,2.4773,0,0,1,2.64-2.2l.6844.0975,8.4574-11.5372h-2.0042s-73.966-41.8472-103.2981-41.8472-116.6931-2.4443-132.63-2.4443c-15.8393,0-62.2819-11.0485-91.614,15.8393-14.715,13.4928-26.8389,25.3234-35.2476,33.7321v27.0832H569.777Zm-333.5554-1.9067V156.1767l19.5548-14.5682,4.8887,29.0877Zm75.1392,8.8c-27.0343,0-38.0338-28.11-42.1894-45.4158A10.707,10.707,0,0,1,292.05,120.8315H363.572S367.8252,179.4958,323.8269,179.4958Zm116.742,0h-63.553V120.8315h63.553Zm14.0795,0V125.72h54.3622l68.4417,31.7765-43.9982,21.9991Z"/><path d="M835.82,191.4242c22.2438,1.5645,50.7936,3.862,63.9931,6.4532,5.28-.3423,11.0974-.5867,17.3548-.6356-17.257-3.1288-32.1677-5.4753-40.4782-6.16C863.6362,190.0553,848.6279,190.5443,835.82,191.4242Z"/><path d="M999.933,214.841c-17.9414.6355-70.1037,2.64-90.1475,3.471v20.4347a2.42,2.42,0,0,1-2.4443,2.4444H885a2.4206,2.4206,0,0,1-2.4443-2.4444v-19.848c-2.493,0-5.0352-.049-7.48-.049v23.1238a2.4515,2.4515,0,0,1-2.4443,2.4443h-20.19v19.5548c40.1363-6.3066,72.2551-11.2932,89.2187-13.5907C987.0757,244.1731,1001.1062,233.1736,999.933,214.841Z"/><path d="M966.69,49.9455l-.88,137.1277c8.36-4.9862,17.6971-11.195,24.2967-17.4526C982.725,133.7867,972.9476,81.1843,966.69,49.9455Z"/><path d="M641.7874,297.02c53.4823-8.213,110.7779-17.257,161.4736-25.3234V229.7517H641.7874Z"/><polygon points="641.787 174.069 803.261 189.322 803.261 184.629 641.787 169.963 641.787 174.069"/><polygon points="641.787 224.863 803.261 224.863 803.261 194.26 641.787 179.007 641.787 224.863"/><path d="M181.4682,260.1592h-10.364v-4.302H135.319v4.302H124.955v-4.302h-38.23v4.302H76.3613v-4.302h-7.92V304.06c8.5063,4.9866,19.4569,8.8,33.5853,10.4619,38.2785,4.4975,68.0016,7.3819,85.2588,8.9464V255.8572h-5.8176ZM144.021,300.6378a2.4208,2.4208,0,0,1-2.4444,2.4443H74.6991a2.4208,2.4208,0,0,1-2.4444-2.4443V266.71a2.4515,2.4515,0,0,1,2.4444-2.4443h66.8775a2.4515,2.4515,0,0,1,2.4444,2.4443Z"/><path d="M808.15,194.602v26.4966h6.551V209.9033a2.4206,2.4206,0,0,1,2.4443-2.4443h32.3142c2.2976-1.0264,11.4883-4.7908,29.8209-7.48C853.8589,197.2907,817.9271,195.14,808.15,194.602Z"/><path d="M808.15,189.2243c5.72-.7332,19.8481-2.3954,35.8831-3.1775-9.3865-5.7689-18.5283-15.7907-24.8835-23.5635l-88.9254,4.7908,81.299-118.5508L837.14,34.6928,821.3,157.3013c8.164,10.364,22.7325,26.692,34.612,28.3543,7.1863-.0978,14.4214.049,21.1678.5866,12.9552,1.0268,41.0162,6.013,69.3706,11.4394,2.2-1.0754,9.3376-4.6929,17.697-9.5816H912.0344V32.5417H961.41a45.8155,45.8155,0,0,0-18.6259-19.4569C921.4206,1.4008,883.68-10.3811,840.0727,15.5292L616.8551,157.2034H599.5982l-8.8488,12.0749,46.1493,4.351V159.0122l-6.2574-.9289,6.6485-4.1063.049-.0489a2.5083,2.5083,0,0,1,1.5155-.9778h.0489L797.8346,54.15,714.9223,170.6962l-73.1349-10.9506v5.28l164.1134,14.9594A2.4049,2.4049,0,0,1,808.15,182.38ZM861.29,24.28H903.137v7.9686h-42.14Zm-.44,12.8573H903.137v7.6264H860.5563Zm-.4887,12.5151H903.137v7.6263h-43.02Zm-.44,12.515H903.137v7.5774H859.6275Zm-.44,12.4661h43.656V82.26H859.1877Zm-.44,12.5151H903.137v7.6263H858.7475Zm-.4888,12.515H903.137V107.29H858.3077Zm-.44,12.515h45.025v7.5777H857.8187Zm-.44,12.4664H903.137v7.6264H857.3789Zm-.4891,12.5151H903.137v7.6263H856.9388Zm-.44,12.515H903.137v7.6264H856.45Zm-.44,12.5151H903.137v7.5774H856.01Zm-.4888,12.4661H903.137v4.84H855.6676Z"/><path d="M808.15,270.9634c13.6883-2.1511,26.8878-4.2532,39.4028-6.16V225.9873H808.15Z"/><rect x="819.5894" y="212.3477" width="27.9632" height="8.751"/><path d="M575.8389,189.5665h35.0522a2.4514,2.4514,0,0,1,2.4443,2.4444,2.4206,2.4206,0,0,1-2.4443,2.4443H448.684v9.7774H636.8987V178.518l-49.5222-4.6443Z"/><path d="M511.5039,277.1229c.1465-5.9152,1.2222-21.3636,7.04-35.0029H484.5671v25.03a2.42,2.42,0,0,1-2.4443,2.4444h-27.279l8.36,7.5285Z"/><rect x="457.0927" y="242.12" width="22.5857" height="22.5857"/><path d="M407.9125,316.9169l-.6356-1.4176h-97.48a2.4512,2.4512,0,0,1-2.4443-2.4444v-40.43h-48.74c-.1468.4891-.3422.9289-.489,1.418-4.1063,11.6348-8.3108,25.5188-3.813,32.2163,1.9063,2.7376,5.2306,4.1555,10.2172,4.302,7.6752.2934,12.6618-1.1732,14.3727-4.1552,2.4444-4.3021-1.8088-11.2443-1.8577-11.3418a2.4281,2.4281,0,1,1,4.1066-2.5912c.2444.3423,5.9152,9.4352,1.9553,16.3284-2.4929,4.4486-8.2129,6.6975-16.9636,6.6975-.5866,0-1.1732,0-1.8088-.049-5.72-.1954-9.9731-1.9556-12.8083-5.0841a62.835,62.835,0,0,1-14.3239,1.8577c-5.2309,0-10.7062-.9288-14.715-3.8622-3.7644-2.7866-5.7686-6.8929-5.8665-12.2707-.44-20.7769,29.9677-24.59,37.4473-25.2255.3422-1.0267.7334-2.0532,1.0757-3.08,1.3686-3.7155,2.64-7.1862,3.4221-9.9728.1954-.6845.44-1.32.6842-1.9556H192.1745v68.0994c7.7242.6356,11.88.9778,11.88.9778l50.7446,16.4749,5.4753-18.9192s129.3549,4.84,248.248-6.9908H427.5651Z"/><path d="M221.5066,295.9934c.049,3.8131,1.32,6.5507,3.862,8.4084,5.7686,4.2532,17.0615,2.9334,23.417,1.5645-2.9823-7.92-.1468-19.2615,3.4708-29.9677C243.3589,277.0742,221.1644,281.1806,221.5066,295.9934Z"/><path d="M68.4417,250.9685h7.92V244.271H86.7254v6.6975h38.23V244.271h10.364v6.6975h35.7852V244.271h10.364v6.6975h5.8176V177.736c-28.8434,2.5908-75.3346,8.5552-118.8441,22.0966Z"/><path d="M192.1745,237.2313h80.9567a2.1908,2.1908,0,0,1,.9778.1954c9.2883-6.7951,21.6569-11.4394,35.0518-12.5637,23.1235-1.9066,92.2986,9.875,105.0091,12.075h4.4l.3912.3422,35.5406-.0489H520.939a43.527,43.527,0,0,1,7.1376-9.8753,30.9815,30.9815,0,0,1,22.7812-9.3373c8.8975,0,15.7417,3.08,20.3858,9.1419,12.9062,17.0615,3.471,51.5756,3.08,53.0422a2.45,2.45,0,0,1-2.3465,1.8088H468.63l3.5567,3.2022H394.1911l-1.3848-3.2022H312.2407v28.599h92.9341l-2.6585-6.1475h89.6894v-1.2258l7.81,7.031-4.7419.3423h54.7534c.7821-.0979,1.6131-.2444,2.3954-.3423,25.6167-3.6665,54.4112-7.9686,84.4765-12.515v-88.632H192.1745Zm208.2274,62.3431-4.0965-9.4719h81.3112l10.5207,9.4719Z"/><polygon points="452.204 242.12 424.338 242.12 426.538 244.124 452.204 244.124 452.204 242.12"/><path d="M567.3327,230.1426c-3.7155-4.8887-9.0929-7.2352-16.4749-7.2352a26.0692,26.0692,0,0,0-19.31,7.92c-12.9062,13.0038-14.8615,38.3761-15.1548,46.2958H570.07C571.7815,269.9856,577.2569,243.1956,567.3327,230.1426Z"/><path d="M919.3552,38.5a2.4444,2.4444,0,1,0,0,4.8887h40.79a2.4444,2.4444,0,1,0,0-4.8887Z"/><path d="M960.1452,51.0029h-40.79a2.4444,2.4444,0,1,0,0,4.8887h40.79a2.4444,2.4444,0,1,0,0-4.8887Z"/><path d="M960.1452,63.5063h-40.79a2.4444,2.4444,0,1,0,0,4.8887h40.79a2.4444,2.4444,0,1,0,0-4.8887Z"/><path d="M960.1452,76.01h-40.79a2.4444,2.4444,0,1,0,0,4.8887h40.79a2.4444,2.4444,0,1,0,0-4.8887Z"/><path d="M960.1452,88.5132h-40.79a2.4443,2.4443,0,1,0,0,4.8886h40.79a2.4443,2.4443,0,1,0,0-4.8886Z"/><path d="M960.1452,101.0166h-40.79a2.4443,2.4443,0,1,0,0,4.8886h40.79a2.4443,2.4443,0,1,0,0-4.8886Z"/><path d="M960.1452,113.52h-40.79a2.4444,2.4444,0,1,0,0,4.8887h40.79a2.4444,2.4444,0,1,0,0-4.8887Z"/><path d="M960.1452,126.0234h-40.79a2.4444,2.4444,0,1,0,0,4.8887h40.79a2.4444,2.4444,0,1,0,0-4.8887Z"/><path d="M960.1452,138.5268h-40.79a2.4444,2.4444,0,1,0,0,4.8887h40.79a2.4444,2.4444,0,1,0,0-4.8887Z"/><path d="M960.1452,151.03h-40.79a2.4444,2.4444,0,1,0,0,4.8887h40.79a2.4444,2.4444,0,1,0,0-4.8887Z"/><path d="M960.1452,163.5336h-40.79a2.4444,2.4444,0,1,0,0,4.8887h40.79a2.4444,2.4444,0,1,0,0-4.8887Z"/><path d="M960.1452,176.037h-40.79a2.4444,2.4444,0,1,0,0,4.8887h40.79a2.4444,2.4444,0,1,0,0-4.8887Z"/><polygon points="379.855 271.277 446.088 271.277 454.844 281.528 398.936 281.528 397.201 277.123 390.704 277.123 379.855 271.277"/><polygon points="358.644 234.691 383.762 236.938 405.717 239.895 408.792 244.124 376.478 244.124 358.644 234.691"/><polygon points="398.936 281.528 415.889 319.139 422.276 319.139 402.642 278.452 398.936 281.528"/><rect x="366.6871" y="130.5301" width="77.1139" height="4.8887"/><rect x="519.6569" y="171.06" width="4.8887" height="14.4274"/><polygon points="406.506 185.487 401.617 185.487 401.617 161.044 416.362 161.044 416.362 165.933 406.506 165.933 406.506 185.487"/><rect x="911.0286" y="248.3643" width="4.8851" height="15.1349" transform="translate(-30.3984 160.8484) rotate(-9.8991)"/><rect x="942.2529" y="242.7878" width="4.8867" height="13.3214" transform="translate(-32.067 224.7675) rotate(-13.344)"/><rect x="971.8609" y="101.0166" width="28.1386" height="4.8887"/><rect x="244.391" y="130.5301" width="24.095" height="4.8887"/><rect x="395.1908" y="194.4552" width="71.9111" height="4.8887"/></svg>