<svg id="Layer_1" data-name="Layer 1" xmlns="http://www.w3.org/2000/svg" viewBox="0 0 1000 299.7493"><rect x="469.4882" y="254.4291" width="22.8019" height="13.4514"/><rect x="469.4882" y="273.1299" width="22.8019" height="13.4514"/><rect x="469.4882" y="227.8543" width="22.8019" height="21.3255"/><path d="M623.1955,183.563H566.9291v92.5335l56.2664-1.27Zm-7.2178,35.2691-42.815-2.4607,2.4607-27.0669,40.3543,13.5334Z"/><path d="M908.0333,178.7161,943.4568,41.9948h-34.008a2.6255,2.6255,0,0,1-2.3017-3.8832L927.7033.5085,919.9475,0,783.7148,155.5275A50.6048,50.6048,0,0,1,761.83,170.0638C805.4372,177.5761,869.5024,178.7833,908.0333,178.7161Z"/><path d="M933.4758.8872l-19.603,35.8582H946.85a2.6258,2.6258,0,0,1,2.5426,3.2834l-35.93,138.6693c12.4758-.0612,21.5952-.2432,25.4207-.3332l23.1351-92.0634a2.6271,2.6271,0,0,1,5.0955,1.2815l-22.8015,90.7306h9.1642L1000,5.2493Z"/><path d="M269.13,212.27,246.391,201.3615l81.693-45.03,2.9527,3.937-44.2016,53.6732a2.4953,2.4953,0,0,1,.1974.9529,2.5861,2.5861,0,0,1-2.0916,2.5173v69.169h24.77V210.4659a2.6231,2.6231,0,0,1,2.6247-2.6247,2.5541,2.5541,0,0,1,1.2873.3848l23.3189-40.575,56.5945,5.4133L389.6,210.4659H314.9606V222.605H492.29v-3.3276l-10.1706-.4453L492.29,193.57v-17.06a2.6247,2.6247,0,0,1,5.2494,0v4.4451l54.954,5.3974-2.9528,35.4331-52.0012-2.2774v58.1551l64.14-1.4475V160.3831c-99.9237-6.2868-203.669-11.6906-227.69-8.8083-49.2126,5.9055-91.2073,47.9-91.2073,47.9s-40.3361,3.7556-88.6869,12.7953Zm149.5048-39.2061,52.6575,5.4134-6.3977,31.9882H407.8084Z"/><path d="M464.2388,291.8307H457.021a2.6247,2.6247,0,1,1,0-5.2493h7.2178V273.13H457.021a2.6247,2.6247,0,1,1,0-5.2493h7.2178V254.4291H457.021a2.6247,2.6247,0,1,1,0-5.2493h7.2178V227.8543H314.9606v58.7271h5.5774v-6.2336a2.6232,2.6232,0,0,1,2.6247-2.6247h98.4252a2.6343,2.6343,0,0,1,2.1351,1.097l14.9628,20.9071c8.6634.0275,17.2.0307,25.553.0016Z"/><path d="M880.5877,216.0382a2.6236,2.6236,0,0,1-2.4709-2.62v-9.35a2.6231,2.6231,0,0,1,2.6247-2.6246h70.571l-.5251-13.1234,1.2787-4.7572H941.0218c-1.83.0513-16.5888.4511-37.7912.4511-43.0834,0-112.759-1.6734-155.0386-11.2785a50.6279,50.6279,0,0,1-6.2688-.0494c-5.2843-.3854-11.3074-.8221-17.9527-1.3l28.326-43.1049-3.937-2.9528-36.8677,45.1628c-21.3043-1.5209-47.39-3.3494-75.8477-5.2727l27.5777-41.3665-3.4449-3.937L625.7251,164.55c-18.9328-1.269-38.76-2.5673-58.796-3.8357v17.5992H625.82a2.6232,2.6232,0,0,1,2.6247,2.6247V277.395a2.624,2.624,0,0,1-2.5632,2.6247l-128.3423,2.8947V299.42c38.0465-.5886,70.7694-2.0252,93.6679-4.8008,75.9624-9.2075,296.27-58.7914,349.3073-70.8475a14.2,14.2,0,0,0,6.8471-3.7849Z"/><path d="M469.4882,299.7022c7.766-.04,15.3879-.1035,22.8018-.2019v-7.67H469.4882Z"/><path d="M883.3661,210.9426l67.2848,3.9812a14.2333,14.2333,0,0,0,.9737-5.6773l-.1022-2.5536H883.3661Z"/><path d="M420.24,282.9724H325.7874v6.2336a2.6231,2.6231,0,0,1-2.6247,2.6247H275.9186a2.6232,2.6232,0,0,1-2.6247-2.6247v-2.2966h-82.021a2.6294,2.6294,0,0,1-2.04-.974l-22.2508-27.4565c-5.8747.41-27.7282,1.0663-39.6238-11.5137a2.6254,2.6254,0,0,1,3.814-3.6089c10.2061,10.7951,30.2228,10.2286,35.4113,9.8794,1.6651-2.8628,6.1945-11.4243,5.8273-19.522-.2765-6.091-15.4315-13.0859-26.3025-16.194H128.0607C75.7964,228.9257,20.9592,246.3792,0,271.6535c0,0,20.9974,20.9974,149.6063,22.9659,76.32,1.1682,187.0687,4.6467,282.6094,5.0885ZM91.0433,275.3035a2.6247,2.6247,0,0,1-5.2493,0V245.1608a2.6247,2.6247,0,1,1,5.2493,0Z"/><path d="M279.6916,217.52H161.0956c7.9128,3.6672,16.2492,9.1239,16.5593,15.9582.42,9.2152-4.2426,18.4121-6.32,22.0338l21.189,26.1484h83.3948a2.6231,2.6231,0,0,1,2.6247,2.6247v2.2966h1.1483V250.4921h-13.91c-1.5354,6.2644-8.0048,22.6378-33.662,22.6378-10.8191,0-18.8546-2.9015-23.8783-8.6224-6.4669-7.3665-5.3493-16.5888-5.2981-16.9784a2.6244,2.6244,0,0,1,2.6016-2.2863h74.147Z"/><path d="M232.1194,267.8806c20.7539,0,26.6517-11.7854,28.2819-17.3885H208.118a17.4268,17.4268,0,0,0,4.1088,10.5961C216.2176,265.5942,222.91,267.8806,232.1194,267.8806Z"/></svg>