<?xml version="1.0" encoding="UTF-8"?>
<!--
  Copyright (c) 2026 Passion Highway, Inc.. All Rights Reserved.

  This image is digitally signed and the hash recorded.
  Unauthorized reproduction, distribution, or use of this
  image is strictly prohibited and constitutes copyright
  infringement under 17 U.S.C. Section 106.

  Violators may be subject to civil liability including
  statutory damages up to $150,000 per work (17 U.S.C. Section 504)
  and criminal prosecution with fines and imprisonment
  (17 U.S.C. Section 506).

  Contact: jim@passionhighway.com
  Asset ID: PHI-AID-JAB4-b97d241e
  Hash: cc11ce248b61679f
-->
<svg id="Layer_1" data-name="Layer 1" xmlns="http://www.w3.org/2000/svg" viewBox="0 0 1000 347.561">
  <metadata>
    <rdf:RDF xmlns:rdf="http://www.w3.org/1999/02/22-rdf-syntax-ns#"
             xmlns:dc="http://purl.org/dc/elements/1.1/"
             xmlns:cc="http://creativecommons.org/ns#">
      <rdf:Description>
        <dc:title>JAB4 Aircraft Silhouette</dc:title>
        <dc:creator>Passion Highway, Inc.</dc:creator>
        <dc:rights>Copyright (c) 2026 Passion Highway, Inc.. All Rights Reserved. Unauthorized use prohibited under 17 U.S.C. 106, 504, 506.</dc:rights>
        <dc:publisher>Passion Highway, Inc.</dc:publisher>
        <dc:identifier>PHI-AID-JAB4-b97d241e</dc:identifier>
        <dc:source>Airplane-ID.com</dc:source>
        <cc:license rdf:resource="https://airplane-id.com/terms"/>
      </rdf:Description>
    </rdf:RDF>
  </metadata>

<path d="M23.0183,74.8476v99.6549L10.1938,176.818a12.3961,12.3961,0,0,0,.0169,24.4009l12.8076,2.294v93.5908L39.0244,287.5V171.6124L33.0793,83.9939Z"/><path d="M448.3232,173.4757a2.4376,2.4376,0,0,0-2.4391,2.439v15.0914h4.8781V175.9147A2.4376,2.4376,0,0,0,448.3232,173.4757Z"/><path d="M365.7012,191.0061v-8.2317a2.4376,2.4376,0,0,0-2.439-2.439v10.6707Z"/><rect x="324.6951" y="138.5748" width="4.878" height="52.4313"/><path d="M399.39,347.561h3.4433a11.28,11.28,0,0,0,11.28-11.28H388.11A11.2806,11.2806,0,0,0,399.39,347.561Z"/><path d="M165.235,308.3285l-28.747-8.9957,8.5565-20.4962a11.22,11.22,0,0,0,.3171-7.7908l-1.6991-5.23c1.0858.0373,2.1627.0745,3.2887.1111V232.1646a2.4342,2.4342,0,0,1,.979-1.9531L178.811,207.16v-16.916H46.3415v2.44l27.8153,28.6335a2.439,2.439,0,1,1-3.4965,3.4013L46.3415,199.685v15.7771c11.1679,16.2068,39.2045,49.2766,82.0363,49.7392l2.5795,2.554a11.222,11.222,0,0,1,1.88,13.4852l-8.2067,14.5579a14.5443,14.5443,0,0,0-17.2065,11.6381l-.6947,3.8443a14.6009,14.6009,0,0,0,14.8894,17.1881l41.1031-1.4678a9.5574,9.5574,0,0,0,2.5132-18.6726Z"/><path d="M136.9855,343.9024c10.9756,0,12.4047-10.6706,12.4047-10.6706H124.6951S126.01,343.9024,136.9855,343.9024Z"/><rect x="348.3232" y="112.9573" width="79.2683" height="15.2439"/><rect x="319.0549" y="112.9573" width="24.3902" height="15.2439"/><path d="M339.3292,256.0976V133.0793h-9.7561v5.4955H331.25v52.4313h-1.6769V244.54a2.3758,2.3758,0,0,1,.4574,1.3442v10.2135Z"/><rect x="432.4695" y="112.9573" width="30.3354" height="15.2439"/><path d="M939.4415,0l-5.7668,21.3415h22.4229a2.438,2.438,0,0,1,2.2675,3.3393L901.7522,167.2283c16.5366.1185,31.0433.2775,42.1666.4192L1000,0Z"/><path d="M760.9184,167.9879c43.5616-1.0562,94.9934-1.0585,135.5978-.7959L952.5057,26.22H930.4878a2.4335,2.4335,0,0,1-2.3533-3.075L934.39,0H844.5122V8.5366h37.1951l-41.1362,93.842a72.7713,72.7713,0,0,1-61.2486,43.3921c-32.3972,2.4108-80.0368,5.3461-133.5908,6.6683q-8.9726.2216-17.6674.031C661.2641,160.2789,710.9679,169.2234,760.9184,167.9879Z"/><path d="M467.6829,107.1861v.8932h.88C468.2861,107.7839,467.9991,107.4871,467.6829,107.1861Z"/><path d="M345.8841,108.0793H462.8049v-4.61c-8.4086-5.2907-23.9431-10.7919-52.439-14.4451-65.8326-8.44-105.1362-3.3376-125.1954,19.0549h60.7136Z"/><polygon points="972.207 182.966 886.585 187.195 886.585 192.683 972.207 182.966"/><polygon points="237.957 181.402 292.378 138.575 324.695 138.575 324.695 133.079 316.616 133.079 293.486 133.079 213.415 192.235 213.415 243.445 324.695 243.445 324.695 191.006 237.957 191.006 237.957 181.402"/><path d="M896.5034,207.3218c11.201.7941,17.0762-5.659,19.6528-9.7608h-32.01a2.439,2.439,0,0,1-2.439-2.439V184.7561a2.439,2.439,0,0,1,2.439-2.439h30.8484A10.0053,10.0053,0,0,0,925,172.3118h0c-42.4653-.4338-109.4021-.7673-163.9672.5541-3.125.0762-6.26.1143-9.38.1143-61.1018,0-120.2512-14.0295-148.2481-21.7735-77.0943-6.2524-131.4537-32.3043-131.4537-32.3043a8.1124,8.1124,0,0,0-.2012-5.9451h-4.0671V130.64a2.4391,2.4391,0,0,1-2.439,2.4391H344.2073V258.5366a2.439,2.439,0,0,1-2.439,2.439H327.5915a2.4391,2.4391,0,0,1-2.4391-2.439V248.3232H210.9756a2.4391,2.4391,0,0,1-2.439-2.4391V191.0074a2.442,2.442,0,0,1,.9908-1.964L288.23,130.8975c-6.2464-4.6039-7.1729-12.4223-6.523-17.94h-.4165c-.257.3656-.5541.6937-.803,1.0671,0,0-45.7317,2.439-89.0244,43.9024,0,0-2.8573-.1438-7.7744-.2917v50.749a2.4379,2.4379,0,0,1-.98,1.9536l-30.88,23.0512V266.082c54.7324,1.6331,154.2173,2.3828,232.5177-.44l9.565,39.3983-1.1614-.1024c-7.9691-.7031-15.5339,4.93-16.1783,12.9037a14.21,14.21,0,0,0,14.1605,15.39h52.1026l7.624-11.821a7.733,7.733,0,0,0-5.8189-11.8944l-32.705-2.8856-5.09-41.9326c28.9789-1.4027,53.6868-3.3969,69.9838-6.1616,68.2927-11.5854,110.9756-25.61,202.439-35.3659,66.0624-7.0467,116.4575-7.0854,152.4944-5.42C844.4259,206.5144,873.4959,205.8019,896.5034,207.3218Zm-629.7351-87.2,10.5183,15.5488-66.311,47.1036L194.97,162.3878Zm184.935,70.8841h-.9411v52.5915a2.4376,2.4376,0,0,1-2.439,2.439h-85.061a2.4376,2.4376,0,0,1-2.439-2.439V182.7744a2.4376,2.4376,0,0,1,2.439-2.439V133.7691l88.4411,9.676Zm11.254-3.2012L461.128,138.872s53.9635-3.5061,56.7074,13.567a257.4012,257.4012,0,0,1,2.7439,35.3659Z"/><rect x="365.7012" y="191.0061" width="80.1829" height="50.1525"/><path d="M934.6,197.561H921.71c-2.1235,4.3367-9.28,15.7009-25.53,14.6294-25.7533-1.7189-45.4268.4528-56.26,5.9757,10.3626.5827,19.4559,1.2806,27.1535,1.9559,34.7561,3.0487,78.0488-1.22,74.39-12.8049A20.2081,20.2081,0,0,0,934.6,197.561Z"/><path d="M178.811,157.507c-27.07-.6145-91.5385-.5094-132.4695,12.4536v8.2763c27.9883-13.3863,90.2215-10.3884,93-10.2443a2.4377,2.4377,0,0,1,2.3128,2.5581,2.4947,2.4947,0,0,1-2.56,2.31c-.6875-.028-67.4153-3.259-92.752,10.8577v1.6471h132.47Z"/><path d="M314.1768,112.9573h-27.553c-.5243,3.674-.7542,11.8742,6.63,15.2439h20.9228Z"/></svg>