<svg id="Layer_1" data-name="Layer 1" xmlns="http://www.w3.org/2000/svg" viewBox="0 0 999.9999 371.258"><polygon points="326.01 276.474 323.313 308.842 337.811 308.842 342.194 276.474 326.01 276.474"/><path d="M343.88,317.1023c-46.0228-1.5172-71.31,17.7011-71.31,17.7011s12.6436,18.7126,60.6894,19.7181S399.5117,329.24,399.5117,329.24,389.9026,318.62,343.88,317.1023Z" transform="translate(0 0)"/><path d="M127.8258,365.851c-5.5009-.26-11.0171-2.5873-17.0946-5.2546a19.85,19.85,0,0,0,6.8934,7.2938,20.6055,20.6055,0,0,0,9.92,3.3449,21.5,21.5,0,0,0,5.4269-.5238,17.7327,17.7327,0,0,0,4.8737-2.2933,17.114,17.114,0,0,0,6.4341-7.8216c-3.0295,1.5626-5.5757,3.2152-8.3458,4.071A18.7987,18.7987,0,0,1,127.8258,365.851Z" transform="translate(0 0)"/><path d="M331.9662,363.5443c-5.501-.2605-11.0171-2.5874-17.0943-5.255a19.8444,19.8444,0,0,0,6.8934,7.2937,20.6052,20.6052,0,0,0,9.92,3.3453,21.4978,21.4978,0,0,0,5.4265-.5242,17.7276,17.7276,0,0,0,4.8737-2.2929,17.1148,17.1148,0,0,0,6.4344-7.8219c-3.0295,1.563-5.5756,3.2152-8.3461,4.0713A18.8084,18.8084,0,0,1,331.9662,363.5443Z" transform="translate(0 0)"/><path d="M410.0692,142.9573h43.6291c-10.1392-3.476-17.0785-6.0607-18.7843-6.7432-3.9716-1.5887-25.0061-14.6463-41.63-25.1138-7.25-.05-15.0937-.0882-23.1033-.1008Z" transform="translate(0 0)"/><path d="M748.45,173.9764c3.7226-.0409,67.0606,2.1767,95.7814,4.1694L956.5481,27.6447l-20.0728-1.6936-38.329-3.23L834.9785,83.4546a277.871,277.871,0,0,1-147.4346,73.96c-14.2619,2.3621-28.9792,4.6873-43.1016,6.7452C672.2619,168.9436,712.15,174.3642,748.45,173.9764Z" transform="translate(0 0)"/><ellipse cx="240.4548" cy="269.9837" rx="9.6935" ry="3.7931"/><polygon points="933.521 3.037 936.903 20.575 961.842 22.677 997.145 25.652 1000 20.23 933.521 3.037"/><path d="M365.1441,147.5571c-25.8954-1.1472-57.5381-3.8593-79.12-10.0945l-1.5167,5.3186,76.5546,8.9154-6.5812,42.024-83.91-2.0625L250.8566,260.796H353.5811Z" transform="translate(0 0)"/><path d="M850.6214,178.5956c9.4561.674,53.989,4.19,63.3542,4.9876l80.44-152.7495L962.88,28.1762Z" transform="translate(0 0)"/><path d="M881.3448,194.1192l-1.6714-7.9206c-39.1241-3.0684-82.8421-5.9956-114.3392-6.685v11.5791Z" transform="translate(0 0)"/><polygon points="927.737 1.541 921.778 0 903.321 17.746 931.318 20.105 927.737 1.541"/><path d="M277.1267,134.5019c-.9591-.3849-1.8715-.76-2.8129-1.1419L236.5706,261.1147a25.7049,25.7049,0,0,1,3.8843-.3187c.8811,0,1.723.0675,2.555.1475a2.6156,2.6156,0,0,1,.7323-.1475h1.5044l35.6317-124.9678C279.6129,135.3906,278.2932,134.97,277.1267,134.5019Z" transform="translate(0 0)"/><polygon points="440.646 260.285 493.572 251.081 497.097 202.972 440.646 202.972 440.646 260.285"/><path d="M45.3215,222.2829V183.068C27.8881,188.8988,11.912,196.0965,0,204.9954,0,204.9954,32.4145,211.6024,45.3215,222.2829Z" transform="translate(0 0)"/><path d="M50.7161,231.4664c.5522,4.1628,3.8952,9.2233,9.7778,14.5306V178.4161q-4.936,1.3844-9.7778,2.9Z" transform="translate(0 0)"/><path d="M887.3294,196.3477a2.6982,2.6982,0,0,1-2.6393,3.2531h-.0685l-122.0532-3.182a2.6991,2.6991,0,0,1-2.6289-2.6973V179.4138c-4.0548-.0566-7.9094-.0777-11.4372-.0428-44.2095.4814-94.1028-7.6718-121.0551-12.835-21.2558,2.8343-39.9062,4.7431-51.6259,4.7431-28.7949,0-74.3222-12.7619-105.8891-22.9271H409.16c-.5716.0078-3.0634.04-7.0119.04-6.8951,0-18.2644-.1047-31.6035-.6059L358.7018,263.7672a2.701,2.701,0,0,1-2.6841,2.4234H254.2661a6.5127,6.5127,0,0,1,1.2768,3.7931c0,5.2365-6.4877,9.1877-15.088,9.1877s-15.0881-3.9512-15.0881-9.1877c0-2.8185,1.92-5.2366,4.9959-6.8947l37.5424-127.0745h0l.3489-1.1811.2383-.8066h0l.8016-2.7136c-11.1916-4.6093-20.9413-8.8775-28.9878-12.5218a16.775,16.775,0,0,0-.2456,1.94s-31.72-3.3986-66.1381,39.057c0,0-2.5252.1561-6.8849.5166V280.7618c2.9294.1906,6.0192.3588,9.0435.5366l-25.8829,15.0077,5.15-16.48c2.08.2011,4.1609.4013,6.2945.5578v-73.46H65.8885v43.46c15.9026,11.7763,43.716,23.68,81.13,28.5067l-16.45,48.253c-25.4585.0865-39.5614,13.7288-39.5614,13.7288,26.8045,28.8275,91.54,3.0345,91.54,3.0345-15.954-9.9361-30.0783-14.59-42.1776-16.1476l8.04-25.7282,36.39-20.2311c38.8344,2.0529,84.4663,2.9742,132.1348,1.5255l4.6933-11.2209h25.6244v10.0338c26.3258-1.2946,52.8672-3.3446,78.9233-6.3656,93.0031-10.7891,233.9645-37.0609,309.4891-41.1069S900.2,209.7427,900.2,209.7427l11.0418-20.9677c-8.2154-.6954-16.9313-1.4148-25.961-2.1339Zm-704.7758-37.53s32.8534-33.3927,58.64-32.907l25.4037,9.6093-21.8434,49.57S225.01,191.6709,182.5536,158.8175ZM373.2,193.7206v-40.999s97.6424,10.1419,95.5928,25.3007C466.796,193.1812,373.2,193.7206,373.2,193.7206Zm125.5991,59.8527a2.6915,2.6915,0,0,1-2.2285,2.46l-58.1607,10.115a2.2757,2.2757,0,0,1-.461.0421,2.6963,2.6963,0,0,1-2.6973-2.6973V200.2751a2.6957,2.6957,0,0,1,2.6973-2.6973H500a2.693,2.693,0,0,1,2.6894,2.8923Z" transform="translate(0 0)"/><path d="M320.0413,106.0379c18.1867-.4649,43.1114-.4886,64.6247-.3806-7.3142-4.6317-12.4375-7.9069-12.4375-7.9069l-110.59-3.9919s-.5535.3263-1.4182.8808C271.7946,99.4,293.9635,106.69,320.0413,106.0379Z" transform="translate(0 0)"/><path d="M401.4738,142.983l-39.9219-31.9864c-14.7809.0138-29.5163.13-41.3736.4359q-1.7977.0435-3.5745.0448A155.5484,155.5484,0,0,1,255.03,98.3306c-4.5523,3.56-10.2426,8.9565-13.1207,15.2672,9.8989,4.4934,22.5021,9.9858,37.23,15.8993C309.4983,141.6854,378.5266,142.9225,401.4738,142.983Z" transform="translate(0 0)"/><path d="M161.6429,160.7776c-19.3425,1.7836-58.5575,6.3281-95.7544,16.17V201.529h95.7544Z" transform="translate(0 0)"/></svg>