<svg id="Layer_1" data-name="Layer 1" xmlns="http://www.w3.org/2000/svg" viewBox="0 0 1000 387.886"><path d="M295.4256,362.7152c3.712,3.9772,14.8084,7.1863,29.3014,8.9979.815,9.1379,11.8851,16.1729,26.0081,16.1729,13.97,0,24.9376-6.8869,25.9648-15.88a178.38,178.38,0,0,0,23.3832-3.9915c40.4058-9.9358,46.3673-17.2221,46.3673-17.2221s-49.6792-29.1451-112.6062-29.1451S286.1522,352.7794,295.4256,362.7152Zm72.9275,10.0287c-1.893,3.7185-8.569,7.1934-17.618,7.1934-9.2,0-15.97-3.5907-17.73-7.3784A239.1961,239.1961,0,0,0,368.3531,372.7439Z"/><path d="M100.984,322.0145l9.9662-16.0992L93.5625,288.5276v-9.5891c9.4115.2862,21.9193.46,36.5592.5475L62.2646,249.5352v20.8566a24.0954,24.0954,0,0,0,14.5726,7.5376c1.5065.2315,3.8682.434,6.9744.61v41.83c-15.395-.1164-28.9885,4.0843-36.12,16.5125-6.9926,12.1873-2.0078,20.13,9.1192,24.5353a14.5661,14.5661,0,0,0-1.7941,6.7626c0,11.0485,12.6475,19.7061,28.7933,19.7061,16.1483,0,28.7958-8.6576,28.7958-19.7061a14.2813,14.2813,0,0,0-.9276-4.8123c20.4516-3.4582,40.2489-10.6264,50.6068-20.5241C162.2854,342.8435,131.4018,327.1991,100.984,322.0145ZM89.4226,290.846l10.9294,24.84H89.4226ZM83.81,379.9373c-11.2995,0-20.8446-5.3819-20.8446-11.7574a7.4035,7.4035,0,0,1,1.6236-4.4482c10.7622,2.344,24.6682,2.5041,38.8578.8106a6.9462,6.9462,0,0,1,1.21,3.6376C104.6575,374.4416,94.9157,379.9373,83.81,379.9373Z"/><polygon points="62.265 243.748 143.357 279.541 150.277 294.233 165.597 279.55 165.597 243.944 62.265 235.753 62.265 243.748"/><path d="M251.6691,175.7118c-.0039.0227-.0268.035-.0314.0573-.008.0411.0052.08-.0048.1213l-16.3036,66.4614,25.9089-3.3323,2.3067-109.3036-1.4571-14.013Z"/><path d="M295.4256,254.0834h-16.56a2.6506,2.6506,0,0,1-2.6366-2.3753L267.952,172.1l-2.2553,106.8581q3.8229-.0334,7.6171-.0679l3.4721,3.9863,20.2595-29.347A2.6594,2.6594,0,0,1,295.4256,254.0834Z"/><path d="M231.8362,248.1219a2.6507,2.6507,0,0,1-2.5745-3.2809l16.3615-66.7047c-3.23.2028-6.3969.3364-9.4271.3364-34.8256,0-56.5188-12.533-65.3-18.8966V279.5417c28.0306-.0589,59.2654-.2772,89.4976-.5376l.731-34.6253-28.95,3.7224A2.5127,2.5127,0,0,1,231.8362,248.1219Z"/><path d="M438.5017,93.7748h44.3a87.9167,87.9167,0,0,0-14.0987-11.25H438.5017Z"/><path d="M275.5539,77.2254a2.6481,2.6481,0,0,1,2.65,2.65V97.9587l104.6733,8.2039,12.3083-19.7414a2.65,2.65,0,0,1,2.2485-1.2471h17.2221a2.65,2.65,0,0,1,2.1812,4.1554L404.07,107.8237l29.1325,2.2831V79.875a2.648,2.648,0,0,1,2.6495-2.65h24.0113c-18.2655-10.0532-47.3417-21.0163-92.9-27.82-102.008-15.235-133.14-7.9487-135.79,37.0938,0,0-17.8846,1.9871-33.7819,21.8588-10.0018,12.5023-20.2582,26.3057-26.4956,34.8314V152.85c4.6131,3.8582,30.261,23.2629,75.9031,19.93l16.2079-93.358a2.6487,2.6487,0,0,1,2.6107-2.1968ZM241.11,166.648c-32.4571,1.9871-62.2646-17.8845-62.2646-17.8845l47.03-56.3031L252.37,110.3449Z"/><polygon points="377.838 145.823 324.188 223.54 369.849 211.571 377.838 145.823"/><polygon points="438.502 110.522 484.207 114.104 484.207 99.074 438.502 99.074 438.502 110.522"/><polygon points="385.671 111.697 299.066 250.601 394.48 112.387 385.671 111.697"/><path d="M957.6545,180.9566c-13.3995-3.6929-29.3328-6.2257-45.9594-7.9719l-.4435,9.2792C930.62,182.403,947.0126,181.6471,957.6545,180.9566Z"/><path d="M905.7022,187.4589c-36.0818-.5689-81.0039-4.3194-118.96-16.9737a2.6478,2.6478,0,0,1,.6883-5.1568c3.615-.21,63.8814-3.517,119.2459,1.729l5.304-111.0284H846.77c-32.9785,50.8176-58.0771,107.6269-88.9963,100.3519-32.5246-7.6527-251.977-52.1385-268.2676-55.4395v16.0274a2.65,2.65,0,0,1-2.8566,2.6418l-86.06-6.7446L384.32,136.4339l-9.4255,77.5646a2.65,2.65,0,0,1-1.9587,2.2407l-53.3621,13.9862-39.1945,56.7769,24.9826,28.6833h57.6278V278.0387c19.5981-.1672,33.4073-.2371,37.7562-.1093,22.5212.6624,214.6141-23.846,306.0239-33.1195,66.8809-6.785,145.7815-15.6936,197.21-21.2851l.0032-.0679c.1915,2.3753.8257,8.39-1.2235,10.6668a3.1277,3.1277,0,0,1-2.4633.9625c-5.118-.1035-8.461-6.4686-8.492-6.5359l-5.5129.9858c.1914.3933,5.4094,10.8544,13.8445,10.8544.0983,0,.1914-.0051.2846-.0051a8.3483,8.3483,0,0,0,6.2772-2.7169c3.1463-3.493,3.0713-9.03,2.6107-14.722l-5.3253.51Z"/><path d="M994.9087,119.6183C977.6866,57.3537,957.39,31.1538,947.5479,20.26c-25.7116-28.4578-53.6536-31.7946-91.41,21.8589-1.9923,2.831-3.9478,5.71-5.8819,8.611H914.76a2.6411,2.6411,0,0,1,2.6444,2.7764l-5.4508,114.0771c22.6079,2.386,44.0589,6.2766,60.0668,12.4936a2.6469,2.6469,0,0,1-.6779,5.1024c-.4916.0518-23.3182,2.396-55.34,2.396-1.6043,0-3.3521-.0443-5.0009-.0566l-1.6929,35.4278c16.3954-1.7743,29.6423-3.1664,38.24-3.97C982.9857,215.6648,1012.1308,181.8829,994.9087,119.6183Z"/><path d="M56.9655,261.8247V163.0158a191.79,191.79,0,0,0-20.5341,6.3192v61.03a170.6644,170.6644,0,0,0,17.2221,10.47S52.8074,251.7666,56.9655,261.8247Z"/><path d="M803.6593,169.978c33.8391,8.8905,71.3585,11.7332,102.2945,12.2109l.4654-9.7415C867.5207,168.7846,825.7918,169.2979,803.6593,169.978Z"/><polygon points="409.608 90.473 398.903 90.473 388.83 106.629 397.96 107.345 409.608 90.473"/><polygon points="281.254 248.784 293.956 248.784 304.805 231.384 279.834 235.13 281.254 248.784"/><path d="M308.4878,225.4764l34.2-54.8541H317.9469l7.2862-53.6535h50.9063l3.5778-5.7384-104.37-8.18a2.6491,2.6491,0,0,1-2.4425-2.6418V82.5245h-5.0559L265.42,96.5107,279.286,229.8573ZM272.9044,109.02l45.0425,5.9615-8.6111,55.6407h-33.12Z"/><path d="M62.2646,161.7247v68.7164l103.3327,8.1909V150.49c-.4182.5819-.6624.9234-.6624.9234S109.4178,150.9039,62.2646,161.7247Z"/><path d="M0,196.4555s10.6807,14.8462,31.1323,30.1093V171.4639C16.5012,177.6783,5.0261,185.7939,0,196.4555Z"/><path d="M259.7633,282.8766H197.456C227.9686,298.1869,259.7633,282.8766,259.7633,282.8766Z"/></svg>