<?xml version="1.0" encoding="UTF-8"?>
<!--
  Copyright (c) 2026 Passion Highway, Inc.. All Rights Reserved.

  This image is digitally signed and the hash recorded.
  Unauthorized reproduction, distribution, or use of this
  image is strictly prohibited and constitutes copyright
  infringement under 17 U.S.C. Section 106.

  Violators may be subject to civil liability including
  statutory damages up to $150,000 per work (17 U.S.C. Section 504)
  and criminal prosecution with fines and imprisonment
  (17 U.S.C. Section 506).

  Contact: jim@passionhighway.com
  Asset ID: PHI-AID-SF50-0dbf9c3b
  Hash: 13ba46a318b8f539
-->
<svg id="Layer_1" data-name="Layer 1" xmlns="http://www.w3.org/2000/svg" viewBox="0 0 1000 302.779">
  <metadata>
    <rdf:RDF xmlns:rdf="http://www.w3.org/1999/02/22-rdf-syntax-ns#"
             xmlns:dc="http://purl.org/dc/elements/1.1/"
             xmlns:cc="http://creativecommons.org/ns#">
      <rdf:Description>
        <dc:title>SF50 Aircraft Silhouette</dc:title>
        <dc:creator>Passion Highway, Inc.</dc:creator>
        <dc:rights>Copyright (c) 2026 Passion Highway, Inc.. All Rights Reserved. Unauthorized use prohibited under 17 U.S.C. 106, 504, 506.</dc:rights>
        <dc:publisher>Passion Highway, Inc.</dc:publisher>
        <dc:identifier>PHI-AID-SF50-0dbf9c3b</dc:identifier>
        <dc:source>Airplane-ID.com</dc:source>
        <cc:license rdf:resource="https://airplane-id.com/terms"/>
      </rdf:Description>
    </rdf:RDF>
  </metadata>

<path d="M129.1927,250.24l4.62-78.9412c-19.3843,5.1636-55.824,15.4862-85.7957,27.4678v68.8746c23.2408,5.2848,57.04,9.4308,105.4572,12.5329l-23.7522-28.3309A2.2787,2.2787,0,0,1,129.1927,250.24Z"/><path d="M0,232.0814c0,14.5448,9.1318,25.91,43.4438,34.46V200.6365C19.058,210.7648,0,221.918,0,232.0814Z"/><path d="M999.7794,182.35c-3.43-10.2893-35.1552-6.86-35.1552-6.86L999.7794,6.5737,943.3029,1.5968l-6.4741,15.2149,36.8165,2.63a2.2868,2.2868,0,0,1,2.0319,2.9229L923.7645,199.603c17.7163,1.5225,33.4481,3.27,45.0735,4.6807C977.9886,200.8473,1002.5781,190.7455,999.7794,182.35Z"/><path d="M850.5842,200.6418c-43.5733,0-68.7473,8.2574-79.126,13.2458,18.3834.4125,66.5248,2.6144,87.5955,14.1375,47.9842,1.2995,109.8577,5.7712,109.8577,5.7712l-3.0627-25.2686C938.9886,205.3181,892.6333,200.6418,850.5842,200.6418Z"/><path d="M594.23,82.6861c-23.2765-2.924-46.4889-4.3589-67.7592-3.23l-9.423,36.1212c14.4462,4.5766,36.0032,10.1425,67.7956,16.0017Z"/><path d="M263.4809,254.826a5.9919,5.9919,0,0,0,4.8231,2.4071h56.8882a6.0421,6.0421,0,0,0,5.8191-4.4435l34.76-127.413a6.0323,6.0323,0,0,0-5.819-7.621h-54.74a6.0638,6.0638,0,0,0-5.7944,4.3542h.0022L262.51,249.5206A5.9865,5.9865,0,0,0,263.4809,254.826ZM296.74,141.89a13.9827,13.9827,0,0,1,13.924-12.7017h26.7923a13.983,13.983,0,0,1,13.9242,15.2643l-1.6085,17.4785a13.9827,13.9827,0,0,1-13.924,12.7017H309.056a13.983,13.983,0,0,1-13.9242-15.2643Z"/><path d="M760.5526,122.3286s-19.8624-6.9458-49.7744-15.2679l-3.45,39.5971c20.7732,1.424,39.0009,2.17,53.2246,2.562Z"/><path d="M602.3051,134.65c35.3545,5.9279,70.3294,9.5154,100.4608,11.6886l3.53-40.5129c-29.8277-8.1568-68.5784-17.3213-107.5251-22.531l-9.4258,49.0984C593.513,133.1421,597.7952,133.8938,602.3051,134.65Z"/><path d="M586.3059,136.4949c-.0262-.0039-.0516-.0025-.0779-.0073-.0108-.0022-.0187-.01-.0295-.012q-13.0408-2.3718-23.9546-4.6715l7.3,36.3665,100.7139,12.3436,29.4967-29.8076c-29.641-2.2016-63.7484-5.77-98.2083-11.5462C596.2154,138.2667,591.1656,137.3783,586.3059,136.4949Zm43.0578,18.2022h15.5412v15.5412H629.3637Z"/><path d="M373.1555,272.6292l36.7584-48.8408c-5.67,1.7888-11.1409,3.6433-16.3735,5.5225l-29.5913,38.3143A67.8545,67.8545,0,0,0,373.1555,272.6292Z"/><path d="M761.8343,215.982c0-3.8942,14.1746-9.24,21.6683-11.5263a194.6256,194.6256,0,0,1,37.1375-6.9506L931.436,17.8065l7.0772-16.6317L925.1818,0,824.8609,167.7732l-52.2415-13.699c-15.4427-.2641-38.9392-.992-66.8608-2.9352l-33.04,33.39a2.2846,2.2846,0,0,1-1.6256.6789,1.92,1.92,0,0,1-.2768-.0179L567.3509,172.507a2.2871,2.2871,0,0,1-1.965-1.8176l-8.0168-39.9312c-28.0762-6.0945-45.3725-11.612-55.84-15.7516C467.9081,106.565,382.941,88.0524,316.3967,97.4628,231.51,109.467,147.48,167.7732,147.48,167.7732s-3.37.8247-9.016,2.299L133.81,249.601l25.9689,30.974c18.6184,1.1285,39.2914,2.1127,62.2986,2.9531,97.0492,3.5453,176.334,7.7569,234.43,8.7676.6467,2.0914,4.14,10.4833,18.571,10.4833,10.2893,0,13.4978-10.2453,13.4978-10.2453l25.5569-.7064c17.67-.88,31.1625-2.63,40.1573-5.5642l-23.6495-58.0714,0-.0011a2.2762,2.2762,0,0,1-.1694-.8608v-7.0047L408.7576,232.93,377.484,274.4828c12.2387,4.8973,32.2549,10.1885,61.7751,10.1885,17.383,0,37.5823,1.9237,57.2061,4.5731H439.2591c-56.5333,0-79.1082-18.6137-80.0415-19.4086a2.2835,2.2835,0,0,1-.3283-3.1395l26.568-34.3991a437.8,437.8,0,0,0-50.3952,22.689,10.6053,10.6053,0,0,1-9.87,6.82H268.304a10.6068,10.6068,0,0,1-10.1889-13.5539l36.91-127.4153h.0022a10.6588,10.6588,0,0,1,10.1844-7.6544h54.74A10.6049,10.6049,0,0,1,370.1835,126.58L336.8169,248.8884a465.9636,465.9636,0,0,1,54.2168-23.532,2.23,2.23,0,0,1,.5033-.18c20.1851-7.2749,43.9417-14.26,68.7652-18.22,25.8215-4.1176,69.7543-10.4859,73.9433-6.9087a2.29,2.29,0,0,1,.7994,1.7372v23.4011c19.1515,1.2244,144.1968,9.2786,221.9635,15.8018,38.96-7.46,72.9874-12.9588,89.6406-13.1924-24-7.4591-65.2964-9.4333-82.3808-9.4333A2.5,2.5,0,0,1,761.8343,215.982ZM473.166,244.9431a2.2852,2.2852,0,0,1,2.2866-2.2865H520.04a2.2852,2.2852,0,0,1,2.2866,2.2865v10.718a2.2853,2.2853,0,0,1-2.2866,2.2866h-44.587a2.2853,2.2853,0,0,1-2.2866-2.2866Zm0,35.62v-10.718a2.2852,2.2852,0,0,1,2.2866-2.2865H520.04a2.2852,2.2852,0,0,1,2.2866,2.2865v10.718a2.2853,2.2853,0,0,1-2.2866,2.2866h-44.587A2.2853,2.2853,0,0,1,473.166,280.5627Zm-196.4087-133.98-13.0091,23.5a12.36,12.36,0,0,1-12.0435,6.3124l-90.5053-9.0506,70.7391-40.7285,34.5883,1.6342A12.36,12.36,0,0,1,276.7573,146.5824Zm144.2476,10.2584a15.6485,15.6485,0,0,1-15.6484,15.6483H386.4928a15.6485,15.6485,0,0,1-15.6484-15.6483V144.8365a15.6485,15.6485,0,0,1,15.6484-15.6483h18.8637a15.6485,15.6485,0,0,1,15.6484,15.6483Zm60.05,3.703a13.3389,13.3389,0,0,1-13.2661,11.9453H452.5991a13.3389,13.3389,0,0,1-13.2661-14.7328l.9356-8.9058a13.339,13.339,0,0,1,13.2661-11.9453h15.19A13.3389,13.3389,0,0,1,481.99,151.638Z"/><rect x="477.7391" y="272.1312" width="40.014" height="6.145"/><path d="M558.55,284.6013c.7712-.3489,1.5455-.6973,2.2184-1.0732,0,0,96.6612-22.8649,179.6518-39.3071-75.9695-6.0744-183.1966-13.0294-204.17-14.3767Z"/><path d="M461.0212,211.476A350.65,350.65,0,0,0,416.8385,221.67a2.2307,2.2307,0,0,1-.4044,1.06l-3.9261,5.2167L530.4719,215.73V203.6384C526.5062,203.2856,511.8582,203.3615,461.0212,211.476Z"/><path d="M850.5842,196.0688c22.8484,0,46.9411,1.3747,68.5322,3.1448l51.376-175.4128-35.8019-2.5584L826.3288,196.9971C833.6536,196.4275,841.68,196.0688,850.5842,196.0688Z"/><rect x="477.7391" y="247.2296" width="40.014" height="6.145"/></svg>