<svg id="Layer_1" data-name="Layer 1" xmlns="http://www.w3.org/2000/svg" viewBox="0 0 1000 389.6821"><path d="M418.9416,352.7416l7.4529-49.0166-24.6224-2.359,2.0915,49.9177a19.69,19.69,0,1,0,15.078,1.4579ZM409.66,383.49a13.4907,13.4907,0,1,1,13.4907-13.4906A13.4908,13.4908,0,0,1,409.66,383.49Z"/><circle cx="409.6601" cy="369.999" r="7.888"/><path d="M312.4069,181.6657c12.73-2.3066,50.9682-7.4385,67.6441,10.16,16.8438.5535,35.2818.9509,53.57,1.213l-14.8038-32.2078-85.9876,1.3C323.4349,169.5492,315.426,176.8169,312.4069,181.6657Z"/><polygon points="428.464 170.526 460.765 164.104 457.737 160.242 423.972 160.753 428.464 170.526"/><path d="M66.0851,288.535l14.083,8.5083c15.9,3.6963,41.19,7.64,76.0968,7.2714,12.1652-.1105,24.75.2108,37.1755.8072V290.4834L65.235,275.1454Z"/><path d="M438.845,193.11c15.5912.2021,30.9378.3078,44.9195.3277l-19.7376-25.1736L430.49,174.9321Z"/><path d="M428.9185,148.1941l14.2486-23.7317a2.3661,2.3661,0,0,0-.8019-3.2083,2.3288,2.3288,0,0,0-3.2555.802l-15.2392,25.3832A163.74,163.74,0,0,0,403.394,146.26c-10.946,0-20.2876.5189-28.3556,1.3212l8.87-14.862a2.328,2.328,0,0,0-.8493-3.2083,2.2846,2.2846,0,0,0-3.2082.802l-10.7573,17.9758a137.0613,137.0613,0,0,0-25.0371,5.3611c-1.6653,1.2066-3.33,2.4313-4.978,3.6679l113.5443-1.7169C447.0135,152.6628,439.3507,149.9305,428.9185,148.1941Z"/><path d="M45.4292,228.685l4.9464,50.3592,10.7933,6.5207-3.8539-60.694Q51.2547,226.64,45.4292,228.685Z"/><path d="M312.5745,186.4528c3.3211,1.3034,12.1626,2.3974,24.5918,3.3022.03-.0018.0548-.0185.085-.019.0515.0051.09.0273.1408.0345,7.0552.5106,15.2634.96,24.2411,1.3549.0164,0,.03-.01.0469-.01.0263,0,.0476.0138.0735.0147q5.1549.2259,10.6309.4276C355.3126,179.9039,322.8492,184.575,312.5745,186.4528Z"/><path d="M336.7687,280.7725l-1.7851-86.544c-13.5181-1.0922-23.19-2.4857-25.9162-4.2691a6.3169,6.3169,0,0,1-1.1-.9171l-47,48.86V290.75h67.7a6.6922,6.6922,0,0,1-.1495-.8109C328.5178,286.1431,331.7094,282.9139,336.7687,280.7725ZM280.7244,227.08l30.0541-31.2808h20.0989v35.9988Z"/><ellipse cx="351.5806" cy="289.9394" rx="18.3447" ry="7.1508"/><path d="M856.6293,185.472a9.9672,9.9672,0,0,1,5.5958-1.7036h.33l69.25,2.4129L955.5663,74.3348H925.3291a2.3591,2.3591,0,0,1,0-4.7181h31.24L965.47,27.7186H944.2013a2.355,2.355,0,0,1-2.3267-2.7369L945.9156,0h-3.4835L873.6427,125.2644a67.1415,67.1415,0,0,1-56.9939,34.8193l-186.774,5.0711c14.1827,3.3971,35.8828,7.4246,66.3935,10.1022C737.8888,178.91,811.9445,183.0923,856.6293,185.472Z"/><path d="M359.3211,278.7579V195.7268c-7.0048-.3314-13.6148-.7078-19.61-1.1357l1.746,84.6471a43.3405,43.3405,0,0,1,10.1235-1.1677A45.1587,45.1587,0,0,1,359.3211,278.7579Z"/><path d="M924.644,242.5993c30.4906-8.1311,58.7422-20.9776,64.9687-40.9023.0944-.2359.1416-.5662.2358-.8492l-56.6155,1.3209Z"/><path d="M496.723,240.9158H605.3674v-60.95H496.723Zm56.4693-33.9346a8.85,8.85,0,0,1,8.87-8.8228h27.8366a8.84,8.84,0,0,1,8.8228,8.8228v18.8722a8.85,8.85,0,0,1-8.8228,8.87H562.0623a8.86,8.86,0,0,1-8.87-8.87Zm-53.22,0a8.85,8.85,0,0,1,8.87-8.8228h27.8367a8.85,8.85,0,0,1,8.87,8.8228v18.8722a8.86,8.86,0,0,1-8.87,8.87H508.8424a8.86,8.86,0,0,1-8.87-8.87Z"/><path d="M494.364,306.2453l-.0017,0-39.9935-.4559a2.3581,2.3581,0,0,1-2.2415-1.7186c-.0116-.0092-4.4693-10.5557-44.2572-14.661-13.0438-1.3407-21.7473.76-25.8779,6.2478-2.973,3.9561-3.0893,9.1121-2.5211,13.1638,4.3465.1014,8.7844.2039,13.4017.3061l1.3681-15.145,41.8964,4.435v11.6534c52.5843.8973,111.2884.9918,152.74-2.7486l-94.5118-1.077Z"/><polygon points="496.723 301.555 605.367 302.792 605.367 245.634 496.723 245.634 496.723 301.555"/><path d="M862.4609,203.82a10,10,0,0,1-10.2381-10.0023,10.1261,10.1261,0,0,1,.7487-3.8156c-45-2.4094-116.4859-6.48-157.1178-10.0457-45.2679-3.9728-71.0646-10.7458-82.2853-14.3589l-142.6,3.8717,19.5026,24.874a2.3592,2.3592,0,0,1-1.8568,3.815c-8.8737,0-53.6175-.065-96.3142-1.24a17.6417,17.6417,0,0,1,11.7076,16.5739v.5662a17.7193,17.7193,0,0,1-17.74,17.74H364.0392v48.0756c6.45,2.0572,10.6041,5.7026,10.6041,10.0656,0,6.7684-9.9153,11.8689-23.0627,11.8689-9.1943,0-16.7191-2.5252-20.4665-6.34H258.6086a2.3577,2.3577,0,0,1-2.3591-2.359v-56.156a2.3647,2.3647,0,0,1,.6589-1.6357l49.76-51.7293c1.3854-6.24,10.9471-15.3959,21.4374-23.818-9.0822-.0211-39.5045.6424-66.2535,9.7966-23.0385,7.8843-50.322,24.8349-63.6938,33.6332V305.3658c26.2344,1.4065,51.4114,3.9564,70.0233,6.153,20.4146-2.025,39.9008-3.6655,59.7233-3.6655,10.7807,0,27.1363.3942,46.78.8558-.5627-4.8364-.2-10.9027,3.52-15.867,5.1857-6.9158,15.3314-9.6573,30.149-8.123,35.4338,3.6538,44.9736,12.5232,47.48,16.37l36.171.4118V177.6068a2.3577,2.3577,0,0,1,2.359-2.3591H607.7264a2.3577,2.3577,0,0,1,2.359,2.3591V302.8452l10.1362.1155c.63-.1345,1.3416-.2528,1.9487-.3916,61.9481-14.1542,194.0537-44.8216,229.4392-47.794,15.6674-1.316,42.2-4.48,67.932-10.865l8.8435-41.6283Zm-660.1978,4.9539L267.1836,171.03l31.2336,18.8722-44.2554,41.8964C212.3126,229.4392,202.2631,208.7741,202.2631,208.7741Zm283.0835,15.4753a7.5309,7.5309,0,0,1-7.5016,7.5488H430.9475a7.5309,7.5309,0,0,1-7.5018-7.5488V208.9157a7.4906,7.4906,0,0,1,7.5018-7.5018H477.845a7.4906,7.4906,0,0,1,7.5016,7.5018Zm172.9406,1.6276a8.8465,8.8465,0,0,1-8.8464,8.8464H621.6041a8.8464,8.8464,0,0,1-8.8463-8.8464V207.0048a8.8464,8.8464,0,0,1,8.8463-8.8464h27.8367a8.8465,8.8465,0,0,1,8.8464,8.8464Z"/><path d="M999.9452,0H950.6913L946.97,23.0005h21.411a2.3607,2.3607,0,0,1,2.3083,2.85l-34.0956,160.498,55.9437,1.9493C1001.1247,135.1725,999.9452,0,999.9452,0Z"/><path d="M0,254.1618s14.7675,17.1265,39.49,18.306L45.3361,276l-4.4839-45.6527C24.686,236.4261,10.3478,244.1883,0,254.1618Z"/><path d="M198.1584,317.7746c16.8378-1.0079,32.5493-2.471,47.5463-3.982-14.4453-1.4482-30.7742-2.8224-47.5463-3.7225Z"/><path d="M87.9121,303.5663c1.2322,2.4855,4.9107,6.6014,15.9589,9.9761V321.68L87.784,334.2449l16.087,15.8359v8.55a15.35,15.35,0,1,0,6.1959-1.3215c-.5062,0-.9843.1011-1.4778.1489V344.045l19.4159-18.0982-1.5084-8.2243a290.7413,290.7413,0,0,0,29.8127,1.36c13.042,0,25.3665-.39,37.1311-1.0223v-8.233c-12.414-.5955-24.9875-.914-37.134-.7942C126.6723,309.3493,103.9957,306.6542,87.9121,303.5663ZM94.9256,334.65l8.9454-6.9887v15.7976Zm15.1413,27.4988a10.5451,10.5451,0,1,1-10.5451,10.5451A10.5454,10.5454,0,0,1,110.0669,362.1492Zm-1.4778-24.5546v-22.778a126.1764,126.1764,0,0,0,13.0077,2.3334l1.3031,7.1105Z"/><path d="M61.96,223.5767l2.971,46.7838L193.44,285.7348V206.3433c-2.2341,1.5133-3.5386,2.4308-3.5386,2.4308S120.4124,207.6311,61.96,223.5767Zm123.2236,48.8911a2.3577,2.3577,0,0,1-2.3591,2.3591H162.773a2.3577,2.3577,0,0,1-2.359-2.3591V243.57a2.3576,2.3576,0,0,1,2.359-2.359h20.0517a2.3577,2.3577,0,0,1,2.3591,2.359Z"/><rect x="165.132" y="245.9288" width="15.3337" height="24.18"/></svg>