<?xml version="1.0" encoding="UTF-8"?>
<!--
  Copyright (c) 2026 Passion Highway, Inc.. All Rights Reserved.

  This image is digitally signed and the hash recorded.
  Unauthorized reproduction, distribution, or use of this
  image is strictly prohibited and constitutes copyright
  infringement under 17 U.S.C. Section 106.

  Violators may be subject to civil liability including
  statutory damages up to $150,000 per work (17 U.S.C. Section 504)
  and criminal prosecution with fines and imprisonment
  (17 U.S.C. Section 506).

  Contact: jim@passionhighway.com
  Asset ID: PHI-AID-C210-33267461
  Hash: ae8a7be4dc119058
-->
<svg id="Layer_1" data-name="Layer 1" xmlns="http://www.w3.org/2000/svg" viewBox="0 0 1000 275.4398">
  <metadata>
    <rdf:RDF xmlns:rdf="http://www.w3.org/1999/02/22-rdf-syntax-ns#"
             xmlns:dc="http://purl.org/dc/elements/1.1/"
             xmlns:cc="http://creativecommons.org/ns#">
      <rdf:Description>
        <dc:title>C210 Aircraft Silhouette</dc:title>
        <dc:creator>Passion Highway, Inc.</dc:creator>
        <dc:rights>Copyright (c) 2026 Passion Highway, Inc.. All Rights Reserved. Unauthorized use prohibited under 17 U.S.C. 106, 504, 506.</dc:rights>
        <dc:publisher>Passion Highway, Inc.</dc:publisher>
        <dc:identifier>PHI-AID-C210-33267461</dc:identifier>
        <dc:source>Airplane-ID.com</dc:source>
        <cc:license rdf:resource="https://airplane-id.com/terms"/>
      </rdf:Description>
    </rdf:RDF>
  </metadata>

<path d="M943.5747,1.5368V15.4415L958.2671,19.33a2.6089,2.6089,0,0,1,1.5594,3.8808L870.6845,169.519l53.0366,1.3677L1000,9.1324Z"/><ellipse cx="141.0633" cy="197.244" rx="7.1755" ry="9.8663"/><polygon points="62.948 201.836 72.688 201.836 69.719 190.802 62.948 190.802 62.948 201.836"/><path d="M388.1279,93.2811c-3.2616,0-122.6354-8.48-122.6354-8.48l-6.39,15.6556H400.3339C394.05,96.3,389.14,93.2811,388.1279,93.2811Z"/><path d="M864.6732,169.3638l88.88-145.883-13.2553-3.5087a2.6067,2.6067,0,0,1-1.9416-2.5227V.8342L932.1592,0l-113.99,115.1025a66.84,66.84,0,0,1-38.9351,19.257L573.3521,160.9366l1.1546.9447Z"/><path d="M395.29,131.2785h85.5356c-13.3738-2.5675-28.529-4.8754-45.7306-6.6862,0,0-14.1949-10.1679-27.0116-18.9172H357.6974Z"/><polygon points="386.024 131.279 348.432 105.675 256.973 105.675 253.613 113.907 309.269 131.279 386.024 131.279"/><path d="M308.0943,136.3773l-36.0627-11.2566-22.024,115.4207a13.46,13.46,0,0,0,13.2171,15.9818H341.263a13.4092,13.4092,0,0,0,13.3955-12.1494L365.193,136.4971H308.8715A2.6035,2.6035,0,0,1,308.0943,136.3773Zm51.1686,11.943v30.088H270.2218V148.32a8.0725,8.0725,0,0,1,8.0724-8.0724h72.8963A8.0725,8.0725,0,0,1,359.2629,148.32Z"/><path d="M158.9434,218.5732c5.329-23.8455,12.5545-47.4123,17.5325-62.593-19.98,1.5636-66.2282,5.7966-106.96,13.9821l15.12,56.1912Zm-17.88-36.414c6.834,0,12.394,6.7677,12.394,15.0848s-5.56,15.0848-12.394,15.0848-12.394-6.7678-12.394-15.0848S134.2292,182.1592,141.0633,182.1592Z"/><path d="M571.8974,166.4832l-9.3487-7.6488c-7.4761-4.6439-25.3167-14.0136-58.1144-22.3373H370.4357l-1.6317,16.7092a13.1655,13.1655,0,0,1,12.4745-9.0445h40.6067a13.1541,13.1541,0,0,1,10.6,5.3959v-5.3959a2.6078,2.6078,0,0,1,2.6093-2.6093h62.1331a2.6077,2.6077,0,0,1,2.6092,2.6093V219.015a2.6078,2.6078,0,0,1-2.6092,2.6093H435.0946a2.6079,2.6079,0,0,1-2.6093-2.6093V179.3725a13.1541,13.1541,0,0,1-10.6,5.3959H381.2785a13.21,13.21,0,0,1-13.2094-13.2094V160.7315l-8.2176,84.1519a18.6066,18.6066,0,0,1-18.5885,16.8583H263.2247a18.6778,18.6778,0,0,1-18.3438-22.1788l22.1357-116.0074-18.88-5.8931c-9.9682,2.4274-35.936,10.9244-61.5747,37.5887,0,0-1.6.1-4.4184.3026-5.1456,15.6352-13.2155,41.824-18.79,67.61l-5.5743.77-71.771,7.3217L95.7856,267.59a63.8668,63.8668,0,0,0,17.7173,4.4255c8.9977.887,22.1832,1.5986,38.1245,2.141l.4361.1844h5.1876c66.8146,2.0255,176.7161,1.2505,242.6184-2.3254,16.3012-.8846,33.8711-2.3679,52.1853-4.2471V254.7293a2.6078,2.6078,0,0,1,2.6093-2.6093H500a2.6079,2.6079,0,0,1,2.6093,2.6093v7.1586c63.0727-8.052,129.6872-18.7273,182.9745-25.75,84.1488-11.0894,222.44-31.9635,222.44-31.9635l1.23-2.6092H774.6249a11.4156,11.4156,0,0,1,0-22.8311H920.02l1.268-2.6889-347.806-8.9712A2.6092,2.6092,0,0,1,571.8974,166.4832ZM158.87,255.0962H135.302v-5.2185h18.3489V231.781H158.87Zm88.8474-130.9931,16.1448,5.8708-17.1233,48.4344L194.39,158.35S217.8735,127.5277,247.7169,124.1031Z"/><path d="M457.2733,267.21c13.0766-1.3849,26.49-2.957,40.1174-4.67v-5.2016H457.2733Z"/><path d="M437.7038,146.771v69.6347h56.9146V146.771h-17.48a23.1525,23.1525,0,0,1,12.7507,20.63v17.3679H441.9439V146.771Z"/><path d="M41.5851,212.5247v-35.97C22.5081,181.9059,7.0853,188.4377,0,196.347,0,196.347,25.239,210.2132,41.5851,212.5247Z"/><path d="M60.3392,207.0542a2.6079,2.6079,0,0,1-2.6093-2.6093V188.1931a2.6079,2.6079,0,0,1,2.6093-2.6093h7.9756l-3.92-14.5691c-6.0626,1.2849-11.9519,2.6637-17.5908,4.1356v45.8006c6.7594,11.63,21.2254,32.6114,42.82,43.8249L74.092,207.0542Z"/><path d="M783.3458,185.5169a24.6152,24.6152,0,0,0,12.9632,3.69H908.092a11.7862,11.7862,0,0,0,10.4093-6.2581h-139.3Z"/></svg>