<svg id="Layer_1" data-name="Layer 1" xmlns="http://www.w3.org/2000/svg" viewBox="0 0 1000 366.9769"><path d="M360.6386,365.0513c12.2754,0,23.3473-12.0346,23.3473-12.0346H337.2914S348.3633,365.0513,360.6386,365.0513Z"/><path d="M144.0148,366.9769a21.5335,21.5335,0,0,0,16.6078-7.9429H127.4069A21.5335,21.5335,0,0,0,144.0148,366.9769Z"/><path d="M44.2875,199.64V159.3467C26.9865,165.1017,11.6235,172.3918,0,181.6431,0,181.6431,23.953,196.3179,44.2875,199.64Z"/><path d="M167.5851,306.8058l15.7654-34.6153c-21.1352-5.9879-58.8372-19.2746-80.2683-26.9689l2.8228,23.7129s20.143-.3939,48.8858-.6471L141.9416,305.366c-15.03,2.6646-30.9015,11.6733-43.4179,30.8022,0,0,3.8511,16.8485,51.5084,16.8485s88.0937-16.8485,88.0937-16.8485-38.9923-9.1463-56.8036-22.6251A44.0516,44.0516,0,0,0,167.5851,306.8058Z"/><path d="M185.0128,187.42H49.4223v12.8369s20.8388,21.7113,41.5845,35.1344c11.6012,4.2328,66.9368,24.2984,94.006,31.9366Z"/><path d="M263.8,256.4185h-43.325l25.9158,11.9409c10.3383.1335,20.53.3172,30.2462.5751,5.2157.1386,10.6795.2254,16.302.2774l-28.7716-12.8674A2.4075,2.4075,0,0,1,263.8,256.4185Z"/><polygon points="947.224 0.892 931.322 0 844.864 103.75 931.511 141.065 947.224 0.892"/><path d="M185.0128,138.7565c-38.54,1.2527-92.3679,5.6193-135.59,18.9737V182.285H185.0128Z"/><path d="M935.844,148.5218l-.4977,4.4406c3.2008-.3849,5.9719-.7666,8.156-1.1427Z"/><path d="M358.0712,81.42c-43.8594,2.3709-85.18,16.1387-123.1546,57.22,0,0-2.7686-.1128-7.7022-.2087v35.51H358.0712ZM354.14,168.1643H260.751l-22.6252-26.9576s48.1386-41.3992,71.7266-46.2131a115.3871,115.3871,0,0,1,44.2875,0Z"/><path d="M859.0058,158.7334c30.1985-1.7347,55.0564-3.4907,71.106-5.1846l.67-5.9763H822.0826Z"/><polygon points="487.524 170.411 572.559 170.411 583.054 123.616 504.255 112.293 487.524 170.411"/><path d="M858.7783,163.8535c-.0345.0012-.0608.031-.0953.031-.041,0-.0827-.0166-.1241-.0185-103.6905,6.0744-258.87,10.9193-283.8638,11.68H484.1142a2.5671,2.5671,0,0,1-2.4671-3.277l18.2927-63.543a2.5854,2.5854,0,0,1,2.8332-1.8327l83.7612,12.0346a2.5777,2.5777,0,0,1,2.1412,3.104L577.847,170.3086c82.6844-2.5348,188.5186-6.5278,266.1832-10.739l-40.0548-12.1074a2.5674,2.5674,0,0,1,.7422-5.0245H921.7161l-80.2815-34.5724-4.1394,4.9672a59.6572,59.6572,0,0,1-54.6537,20.84c-29.8707-4.4566-76.55-11.3753-125.7355-18.4924l41.9066-64.9552V41.56l-56.25,71.55c-63.68-9.1711-129.2266-18.309-166.3115-22.6086-39.0791-4.5308-76.9062-10.55-113.0456-9.3146v95.3223a2.5659,2.5659,0,0,1-2.5674,2.5674H224.647a2.5659,2.5659,0,0,1-2.5674-2.5674V138.3535c-7.83-.0931-18.8437-.0894-31.932.2576V268.0934c14.0953-.0308,28.9067,0,43.6758.1291l-26.06-12.0052-.0034-.0016-.0715-.0329c-.04-.0185-.06-.0617-.099-.0821a2.5261,2.5261,0,0,1-.7951-.6585,2.3944,2.3944,0,0,1-.1959-.2905,2.4911,2.4911,0,0,1-.3109-.8371c-.0147-.0777-.0733-.1382-.0808-.2178-.0035-.0351.0185-.0655.0166-.1006-.0031-.0508-.0292-.0937-.0292-.1451a2.5468,2.5468,0,0,1,.226-1.0358c.02-.0454.0586-.0765.0815-.121a2.5176,2.5176,0,0,1,.6616-.8057c.0423-.0345.0567-.0915.1015-.1235,1.2085-.8675,30.0892-21.181,76.5931-21.181a2.5556,2.5556,0,0,1,.9675.1949l35.6555-32.4227a2.6082,2.6082,0,0,1,1.9556-.6569L441.82,208.3952a2.5751,2.5751,0,0,1,1.5595.717l52.4862,50.95c25.5229-2.0913,51.4513-4.4835,77.3051-7.1735,83.9314-8.7326,260.2477-24.8,350.4945-41.8258l5.8875-52.5262C912.6252,160.3631,887.722,162.1564,858.7783,163.8535Zm-489.7154,4.3108V95.9564c60.1733-2.407,126.1232,11.0718,126.1232,11.0718l-21.6624,65.95Z"/><path d="M952.36,1.18,936.442,143.1883l15.635,6.7335a2.5676,2.5676,0,0,1,.5466,4.3926c-1.5705,1.2082-7.9031,2.422-17.8352,3.6245l-5.8405,52.1063c26.2932-5.1711,44.3768-10.4184,49.2293-15.5651L1000,3.8511Z"/><polygon points="442.497 215.41 440.456 213.43 397.025 209.538 401.32 215.41 442.497 215.41"/><polygon points="323.101 202.914 309.358 215.41 394.96 215.41 390.219 208.928 323.101 202.914"/><path d="M385.07,302.0512l4.4149-35.0234c13.4756-.6318,27.38-1.4,41.5622-2.2784l-32.3316-44.2042H303.7119l-35.2813,32.0824,37.1977,16.6376c16.75-.027,34.9651-.3849,54.2676-1.0418l-7.0434,31.1087c-12.4449,5.3272-25.9137,16.2787-33.509,23a7.8842,7.8842,0,0,0,1.1953,12.7369c7.9892,4.6077,24.545,9.7644,58.6332,9.7644,59.21,0,84.724-10.5905,84.724-10.5905s-31.29-8.1835-51.0269-15.4043C400.924,314.4682,393.5105,307.1762,385.07,302.0512Z"/><path d="M405.0754,220.5452l32.0485,43.8168c16.9664-1.0853,34.3377-2.3458,51.9377-3.753l-41.2751-40.0638Z"/><path d="M218.2006,251.2837h44.0757l17.0074-15.4658A143.2235,143.2235,0,0,0,218.2006,251.2837Z"/><path d="M555.7166,98.0579l37.2686,6.1286S586.36,89.1134,555.7166,98.0579Z"/></svg>