<?xml version="1.0" encoding="UTF-8"?>
<!--
  Copyright (c) 2026 Passion Highway, Inc.. All Rights Reserved.

  This image is digitally signed and the hash recorded.
  Unauthorized reproduction, distribution, or use of this
  image is strictly prohibited and constitutes copyright
  infringement under 17 U.S.C. Section 106.

  Violators may be subject to civil liability including
  statutory damages up to $150,000 per work (17 U.S.C. Section 504)
  and criminal prosecution with fines and imprisonment
  (17 U.S.C. Section 506).

  Contact: jim@passionhighway.com
  Asset ID: PHI-AID-C185-75665d54
  Hash: 0ac6dca19a69b53b
-->
<svg id="Layer_1" data-name="Layer 1" xmlns="http://www.w3.org/2000/svg" viewBox="0 0 1000 430.0017">
  <metadata>
    <rdf:RDF xmlns:rdf="http://www.w3.org/1999/02/22-rdf-syntax-ns#"
             xmlns:dc="http://purl.org/dc/elements/1.1/"
             xmlns:cc="http://creativecommons.org/ns#">
      <rdf:Description>
        <dc:title>C185 Aircraft Silhouette</dc:title>
        <dc:creator>Passion Highway, Inc.</dc:creator>
        <dc:rights>Copyright (c) 2026 Passion Highway, Inc.. All Rights Reserved. Unauthorized use prohibited under 17 U.S.C. 106, 504, 506.</dc:rights>
        <dc:publisher>Passion Highway, Inc.</dc:publisher>
        <dc:identifier>PHI-AID-C185-75665d54</dc:identifier>
        <dc:source>Airplane-ID.com</dc:source>
        <cc:license rdf:resource="https://airplane-id.com/terms"/>
      </rdf:Description>
    </rdf:RDF>
  </metadata>

<path d="M227.5989,375.9386c-16.035,0-29.0339,12.1023-29.0339,27.0315s12.9989,27.0316,29.0339,27.0316,29.0338-12.1024,29.0338-27.0316S243.6338,375.9386,227.5989,375.9386Zm0,41.8822c-8.8095,0-15.9506-6.6487-15.9506-14.8507s7.1411-14.8506,15.9506-14.8506,15.9505,6.6487,15.9505,14.8506S236.4083,417.8208,227.5989,417.8208Z"/><ellipse cx="227.5989" cy="402.9701" rx="9.1402" ry="8.5099"/><polygon points="902.751 189.323 902.751 30.702 867.003 30.702 829.42 135.364 889.436 188.705 902.751 189.323"/><path d="M243.1825,331.5176q-6.6783.31-13.1351.5645l-2.8034,30.7243a83.6727,83.6727,0,0,0,7.862,2.92Z"/><polygon points="908.091 189.571 975.872 192.717 973.52 175.872 908.091 175.872 908.091 189.571"/><polygon points="653.057 177.733 880.959 188.311 825.547 139.063 653.057 177.733"/><path d="M824.2794,133.8749,861.3281,30.7025H846.7392c-8.7133,28.1083-20.7492,67.5635-24.4465,82.7632-6.007,24.6955-61.405,29.3676-92.1075,34.04-26.9425,4.1-70.8512,17.9595-123.1466,21.2937l26.1347,7.92Z"/><polygon points="897.84 25.363 875.401 7.315 868.92 25.363 897.84 25.363"/><polygon points="908.091 170.532 972.775 170.532 971.493 161.355 908.091 161.355 908.091 170.532"/><path d="M870.9983,3.7739l-2.1774-1.751L856.3324,0s-3.3281,10.54-7.936,25.3629h14.8493Z"/><polygon points="952.507 25.363 951.11 15.351 879.491 3.751 906.362 25.363 952.507 25.363"/><polygon points="908.091 97.948 962.641 97.948 961.36 88.77 908.091 88.77 908.091 97.948"/><polygon points="908.091 83.431 960.614 83.431 959.333 74.253 908.091 74.253 908.091 83.431"/><polygon points="908.091 68.914 958.587 68.914 957.306 59.736 908.091 59.736 908.091 68.914"/><polygon points="908.091 54.397 956.561 54.397 955.28 45.219 908.091 45.219 908.091 54.397"/><polygon points="908.091 141.498 968.721 141.498 967.44 132.321 908.091 132.321 908.091 141.498"/><polygon points="908.091 156.015 970.748 156.015 969.467 146.838 908.091 146.838 908.091 156.015"/><polygon points="908.091 126.981 966.694 126.981 965.413 117.804 908.091 117.804 908.091 126.981"/><polygon points="908.091 112.465 964.668 112.465 963.386 103.287 908.091 103.287 908.091 112.465"/><polygon points="908.091 39.88 954.534 39.88 953.253 30.702 908.091 30.702 908.091 39.88"/><path d="M40.2136,259.602V228.3963C12.5061,238.2167,0,248.9571,0,248.9571Z"/><path d="M271.2478,165.86l-35.885,148.5942s7.9911-.0707,12.4533-.2815L282.2929,165.86Z"/><path d="M45.5531,261.6363a56.6642,56.6642,0,0,0,16.1856,28.9912V221.9034c-5.84,1.4685-11.2257,3.0387-16.1856,4.6549Z"/><path d="M384.4485,357.7507V317.03c-2.2435.336-4.5043.674-6.7318,1.0077-9.8787,1.4757-19.5619,2.9305-28.9218,4.3123-14.6407,2.1591-30.54,3.904-46.757,5.3226l11.7344,30.0781Z"/><path d="M222.1022,360.3771l2.5636-28.0907c-17.5123.646-33.32,1.0035-45.9977,1.2013a351.4134,351.4134,0,0,1,36.9167,22.9281A58.0177,58.0177,0,0,0,222.1022,360.3771Z"/><polygon points="448.382 287.002 494.577 287.002 494.577 227.933 445.168 227.933 448.382 287.002"/><path d="M987.0682,267.6456c-.4285,0-.8333.0854-1.2514.1261v-5.7994a2.6715,2.6715,0,0,0-1.6426-2.4664l-63.4255-26.4254c36.7939-6.9707,59.0611-12.1561,59.0611-12.1561l-3.187-22.8267-140.3086-6.5129v9.2468c14.061-1.3968,32.2092-2.2418,52.0556-2.2418,44.6031,0,80.7609,4.2526,80.7609,9.4987s-36.1578,9.4987-80.7609,9.4987c-19.8464,0-37.9946-.8451-52.0556-2.2419V247.45c28.2328-4.2768,53.5961-8.6449,74.8523-12.5759L980.4772,263.75v2.8836l-144.163-17.5583v5.3771l141.41,17.2229a12.9065,12.9065,0,1,0,9.3442-4.03Zm0,20.1068a7.1751,7.1751,0,1,1,7.1751-7.1751A7.1751,7.1751,0,0,1,987.0682,287.7524Z"/><path d="M632.295,182.0327l-41.58-12.6042c-2.01.0361-4.0024.1026-6.0331.1026-42.2856,0-93.84-4.3348-122.4263-7.0994a49.0029,49.0029,0,0,1-23.3469,14.5241l3.44,40.6314-72.5847,3.3867V182.5258l-6.3407-.2653V286.8346a2.674,2.674,0,0,1-2.4143,2.6594L256.2143,299.5676l-4.912,20.8062H227.6712l3.3874-10.81L265.7573,165.86h-5.4536a2.67,2.67,0,0,1-2.6411-3.0531L261,139.78a2.6693,2.6693,0,0,1,2.6411-2.2866h139.016c-35.2351-15.5836-71.6112-17.3131-112.3182-15.3512-55.3979,2.67-44.0514,32.0374-44.0514,32.0374-26.6978,14.6838-62.0724,48.7235-62.0724,48.7235s-5.7062.6-15.5181,1.8035V328.2726c13.9994-.1531,34.1023-.5165,56.9284-1.37l24.3875-1.0666c32.5748-1.6419,67.9549-4.34,98.0053-8.7733,9.3547-1.3766,19.0326-2.8262,28.9087-4.3071,57.4433-8.61,120.5978-18.0673,165.0217-20.5582,32.3209-7.7629,100.07-22.1032,194.2438-31.8936,25.8026-2.6825,50.6379-5.7821,73.9535-9.0382l20.829,2.5368v-5.3767l-.6127-.0747c.2069-.0309.4061-.0619.6127-.0928v-33.49c-14.4371-1.7159-23.3658-4.0744-23.3658-6.6793s8.9287-4.9635,23.3658-6.6794V191.3368l-198.0279-9.192A2.6666,2.6666,0,0,1,632.295,182.0327ZM192.0574,203.2371,241.1146,163.19l22.5263,7.5087-16.0187,50.0585C199.5662,223.2605,192.0574,203.2371,192.0574,203.2371Zm307.8592,86.4342a2.6683,2.6683,0,0,1-2.67,2.67H445.8535a2.6688,2.6688,0,0,1-2.6646-2.5238l-3.5041-64.4085a2.6705,2.6705,0,0,1,2.6646-2.8158h54.8974a2.6683,2.6683,0,0,1,2.67,2.67Zm-50.559-72.0841-3.5041-39.88s55.0642,2.5029,59.0689,20.8825S449.3576,217.5872,449.3576,217.5872Z"/><path d="M389.7881,360.4205a2.6683,2.6683,0,0,1-2.67,2.67h-75.171a2.6656,2.6656,0,0,1-2.4873-1.7l-12.9679-33.2423c-16.0073,1.3219-32.2124,2.3293-47.7569,3.1l-8.4721,35.8856c32.3049,8.3323,78.3407,4.8462,126.8318,3.2985,57.0128-1.82,137.1565-60.3954,151.3162-71.0764-37.9049,3.5054-84.3973,10.2642-128.623,16.8751Z"/><path d="M369.7647,176.2056h6.609l2.6489-12.8673-6.5376-20.505H265.9509l-2.5629,17.6873h22.2786a2.672,2.672,0,0,1,2.5994,3.2825l-1.3571,5.7482,67.8383,5.6531v1.3492l15.0175.6287Z"/><path d="M67.0783,220.6585v26.9637h57.734V220.9739a2.6682,2.6682,0,0,1,2.67-2.67h35.8752V205.3727c-18.4832,2.3348-47.6559,6.3532-81.2615,12.2145C76.78,218.5144,71.839,219.5628,67.0783,220.6585Z"/><path d="M383.9975,165.6526l-2.1725,10.553h22.0417c7.8865-.5945,16.7689-1.4311,25.6057-2.6437,12.6046-1.7309,20.8674-7.0913,25.929-11.8058-9.3035-.9347-14.8875-1.5692-14.8875-1.5692-.0678-.0525-.1355-.0968-.2033-.1493Z"/><polygon points="358.084 182.037 354.747 181.897 354.747 220.974 273.812 225.029 257.511 294.075 358.084 284.41 358.084 182.037"/><path d="M383.6664,160.32l50.2138-5.0072q-3.6556-2.565-7.3148-4.9178c14.7806-7.4505,49.7074-24.603,63.9-27.6449a2.6694,2.6694,0,1,0-1.1211-5.22c-16.032,3.4357-55.3836,23.0888-68.0641,29.5475q-3.7645-2.2447-7.54-4.2445h-35.649Z"/><path d="M67.0783,295.4081c33.7718,27.4,93.1086,28.97,93.1086,28.97s1.1556.4915,3.17,1.4187V252.9618H67.0783Z"/><rect x="130.1518" y="223.6411" width="33.2054" height="23.9811"/></svg>