<?xml version="1.0" encoding="UTF-8"?>
<!--
  Copyright (c) 2026 Passion Highway, Inc.. All Rights Reserved.

  This image is digitally signed and the hash recorded.
  Unauthorized reproduction, distribution, or use of this
  image is strictly prohibited and constitutes copyright
  infringement under 17 U.S.C. Section 106.

  Violators may be subject to civil liability including
  statutory damages up to $150,000 per work (17 U.S.C. Section 504)
  and criminal prosecution with fines and imprisonment
  (17 U.S.C. Section 506).

  Contact: jim@passionhighway.com
  Asset ID: PHI-AID-BE35-4dc41852
  Hash: af12952260533b18
-->
<svg id="Layer_1" data-name="Layer 1" xmlns="http://www.w3.org/2000/svg" viewBox="0 0 1000 230.0988">
  <metadata>
    <rdf:RDF xmlns:rdf="http://www.w3.org/1999/02/22-rdf-syntax-ns#"
             xmlns:dc="http://purl.org/dc/elements/1.1/"
             xmlns:cc="http://creativecommons.org/ns#">
      <rdf:Description>
        <dc:title>BE35 Aircraft Silhouette</dc:title>
        <dc:creator>Passion Highway, Inc.</dc:creator>
        <dc:rights>Copyright (c) 2026 Passion Highway, Inc.. All Rights Reserved. Unauthorized use prohibited under 17 U.S.C. 106, 504, 506.</dc:rights>
        <dc:publisher>Passion Highway, Inc.</dc:publisher>
        <dc:identifier>PHI-AID-BE35-4dc41852</dc:identifier>
        <dc:source>Airplane-ID.com</dc:source>
        <cc:license rdf:resource="https://airplane-id.com/terms"/>
      </rdf:Description>
    </rdf:RDF>
  </metadata>

<path d="M80.8081,185.5794a5.49,5.49,0,0,0,1.9063,4.0444c7.3562,7.0875,31.9774,8.1873,43.5482,8.0147V172.9532H80.8081Z"/><path d="M214.4045,230.0821c-4.8788-3.6556-9.8267-5.4254-14.7986-5.2379a23.8292,23.8292,0,0,0-12.9684,5.0492C195.6315,229.9912,204.9151,230.054,214.4045,230.0821Z"/><path d="M270.9378,223.5868c3.9146.6553,8.0169,1.2888,12.3368,1.8945l77.4515-10.4373H296.4977Z"/><rect x="80.8081" y="160.9582" width="45.4545" height="6.9444"/><path d="M944.3705,114.2182a104.7276,104.7276,0,0,0,17.4788-3.7783l-1.622-.618-7.0067-46.2437h-8.85Z"/><path d="M357.9545,149.5009H398.382l-4.1048-3.4673H273.4646L245.132,187.0147a2.5285,2.5285,0,0,1-2.0764,1.09c-15.8479,0-30.4057,11.7123-35.9587,16.7708,9.0015,4.8378,25.2658,11.3716,53.4606,16.8509l32.3718-10.8177V176.11a2.5253,2.5253,0,0,1,5.0505,0v33.8838h95.6563l-37.7826-56.5666a2.5261,2.5261,0,0,1,2.101-3.926Z"/><path d="M452.8405,195.5029H415.0138l22.7905,28.6542c13.4875-1.2876,27.9873-2.8764,43.3614-4.7275Z"/><path d="M563.1023,131.9708,280.65,135.4973a2.3546,2.3546,0,0,1-.1643.381l-3.5292,5.1048H395.202a2.5292,2.5292,0,0,1,1.63.5968l91.1665,77.014c23.4825-2.897,48.9206-6.38,75.9854-10.3568Z"/><path d="M830.8081,119.1781c22.984.3767,46.5507.0447,67.5505-.9587V16.3875H861.1111a2.5253,2.5253,0,0,1,0-5.05h51.7677a2.5253,2.5253,0,0,1,0,5.0505h-9.47V117.9639c13.4968-.73,25.7494-1.7518,35.9109-3.0508v-53.86a2.5237,2.5237,0,0,1,2.5252-2.5252h10.61l-5.5188-36.4232A20.8549,20.8549,0,0,0,927.8527,4.43L868.6178.0572a20.855,20.855,0,0,0-21.9551,16.5609L830.8081,93.0187Z"/><path d="M241.714,183.0789l32.8449-47.5057-35.89.4482h-.032a2.522,2.522,0,0,1-2.2811-1.44l-2.471-5.1886H197.601v69.0745a33.3055,33.3055,0,0,0,4.9312,3.738C207.3608,197.5639,223.2475,183.729,241.714,183.0789Z"/><path d="M196.2545,220.1593V203.9945a19.713,19.713,0,0,1-3.1763-2.9824,2.5255,2.5255,0,0,1-.5277-1.5438v-38.51H131.3131V200.1a2.53,2.53,0,0,1-2.4315,2.5253c-.3206.01-2.1282.074-4.8927.074-10.7422,0-35.9552-.9421-44.7764-9.44a10.3992,10.3992,0,0,1-3.4549-7.6794V160.9582H68.8131a2.5237,2.5237,0,0,1-2.5252-2.5252V125.0683c-4.14,1.0111-8.1578,2.0213-11.995,3.0225v51.2957c4.864,15.0369,15.7471,40.106,35.3536,45.3344,11.18,2.9814,46.06,4.4916,89.3252,5.0785C182.6215,226.1724,188.6,221.4909,196.2545,220.1593Z"/><path d="M376.8126,155.5871a2.487,2.487,0,0,1-.4677-1.0357H362.6771L400.46,211.118c.0064.01.0043.0225.0108.0327a2.5874,2.5874,0,0,1,.3911,1.0327c.0059.0447-.0123.0851-.0086.1294a2.4146,2.4146,0,0,1-.0191.29,2.4473,2.4473,0,0,1-.2075.9226c-.0259.0586-.01.1255-.041.1822-.0243.0456-.0758.0647-.1026.1082a2.4839,2.4839,0,0,1-.8067.8489c-.0093.0056-.0151.0161-.0244.0216a2.4971,2.4971,0,0,1-.9553.3333l-95.552,12.8765c4.9287.5151,10.1361.9837,15.5054,1.4239,24.3166-.3952,46.6561-.9038,64.5573-1.4424,14.06-.4229,30.3794-1.5144,48.5836-3.1673Z"/><path d="M201.305,207.4667v12.3908c7.1877.2777,14.1439,3.6975,20.8035,10.2385,18.3731.0206,37.2663-.0734,55.83-.2513C233.5837,223.2462,211.5978,213.7441,201.305,207.4667Z"/><path d="M967.76,112.6914c-5.2494,2.8484-13.7456,5.033-24.1555,6.6883a2.5117,2.5117,0,0,1-1.7589.7207,2.4755,2.4755,0,0,1-1.1113-.2845c-11.2742,1.6406-24.4529,2.7232-37.9241,3.4217a2.4822,2.4822,0,0,1-1.926.9466,2.5114,2.5114,0,0,1-1.8014-.7617c-16.3516.7617-32.8835.9886-46.6765.9886-9.78,0-18.1848-.1134-24.1724-.2269a2.5231,2.5231,0,0,1-2.4759-2.5252V95.638c-8.405-.8058-28.2-2.7115-53.6616-5.2154v50.3336a2.5253,2.5253,0,1,1-5.0505,0V129.4243l-198.8927,2.4834.874,75.584c72.0933-10.6747,155.2527-24.71,242.8419-40.22C993.6869,135.0744,1000,124.9734,1000,124.9734Z"/><path d="M197.601,124.3421H235.48a2.53,2.53,0,0,1,2.2811,1.44l2.4611,5.1688L563.0441,126.92l-.6816-58.94c-31.0419-3.9244-68.8273-8.35-106.6848-12.0766l3.04-31.9128,27.8271,2.1751A2.5256,2.5256,0,1,0,486.94,21.13l-30.303-2.3675a2.5224,2.5224,0,0,0-2.71,2.2787l-3.2737,34.3733c-69.9321-6.7669-138.9842-10.9555-164.668-4.9359-30.622,7.1772-63.1313,55.5556-63.1313,55.5556-8.4179-.242-16.85-.193-25.2525.0527ZM456.4394,64.3673s71.97,6.1553,103.22,29.3561v16.0985A11.837,11.837,0,0,1,547.822,121.659H456.4394ZM297.98,125.6494l-51.7677,1.2179,22.0692-29.356H297.98Zm80.8081-69.41,68.6553,7.6549V121.659H378.7879ZM335.2273,52.53c30.303,0,34.5644,7.5758,34.5644,7.5758l-2.8409,63.9205L303.03,125.53V94.9861a2.5238,2.5238,0,0,0-2.5252-2.5253h-28.427L296.4015,60.106S304.9242,52.53,335.2273,52.53ZM231.3624,101.8438c37.85-49.563,59.8308-45.5257,59.8308-45.5257s-35.9849,46.875-44.0341,55.3977c-5,5.2943-11.097,1.8181-14.998-1.5749A6.1193,6.1193,0,0,1,231.3624,101.8438Z"/><path d="M49.2424,129.4274C19.12,137.5013,0,144.5441,0,144.5441l49.2424,22.4933Z"/><path d="M767.0455,89.9253c-62.7241-6.1818-155.6973-15.5969-199.6242-21.29l.6733,58.222,198.9509-2.4843Z"/><polygon points="446.861 190.452 404.361 154.551 382.442 154.551 410.997 190.452 446.861 190.452"/><path d="M192.5505,106.2393c-44.1848,1.7592-87.1249,9.5227-121.2121,17.6086v32.06H192.5505Z"/></svg>