<?xml version="1.0" encoding="UTF-8"?>
<!--
  Copyright (c) 2026 Passion Highway, Inc.. All Rights Reserved.

  This image is digitally signed and the hash recorded.
  Unauthorized reproduction, distribution, or use of this
  image is strictly prohibited and constitutes copyright
  infringement under 17 U.S.C. Section 106.

  Violators may be subject to civil liability including
  statutory damages up to $150,000 per work (17 U.S.C. Section 504)
  and criminal prosecution with fines and imprisonment
  (17 U.S.C. Section 506).

  Contact: jim@passionhighway.com
  Asset ID: PHI-AID-ACAM-69b4fe08
  Hash: e2cdbe41b66a01aa
-->
<svg id="Layer_1" data-name="Layer 1" xmlns="http://www.w3.org/2000/svg" viewBox="0 0 1000 402.3593">
  <metadata>
    <rdf:RDF xmlns:rdf="http://www.w3.org/1999/02/22-rdf-syntax-ns#"
             xmlns:dc="http://purl.org/dc/elements/1.1/"
             xmlns:cc="http://creativecommons.org/ns#">
      <rdf:Description>
        <dc:title>ACAM Aircraft Silhouette</dc:title>
        <dc:creator>Passion Highway, Inc.</dc:creator>
        <dc:rights>Copyright (c) 2026 Passion Highway, Inc.. All Rights Reserved. Unauthorized use prohibited under 17 U.S.C. 106, 504, 506.</dc:rights>
        <dc:publisher>Passion Highway, Inc.</dc:publisher>
        <dc:identifier>PHI-AID-ACAM-69b4fe08</dc:identifier>
        <dc:source>Airplane-ID.com</dc:source>
        <cc:license rdf:resource="https://airplane-id.com/terms"/>
      </rdf:Description>
    </rdf:RDF>
  </metadata>

<path d="M918.1062,0S824.5974,168.6909,796.0226,249.3845a19.4832,19.4832,0,0,0,6.0152.2684c15.3513-1.6179,79.1484-4.8678,95.196-5.6729l23.7589-95.6612H870.79a4.853,4.853,0,0,1,0-9.706h52.6137L956.1622,6.7155a4.854,4.854,0,1,1,9.4215,2.3412L933.4065,138.6128h50.6928L1000,0Z"/><path d="M103.4734,285.3816c5.592-6.6761,24.8179-30.6329,31.49-52.1178a2.4459,2.4459,0,0,0-3.9024-2.6351c-10.3,8.8428-32.6329,27.5438-51.237,39.8667A53.9148,53.9148,0,0,0,103.4734,285.3816Z"/><path d="M901.1854,268.3444c34.16-12.6908,70.91-25.09,70.91-25.09l10.89-94.9361h-51.99Z"/><path d="M332.45,362.7106a8.59,8.59,0,1,0,8.59,8.59A8.5749,8.5749,0,0,0,332.45,362.7106Zm0,12.5694a3.98,3.98,0,1,1,3.9794-3.9795A3.9975,3.9975,0,0,1,332.45,375.28Z"/><path d="M591.7442,175.2891c0-6.3088-5.6293-11.4043-12.6176-11.4043a12.59,12.59,0,0,0-2.33.194c-.2912,5.3381-.6309,13.1516-1.0675,22.2266a13.035,13.035,0,0,0,3.3971.4366C586.1149,186.742,591.7442,181.5979,591.7442,175.2891Z"/><path d="M925.9022,282.2019a11.7739,11.7739,0,0,0-8.1183-6.398l-26.6371-5.6894L894.812,253.81c-19.6062,1.0192-77.6474,4.028-91.77,5.4838a29.9259,29.9259,0,0,1-3.5426.1941c-8.1044,0-13.4428-3.1057-16.8882-6.8912-24.7989.5338-81.0932,1.8928-115.6949,4.1252L732.82,289.2852a4.8691,4.8691,0,0,1-2.1839,9.2208,4.9608,4.9608,0,0,1-2.1353-.5338l-62.9429-31.1076c-2.1839-5.8237-74.202-37.0768-84.296-41.4443l1.4529-29.7137c6.4631-1.4561,12.8907-3.8619,18.11-8.6518a15.9466,15.9466,0,0,0,5.08-12.7959,16.5661,16.5661,0,0,0-6.8671-12.5471,44.5265,44.5265,0,0,0-11.2246-5.5851V68.8636H578.69s-4.9984,34.5531-7.2794,48.6751c-1.1161,6.7943-4.8044,13.4914-8.3956,18.5869,6.5514,5.5325,13.6369,13.1031,14.1706,19.6062l.0036,0v2.388c7.8718,1.3886,13.9866,3.9241,19.0244,7.5354a11.7278,11.7278,0,0,1,4.8482,8.8955,11.1132,11.1132,0,0,1-3.5165,8.9263c-6.2652,5.7487-14.0257,7.6136-22.0113,8.7747l-.1226,2.4028-.0214-.0018c-.0328.7758-.0663,1.5817-.0995,2.3684l-.0018.0362h0c-1.3367,31.79-2.8675,72.0045-3.1989,80.2416l9.56-.9707a2.4146,2.4146,0,1,1,.4854,4.8044l-70.5137,7.2794h-.2426a2.4322,2.4322,0,0,1-.2426-4.8529l56.0517-5.7751c.2912-7.0368,2.3294-51.15,3.7852-84.296.7766-18.1986,1.359-33.0487,1.359-36.64v-.194c-.0972-4.9987-3.7855-9.8517-7.959-13.734a55.5277,55.5277,0,0,0-23.4882-12.8605c-8.7838-2.475-20.14-4.1734-34.5048-3.8823-39.5029.7764-101.9606,22.4693-117.7327,28.1957l-21.062-5.92L320.2693,180.773,132.5566,295.8369c-3.2031.2912-6.1148.4852-7.91.4852-29.7,0-44.5987-11.0163-52.9943-20.7223-.9706.5341-1.8927,1.1164-2.8148,1.65C43.359,291.178-3.9574,313.6472.2647,328.7885c4.2706,15.1412,94.0505,12.7147,126.808,12.7147,14.85,0,96.283-.2426,186.7421-1.553a33.9763,33.9763,0,0,0-15.3839,28.6812c0,18.5867,14.4618,33.7279,32.3207,33.7279,17.8106,0,32.3209-15.1412,32.3209-33.7279a34.0543,34.0543,0,0,0-13.2971-27.2253c49.7429-1.2133,105.5034-4.3675,145.3947-6.0663V288.5575h9.7059v46.3457c34.4562-1.65,61.4387-3.64,74.7358-6.1147,52.63-9.7895,208.759-31.443,277.3611-46.6814h42.7593a7.76,7.76,0,0,1,7.2036,4.834l4.8435,11.8575a7.0625,7.0625,0,0,0,8.4453,4.1469l5.6255-1.564a7.0786,7.0786,0,0,0,4.4928-9.8718Zm-761.219,3.201,27.7588-16.84-11.3558,16.84Zm25.5752,3.1546c9.075-14.3649,24.5074-35.5238,40.7648-43.6284,25.5752-12.7631,92.8372-50.9562,92.8372-50.9562l-5.4353,92.3521C261.3542,285.5487,215.6879,284.0925,190.2584,288.5575ZM332.45,385.52a14.2192,14.2192,0,1,1,14.2191-14.2191A14.2079,14.2079,0,0,1,332.45,385.52Zm9.56-48.481a31.1627,31.1627,0,0,0-11.2589-2.1354,28.1237,28.1237,0,0,0-3.494.1941V287.0531l9.7059-.0972V189.0717l76.143,66.34-39.4546,31.2046c-8.1529.0485-16.1605.0485-24.0708,0L372.73,245.6085a6.3277,6.3277,0,0,0-3.0088-8.9778l-2.5722-1.0678a6.2805,6.2805,0,0,0-8.25,3.1545l-21.9355,48.2385,3.3486,35.7663,42.9-36.1546,12.4719.9221ZM363.17,188.7319l110.89,11.1618-51.3931,46.6855ZM490.0745,280.89c-25.9632,2.4265-52.5577,4.2706-77.89,5.0956L495.17,207.1731ZM336.9635,180.773h-8.4441l14.5589-9.8031,139.62,9.8031-84.5389-23.7311c45.57,6.3574,164.6129,34.2134,164.6129,34.2134l-.1458,8.3472-57.75-2.4265L563.84,217.6554v54.693c-16.1119,2.1839-33.8251,4.3678-52.3634,6.3574l-6.6-81.53Zm242.1631,89.44,1.6013-33.1458L636.537,260.41C627.462,262.5454,606.4971,266.2337,579.1266,270.2131Zm348.6239,26.0738a4.165,4.165,0,0,1-2.6776,2.289l-5.6255,1.5639a4.1494,4.1494,0,0,1-4.9762-2.4407l-4.8435-11.8575a10.6491,10.6491,0,0,0-9.8955-6.6444H869.2774c3.0817-.7837,5.9536-1.5518,8.4035-2.287l10.4855-4.4593,29.0109,6.1966a8.8664,8.8664,0,0,1,6.0994,4.81l4.4406,9.3031A4.17,4.17,0,0,1,927.7505,296.2869Z"/></svg>