<?xml version="1.0" encoding="UTF-8"?>
<!--
  Copyright (c) 2026 Passion Highway, Inc.. All Rights Reserved.

  This image is digitally signed and the hash recorded.
  Unauthorized reproduction, distribution, or use of this
  image is strictly prohibited and constitutes copyright
  infringement under 17 U.S.C. Section 106.

  Violators may be subject to civil liability including
  statutory damages up to $150,000 per work (17 U.S.C. Section 504)
  and criminal prosecution with fines and imprisonment
  (17 U.S.C. Section 506).

  Contact: jim@passionhighway.com
  Asset ID: PHI-AID-PA12-6b31d564
  Hash: 64ec91ae2efe729f
-->
<svg id="Layer_1" data-name="Layer 1" xmlns="http://www.w3.org/2000/svg" viewBox="0 0 1000 395.3114">
  <metadata>
    <rdf:RDF xmlns:rdf="http://www.w3.org/1999/02/22-rdf-syntax-ns#"
             xmlns:dc="http://purl.org/dc/elements/1.1/"
             xmlns:cc="http://creativecommons.org/ns#">
      <rdf:Description>
        <dc:title>PA12 Aircraft Silhouette</dc:title>
        <dc:creator>Passion Highway, Inc.</dc:creator>
        <dc:rights>Copyright (c) 2026 Passion Highway, Inc.. All Rights Reserved. Unauthorized use prohibited under 17 U.S.C. 106, 504, 506.</dc:rights>
        <dc:publisher>Passion Highway, Inc.</dc:publisher>
        <dc:identifier>PHI-AID-PA12-6b31d564</dc:identifier>
        <dc:source>Airplane-ID.com</dc:source>
        <cc:license rdf:resource="https://airplane-id.com/terms"/>
      </rdf:Description>
    </rdf:RDF>
  </metadata>

<path d="M224.8889,340.1478A27.5818,27.5818,0,1,0,252.4707,367.73,27.5817,27.5817,0,0,0,224.8889,340.1478Zm0,43.49A15.9082,15.9082,0,1,1,240.7971,367.73,15.9081,15.9081,0,0,1,224.8889,383.6379Z"/><circle cx="224.8889" cy="367.7296" r="9.1325"/><path d="M30.5193,197.7754,0,204.4652v15.2841l25.6362,9.1313s1.416,14.8445,32.9608,28.3218V178.829C22.2669,186.74,30.5193,197.7754,30.5193,197.7754Zm8.2524,4.2482c5.2738,0,9.4732,5.8109,9.4732,13.1356,0,7.3735-4.1994,13.1355-9.4732,13.1355-5.3227,0-9.4732-5.762-9.4732-13.1355C29.2985,207.8345,33.449,202.0236,38.7717,202.0236Z"/><path d="M288.688,63.4906c-33.3516.537-50.1494,7.8128-58.45,16.0652C266.2748,83.17,364.62,92.3009,455.9825,95.28,433.0808,71.9382,355.44,62.465,288.688,63.4906Z"/><path d="M103.8633,256.2746c11.6218,2.2953,18.702-.1952,19.0927-2.1485.3908-1.9042-5.2249-6.9339-16.8467-9.2288a43.4358,43.4358,0,0,0-8.79-.9278c-6.3479,0-10.01,1.66-10.3032,3.0275C86.6259,248.95,92.2415,253.9309,103.8633,256.2746Z"/><path d="M63.48,177.8523v8.3013l70.2188-7.0805V167.598c-17.579,2.49-43.0689,5.2738-68.998,10.01C64.2613,177.706,63.8708,177.7549,63.48,177.8523Z"/><ellipse cx="38.7717" cy="215.1592" rx="4.5901" ry="8.2524"/><path d="M63.48,259.1558c14.3074,5.5668,33.9375,10.694,61.0386,14.3074,3.0275.3907,6.0549.7812,9.18,1.2208V184.0051L63.48,191.0367Zm18.7512-13.0866c1.3671-6.8853,13.5259-8.2036,24.8547-5.9576,11.28,2.2464,22.0228,8.1061,20.6554,14.9912-.9764,4.883-7.3732,6.9339-15.04,6.9339a53.0535,53.0535,0,0,1-9.8151-.9764C91.6067,258.8139,80.8639,252.9542,82.2313,246.0692Z"/><path d="M460.2307,120.6716v-8.985H399.827a2.4177,2.4177,0,0,1-2.4415-2.4416,2.4484,2.4484,0,0,1,2.4415-2.4415h62.6012a18.2733,18.2733,0,0,0-2.49-6.4946c-95.6109-2.93-200.0113-12.7937-233.46-16.163a24.1845,24.1845,0,0,0-3.0764,19.63,20.39,20.39,0,0,0-6.885,2.7345C302.4094,127.0684,440.65,121.5994,460.2307,120.6716Z"/><path d="M872.8514,152.6069c-46.9264,0-77.2015,4.6389-82.0358,8.1057,4.8343,3.4671,35.1094,8.0573,82.0358,8.0573,4.15,0,8.1547-.0489,12.0611-.0978a124.5259,124.5259,0,0,1-.39-15.9675C880.762,152.6557,876.9045,152.6069,872.8514,152.6069Z"/><path d="M889.6981,168.5746c7.8128-.1955,15.04-.5373,21.5832-.9278V153.7787c-6.641-.4393-13.9656-.7811-21.925-.9766A121.295,121.295,0,0,0,889.6981,168.5746Z"/><path d="M872.8514,173.6529c-8.9361,0-87.2607-.3418-87.2607-12.94,0-12.647,78.3246-12.9888,87.2607-12.9888,1.709,0,6.055,0,11.9148.1466,2.5878-37.9417,19.2882-73.7836,24.9524-85.0147h-61.82l-31.9841,58.5482A33.8689,33.8689,0,0,1,784.37,139.0317C744.3286,136.9809,657.019,132,602.475,125.1639c-46.2429-5.86-90.2882-10.6939-116.1684-13.4773H465.1138v11.28a2.4217,2.4217,0,0,1-2.2949,2.4415c-.6837.0489-27.9314,1.4649-66.1171,1.4649-54.4951,0-131.3548-2.8809-185.7036-16.6512-19.7279,14.4052-49.8564,48.2449-54.7395,52.1513-2.1,1.66-8.4476,3.0764-17.6767,4.4924V275.3188c10.9869,1.3671,22.56,2.7834,34.8653,4.053L197.57,184.0539c-20.0208-3.5645-33.3027-8.9361-35.2071-16.7978l53.3721-45.8034,15.7236,1.1719-27.3454,55.4718L178.33,279.9089q20.3622,2.124,43.3618,3.76l-2.393,51.4676c19.679.4393,29.2985,7.3246,29.2985,7.3246l41.5551-55.7647c.6837,0,1.3185.0485,2.0022.0485L261.9287,189.67c-4.7856-.1466-9.522-.3419-14.161-.5862l3.6134-48.44,18.7023,49.2705c-1.0255-.0489-2.0019-.0489-3.0275-.0978l30.1775,96.978a3.1865,3.1865,0,0,0,.6837,0l47.0241-102.74a2.1642,2.1642,0,0,1,.5859-.7326l23.8784-50.7839,9.6195.6837v55.2763c-9.9125.3907-20.4112.7326-31.2518,1.0744l-44.4849,97.271c2.6371.0489,5.3227.0489,8.0084.0489v17.6767a2.4177,2.4177,0,0,0,2.4415,2.4416h22.9994a2.4487,2.4487,0,0,0,2.4416-2.4416V286.745c63.9683-1.0252,139.4609-6.4454,229.7-19.3857,122.5167-17.5789,244.0076-35.8905,330.6338-51.712l5.762,3.4671c-11.72-13.38-17.6279-29.2007-19.8253-45.6078C879.2482,173.6529,874.6581,173.6529,872.8514,173.6529ZM242.8757,188.836c-13.4422-.7687-25.9626-1.8839-36.9349-3.4427l30.775-62.4056,8.1734.5889,2.3912,6.3Zm96.285-58.4653L303.525,190.2582q-1.8562.005-3.7094.0033l-36.2467-65.3387Zm-88.9041-6.4073,7.4969.54L294.2258,190.25c-6.3488-.0254-12.66-.0957-18.8918-.2173Zm81.8909,75.3746-28.6151,56.7414a2.4256,2.4256,0,0,1-2.1485,1.3671h-.1464a2.4259,2.4259,0,0,1-2.1486-1.5623l-22.56-56.7414a2.45,2.45,0,0,1,2.2463-3.3693H329.999a2.3968,2.3968,0,0,1,2.0508,1.1718A2.455,2.455,0,0,1,332.1475,199.338Zm4.8977-9.5087c-9.1623.203-18.4859.3437-27.8211.4024L344.61,130.7635l19.594,1.4118Zm-2.7491,112.2976H316.18V286.9406c5.9087,0,11.9637-.0489,18.1164-.1467ZM429.9117,185.88c-11.9588.7311-27.8649,1.6151-45.9792,2.3972v-54.68l46.2049,3.33a24.5324,24.5324,0,0,1-.2257,48.953Z"/><path d="M994.8308,120.8668,953.6175,26.6233A43.1337,43.1337,0,0,0,912.8439.0105c-17.0419.3418-37.6976,12.8914-45.8522,27.8336l-16.456,30.1285h63.1871c.0489,0,.0978.0489.1466.0489a1.7335,1.7335,0,0,1,.4882.0978q.22.0729.44.1463a.1793.1793,0,0,1,.1464.0489c.0977.0489.1466.1463.2441.1952a2.4583,2.4583,0,0,1,.3907.3419,2.6965,2.6965,0,0,1,.2441.3907.9813.9813,0,0,1,.1955.3907,1.7428,1.7428,0,0,1,.0975.4882.6186.6186,0,0,1,.0489.293v88.7744c22.0227,1.6115,43.9477,4.8342,43.9477,11.524,0,6.6413-21.925,9.9128-43.9477,11.4755v40.3343c12.5984-2.3927,24.3176-4.7367,35.0605-6.9342A61.44,61.44,0,0,0,994.8308,120.8668Z"/><path d="M938.48,224.6324a11.7559,11.7559,0,0,0-7.1294,2.4415l-15.1863-11.0358v9.6684l11.1821,6.7387a11.3541,11.3541,0,0,0-.7812,4.1019A11.89,11.89,0,1,0,938.48,224.6324Zm0,18.0185a6.1283,6.1283,0,1,1,6.1038-6.1038A6.1167,6.1167,0,0,1,938.48,242.6509Z"/><path d="M911.2813,148.8957V70.7663c-6.885,14.6981-19.4835,45.2663-21.73,77.2016C895.9483,148.1145,903.5173,148.4075,911.2813,148.8957Z"/><path d="M911.2813,218.4307v-45.95c-7.471.4882-14.747.7323-20.9484.9278C892.579,189.8159,898.8783,205.4907,911.2813,218.4307Z"/><polygon points="301.628 249.048 326.044 200.657 282.389 200.657 301.628 249.048"/><path d="M916.1644,167.2561c21.8761-1.6115,35.5975-4.346,38.7228-6.5435-3.1253-2.246-16.8467-4.9805-38.7228-6.592Z"/><rect x="309.6825" y="126.5367" width="4.8831" height="55.5189"/></svg>