<svg id="Layer_1" data-name="Layer 1" xmlns="http://www.w3.org/2000/svg" viewBox="0 0 1000 397.3407"><polygon points="252.162 328.037 274.125 334.381 301.944 282.73 262.412 282.73 252.162 328.037"/><path d="M247.5258,334.3815a31.4833,31.4833,0,1,0,31.9677,31.48A31.7265,31.7265,0,0,0,247.5258,334.3815Zm0,51.9052a20.428,20.428,0,1,1,20.7424-20.4256A20.5858,20.5858,0,0,1,247.5258,386.2867Z"/><ellipse cx="247.5258" cy="365.8611" rx="12.9335" ry="12.7362"/><path d="M134.86,273.42l9.4228,2.5512V273.472C141.0546,273.42,137.879,273.42,134.86,273.42Z"/><path d="M0,219.2s38.613,11.068,39.0445,12.1678V194.14C16.9028,200.8956,0,219.2,0,219.2Z"/><path d="M235.5945,274.8777V234.2194l-79.026-12.338.26,9.4227v.1039l.6247,23.583,63.2,19.5744C225.5471,274.67,230.4928,274.7735,235.5945,274.8777Z"/><path d="M157.9739,273.6283c13.4835.1561,28.1642.3124,43.8863.5726l-44.25-13.6916Z"/><path d="M833.3918,141.1373h86.21A574.6591,574.6591,0,0,1,938.0831,48.68H884.0455c-23.4267,35.5566-55.6515,80.6919-78.4014,80.6919-26.3941,0-211.517-17.5439-211.517-17.5439s-65.0742-52.7362-80.0152-52.7362H445.758l-51.3826,53.413s-7.4444,1.8219-20.199,4.8936v26.3941a2.5776,2.5776,0,0,1-2.603,2.6029H298.5862a2.6107,2.6107,0,0,1-2.603-2.6029v-7.705c-43.9381,10.5161-95.8932,22.802-140.82,33.1621l1.2494,47.3738h.1563L238.5619,229.43a2.6176,2.6176,0,0,1,2.2385,2.5509v43.001c9.2664.2082,18.8455.4684,28.6327.7286v-62.94a2.4733,2.4733,0,0,1,.3123-1.2494c.156-.3644,1.77-3.0716,7.08-6.2472l-2.3945-53.3087a2.8573,2.8573,0,0,1,.7286-1.9261,2.6419,2.6419,0,0,1,1.8743-.7811H301.918a2.9141,2.9141,0,0,1,1.822.6768l46.9576,43.8339c10.2037.3123,21.6569,1.0412,34.5154,2.3948V149.5709a2.61,2.61,0,0,1,2.6029-2.603h20.0427V135.7232H517.1832v16.1383h-86.47a2.4743,2.4743,0,0,1-1.2494.3123H390.4189v44.5107c62.2109,6.9761,86.3665,17.9084,95.6851,25.6652a3.8085,3.8085,0,0,1,.4686.4166c5.1017,4.477,5.4141,7.8089,5.362,8.6938v50.1332c36.8581-1.9262,81.9934-6.6114,143.84-16.19,114.8429-17.7521,209.3825-29.9862,268.2619-38.524l12.0775,5.1541a524.9382,524.9382,0,0,1,1.6138-73.1436H833.3918a8.8761,8.8761,0,1,1,0-17.7521ZM397.6031,114.2745l52.2157-50.7578-38.5762,62.94Zm116.6648,12.182H419.572l35.6087-59.5559h59.0872Zm293.4587,12.0778a2.5515,2.5515,0,0,1,2.4467,2.759,2.6551,2.6551,0,0,1-2.603,2.447c-.0521,0-.1042-.0521-.1563-.0521L577.6764,129.06a2.5746,2.5746,0,0,1-2.3948-2.759,2.5,2.5,0,0,1,2.759-2.4469ZM524.9921,72.7834l58.0463,39.5131-58.0463,16.1383ZM883.5768,193.5611a2.698,2.698,0,0,1,2.7593,2.4987,2.6143,2.6143,0,0,1-2.4988,2.7072c-130.1483,5.31-377.5343,15.7217-388.9353,17.6482-.0521,0-.1042.0518-.1563.0518a2.3559,2.3559,0,0,1-.8328.1563,2.6094,2.6094,0,0,1-2.4467-1.8219,2.5567,2.5567,0,0,1,.3124-2.2907C492.7677,211.0529,493.9129,209.387,883.5768,193.5611Z"/><polygon points="151.675 233.959 65.413 233.959 65.413 249.108 152.716 272.899 151.675 233.959"/><path d="M368.9705,118.6476c-16.763,4.0087-40.6062,9.7351-67.7814,16.19v6.3514h67.7814Z"/><path d="M44.9012,192.624V243.07A72.1708,72.1708,0,0,0,60.2066,261.134V190.1771c-4.6854.937-8.1212,1.4578-10.0995,1.6659C48.3369,192.0512,46.6192,192.3117,44.9012,192.624Z"/><path d="M65.4126,264.9342a50.96,50.96,0,0,0,28.2681,8.2776c10.9324,0,24.78.0521,41.1791.2081L65.4126,254.4706Z"/><polygon points="144.283 275.971 144.283 317.775 153.081 317.775 153.081 286.591 152.872 278.313 144.283 275.971"/><path d="M150.009,170.4467c-35.7127,8.2255-66.48,15.1491-84.5964,18.7413v39.5652h86.106Z"/><path d="M944.226,241.2994a2.6376,2.6376,0,0,1-1.1451,2.1864l16.7629,7.1321h14.9931L944.226,234.3236Z"/><path d="M998.2636,122.9165C991.0794,74.0849,973.4312,28.6372,965.6744,19.11,940.53-12.0733,917.884-3.3794,894.4573,32.75c-2.1864,3.384-4.5291,6.9761-6.9761,10.7243h54.1419c.1563,0,.26.1042.3644.1042a1.44,1.44,0,0,1,.4684.0521l.0521.0518a1.63,1.63,0,0,1,.5208.2605c.1039.1039.26.156.3644.26a2.9154,2.9154,0,0,1,.3124.4165,1.1357,1.1357,0,0,1,.26.4163,3.5872,3.5872,0,0,1,.156.4165,1.5379,1.5379,0,0,0,.1042.5205v95.1646H978.95a8.8761,8.8761,0,1,1,0,17.7521H944.226V220.58c10.0474-1.77,17.3359-3.28,21.4484-4.6334C989.7779,208.1376,1005.3957,171.6961,998.2636,122.9165Z"/><path d="M444.4565,226.046v27.4872a351.2156,351.2156,0,0,0,42.2721,4.0087V231.3562s-.26-1.718-3.1234-4.321Z"/><path d="M939.02,231.5122l-14.4727-7.7047c5.2581-.781,10.1-1.5617,14.4727-2.2906V158.8894H922.9336a524.6138,524.6138,0,0,0-1.5617,75.33l17.7,7.5487a1.4415,1.4415,0,0,1-.0521-.4687Z"/><path d="M939.02,64.9745a593.23,593.23,0,0,0-14.2121,76.1628H939.02Z"/><path d="M342.8887,193.6132l-41.96-39.1487H279.7928l2.1346,48.1548a80.5417,80.5417,0,0,1,14.0558-4.6333V170.3946A2.63,2.63,0,0,1,297.5452,168a2.6594,2.6594,0,0,1,2.8111.4686l27.9559,25.405C332.8413,193.665,337.6828,193.6132,342.8887,193.6132Z"/><path d="M321.0237,194.29l-19.8346-18.0127v20.5635A171.1509,171.1509,0,0,1,321.0237,194.29Z"/><path d="M274.639,275.8669c14.0561.3123,28.6326.7807,43.5736,1.2493,46.6971,1.51,80.4317,4.9978,121.038,5.57V257.9584c-11.7134-2.1864-23.4267-5.258-32.5371-9.735a2.6077,2.6077,0,0,1,2.2906-4.6855c8.3815,4.1129,19.21,7.0282,30.2465,9.11V225.9418l-164.6116-4.06Z"/><path d="M274.639,213.6038v3.0716l201.001,4.9457c-11.9736-6.3514-36.7539-14.4205-88.0843-19.9909C297.2847,191.843,277.242,210.5325,274.639,213.6038Z"/><path d="M444.4565,282.6866c13.119.1042,26.9667-.1042,42.2721-.8331V262.7478a350.9579,350.9579,0,0,1-42.2721-3.9044Z"/></svg>