<svg id="Layer_1" data-name="Layer 1" xmlns="http://www.w3.org/2000/svg" viewBox="0 0 1000 306.3225"><path d="M530.2115,305.64c26.6868-4.0282,38.7714-21.6516,38.7714-21.6516l-64.1155,10.574S503.5247,309.6677,530.2115,305.64Z"/><path d="M452.1147,236.9923H421.5675l31.9345,18.4344a2.6558,2.6558,0,0,1,.95.5481l3.4607,1.9977H500.615c-4.9681-2.3429-10.3839-4.8225-16.3056-7.448C472.3373,245.2159,461.7459,240.7864,452.1147,236.9923Z"/><path d="M509.4211,287.6152c1.9161-.2114,3.6115-.4163,4.8454-.6061,6.2072-.955,16.7094-2.86,29.646-5.2808-6.315-4.4278-16.2881-10.4527-32.2128-18.3849H467.2168l42.041,24.2682Z"/><path d="M0,209.8019S9.3991,229.9429,33.5683,233.3c0,0,.8986,1.0863,2.6855,2.9241v-44.71C16.4573,196.5523,3.7394,203.0709,0,209.8019Z"/><path d="M959.9236,165.1436,1000,7.0493,952.2261,2.1315,909.8284,166.192C929.3875,166.0933,946.4179,165.6462,959.9236,165.1436Z"/><path d="M904.2739,166.209,946.82,1.5748,931.5206,0,809.6677,147.0292s-53.5572,3.3788-151.79-2.929c33.6922,6.0724,72.8052,12.08,113.1183,16.0915C818.8688,164.9519,865.9028,166.2684,904.2739,166.209Z"/><path d="M41.6247,241.3444A157.8273,157.8273,0,0,0,59.08,254.75V186.8962c-6.27.9916-12.0659,2.1206-17.4555,3.3434Z"/><path d="M194.0248,171.9494c-21.2427,3.1992-61.06,8.6881-98.0194,10.9979-11.3857.7117-21.9,1.8033-31.5542,3.1687v40.613l129.5736,25.4634Z"/><path d="M312.1853,251.1224a2.6829,2.6829,0,0,1-2.6724,2.6855,224.15,224.15,0,0,0-33.1628,2.6583c25.5631,3.8987,80.3971,11.6236,119.28,12.612l-26.9569-32.0859H312.1853Z"/><path d="M375.6848,236.9923l27.0359,32.18c36.4361.1281,44.8468-7.0038,46.7308-9.8863l-38.62-22.2934Z"/><path d="M958.1835,206.4451H876.1329a10.0705,10.0705,0,1,1,0-20.141H954.56l3.99-15.7377c-14.09.5091-31.8.9487-52.0692,1.0083-.0492.0026-.0859.0459-.1354.0459a2.8046,2.8046,0,0,1-.3442-.0442c-1.3916.0036-2.7468.0127-4.1613.0127-38.0685,0-84.33-1.3715-131.378-6.0527-60.1748-5.9869-117.7461-16.4049-158.5929-24.8809q-31.73-2.6907-68.0614-6.7179c-170.1913-19.134-217.5226-33.5683-264.5182-6.7137S209.4663,169.52,209.4663,169.52s-3.6975.6228-10.07,1.6095V294.8189c64.7242,2.9481,150.4358,1.2339,216.5933-1.5079l-1.8214-2.1679c-5.2411-.0668-9.603-.1058-12.6907-.1058-72.2794,0-158.4424-3.7293-158.4424-21.4838,0-18.52,48.4432-20.8228,63.78-21.0851V234.3068a2.6129,2.6129,0,0,1,.471-1.4319c.0315-.0492.0187-.1154.0535-.1626.6923-.9388,17.17-22.9208,49.8856-22.239,26.2941.5606,48.8318,2.6425,96.3811,21.3336.0731.0269.1432.0518.2134.0849,9.7754,3.8469,20.5229,8.339,32.6671,13.7233,37.1038,16.45,55.532,27.5657,64.6518,34.7557,41.8234-7.8866,103.3884-19.8938,134.327-24.2446,24.9219-3.5047,113.3059-18.9792,183.1532-31.3595,13.1028,1.9584,26.9435,5.1461,33.0484,10.2872-1.0123-6.1869-4.4465-10.9664-8.6078-14.6268,38.6662-6.8769,66.995-11.9679,66.995-11.9679ZM255.7905,189.661c-16.7841-4.0282-34.911-16.1128-34.911-16.1128l69.8221-44.9816s4.413.1915,11.9256.5934l-38.3128,61.2985A56.93,56.93,0,0,1,255.7905,189.661Zm134.2733-.47c-41.9014,1.0651-87.1711,1.9391-113.2845,1.5955l38.0826-60.934c18.8628,1.1227,46.5764,3.0251,75.2019,5.8564Zm97.3481-2.8874s-39.8762,1.3706-86.6063,2.6088V136.8158c45.9162,4.9028,91.516,12.23,104.0618,22.6337Z"/><path d="M413.7422,282.2908l2.953,3.5149c21.0195.2878,54.38.9729,81.4018,1.5607l-5.364-3.0966Z"/><path d="M422.76,293.0238c9.5-.412,18.5838-.8418,27.051-1.2808-10.3734-.1989-20.2249-.375-28.5475-.5Z"/><path d="M315.6552,231.6213H437.954c-37.6525-13.6069-57.7706-15.2863-80.8449-15.7771A57.5914,57.5914,0,0,0,315.6552,231.6213Z"/><path d="M248.4055,269.5535c0,8.0092,52.579,16.1128,153.0715,16.1128,2.1377,0,4.9189.02,8.1341.0528l-9.3982-11.186c-49.7269-.56-130.1775-13.5693-138.2008-14.8871C253.8767,262.121,248.4055,265.3991,248.4055,269.5535Z"/><path d="M454.1222,261.9817a11.3361,11.3361,0,0,1-1.4273,1.9177c-6.1515,6.632-21.8961,10.2357-45.5083,10.5884l1.9436,2.3131L483,278.6517Z"/><polygon points="877.757 196.938 996.957 194.858 890.232 190.007 877.757 196.938"/><path d="M91.176,275.5958s-14.38-5.3709-22.35-11.2617C54.619,270.0515,67.7864,276.9818,91.176,275.5958Z"/><path d="M194.0248,294.5577v-36.896L64.4512,232.1983V258.21c23.4571,14.5478,61.1428,30.9065,115.9765,35.4707,8.4022,8.8257,15.7411,11.8882,15.7411,11.8882l6.2373-2.9451A21.3263,21.3263,0,0,1,194.0248,294.5577Z"/></svg>