<svg id="Layer_1" data-name="Layer 1" xmlns="http://www.w3.org/2000/svg" viewBox="0 0 1000 355.7388"><rect x="544.6817" y="195.7443" width="65.6388" height="52.7455" rx="9.377"/><path d="M150.9442,298.0825c-1.6592-22.55,12.7016-53.9115,21.6422-70.9474H71.1447v42.9467C85.3661,282.2068,109.7168,294.5,150.9442,298.0825Z"/><path d="M57.0792,189.2547a17.6768,17.6768,0,0,0-4.6885,1.8011c-1.1441.746-2.5339,1.5315-4.1024,2.3417V104.3188L34.2228,79.1182l-3.63,121.8849c-8.3577,3.187-17.3154,6.2526-24.4354,8.5949A9.012,9.012,0,0,0,3.27,225.1c6.5514,5.5326,15.7867,11.2748,26.751,12.4289.0355.0037.0644.0074.1.0111v88.8958l18.1679,29.303V240.63c3.6486,1.1524,3.5164,1.9991,3.5164,1.9991a41.75,41.75,0,0,0,5.2745,11.4391Z"/><path d="M178.98,182.29c-21.3812.1262-90.5544.9208-117.2121,5.9072v25.7152H178.98Z"/><path d="M177.246,218.6006H61.7677v41.9732c1.3741,1.6812,2.9306,3.4139,4.6885,5.1793V224.7909A2.3429,2.3429,0,0,1,68.8,222.4467H175.0986C175.9147,220.9566,176.6319,219.6789,177.246,218.6006Z"/><path d="M944.3794,183.283l-75.789,1.8638,15.0868,58.574c33.293-4.8178,62.5419-9.1248,84.8783-12.4406Z"/><path d="M879.0076,244.3953,863.78,185.265l-18.596.4573v63.5346Q862.6245,246.7648,879.0076,244.3953Z"/><path d="M822.251,171.7793a7.8954,7.8954,0,0,1,4.9411-1.5518l24.8925.8161-32.7779-27.178a11.93,11.93,0,0,1-7.9139,3.3478c-20.7608.6287-67.2808,1.6374-123.4751.3763Z"/><path d="M823.0605,9.377V135.1425a12.0573,12.0573,0,0,1-1.0462,4.8785l37.7148,31.2733,79.9315,2.6206L856.7819,9.377Z"/><polygon points="278.61 205.121 278.61 213.912 371.208 213.912 407.782 210.063 400.385 205.121 278.61 205.121"/><path d="M506.1379,270.13l28.992,19.3686c12.6326-1.2551,25.3577-2.5866,38.2688-4.0869.5946-.069,1.2133-.1434,1.8105-.2129l14.3611-9.0909Z"/><polygon points="505.713 275.485 413.876 214.134 381.327 217.55 465.495 275.485 505.713 275.485"/><path d="M997.1065,189.2467,905.6951,0H823.0605V4.6885h35.1637a2.3455,2.3455,0,0,1,2.0924,1.2889L944.9946,174.09l16.9623.556v8.2048l-12.3957.3048,23.8748,47.3994c.6553-.0973,1.3636-.2023,2.0052-.2979A28.7834,28.7834,0,0,0,997.1065,189.2467Z"/><path d="M264.8678,267.4039c-14.1785,4.28-29.5231,10.849-30.535,17.2018,1.7124,3.3687,21.2341,7.94,49.246,12.5854-20.0849-7.6694-32.3833-15.5228-32.6188-15.6759a2.3414,2.3414,0,0,1-.1076-3.8552Z"/><path d="M374.1478,218.3039l-2.6951.283L278.61,218.6v43.3687c0,.0621-.0374.1154-.0423.1769a3.5858,3.5858,0,0,1-.2773.9612,2.3279,2.3279,0,0,1-.572.6733c-.0278.0224-.0387.0584-.0676.08l-.0257.0189-.0006.0006L256.47,279.3586a220.6377,220.6377,0,0,0,56.5174,22.032c52.1666-.5054,109.6394-2.5823,171.18-7.36Z"/><path d="M230.6493,287.2155a4.2679,4.2679,0,0,1-.9455-3.3424c2.0533-12.9122,35.3036-21.6453,44.2179-23.766v-57.33a2.3429,2.3429,0,0,1,2.3442-2.3442H401.0968a2.3534,2.3534,0,0,1,1.3026.3937l95.8519,64.0349,98.7592,7.0753a2.3457,2.3457,0,0,1,1.0851,4.3222l-12.12,7.6732c76.5811-9.1088,172.7282-22.3356,254.52-34.0064V185.8376l-13.3689.3288a7.9727,7.9727,0,0,1-8.1688-7.9705,7.89,7.89,0,0,1,.3411-2.1837l-163.0379-29.358c-43.67-1.6085-91.0085-4.7136-135.6081-10.395C382.6359,118.6773,295.02,118.97,257.512,134.794s-72.0855,47.4709-72.0855,47.4709-.65,0-1.7582.0034v33.9881a2.2868,2.2868,0,0,1-.3016,1.0874c-.0206.0392-.012.0879-.0349.1259-.3446.5669-30.5541,51.1118-27.724,80.9874,2.47.17,4.9615.3274,7.5484.4339,34.3441,1.4142,74.0889,2.5239,118.1061,2.6129C255.601,297.1127,234.4332,292.1252,230.6493,287.2155Zm309.3439-82.0943a14.0808,14.0808,0,0,1,14.0655-14.0654h46.8848a14.0808,14.0808,0,0,1,14.0655,14.0654v33.9916a14.0808,14.0808,0,0,1-14.0655,14.0654H554.0587a14.0808,14.0808,0,0,1-14.0655-14.0654Zm-66.8109-54.5036V193.4H363.5889l-2.3442-52.7454Zm-121.9006-9.963V193.4H252.2374l24.0285-49.8151Zm-83.8067-4.1025-20.5121,52.1594-50.4013-7.0327Z"/><path d="M512.7311,280.1736H472.3066l19.241,13.2439q17.8815-1.4432,36.2022-3.2107Z"/><path d="M157.6548,301.5039s59.5891,3.4178,83.1828,2.51C213.4629,320.1971,157.6548,301.5039,157.6548,301.5039Z"/></svg>