<svg id="Layer_1" data-name="Layer 1" xmlns="http://www.w3.org/2000/svg" viewBox="0 0 1000 455.5102"><path d="M639.4659,310.02a13.5331,13.5331,0,1,0-26.1157-7.0392l-19.6627,85.3643H555.76c-10.7,0-20.2546,7.8226-21.27,18.4737a20.49,20.49,0,0,0,20.39,22.4984h19.7541a20.7222,20.7222,0,0,0-.2924,3.2924c0,12.6254,11.3542,22.9005,25.3149,22.9005s25.3149-10.2751,25.3149-22.9005a20.7222,20.7222,0,0,0-.2923-3.2924h22.0953c24.5833,0,68.482-19.9007,68.482-19.9007s-41.5317-21.0565-100.0336-21.07Zm-23.86,122.59c0,7.4628-7.1564,13.5354-15.95,13.5354s-15.95-6.0726-15.95-13.5354a11.4969,11.4969,0,0,1,.533-3.2924h30.8337A11.4969,11.4969,0,0,1,615.6057,432.61Z"/><path d="M371.1084,240.4753a2.128,2.128,0,0,0-.6333,1.7513c2.1446,13.2977,83.9859,13.284,138.0979,13.1788,11.9829.0046,23.5749-.0229,34.22.0731,18.8287.1612,50.3195-1.1286,85.79-3.06-5.8677-2.888-11.9838-7.3013-12.127-13.2282-.1612-6.5293,6.9061-12.706,21.4881-18.7518-8.0032-.05-15.5275-.0789-22.3386-.0789H488.818C459.3127,221.9,380.7732,228.5092,371.1084,240.4753Z"/><path d="M818.8565,188.2387c-60.7227,2.2367-111.3877,5.7617-152.7628,9.6831v18.0751c57.8537.6073,127.32,1.9117,152.7628,2.409Z"/><path d="M651.2471,220.5377c-26.3535,8.67-30.19,15.33-30.1129,18.5383.13,5.4459,11.43,10.6191,18.7952,12.7109,61.1338-3.4742,131.0018-8.5342,167.9247-11.2956.42-8.4828,3.8026-14.0945,6.9595-17.4806C784.0931,222.4168,708.7569,221.03,651.2471,220.5377Z"/><path d="M821.1978,183.45c.0229,0,.042.0126.0649.0132,9.3413-.337,18.85-.6516,28.6662-.924a48.1135,48.1135,0,0,0,1.2952-4.86L826.1847,43.8752l-7.0238,129.0973S753.45,161.51,666.0937,150.4927V193.22c41.9421-3.9672,93.3564-7.5243,155.01-9.7509C821.1369,183.4679,821.1646,183.45,821.1978,183.45Z"/><path d="M661.4112,215.95V198.3757c-62.2115,6.0418-102.8995,12.8929-125.0518,17.3014h79.2463C628.7559,215.6771,644.5165,215.7814,661.4112,215.95Z"/><path d="M669.6011,311.5062c95.2895-20.1468,132.2947-54.9362,142.4023-66.6276-30.3053,2.2809-87.124,6.4381-142.4023,9.8477Z"/><path d="M661.4112,193.6746V149.9057c-26.0168-3.2473-53.8336-6.4374-82.3592-9.2633L536.39,210.902C558.9655,206.4458,599.671,199.6589,661.4112,193.6746ZM607.5576,161.828l-7.0238,34.5571L550.1967,201.63l22.242-39.8015Z"/><path d="M827.7826,218.5831c2.9237-3.3058,14.3451-16.7612,20.4049-31.3041-8.4025.2372-16.5978.5027-24.6484.7879v30.4313C825.4362,218.5359,826.8938,218.5651,827.7826,218.5831Z"/><path d="M830.5105,303.8911l1.1727-60.5121c-1.7731.1372-4.5248.3489-7.9629.6113Z"/><path d="M948.2113,0l-91.523,170.6181c.0914,23.35-24.9531,50.6129-26.1666,51.92a2.34,2.34,0,0,1-1.7148.7477h-.0457c-.1821-.0037-2.662-.0546-6.9578-.1392-1.7848,1.096-8.43,6.0272-9.2156,16.99,12.9944-.9769,20.8916-1.5919,21.304-1.6231a2.3373,2.3373,0,0,1,2.5242,2.3779l-1.9048,98.29,4.2461,37.4571,9.95-7.6091-4.9183-120.2275c.0806.0792.1549.1335.2358.2143,16.3888,16.3889,20.4626,21.68,40.9721,20.5095s80.7736-16.9507,80.7736-16.9507A39.608,39.608,0,0,1,959.66,244.49H923.628a2.339,2.339,0,0,1-2.2864-2.84L969.3375,20.8539a2.3393,2.3393,0,0,1,2.2864-1.8429h24.4772C998.5216,7.2344,1000,0,1000,0Z"/><path d="M514.7676,215.6771c1.2015-.3184,6.2176-1.6039,15.3757-3.5122l43.7321-72.0224c-27.4673-2.6705-55.4933-4.9966-83.1-6.6905-157.1455-9.646-229.1159,43.8752-245.8325,67.6156,0,0-1.5854.1138-4.4985.3676,7.2879,6.2292,19.0087,14.2419,31.142,14.2419Zm-48.2945-59.7022h90.7474l-33.34,53.24H460.6668Zm-23.9745-16.9976v70.2379H331.8974c-68.5054,0-77.87-8.7563-77.87-8.7563C326.6061,134.9035,442.4986,138.9773,442.4986,138.9773Z"/><path d="M706.532,307.1384c72.4033-10.6363,108.4317-27.335,111.7392-59.5733a15.3011,15.3011,0,0,1,3.2413-3.4065c-1.002.0763-1.9983.1524-3.1.2358C813.9537,250.6763,787.3515,283.634,706.532,307.1384Z"/><path d="M995.1383,23.6936H973.5125l-46.9808,216.114h30.7448a43.14,43.14,0,0,1-2.0414-29.3749C960.6947,190.4136,984.7115,74.3831,995.1383,23.6936Z"/><path d="M153.2567,225.9224a4.2863,4.2863,0,0,0,.3132,3.7245l59.389-3.5622c-6.0613-2.611-17.3606-5.7251-36.7789-5.7251C157.9,220.36,154.0592,224.2488,153.2567,225.9224Z"/><path d="M612.6148,290.3165a8.78,8.78,0,0,1,10.4888-4.6356l16.7635,5.0572a8.8432,8.8432,0,0,1,6.04,10.4419l-2.9032,12.3151q11.6024-.7321,21.9142-1.5853V255.0141c-8.4965.5185-16.9172,1.0143-25.1948,1.4836-.0055,0-.01.0051-.0149.0051-.0071,0-.0149-.0028-.022-.0028-39.9029,2.2618-76.0833,3.8451-96.93,3.6611-10.6363-.0961-22.2009-.0686-34.1793-.0732-84.5712.1646-140.14-1.0746-142.7255-17.1113a6.77,6.77,0,0,1,1.6142-5.4462c6.72-8.32,37.0163-13.7812,65.7554-17.1708H271.5864c-15.8592,0-30.3986-11.5808-37.5373-18.3325C193.7352,205.9474,52.4278,223.1018,0,274.7705c0,0,11.3594,15.5229,84.16,27.1526l36.273,113.8893a29.7425,29.7425,0,0,0-.5893,5.8226c0,14.4254,10.22,26.12,22.8273,26.12s22.8273-11.6944,22.8273-26.12-10.22-26.12-22.8273-26.12a21.0737,21.0737,0,0,0-14.5209,5.9652L102.512,304.5839c30.473,4.0112,69.7634,7.2916,120.47,8.8643,143.2852,4.4016,281.1387,5.666,377.6458,2.1072ZM142.6707,413.9527a9.6578,9.6578,0,1,1-9.6577,9.6578A9.6577,9.6577,0,0,1,142.6707,413.9527Zm80.17-185.12a2.3447,2.3447,0,0,1-2.0371,1.4724l-68.3356,4.0972c-.0458.0023-.0938.0046-.1395.0046a2.3408,2.3408,0,0,1-1.8268-.8757c-.1555-.1943-3.784-4.806-1.4656-9.6348,2.6522-5.5308,11.5325-8.22,27.144-8.22,35.72,0,45.7781,10.25,46.19,10.6866A2.3472,2.3472,0,0,1,222.8406,228.833Z"/></svg>