<svg id="Layer_1" data-name="Layer 1" xmlns="http://www.w3.org/2000/svg" viewBox="0 0 1000 342.941"><path d="M334.5,263.4012l-2.1582,2.6136,62.7543,2.6007a2.5761,2.5761,0,0,1,1.6358.6774l21.7409,20.0255H463.84l-57.8408-26.7441C401.4509,262.6216,371.3656,262.933,334.5,263.4012Z"/><path d="M286.7594,264.0526c-48.7187.7191-95.9948,1.6122-106.0659,2.4756-5.1406.4415-15.4343,1.9318-23.56,6.9595a19.4556,19.4556,0,0,1,7.16,11.9571,19.1048,19.1048,0,0,1,.164,3.8736h119.84C285.1791,278.437,286.2275,268.735,286.7594,264.0526Z"/><path d="M163.62,294.4565q-2.328,8.1126-10.697,17.19a294.365,294.365,0,0,0,35.5551,6.2871c21.8347,2.528,56.2669,5.51,94.5566,8.0035-.4754-8.3908.0455-20.1936.8665-31.4811Z"/><path d="M152.848,276.694a22.7,22.7,0,0,0-4.3553,5.3337c-4.0116,6.8793-3.9037,15.7806.3111,26.5033,7.7974-8.3393,11.3926-15.9762,10.4242-22.2282C158.4477,281.2751,154.8626,278.1089,152.848,276.694Z"/><path d="M133.106,275.6051a2.37,2.37,0,0,1-.248.0292,2.4533,2.4533,0,0,1-.2638.0812c-8.0508.9132-28.8465,5.4191-33.5556,15.4293,4.7944,2.8651,19.8022,11.0941,44.5217,18.0536-4.35-11.7363-4.19-21.7265.4918-29.76a26.4889,26.4889,0,0,1,3.2787-4.3879,1.1836,1.1836,0,0,0-.3384-.5545C144.8348,272.8605,137.4287,274.1851,133.106,275.6051Z"/><path d="M967.1694,24.96a2.5707,2.5707,0,0,1,.09,2.5891L878.1975,193.1057l40.411,4.1662,30.2885-14.7341c3.1862-9.2224,6.09-19,8.7536-28.3952h-10.316a2.568,2.568,0,0,1-2.4837-3.2188l17.9833-68.7219a2.5611,2.5611,0,0,1,3.0407-1.8591l11.4644,2.5477c7.63-27.8408,15.5237-56.74,19.6815-71.9721H958.2957Z"/><path d="M962.0213,26.4356l-9.8058-15.5172h-25.69L798.3075,152.4576A36.0393,36.0393,0,0,1,772.79,164.2814L640.92,168.6427,872.669,192.5355Z"/><path d="M951.3958,0l3.6528,5.78h43.3743C999.4208,2.124,1000,0,1000,0Z"/><polygon points="945.316 0 936.416 0 931.18 5.78 948.968 5.78 945.316 0"/><path d="M950.6613,149.0045h8.4357c.36-1.283.731-2.597,1.0828-3.8536,3.2458-11.5923,9.34-33.7381,15.7991-57.2973l-8.8044-1.9562Z"/><path d="M0,310.2119s7.6312,14.7909,60.3092,24.2341l-4.23-61.3375C31.2456,283.0946,9.9365,295.4045,0,310.2119Z"/><path d="M427.0156,316.2883l3.9665,14.8172c8.74-.0825,16.9851-.2794,24.6116-.604l-61.652-56.788-24.3206-1.0076v57.5359q8.2753.2677,16.3776.4629v-13.754a2.5677,2.5677,0,0,1,2.5691-2.5691h35.9666A2.5691,2.5691,0,0,1,427.0156,316.2883Z"/><path d="M549.1329,317.0861V309.51l-57.3823-8.4648,29.8608,22.7905C539.8365,320.8638,546.8317,318.206,549.1329,317.0861Z"/><path d="M129.0994,310.1345c-22.2408-7.5808-33.8466-15.2518-34.6243-15.7784a2.5721,2.5721,0,0,1-1.0412-2.7848c3.846-14.5361,28.5455-19.4534,36.3028-20.6476v-7.8125c-22.6093-1.1171-60.2248,19.9047-67.5309,24.1255l2.47,35.8205h64.4233Z"/><path d="M391.1368,319.52v11.2988c12.0029.2531,23.6191.3773,34.54.3315l-3.1144-11.63Z"/><path d="M424.0505,294.4565l38.7448,35.6878c3.3681-.1919,6.6418-.4024,9.6979-.6545,17.69-1.4611,31.4206-3.0372,42.0668-4.57l-39.9092-30.4628Z"/><path d="M554.271,188.8247V304.7778l69.9513-.0251-2.4587-115.928Zm61.0148,42.71a11.24,11.24,0,0,1-11.24,11.24H567.4374a11.24,11.24,0,0,1-11.24-11.24V207.1291a11.24,11.24,0,0,1,11.24-11.24h36.6088a11.24,11.24,0,0,1,11.24,11.24Z"/><path d="M288.21,326.2713c21.5208,1.3635,44.1072,2.5587,66.2877,3.4274l-55.6559-26.1552a2.5694,2.5694,0,0,1-.8881-3.959l29.809-36.0967c-11.5921.15-23.7009.3142-35.82.49C290.8911,273.2311,287.0724,308.8061,288.21,326.2713Z"/><polygon points="304.025 300.302 364.483 328.717 364.483 272.493 328.231 270.991 304.025 300.302"/><path d="M952.3692,230.53l-3.51-19.03a2.7022,2.7022,0,0,0-.2135-.6541,2.5446,2.5446,0,0,0-1.88-1.38,26.5524,26.5524,0,0,0-7.916-2.9065,146.8218,146.8218,0,0,0,7.5676-17.1011l-26.2176,12.753a2.5812,2.5812,0,0,1-1.124.2609,2.438,2.438,0,0,1-.2659-.015l-315.8374-32.56-71.9758,2.3806,15.302-31.1315a2.5671,2.5671,0,1,0-4.6062-2.2679l-16.5113,33.5919L363.1458,177.83l21.8469-36.4975a2.57,2.57,0,0,0-4.4106-2.6393L357.0343,178.032l-64.1634,2.1221s-44.316,12.5241-104.0462,59.4092c0,0-71.38,10.0074-127.729,31.578l.7169,10.3956c11.5638-6.5433,48.4044-26.1156,70.8117-23.328a2.57,2.57,0,0,1,2.25,2.549v9.012c4.376-1.0747,11.4857-2.1987,15.221.6319a6.5452,6.5452,0,0,1,1.0591,1.05c.0661-.0468.1207-.1111.19-.1518,6.9545-5.384,16.97-8.8662,28.9118-9.89,13.57-1.1623,91.1772-2.35,151.83-3.1223a2.5435,2.5435,0,0,1,3.5243-.27,2.4233,2.4233,0,0,1,.1806.223c37.4126-.4714,67.5769-.7777,70.734-.81a2.96,2.96,0,0,1,1.1039.2358L489.5031,295.52l59.63,8.8261V186.2556a2.5676,2.5676,0,0,1,2.5691-2.569h72.5755a2.5676,2.5676,0,0,1,2.569,2.5138l2.569,121.0662a2.57,2.57,0,0,1-2.569,2.6242H554.271v8.6705a2.5732,2.5732,0,0,1-.8981,1.9519c-.9835.843-11.6109,8.41-80.4582,14.0946-2.5195.2086-5.1877.3886-7.9207.5557a2.4106,2.4106,0,0,1-.1954.3224,2.5726,2.5726,0,0,1-3.63.15l-.2565-.2364c-9.479.4936-20.0575.7658-31.414.8536a2.7305,2.7305,0,0,1-.47.06c-.0584,0-.1013-.05-.159-.0536q-3.8371.0273-7.7815.0285c-10.3075.0007-21.17-.1395-32.3529-.39-.058.0038-.1076.0336-.1665.0336-.0747,0-.1371-.0361-.21-.0424q-10.4354-.2357-21.1886-.5939c-.0408.0019-.0762.0342-.117.0342-.0665,0-.13-.0389-.196-.0443-26.7977-.8994-54.63-2.3332-80.7953-4.0053l-.0013,0a2.1961,2.1961,0,0,1-.2559.0151,2.4184,2.4184,0,0,1-.2518-.0474c-39.5473-2.5342-75.23-5.6107-97.6653-8.2067a287.8409,287.8409,0,0,1-53.6489-11.2232v13.8073a2.5675,2.5675,0,0,1-2.569,2.569H65.0305l.493,7.149c18.5716,3.03,42.2684,5.3968,72.5626,6.3385,123.9563,3.8536,381.5029-1.2845,441.2331-13.4875,46.01-9.4,214.3034-62.9911,297.1322-89.4686,26.7014-6.08,56.99-14.3079,69.0345-22.4923Zm-748.612,12.2444,62.62-46.8851,10.5974,6.9043-25.53,48.17Zm151.7341,8.1888H261.5607l23.6031-51.06h70.3275ZM446.05,239.4027a11.5608,11.5608,0,0,1-11.5607,11.5607H378.6127a11.5609,11.5609,0,0,1-11.5607-11.5607V211.4644a11.5609,11.5609,0,0,1,11.5607-11.5607h55.8767A11.5608,11.5608,0,0,1,446.05,211.4644Zm92.4855-5.62a14.7719,14.7719,0,0,1-14.772,14.772H477.6814a14.7719,14.7719,0,0,1-14.772-14.772V210.6615a14.7719,14.7719,0,0,1,14.772-14.772h46.0822a14.7719,14.7719,0,0,1,14.772,14.772ZM901.17,227.36H822.736a8.3494,8.3494,0,1,1,0-16.6988H933.3648a46.28,46.28,0,0,1,8.4253,1.9268C934.01,217.5988,918.3915,222.7466,901.17,227.36Z"/></svg>