<svg id="Layer_1" data-name="Layer 1" xmlns="http://www.w3.org/2000/svg" viewBox="0 0 1000 447.3684"><ellipse cx="434.903" cy="405.0477" rx="12.903" ry="10.6571"/><path d="M442.9055,382.676v-9.7932c1.9769-.3117,3.9715-.6225,5.9216-.9357-5.0583-10.4419,1.3246-27.6717,1.6-28.4039l56.0557-142.2289c1.1415-3.6092,2.3646-8.1933,3.3405-12.8389l-11.2177.1016c-.3255,2.5206-.5287,4.8837-.6062,6.8124a2.4637,2.4637,0,0,1-2.4623,2.3638h-2.4948l-3.6282,11.6877,6.123-.1457s-8.1645,17.6878-17.2244,35.9064L442.8189,359.5385l-6.1061,3.0565,20.62-66.4254-41.38,36.6407,15.9106,32.2122-4.4019,2.2032L408.05,327.9182H353.34a2.4686,2.4686,0,0,1-2.1762-1.3081l-2.0913-3.9477a17.8321,17.8321,0,0,1-3.735,2.3607c-9.2336,3.6934-25.2385-16.62-12.927-44.9369s25.2385-52.7855,25.2385-52.7855l27.0853,57.0945s-19.3621,23.6987-31.8088,35.0189l1.8957,3.5795h50.7972l-61.8511-125.24H290.7962l-138.307,110.25,10.4985,29.7592a2.4612,2.4612,0,0,1-2.3229,3.28H114.0639c-13.9417,0-22.2069-10.5191-26.7913-19.7533C67.124,327.8512,0,351.1237,0,369.96c0,14.007,40.34,22.3524,86.9628,26.6013L88.3544,406.65c-8.2249,3.1677-14.0238,10.7214-14.0238,19.5577,0,11.6866,10.1284,21.16,22.6223,21.16s22.6224-9.4737,22.6224-21.16c0-8.946-5.9553-16.5547-14.3431-19.65L103.89,397.91c22.0366,1.5221,44.5438,2.2128,64.1613,2.2128,55.3719,0,164.8-10.9018,253.9483-24.0525v8.3452c-8.621,3.94-14.49,11.6983-14.49,20.6319,0,12.9189,12.2643,23.3918,27.393,23.3918s27.3931-10.4729,27.3931-23.3918C462.2961,394.5069,454.1286,385.6,442.9055,382.676ZM114.0639,426.2081c0,8.9114-7.6754,16.1636-17.111,16.1636s-17.111-7.2522-17.111-16.1636,7.6754-16.1637,17.111-16.1637S114.0639,417.2967,114.0639,426.2081Zm168.5594-98.73,14.0834-47.3917-32.391,54.4987c-36.1313,5.3689-70.6209,9.0368-80.8746-14.4864-10.4648-24.0074,0-31.3943,0-31.3943l89.8738-69.56c8.618-6.1558,59.3743-14.7738,54.618,13.5426C323.9206,256.5726,309.2761,308.49,282.6233,327.4779Zm152.28,93.1515c-9.83,0-17.8276-6.9877-17.8276-15.5817s7.9977-15.5817,17.8276-15.5817,17.8276,6.9877,17.8276,15.5817S444.733,420.6294,434.903,420.6294Z"/><ellipse cx="96.9529" cy="426.2081" rx="12.1864" ry="11.239"/><path d="M554.4272,138.9941l26.0591,42.9892v-14.855h4.21V182.766s12.5928-11.5571,13.0876-22.1012h15.9436V280.0862s6.8236-42.3376,7.3442-119.4214H624.5a5.848,5.848,0,1,0,0-11.6959h-3.4C621.03,107.9166,619.162,57.971,613.7273,0V148.9689h-16.11a12.105,12.105,0,0,0-10.5132-6.1557h-6.6174V120.0369l-34.4316,5.1449,8.291,13.6776C554.37,138.9069,554.4059,138.9448,554.4272,138.9941Z"/><polygon points="540.772 125.971 526.931 128.039 526.931 139.024 547.955 137.82 540.772 125.971"/><path d="M596.4912,319.4829l8.31-12.927-.4918-.8422-15.5131,20.5646v17.3193c37.56-8.5934,76.6134-17.9042,112.5132-26.393l-15.04-21.4865Z"/><path d="M523.9993,139.1919c-17.1754-3.1783-105.6122-19.4579-130.0319-22.2328-20.439-2.3226-40.1716,7.63-56.0341,22.4384l3.5756,10.2471Z"/><path d="M782.064,202.8049c-29.7114,32.0874-61.2866,64.4116-90.91,91.306l15.3121,21.8745c37.7072-8.9071,71.55-16.7849,95.9784-21.7966l47.5519-95.1164Z"/><path d="M330.0992,162.1244a5.2037,5.2037,0,0,1,3.4818-3.2125c9.5-2.7217,20.2313,18.2033,23.8622,26.0212l136.8922-1.2423c1.6769-9.6847,5.5414-21.7948,14.4365-21.7948a6.6343,6.6343,0,0,1,5.5546,2.7941c2.7782,3.7944,2.5825,11.3424,1.441,18.8063l59.5474-.54-24.4714-40.3706-210.9048,12.08c-.0481.0024-.0962.0048-.1418.0048a2.4648,2.4648,0,0,1-2.3253-1.652l-3.4256-9.8164a125.7726,125.7726,0,0,0-10.2541,11.9229c-17.236,22.7762-25.8541,27.7008-25.8541,27.7008s-5.6135.2089-15.5189,2.7884l54.2676-.4926C332.492,177.0139,328.2488,166.9306,330.0992,162.1244Z"/><path d="M910.434,54.4783s-28.8881,35.9338-69.9209,83.1025h77.3078a2.4642,2.4642,0,0,1,2.4238,2.9l-9.1014,50.3022,84.88-4.6637L1000,54.4783Z"/><path d="M808.5706,292.95c37.7177-7.4782,61.1366-12.0274,74.8106-14.6505l-29.5656-75.8521Z"/><path d="M914.8728,142.5054h-78.65c-15.1933,17.3939-31.9046,36.146-49.3577,55.1062l119.2227-6.5507Z"/><path d="M487.8851,197.7532H349.2445l62.5971,126.7322.0093.0189,1.8431,3.7316,46.4545-41.134,5.3881-17.3566c-4.4705,8.0208-8.1964,13.8245-10.0118,14.65-6.7713,3.0779-40.0123,22.7762-40.0123,22.7762l-49.246-94.7984,117.9519-2.8082Z"/><path d="M114.0639,336.1178h43.1215l-9.9237-28.1288a2.46,2.46,0,0,1,.7887-2.7412L238.7688,232.93,222.047,214.3938c-4.9213,3.31-9.9649,6.8639-15.2141,10.9063-53.555,41.2435-113.8812,94.1828-113.8812,94.1828s-.3252.1-.8549.2645C96.1744,327.6182,103.0924,336.1178,114.0639,336.1178Z"/><path d="M499.3889,183.6448l11.3617-.103c1.1554-7.02,1.4391-13.4339-.3965-15.9422a1.7532,1.7532,0,0,0-1.5822-.779C503.9616,166.8206,500.9748,175.2444,499.3889,183.6448Z"/><path d="M543.86,202.2161H521.3912v-9.9187h59.3731l-1.8253-3.3162h.0282l-.3063-.5052,0-.0006h0l-.3766-.6213-59.5844.5407h-.0076l-3.8.0346a148.9759,148.9759,0,0,1-3.7731,14.5321L455.0222,345.3178c-.0481.125-5.961,16.0915-1.7193,24.5893a9.29,9.29,0,0,0,.7434,1.1912c7.2949-1.1933,14.3887-2.3947,21.1768-3.6006,30.3288-5.3875,68.4965-13.6262,108.6489-22.7765V325.4559a2.4612,2.4612,0,0,1,.4953-1.4812l17.25-22.8694Z"/><path d="M895.7338,275.95c2.9781-.5594,4.2354-.7881,4.2354-.7881l8.0025,6.7713,86.18-33.8566,1.7223-57.019-85.6318,4.7049Z"/><path d="M334.9324,163.6489c-1.2567,2.9832,2.3637,12.1339,7.3135,21.4222l9.7617-.0887C346.3337,173.3956,338.5985,162.5557,334.9324,163.6489Z"/><path d="M288.4012,193.3648a2.4655,2.4655,0,0,1,1.5342-.5362h51.0081c-.4968-.8459-1.0345-1.7788-1.6122-2.8062l-72.61.6589a217.7994,217.7994,0,0,0-40.5567,20.9268l16.4609,18.2472Z"/><path d="M493.6194,188.6223l-148.64,1.3487c.563.97,1.1365,1.9156,1.7112,2.8576H493.2143C493.2963,191.6993,493.43,190.2469,493.6194,188.6223Z"/><path d="M888.4786,277.3242c.7271-.1386,1.4217-.2708,2.0719-.3943l14.6361-80.89-47.5642,2.6132,30.6185,78.5536-4.86,1.092c.0962,1.1926,2.7761,28.4973,19.1513,28.4973h25.8926v-4.9246H902.5325C891.2385,301.8717,888.658,279.0468,888.4786,277.3242Z"/></svg>