<svg id="Layer_1" data-name="Layer 1" xmlns="http://www.w3.org/2000/svg" viewBox="0 0 1000 275.9557"><path d="M459.5912,228.38a69.7576,69.7576,0,0,1-9.2717.6936H430.0956A63.8768,63.8768,0,0,0,436.7,241.9959l33.09-5.9517C464.6063,232.2752,460.862,229.3755,459.5912,228.38Z"/><path d="M403.5593,263.7368c-21.9477-1.4009-45.7359-3.3347-57.1136-5.64-6.5795-1.3328-10.63-4.2831-12.0407-8.7609-2.307-7.3377,3.55-16.3791,7.5217-21.4073-5.1923-.6521-12.1868-1.561-20.3263-2.692v30.3543a2.5532,2.5532,0,0,1-2.5559,2.5559,2.2151,2.2151,0,0,1-.3145-.02l-87.8232-10.9194c20.4931,14.9639,61.9487,21.3608,123.6259,18.9266C367.1672,265.64,384.395,264.7779,403.5593,263.7368Z"/><path d="M484.3906,222.2613l26.5719,10.3459V211.69A284.5509,284.5509,0,0,1,484.3906,222.2613Z"/><path d="M226.5251,241.5136l89.9635,11.1821V224.5186c-28.1122-4-66.5881-10.2652-89.9635-17.3245Z"/><path d="M292.9787,196.4407a530.4626,530.4626,0,0,0-62.5424,5.7658c-.5706.0911-1.1425.2075-1.7138.3073,39.1776,11.6223,122.0291,21.3614,122.93,21.4628l98.6671-.0149c27.4333,0,71.3193-22.5306,89.5408-32.5879H511.8211c-.01,0-.0178-.0056-.0275-.0056-.0078,0-.02.0053-.0274.0056l-172.8909-3.8289Z"/><path d="M925.8,1.74,907.3183,33.5463h26.228a2.5544,2.5544,0,0,1,2.5559,2.5559V55.5911a2.5544,2.5544,0,0,1-2.5559,2.5559H923.3526L849.87,159.9641l10.17,12.3948,46.4179,5.8622,38.9146-69.8794a2.5481,2.5481,0,0,1,2.2314-1.3129h20.8876L1000,5.7508Z"/><polygon points="911.921 178.911 931.55 181.39 945.357 181.39 966.901 112.141 949.106 112.141 911.921 178.911"/><path d="M351.3578,229.0735c-.3968-.0446-1.5718-.181-3.383-.3991-3.6454,4.0972-10.5019,13.3839-8.6927,19.1291.8113,2.5709,3.5618,4.3481,8.177,5.2816,19.4114,3.9337,77.9278,6.869,96.9374,7.7376-5.8388-6.8447-16.1461-20.1322-19.5984-31.7492Z"/><path d="M852.66,171.4273l-7.9919-9.7435a2.5555,2.5555,0,0,1-.0948-3.115L919.973,54.0959a2.5548,2.5548,0,0,1,2.0717-1.0608H930.99V38.6581h-28.115a2.5553,2.5553,0,0,1-2.2115-3.8388L920.0657,1.43,893.61,0,871.7349,20.4888l5.8909,4.6635a2.5582,2.5582,0,0,1,.22,3.8114l-69.0095,69.01a2.5441,2.5441,0,0,1-2.1915.7189l-15.8419-2.4L757.508,127.476s-107.3483.0016-216.0961,1.1953l11.9627,4.96Z"/><polygon points="872.199 27.379 867.961 24.023 795.553 91.842 806.135 93.445 872.199 27.379"/><path d="M796.8051,187.4133v0a6.0231,6.0231,0,0,1,6.0232-6.0232h87.92L567.9663,140.6269V256.55a2.4825,2.4825,0,0,1-.1305.6746,2.43,2.43,0,0,1-.0443.2539l-.0062.0078a2.5231,2.5231,0,0,1-.8505,1.0621,2.3608,2.3608,0,0,1-.2156.1579,2.4832,2.4832,0,0,1-1.1441.3946c-1.5276.1-153.3571,9.8942-210.8427,12.1456-5.5015.2156-10.7821.3388-15.9585.4187,99.5314,1.3869,202.5709.8331,243.9737-7.4474,79.8722-15.9745,195.5272-42.1726,255.5911-53.0352,35.0461-6.338,64.3514-11.5733,82.7541-14.8475l-118.4118-2.9A6.0231,6.0231,0,0,1,796.8051,187.4133Zm-206.07-9.6178c-9.2636,0-16.7731-6.1149-16.7731-13.6581s7.51-13.6582,16.7731-13.6582,16.7732,6.1149,16.7732,13.6582S599.9984,177.7955,590.7348,177.7955Z"/><path d="M47.2843,254.2679V208.8312C28.25,215.0837,11.7228,222.5929,0,231.6294,0,231.6294,17.9937,244.0592,47.2843,254.2679Z"/><path d="M52.3962,255.99a231.175,231.175,0,0,0,61.3418,11.2108V192.9123c-21.2794,3.7415-42.394,8.4362-61.3418,14.308Z"/><path d="M221.5755,245.9764,165.1217,225.9c-.077.0022-.1226.0081-.2106.0081a12.8594,12.8594,0,0,1-9.23-4.1583c-5.8013-6.0148-7.9682-17.536-6.5411-34.2736-9.9363,1.317-20.1063,2.8233-30.29,4.5412v75.3347c1.2761.0231,2.545.06,3.8339.06,16.5073,0,45.97.6933,82.4022,1.5541a9.2657,9.2657,0,0,0,17.8465.42c25.4015.5943,53.4114,1.2255,82.4091,1.7441C263.3939,268.9126,235.7678,260.61,221.5755,245.9764Z"/><path d="M221.4132,240.494V205.5652c-.9016-.3092-1.74-.6206-2.5762-.9323-19.8045,4.9889-38.3913,13.7982-47.0244,18.2255Z"/><path d="M164.7611,220.8045c4.3564-2.427,34.5812-18.8033,64.8665-23.65a524.8478,524.8478,0,0,1,62.812-5.7808l16.4153-3.1949h-3.4236l17.5719-22.0447,6.8937,17.9494,8.2745-1.6106a3.165,3.165,0,0,1,.5442-.0449l170.55,3.779V129.0607c-7.0119.0936-13.9923.1919-20.8988.2967l9.04-15.2774a2.5547,2.5547,0,1,0-4.3979-2.6009l-10.6346,17.9716c-45.5018.7185-87.65,1.6988-118.0611,3.0354,2.9-6.06,9.4952-16.3516,21.1652-17.1556a2.5582,2.5582,0,0,0,2.3762-2.7257,2.5877,2.5877,0,0,0-2.7256-2.3762c-16.2421,1.1217-24.0222,16.2784-26.5522,22.5209-14.63.701-26.1369,1.4941-33.337,2.3943-18.53.6389-58.1469,25.5591-71.5655,43.45,0,0-45.54,1.3778-99.3491,8.2188-1.8845,20.3649,2.0925,28.335,5.035,31.3879A7.6872,7.6872,0,0,0,164.7611,220.8045ZM482.7292,146.885c12.1749,0,22.0447,7.7242,22.0447,17.2524s-9.87,17.2524-22.0447,17.2524-22.0447-7.7242-22.0447-17.2524S470.5543,146.885,482.7292,146.885Zm-56.046-4.0735c13.0538,0,23.6363,7.8315,23.6363,17.492s-10.5825,17.492-23.6363,17.492-23.6365-7.8315-23.6365-17.492S413.6291,142.8115,426.6832,142.8115Zm-95.2136,9.345a9.3451,9.3451,0,0,1,9.3451-9.345H361.901a9.345,9.345,0,0,1,9.345,9.345v16.294a9.345,9.345,0,0,1-9.345,9.345H340.8147a9.3451,9.3451,0,0,1-9.3451-9.345Zm-8.4664-12.54-1.1182,19.01-22.524,23.4824-37.38-4.3131C280.6709,152.3962,323.0032,139.6166,323.0032,139.6166Z"/><path d="M553.7119,254.7374l-38.855-15.1286a2.4857,2.4857,0,0,1-1.3385.4321,2.52,2.52,0,0,1-2.423-1.8966l-34.5323-13.4454c-3.4257.9806-6.8016,1.8174-10.101,2.4995,10.0043,7.5594,35.66,26.1756,50.283,29.8622C532.1445,256.1046,545.0713,255.2875,553.7119,254.7374Z"/><path d="M504.5686,257.8131c-9.526-4.5786-20.2738-11.5409-28.9611-17.6205L439.8166,246.63a163.67,163.67,0,0,0,11.5643,14.39C469.8161,259.9357,488.1468,258.8243,504.5686,257.8131Z"/><path d="M562.8544,191.3738H550.22c-3.1169,1.8446-16.8134,9.81-34.146,17.96v25.2637l46.78,18.2143Z"/><path d="M562.8544,139.9813l-10.4582-1.3207a2.6184,2.6184,0,0,1-.659-.1747L528.423,128.82q-7.036.0832-14.046.1741V186.262h48.4774Zm-24.356,42.1273c-12.1749,0-22.0447-7.7242-22.0447-17.2524s9.87-17.2524,22.0447-17.2524,22.0447,7.7242,22.0447,17.2524S550.6733,182.1086,538.4984,182.1086Z"/></svg>