<svg id="Layer_1" data-name="Layer 1" xmlns="http://www.w3.org/2000/svg" viewBox="0 0 1000 284.5739"><path d="M711.5305,142.25l92.5119,7.5462L915.2483,34.142H868.7621a7.1684,7.1684,0,1,1,0-14.3368h60.2714L948.0772,0H881.6745L736.7888,99.5312a51.5864,51.5864,0,0,1-5.3457,3.18C729.3292,116.5667,724.1535,134.7783,711.5305,142.25Z"/><path d="M327.2322,152.19H294.9359a8.49,8.49,0,0,0-8.479,8.4813v40.7821h49.2544V160.6712A8.49,8.49,0,0,0,327.2322,152.19Z"/><path d="M705.2093,140.1007c12.9584-4.1445,18.6452-21.1077,21.1436-35.0814a49.8024,49.8024,0,0,1-10.1044,2.7834L574.9637,131.1092l128.7934,10.5063A2.2681,2.2681,0,0,1,705.2093,140.1007Z"/><path d="M286.4569,246.8306a8.486,8.486,0,0,0,8.479,8.4768h32.2963a8.486,8.486,0,0,0,8.4791-8.4768V206.0485H286.4569Z"/><path d="M804.6381,155.8068a2.2982,2.2982,0,0,1-3.2489.0628,2.2648,2.2648,0,0,1-.6826-1.7369l-244.45-19.9375-6.3074,1.0405s-298.9615-9.7417-346.0619,9.7877-69.5249,47.6519-69.5249,47.6519S33.269,205.358,0,237.5241a18.277,18.277,0,0,0,3.2026,3.7978c18.4842-11.35,67.7975-37.83,136.66-45.8818a2.3,2.3,0,0,1,.534,4.5683C73.8054,207.7913,25.8492,232.9767,6.88,244.459c11.89,9.08,42.6262,24.1711,117.1891,26.9315,107.9864,3.9978,172.87-4.5952,232.6073,2.895,51.9827,6.4779,196.1421,17.7448,272.4273,3.1533.4906-.4207,1.07-.925,1.6082-1.3909l-68.2984-3.6132c-.0451.0485-.0648.0967-.1124.145-5.6273,5.7035-27.89,7.7184-52.5079,7.7184a526.3441,526.3441,0,0,1-61.3638-3.6124c-20.1263-2.5982-30.2613-7.0184-30.1244-13.1348.1436-6.3453,11.259-9.5269,21.6116-10.3885a516.7857,516.7857,0,0,1,58.4874-.8111l22.6976-38.286V173.5682a12.8123,12.8123,0,0,1,11.51-12.7893c30.4564-3.15,105.7516-8.9749,147.1261,4.8958a12.7617,12.7617,0,0,1,8.6518,12.1745V203.388l21.2392,2.5393a2.2962,2.2962,0,0,1,1.2789,3.9714q-47.0409,43.1251-68.7045,62.1582l6.9707.3688c3.2212-1.04,6.2945-2.131,9.0369-3.3328,60.3346-26.4222,206.7825-69.5249,211.9751-83.31,2.4692-6.5556,4.1413-16.7012,5.2239-25.5567l-69.5658-5.6738ZM152.33,189.0912s3.4463-11.6259,28.4438-24.952c24.9977-13.3718,34.0043-14.2449,34.0043-14.2449h9.512s-23.5272,27.7547-35.98,32.3041A116.972,116.972,0,0,1,152.33,189.0912Zm44.3891,0,31.8445-35.75h36.21C257.467,176.5922,196.719,189.0912,196.719,189.0912Zm143.5875,57.7394a13.0886,13.0886,0,0,1-13.0743,13.072H294.9359a13.0886,13.0886,0,0,1-13.0742-13.072V160.6712a13.09,13.09,0,0,1,13.0742-13.0765h32.2963a13.09,13.09,0,0,1,13.0743,13.0765Zm40.7706-68.0785a13.7855,13.7855,0,1,1-27.571,0v-6.02a13.7855,13.7855,0,1,1,27.571,0Zm56.1988,0a13.7855,13.7855,0,1,1-27.571,0v-6.02a13.7855,13.7855,0,1,1,27.571,0Zm59.9671,0a13.7855,13.7855,0,0,1-27.571,0v-6.02a13.7855,13.7855,0,0,1,27.571,0Z"/><polygon points="875.244 133.163 881.13 137.578 932.34 78.308 924.808 74.884 875.244 133.163"/><path d="M809.9541,150.2783l65.9823,5.3824c.812-7.6273,1.1429-13.3943,1.1429-13.3943l1.0383-1.2018-7.5855-5.6892a2.313,2.313,0,0,1-.9065-1.5841,2.2793,2.2793,0,0,1,.534-1.7434l52.27-61.46a2.2935,2.2935,0,0,1,2.7015-.6036l10.34,4.7L970.4991,34.142H921.6236Z"/><polygon points="954.452 0 935.409 19.805 982.906 19.805 1000 0 954.452 0"/><path d="M544.5524,257.32c.0079-.0617-.0118-.12.0011-.1817l15.5087-74.7791H545.24L503.6009,252.59C518.8676,253.3725,533.5034,254.8707,544.5524,257.32Z"/><path d="M597.56,223.7246c29.55,2.7733,57.09-23.2316,57.3633-23.4964a2.285,2.285,0,0,1,1.8623-.6192l27.01,3.23V177.8492a8.1718,8.1718,0,0,0-5.5151-7.8171c-41.6526-13.9605-121.66-7.1171-145.1919-4.6849a8.2329,8.2329,0,0,0-7.3909,8.221v32.7462L541.9553,178.89a2.2882,2.2882,0,0,1,1.9745-1.1263h18.955a2.2972,2.2972,0,0,1,2.2483,2.7643l-7.148,34.4634C559.3613,215.7658,569.8051,221.1547,597.56,223.7246Z"/><path d="M563.9478,267.9169l71.7319,3.795c16.61-14.6053,45.8689-41.16,68.4347-61.8177l-46.8222-5.5958c-4.9587,4.5009-31.0533,26.6914-60.1545,24.0034-24.6533-2.2818-36.1527-6.7345-40.12-8.6448L549.05,258.0717a2.19,2.19,0,0,1-.1257.3166C557.6564,260.7611,563.3305,263.8838,563.9478,267.9169Z"/><path d="M440.2985,257.74c-12.0736,1.0052-17.3643,4.4067-17.3979,5.9145-.0292,1.3193,4.7051,5.7081,26.117,8.4723,41.5607,5.367,102.3614,4.9811,110.0125-2.7732.4263-.4353.3949-.6507.3814-.7449-.9109-6.39-40.8942-12.2418-84.1534-12.2418C463.6086,256.3665,451.7258,256.7883,440.2985,257.74Z"/><path d="M870.0013,28.699h77.1543S906.2438,16.47,870.0013,28.699Z"/></svg>