<?xml version="1.0" encoding="UTF-8"?>
<!--
  Copyright (c) 2026 Passion Highway, Inc.. All Rights Reserved.

  This image is digitally signed and the hash recorded.
  Unauthorized reproduction, distribution, or use of this
  image is strictly prohibited and constitutes copyright
  infringement under 17 U.S.C. Section 106.

  Violators may be subject to civil liability including
  statutory damages up to $150,000 per work (17 U.S.C. Section 504)
  and criminal prosecution with fines and imprisonment
  (17 U.S.C. Section 506).

  Contact: jim@passionhighway.com
  Asset ID: PHI-AID-PA44-d93d66ff
  Hash: d09b0f0f5f3064b4
-->
<svg id="Layer_1" data-name="Layer 1" xmlns="http://www.w3.org/2000/svg" viewBox="0 0 1000 242.6382">
  <metadata>
    <rdf:RDF xmlns:rdf="http://www.w3.org/1999/02/22-rdf-syntax-ns#"
             xmlns:dc="http://purl.org/dc/elements/1.1/"
             xmlns:cc="http://creativecommons.org/ns#">
      <rdf:Description>
        <dc:title>PA44 Aircraft Silhouette</dc:title>
        <dc:creator>Passion Highway, Inc.</dc:creator>
        <dc:rights>Copyright (c) 2026 Passion Highway, Inc.. All Rights Reserved. Unauthorized use prohibited under 17 U.S.C. 106, 504, 506.</dc:rights>
        <dc:publisher>Passion Highway, Inc.</dc:publisher>
        <dc:identifier>PHI-AID-PA44-d93d66ff</dc:identifier>
        <dc:source>Airplane-ID.com</dc:source>
        <cc:license rdf:resource="https://airplane-id.com/terms"/>
      </rdf:Description>
    </rdf:RDF>
  </metadata>

<path d="M325.9177,151.4084l-6.3838,8.6468c12.7323,2.8295,61.2716,13.1841,89.1411,13.1841h46.9942l-3.0041-5.3331Z"/><path d="M474.0569,214.35a2.4257,2.4257,0,0,1,2.4272-2.4271h27.6091V197.1555H474.7108l3.8876,6.9023a2.4271,2.4271,0,0,1-2.1143,3.617H444.7792v34.8767q14.83-.093,29.2777-.2877Z"/><path d="M472.3314,202.8205l-13.9406-24.7491c-.0388.0018-.0714.0223-.1105.0223h-30.187l15.5979,24.7268Z"/><path d="M63.609,206.1341c.1351-.6684-.7064-2.0669-2.8752-3.56a29.6868,29.6868,0,0,0-10.5122-4.1006,34.7523,34.7523,0,0,0-6.8264-.7111,22.1309,22.1309,0,0,0-4.4514.4077c-2.5765.5309-3.8944,1.4932-4.03,2.1569-.1351.6684.7063,2.0669,2.8728,3.56a29.6722,29.6722,0,0,0,10.5122,4.1006C57.1926,209.7891,63.2676,207.8075,63.609,206.1341Z"/><path d="M195.0175,132.5178l3.3629-4.2816c-28.82-.3206-164.2723,1.048-198.38,54.105a19.2789,19.2789,0,0,0,2.5812,5.6517C24.493,169.4012,87.1557,126.67,195.0175,132.5178Z"/><path d="M928.3552,46.2608a2.4442,2.4442,0,0,1,1.8725-.403l23.4706,4.61,6.566-17.38-53.9391-6.2471L814.6067,158.2517c50.2406,8.0711,85.51,13.7417,87.6454,14.0851l32.7825-97.1159-9.2915-5.8095a2.4228,2.4228,0,0,1-1.1187-2.4011l2.7305-19.114A2.4256,2.4256,0,0,1,928.3552,46.2608Z"/><path d="M996.1435,11.5291H893.6844l-6.5612,8.2014L1000,32.8038A73.915,73.915,0,0,0,996.1435,11.5291Z"/><path d="M363.8793,96.9114c10.298,2.2589,12.718,4.9521,13.278,6.0466a2.4154,2.4154,0,0,1,.2608,1.2847l-3.5495,48.5091,80.6287,10.4944a2.4256,2.4256,0,0,1,1.8015,1.2183l15.6779,27.8366H506.52a2.4258,2.4258,0,0,1,2.4271,2.4272V214.35a2.4258,2.4258,0,0,1-2.4271,2.4272H478.9113v25.4169c14.302-.2137,28.2286-.5052,41.634-.8782l4.1178-124.661c-26.4624-4.2333-48.6821-7.78-63.8821-10.1931C417.3132,99.5629,385.4187,97.344,363.8793,96.9114Zm86.361,61.7649-70.388-17.1615,3.034-30.7752,67.354,10.58Zm10.9223-37.3569,60.0725,13.692V161.71H461.1626Z"/><path d="M328.4646,93.2973c4.1663-.6142,44.2707-5.73,133.08,8.3713,61.5267,9.7676,237.6222,38.038,347.7382,55.728l91.5647-131.19-17.3013-2.0038-76.3231,95.404a48.271,48.271,0,0,1-44.3685,17.6577c-44.4606-6.2033-136.9073-18.9551-227.8567-30.5944L583.128,54.3079,575.8464,48.24l-57.4142,56.3206C473.4673,98.8639,429.6307,93.56,392.94,89.578l42.1309-53.4739L424.755,32.4634,375.6166,87.744c-38.8682-4.006-67.2372-6.107-76.1643-4.9168a102.57,102.57,0,0,0-15.0581,3.2962A312.7055,312.7055,0,0,0,328.4646,93.2973Z"/><path d="M994.3715,6.6747c-.9458-2.266-1.9982-4.4959-3.1754-6.6747H902.9078l-5.34,6.6747Z"/><rect x="650.482" y="156.2491" width="29.7329" height="10.9223"/><path d="M380.106,221.1759H354.9738V242.13c.2735.0358.5609.0708.8353.1066q10.69.1378,21.3933.2293Z"/><path d="M439.9248,205.9481l-17.57-27.8544h-13.68c-30.63,0-83.75-11.8218-92.2947-13.767L299.905,186.6424l-9.7964,13.9026,27.1019,18.63a2.427,2.427,0,0,1-1.3748,4.4277h-.0782c-1.7345-.0563-32.5885-1.0678-55.2422-3.2727,12.3812,5.5206,38.4306,14.1171,89.6042,21.1432V218.7488a2.4258,2.4258,0,0,1,2.4272-2.4272h30.34a2.428,2.428,0,0,1,2.4058,2.7543l-3.1948,23.4282c19.45.1454,38.8327.1748,57.8275.0773Z"/><path d="M900.6765,177.0039c-16.035-2.5806-241.2313-38.7841-371.18-59.5762l-4.0875,123.75c24.4251-.7223,47.0178-1.72,66.82-3.0114,91.8751-5.9918,220.5555-20.3978,297.7735-29.5436ZM682.642,172.0257H648.0548a2.4258,2.4258,0,0,1-2.4272-2.4271V153.8219a2.4258,2.4258,0,0,1,2.4272-2.4271H682.642a2.4258,2.4258,0,0,1,2.4272,2.4271v15.7767A2.4258,2.4258,0,0,1,682.642,172.0257Z"/><path d="M946.6964,172.002a2.435,2.435,0,0,1-1.9863-3.0387l25.94-95.42a2.4275,2.4275,0,0,1,2.3418-1.79h19.6622l4.6526-16.4847a73.8519,73.8519,0,0,0,2.6541-17.5831l-34.7247-4.0218-7.7221,20.4405a2.4045,2.4045,0,0,1-2.74,1.5241l-22.9728-4.5131-2.1475,15.0182,9.5807,5.99a2.4212,2.4212,0,0,1,1.0145,2.8348L895.3407,207.99c37.0537-4.4073,60.9649-7.4445,60.9649-7.4445l7.3511-26.0468Z"/><polygon points="974.846 76.608 950.11 167.593 964.988 169.783 991.284 76.608 974.846 76.608"/><path d="M119.9714,168.6368c5.0976-16.7155,47.8539-19.6849,52.8271-19.9679a2.341,2.341,0,0,1,1.8654.7159,2.4245,2.4245,0,0,1,.6921,1.8772l-1.5238,21.588,122.9511,9.8467,29.0894-39.4-44.9276,2.03,26.6989-41.2619,57.6453,6.6747v30.7752l-33.1739,1.4992-2.8986,3.9261,39.8318,5.1844,3.4535-47.2015c-1.517-1.0406-8.9336-5.025-37.2087-6.3216-22.124-1.0139-45.0393-5.9076-59.6912-9.6088-31.4946,11.3578-63.4768,33.4717-70.36,38.3666l-7.1885,9.1526a2.4346,2.4346,0,0,1-2.0479.922c-107.6527-6.1545-169.6031,36.61-190.5775,54.5074,7.1939,8.7709,23.731,21.74,61.1724,31.0314C75.2909,200.6777,114.4237,172.5433,119.9714,168.6368Zm154.9058-72.46L297.9353,97.39l-32.16,47.9366h-66.14ZM35.0352,207.8881c-5.044-3.4748-5.2218-6.8311-4.88-8.5235.3413-1.6877,1.8109-4.7074,7.8077-5.9494a34.0837,34.0837,0,0,1,13.2214.2986,34.1422,34.1422,0,0,1,12.3018,4.8639c5.044,3.47,5.2241,6.8264,4.8828,8.514-.9149,4.5225-6.5515,6.4662-13.1954,6.4662a39.9379,39.9379,0,0,1-7.8361-.8107A34.19,34.19,0,0,1,35.0352,207.8881Z"/><path d="M293.5011,187.3016l-120.0105-9.6127-.8349,11.8266c2.7768,12.9521,33.6136,17.5733,54.0715,20.6339,6.4661.9671,12.0505,1.8014,15.9568,2.7543,12.5554,3.0529,48.47,4.8448,64.877,5.5275l-22.2261-15.2789a2.428,2.428,0,0,1-.6092-3.399Z"/><path d="M247.7519,218.7914c-2.394-.3691-4.5071-.76-6.2151-1.1756-3.6953-.896-9.1778-1.7161-15.5278-2.6642-22.56-3.3744-53.137-7.99-57.765-23.3556l-45.9551-18.6423c-13.811,9.7268-43.7845,33.722-50.94,51.1484,5.8766,1.3457,12.1842,2.61,19.063,3.7486,42.1,6.9662,132.4267,11.8152,229.7017,13.7938C267.1106,232.023,250.9746,221.3478,247.7519,218.7914Z"/><path d="M168.02,186.2664l2.2992-32.563c-16.7034,1.3132-40.74,6.2386-45.3175,15.113Z"/></svg>