<?xml version="1.0" encoding="UTF-8"?>
<!--
  Copyright (c) 2026 Passion Highway, Inc.. All Rights Reserved.

  This image is digitally signed and the hash recorded.
  Unauthorized reproduction, distribution, or use of this
  image is strictly prohibited and constitutes copyright
  infringement under 17 U.S.C. Section 106.

  Violators may be subject to civil liability including
  statutory damages up to $150,000 per work (17 U.S.C. Section 504)
  and criminal prosecution with fines and imprisonment
  (17 U.S.C. Section 506).

  Contact: jim@passionhighway.com
  Asset ID: PHI-AID-NG5-0ea9a44e
  Hash: 686eed54545b4735
-->
<svg id="Layer_1" data-name="Layer 1" xmlns="http://www.w3.org/2000/svg" viewBox="0 0 1000 328.9708">
  <metadata>
    <rdf:RDF xmlns:rdf="http://www.w3.org/1999/02/22-rdf-syntax-ns#"
             xmlns:dc="http://purl.org/dc/elements/1.1/"
             xmlns:cc="http://creativecommons.org/ns#">
      <rdf:Description>
        <dc:title>NG5 Aircraft Silhouette</dc:title>
        <dc:creator>Passion Highway, Inc.</dc:creator>
        <dc:rights>Copyright (c) 2026 Passion Highway, Inc.. All Rights Reserved. Unauthorized use prohibited under 17 U.S.C. 106, 504, 506.</dc:rights>
        <dc:publisher>Passion Highway, Inc.</dc:publisher>
        <dc:identifier>PHI-AID-NG5-0ea9a44e</dc:identifier>
        <dc:source>Airplane-ID.com</dc:source>
        <cc:license rdf:resource="https://airplane-id.com/terms"/>
      </rdf:Description>
    </rdf:RDF>
  </metadata>

<path d="M582.9863,106.0342v100.4c84.642-8.0382,258.5695-25.9457,274.0928-27.5462l16.7477-24.3232Z"/><path d="M888.4871,135.856,957.42,152.1938,994.0915,21.1183H949.2649C907.1769,101.3187,893.2994,127.3278,888.4871,135.856Z"/><path d="M945.67,176.4531l-76.3349-6.97-6.39,9.28h63.803C933.42,177.9481,939.7462,177.1755,945.67,176.4531Z"/><path d="M448.5666,161.005,452.88,168.65H578.2272V105.24L512.8864,94.337Zm117.6549-50.5141a9.0634,9.0634,0,0,1,3.6832,15.9347C554.0069,139.1,528.7592,157.3468,515.17,157.3468H479.7931a8.3765,8.3765,0,0,1-6.1071-14.11L515.17,99.0481Z"/><path d="M578.2272,91.0576c-17.9566-3.2016-35.9094-6.3088-53.31-9.1908l-8.022,8.315,61.332,10.2339Z"/><path d="M883.7917,134.7432c4.4753-8.0719,21.2842-39.87,38.82-73.1728H857.6191l-58.836,53.0249Z"/><path d="M923.8548,56.8114a2.32,2.32,0,0,1,1.1018.305c6.4792-12.3093,12.9785-24.6726,18.9279-35.9981h-41.38L862.9,56.8114Z"/><path d="M434.8,146.2926c-4.6536.795-18.5588,3.16-34.3508,5.7592l34.2628,81.5488c15.5988-.5264,31.5616-1.2839,48.0186-2.3607Z"/><path d="M582.9863,101.21,878.391,150.5015l.0063.0012,51.42,8.58L783.3559,126.6838a22.8879,22.8879,0,0,1-13.303,1.2653c-28.6372-5.8585-107.3431-21.7542-187.0666-36.0413Z"/><path d="M955.9786,157.3468l.1589-.5682-70.33-16.6687a.9394.9394,0,0,1-.1371.0851,2.4029,2.4029,0,0,1-1.0782.258,2.36,2.36,0,0,1-1.9217-1.0867l-88.1826-20.9-4.486,4.0428c-.2408.2169-.5052.397-.7535.6027l209.0674,46.25Z"/><path d="M446.1255,156.6784l73.0883-75.75c-1.45-.2376-2.9007-.4758-4.342-.71L442.707,150.62Z"/><path d="M237.745,230.4208c2.731.1257,5.4719.2489,8.2073.3735l8.6874-30.8125c-9.9881,2.7127-36.1706,12.1466-35.7224,36.3683a2.381,2.381,0,0,1-2.3354,2.4214h-.0441a2.3816,2.3816,0,0,1-2.38-2.3377c-.5612-30.3795,34.4687-40.0083,41.967-41.72l6.0066-21.3049H190.3629v54.9083q10.4108.4314,20.8006.8932l-77.1659,45.18v10.533c-2.3162-.1725-4.427-.2713-6.2463-.2713-15.182,0-20.8424,7.08-22.038,15.1a7.3574,7.3574,0,0,0,7.5038,8.3534c1.5031-.0369,3.2492-.0776,5.0928-.1191a12.4731,12.4731,0,0,0-1.1178,4.9224c0,9.0068,9.6018,16.0618,21.862,16.0618s21.862-7.055,21.862-16.0618a12.54,12.54,0,0,0-1.3094-5.3857c8.7309.0558,16.0566.2722,19.4534.7753,12.0464,1.7846,25.4313-11.6,25.4313-11.6s-31.73-6.7987-56.2166-10.181V279.298Zm-87.1272,77.0961c1.9432,1.5134,3.16,3.3759,3.16,5.3921,0,4.838-6.7436,8.9232-14.7234,8.9232s-14.7233-4.0852-14.7233-8.9232a6.8484,6.8484,0,0,1,2.7647-5.1034C134.41,307.6685,142.7085,307.55,150.6178,307.5169Z"/><path d="M41.047,188.7144c11.7129,9.9791,50.5413,35.4923,144.5568,39.3936V130.3705c-43.1532,2.8027-104.3891,7.8906-144.5568,15.9573Z"/><path d="M230.0174,127.875c-7.6313.3547-21.8783,1.07-39.6545,2.1913v36.7324c8.7861-5.34,31.0275-18.876,36.2-22.1676C229.4225,142.8122,230.2358,134.9672,230.0174,127.875Z"/><path d="M36.2879,147.3209c-2.4678.5339-4.8686,1.0768-7.1386,1.6359V49.0779l-7.1386-7.7335V150.86C8.3949,154.8054,0,159.3281,0,164.4854c0,15.4591,13.9992,19.9022,24.2415,20.8459V244.2l10.2618-5.9488V185.0632c.7639-.097,1.3695-.1877,1.7846-.2533Z"/><path d="M457.5358,283.615c-11.0614-1.9962-36.3437-6.5327-59.8559-10.5633-.3017-.0517-.5919-.0773-.8923-.1258V234.4508c10.7474-.111,21.7179-.3617,32.8267-.7L395.62,152.8442c-16.0185,2.62-33.1822,5.3426-44.3174,6.8612-23.6207,3.2155-68.5444-3.5348-78.8982-5.1852l-21.5677,76.4963c41.2445,1.8631,83.117,3.5118,127.6586,3.5231v37.4812c-18.8326,1.3856-31.8916,10.4006-32.4612,23.7512a5.01,5.01,0,0,0,4.9723,5.0682c3.0958.081,7.5873.1925,12.9207.3084a16.1341,16.1341,0,0,0-.743,4.7472c0,11.1634,11.54,20.2493,25.724,20.2493,14.1866,0,25.7264-9.0859,25.7264-20.2493a16.1324,16.1324,0,0,0-.5681-4.2136c11.2026-.0688,20.764-.3384,25.5533-.9684a31.5576,31.5576,0,0,0,20.1223-10.9522A3.7628,3.7628,0,0,0,457.5358,283.615Zm-68.6281,35.3915c-10.2478,0-18.5854-5.8791-18.5854-13.1107a9.7187,9.7187,0,0,1,1.2388-4.5923c10.6583.2042,23.2194.3819,34.87.3962a9.6272,9.6272,0,0,1,1.0642,4.1961C407.4955,313.1274,399.1579,319.0065,388.9077,319.0065Z"/><path d="M578.2272,211.6694c-21.0556,1.9819-35.7755,3.2632-39.7875,3.3811-1.1944.0325-2.4725.0511-3.82.0511-17.3911,0-46.4646-2.749-57.72-3.8841l11.0829,19.6413c28.0122-1.93,57.3326-4.7059,88.46-8.67l1.7846-.2268Z"/><path d="M858.5289,183.5217c-10.76,1.11-189.4619,19.5364-275.5426,27.6981v10.1371c91.7182-11.6554,215.8851-26.9461,304.8389-37.8352Z"/><path d="M879.0126,155.43l-6.58,9.5551,95.6613,8.7347c4.36-.5313,8.3267-1.0137,11.8689-1.4448Z"/><path d="M538.3,210.2914c3.9382-.1156,18.7249-1.4076,39.9269-3.4069V173.4086H455.5658l18.4682,32.73C481.118,206.8761,520.1685,210.8213,538.3,210.2914Z"/><path d="M229.1186,148.6466c-4.5847,2.9163-22.4359,13.7939-32.64,20.003h66.9948l7.3323-26.007-23.3344-14.4452S353.956,76.4425,372.3974,73.4681s78.1816,6.38,99.0026,13.5191-29.4012,50.1335-29.4012,50.1335h-10.113L451.517,87.7453H411.0648l-54.7293,49.3754s-52.9447-.5949-60.0833,0c-5.1526.4293-15.2369,3.64-20.4642,5.3978l-2.0824,7.385c11.0945,1.7364,54.6744,8.1244,76.9553,5.0846,25.8356-3.5228,84.3968-13.5684,84.9871-13.6683a2.38,2.38,0,0,1,2.4748,1.1758l2.1646,3.8359,68.7352-67.0589C453.12,70.2971,405.1073,64.2088,384.89,65.7346c-63.0577,4.7591-148.721,61.868-148.721,61.868s-.5132.0209-1.37.0578C235.057,134.6442,234.4924,145.2266,229.1186,148.6466Z"/><path d="M946.3843,16.3593C949.4662,10.4909,952.3416,5.0129,954.9718,0H925.9369L907.7848,16.3593Z"/><path d="M951.7627,16.3593h43.66L1000,0H960.3429C957.3807,5.649,954.4937,11.154,951.7627,16.3593Z"/></svg>