<?xml version="1.0" encoding="UTF-8"?>
<!--
  Copyright (c) 2026 Passion Highway, Inc.. All Rights Reserved.

  This image is digitally signed and the hash recorded.
  Unauthorized reproduction, distribution, or use of this
  image is strictly prohibited and constitutes copyright
  infringement under 17 U.S.C. Section 106.

  Violators may be subject to civil liability including
  statutory damages up to $150,000 per work (17 U.S.C. Section 504)
  and criminal prosecution with fines and imprisonment
  (17 U.S.C. Section 506).

  Contact: jim@passionhighway.com
  Asset ID: PHI-AID-M600-f79f6abf
  Hash: bc6decc4a2fbb9d5
-->
<svg id="Layer_1" data-name="Layer 1" xmlns="http://www.w3.org/2000/svg" viewBox="0 0 1000 342.9336">
  <metadata>
    <rdf:RDF xmlns:rdf="http://www.w3.org/1999/02/22-rdf-syntax-ns#"
             xmlns:dc="http://purl.org/dc/elements/1.1/"
             xmlns:cc="http://creativecommons.org/ns#">
      <rdf:Description>
        <dc:title>M600 Aircraft Silhouette</dc:title>
        <dc:creator>Passion Highway, Inc.</dc:creator>
        <dc:rights>Copyright (c) 2026 Passion Highway, Inc.. All Rights Reserved. Unauthorized use prohibited under 17 U.S.C. 106, 504, 506.</dc:rights>
        <dc:publisher>Passion Highway, Inc.</dc:publisher>
        <dc:identifier>PHI-AID-M600-f79f6abf</dc:identifier>
        <dc:source>Airplane-ID.com</dc:source>
        <cc:license rdf:resource="https://airplane-id.com/terms"/>
      </rdf:Description>
    </rdf:RDF>
  </metadata>

<polygon points="65.143 151.585 49.721 142.432 49.721 232.255 65.143 232.255 65.143 151.585"/><polygon points="52.442 327.965 67.865 342.934 67.865 261.851 52.442 261.851 52.442 327.965"/><path d="M424.8475,302.5827c13.3385.1464,26.4125.2711,39.01.3664V286.3848h-39.01Z"/><polygon points="527.361 276.458 527.361 233.065 508.23 249.863 527.361 276.458"/><path d="M263.2668,284.1168c2.9871,3.179,23.07,5.6348,51.3581,7.265-7.8184-5.9645-10.0637-15.05-10.68-19.7083C281.5505,276.8293,266.3419,281.2218,263.2668,284.1168Z"/><polygon points="483.542 281.546 525.06 281.546 503.812 252.006 487.175 253.285 483.542 281.546"/><path d="M919.2956,0,904.5415,15.2833h54.193a2.4174,2.4174,0,0,1,2.06,3.6855L859.8769,183.1817l41.6-1.5826,50.1461-91.5758a2.42,2.42,0,0,1,2.1215-1.2568h10.9408L1000,0Z"/><path d="M478.9748,285.5626a2.42,2.42,0,0,1-.5835-1.9042l3.8553-29.9948-138.56,10.6507a2.2505,2.2505,0,0,1-1.9373-.7418c-12.0425,2.4375-23.17,4.7967-33.0971,7.0308.5481,5.4615,3.8473,21.0064,23.7369,21.631.0372.0012.0674.0216.104.0245,26.3472,1.0924,57.2743,1.5794,87.5164,1.3969v-9.69a2.4178,2.4178,0,0,1,2.4191-2.4192h43.8481a2.4178,2.4178,0,0,1,2.4192,2.4192v19.0175c17.2214.1214,33.4928.1878,48.3051.1831l10.36-1.8023V286.3848H480.7916A2.4159,2.4159,0,0,1,478.9748,285.5626Z"/><path d="M849.19,197.0256a6.88,6.88,0,1,0,0,13.7592h88.8146c13.7471-4.3175,22.9977-7.2334,22.9977-7.2334l-14.773-6.5258Z"/><polygon points="907.109 181.385 928.157 180.584 962.761 93.605 955.177 93.605 907.109 181.385"/><path d="M854.0643,183.4026,954.4064,20.1217H899.8705L778.982,145.3454a36.8845,36.8845,0,0,1-27.337,11.2735l-82.9663-1.6337L848.8878,183.6Z"/><circle cx="798.6138" cy="210.4824" r="7.56" transform="translate(120.6869 682.1836) rotate(-49.5953)"/><path d="M375.0248,257.0567l128.9689-9.913,17.8912-15.7107C477.4533,238.582,422.7261,247.9847,375.0248,257.0567Z"/><path d="M837.4722,203.9052a11.7341,11.7341,0,0,1,11.718-11.718h86.0862l-9.9813-4.409.91-2.2878-23.2476.8738-.0065.0018-.005-.0012-46.4775,1.7468a2.4267,2.4267,0,0,1-1.1549.2956,2.4665,2.4665,0,0,1-.7858-.2226l-5.9284.2226L633.5351,154.2933l-34.8076-.6854v138.22a2.4144,2.4144,0,0,1-2.0034,2.3814l-50.8209,8.8381c16.9908-.1512,30.6357-.45,39.5429-.9379,55.6416-3.0483,210.47-47.755,241.2909-56.8512,18.4889-5.4568,63.0967-19.3707,95.846-29.6352H849.19A11.7341,11.7341,0,0,1,837.4722,203.9052Zm-173.4263,2.0412a7.2576,7.2576,0,0,1-7.2576,7.2576H624.1291a7.2576,7.2576,0,0,1-7.2576-7.2576v-22.68a7.2575,7.2575,0,0,1,7.2576-7.2576h32.6592a7.2576,7.2576,0,0,1,7.2576,7.2576Zm134.5679,16.9344a12.3984,12.3984,0,1,1,12.3984-12.3983A12.4117,12.4117,0,0,1,798.6138,222.8808Z"/><ellipse cx="114.3585" cy="240.1932" rx="20.4876" ry="5.5188"/><path d="M284.8364,196.8744s-77.3056,2.377-145.1519,8.8036v88.897a382.2526,382.2526,0,0,0,48.384,3.9058c54.78,1.289,148.1931,3.1,231.9407,4.0493v-4.0366c-1.7229.0076-4.2894.0156-7.5907.0156-14.52,0-42.7376-.1465-70.7356-1.0867-3.262-.11-6.3519-.2286-9.3632-.3506l-.0041.0009h-.078c-.0295-.0009-.054-.0068-.0835-.0077-73.425-2.987-73.7655-9.4529-73.9265-12.9908-.1772-3.8981-.4725-10.4233,136.3209-35.6028,60.1525-11.0713,121.0568-20.927,132.8126-22.8158V152.2028L368.2988,149.071Zm181.44-13.6079a7.2575,7.2575,0,0,1,7.2576-7.2576h32.6591a7.2575,7.2575,0,0,1,7.2576,7.2576v22.68a7.2576,7.2576,0,0,1-7.2576,7.2576H473.534a7.2576,7.2576,0,0,1-7.2576-7.2576Zm-43.8481-8.77v37.1953H347.4332l26.9136-37.1953Zm-92.8367,42.0337L295.42,198.6888l61.7186-37.494,12.067,6.6492Z"/><polygon points="593.889 226.793 532.2 226.793 532.2 300.522 593.889 289.791 593.889 226.793"/><path d="M69.673,236.5493H45.1905V222.5179C5.2256,240.71,0,249.5162,0,249.5162s27.6274,9.8218,46.6422,13.8862V259H72.576v11.8538c10.3536,6.4538,26.6315,16.8677,62.27,22.9425V246.53c-4.8505,2.6531-12.6952,4.02-20.4876,4.02-12.585,0-25.326-3.5579-25.326-10.3572,0-11.0036,33.1559-13.0992,45.8136-6.2955V206.1519c-24.6972,2.4284-47.8586,5.401-65.1731,9.0118Z"/><path d="M593.8891,153.5128l-61.69-1.2146v69.6565h61.69Zm-6.9552,52.4336a7.2576,7.2576,0,0,1-7.2576,7.2576H547.0171a7.2576,7.2576,0,0,1-7.2576-7.2576v-22.68a7.2575,7.2575,0,0,1,7.2576-7.2576h32.6592a7.2575,7.2575,0,0,1,7.2576,7.2576Z"/></svg>