<?xml version="1.0" encoding="UTF-8"?>
<!--
  Copyright (c) 2026 Passion Highway, Inc.. All Rights Reserved.

  This image is digitally signed and the hash recorded.
  Unauthorized reproduction, distribution, or use of this
  image is strictly prohibited and constitutes copyright
  infringement under 17 U.S.C. Section 106.

  Violators may be subject to civil liability including
  statutory damages up to $150,000 per work (17 U.S.C. Section 504)
  and criminal prosecution with fines and imprisonment
  (17 U.S.C. Section 506).

  Contact: jim@passionhighway.com
  Asset ID: PHI-AID-RV12-7e86f125
  Hash: e13dbd83e6bb14bb
-->
<svg id="Layer_1" data-name="Layer 1" xmlns="http://www.w3.org/2000/svg" viewBox="0 0 1000 405.0862">
  <metadata>
    <rdf:RDF xmlns:rdf="http://www.w3.org/1999/02/22-rdf-syntax-ns#"
             xmlns:dc="http://purl.org/dc/elements/1.1/"
             xmlns:cc="http://creativecommons.org/ns#">
      <rdf:Description>
        <dc:title>RV12 Aircraft Silhouette</dc:title>
        <dc:creator>Passion Highway, Inc.</dc:creator>
        <dc:rights>Copyright (c) 2026 Passion Highway, Inc.. All Rights Reserved. Unauthorized use prohibited under 17 U.S.C. 106, 504, 506.</dc:rights>
        <dc:publisher>Passion Highway, Inc.</dc:publisher>
        <dc:identifier>PHI-AID-RV12-7e86f125</dc:identifier>
        <dc:source>Airplane-ID.com</dc:source>
        <cc:license rdf:resource="https://airplane-id.com/terms"/>
      </rdf:Description>
    </rdf:RDF>
  </metadata>

<polygon points="795.431 110.578 761.889 175.427 795.431 178.504 795.431 110.578"/><polygon points="900.683 18.279 843.172 18.279 800.148 101.458 800.148 178.937 900.683 188.158 900.683 18.279"/><polygon points="905.4 13.562 961.381 13.562 961.416 10.614 905.4 5.149 905.4 13.562"/><path d="M958.8235,197.4691,905.4,193.329v13.6364a2.3284,2.3284,0,0,1-.6078,1.5458l69.796,2.5443-6.14-8.2694A13.2642,13.2642,0,0,0,958.8235,197.4691Z"/><path d="M877.9815,219.348l115.8232-.7856c2.5535-1.3722,4.6167-2.5723,6.1953-3.5322l-122.0185-2.68Z"/><path d="M154.6736,243.5234V190.1286c-32.39,2.4613-73.4169,6.537-105.1434,12.8849v28.1274h87.8571a2.3572,2.3572,0,0,1,2.3586,2.3585v10.024Z"/><polygon points="900.683 13.562 900.683 4.688 852.627 0 845.612 13.562 900.683 13.562"/><path d="M875.6229,224.0651a2.3572,2.3572,0,0,1-2.3585-2.3586V209.9136a2.3553,2.3553,0,0,1,.7186-1.6952,2.4438,2.4438,0,0,1,1.7182-.6633l25.51.8384a2.3109,2.3109,0,0,1-.5287-1.4281V192.8966L748.9615,178.98c-49.8912-2.6767-257.7042-14.4895-295.5244-27.4415-43.0441-14.7411-136.7977-38.3269-189.8658-8.8447s-55.4266,44.2234-55.4266,44.2234-20.56.7969-48.754,2.8595v56.105a2.3572,2.3572,0,0,1-2.3585,2.3586H139.7459V315.366l6.8157-4.0533c53.8262.1143,126.6272,2.8253,216.3169-2.9491l-5.8363,35.7029a26.4975,26.4975,0,1,0,7.02.92l6.0654-37.1062c37.5349-2.5857,77.8614-6.6361,121.0465-13.0577,158.6146-23.5858,413.9309-50.7094,445.7717-59.5541a204.354,204.354,0,0,0,30.735-11.2033ZM454.0267,156.0343c.59,24.5436-10.024,37.3693-90.8053,59.7758-1.9273.5347-3.8391,1.0333-5.75,1.5308l18.5758-78.3024C415.4381,145.5557,454.0267,156.0343,454.0267,156.0343Zm-82.55,214.4471a14.2621,14.2621,0,1,1-14.262-14.2621A14.2621,14.2621,0,0,1,371.4764,370.4814ZM494.0281,282.979c-.2594.0535-14.9064,3.1468-39.8632,5.8915-.04.002-.0743.0233-.1152.0233-.0118,0-.0213-.0063-.0331-.0066a717.8447,717.8447,0,0,1-77.823,4.1664q-9.6406,0-18.6925-.1676l-.008.0018h-.0208l-.0115-.0023c-59.7465-1.0659-99.1154-6.8685-99.5464-6.9353a2.3563,2.3563,0,0,1-1.9624-1.87c-.0506-.2487-1.223-6.4446-.0437-28.888a27.3794,27.3794,0,0,1,.754-4.9336c.0035-.0222-.0049-.0424-.0009-.0645.0127-.0668.0562-.1166.074-.1808,1.9492-7.8511,7.1331-14.6577,12.8879-20.1234-33.0642,1.0687-54.4028-2.2866-54.4028-2.2866l-2.9483-40.0959s55.4267-40.6855,92.5743-51.2991c14.4849-4.1384,40.3573-2.0255,66.5323,2.0813L352.317,218.64q-6.69,1.6419-13.2141,2.9905c28.9874,4.1753,75.578,10.9545,150.6434,21.9159.0066.0009.0107.0078.0173.009a2.3447,2.3447,0,0,1,1.19.6095,2.1066,2.1066,0,0,1,.188.17,2.2968,2.2968,0,0,1,.5557.9852c.0161.0662-.0026.13.0078.1961.0057.0342.0388.0547.0429.09l4.1275,34.7891A2.362,2.362,0,0,1,494.0281,282.979Z"/><path d="M324.77,224.3481a407.62,407.62,0,0,1-47.66,5.2262c-6.1651,4.9593-12.4125,11.5137-15.1129,19.194,93.0669,16.965,181.5514,3.6795,213.8834-2.4775C429.576,239.5324,363.917,229.9768,324.77,224.3481Z"/><path d="M456.4083,254.3861v29.4831c17.8074-2.0393,29.9127-4.194,34.5265-5.0822l-3.5618-30.0247C482.6985,249.7942,471.8707,252.04,456.4083,254.3861Z"/><polygon points="905.4 188.591 946.59 193.329 959.353 183.38 961.325 18.279 905.4 18.279 905.4 188.591"/><path d="M359.8116,288.1939c5.325.0835,10.7524.1425,16.382.1425a714.2925,714.2925,0,0,0,75.4976-3.9415V255.0831a663.3583,663.3583,0,0,1-92.0993,6.7081Z"/><path d="M99.9448,348.038c-13.4276,0-24.8252,7.8923-29.1131,18.9055h-3.17v-8.7111l67.3669-40.0613V235.858H49.53V265.45c11.2507,19.53,35.2811,45.8089,83.1926,45.8607L60.586,354.2062v19.813h8.5418c-.0806.839-.1393,1.6843-.1393,2.5429,0,15.7534,13.8595,28.5241,30.9563,28.5241s30.9564-12.7707,30.9564-28.5241S117.0417,348.038,99.9448,348.038Zm0,44.9052c-9.8184,0-17.778-7.334-17.778-16.3811s7.96-16.3811,17.778-16.3811,17.7781,7.334,17.7781,16.3811S109.7632,392.9432,99.9448,392.9432Z"/><path d="M260.8987,253.3579c-.1017.6925-.2407,1.376-.2779,2.0828-.8223,15.5933-.4814,23.1113-.2257,26.0964,8.1543,1.1059,43.7184,5.551,94.6985,6.58l-.2191-26.3535A541.6181,541.6181,0,0,1,260.8987,253.3579Z"/><path d="M44.813,203.9867C20.6727,209.1518,2.8313,215.7378,0,224.0651c0,0,22.9962,16.51,40.6855,20.6376a74.6428,74.6428,0,0,0,4.1275,11.4514Z"/><polygon points="979.914 216.552 979.914 202.857 1000 215.03 979.914 216.552"/></svg>