<svg id="Layer_1" data-name="Layer 1" xmlns="http://www.w3.org/2000/svg" viewBox="0 0 1000 336.9755"><path d="M41.958,265.65V226.371c-17.7645,6.98-32.68,14.5281-41.958,22.4635C0,248.8345,13.54,257.3791,41.958,265.65Z"/><path d="M924.6021,198.4084a2.3333,2.3333,0,0,1-1.5252,4.0975H863.0536V232.087c50.4327-9.2119,88.215-18.2958,97.3194-25.7933l1.79-9.32H922.94Z"/><path d="M463.4574,284.7055a2.33,2.33,0,0,1-1.3362-2.1079V256.1189H439.54v27.2894q4.2093-.1221,8.3133-.2555l27.6716,26.2878h13.4032l-22.5289-23.3482Z"/><path d="M499.4172,256.1189h-32.634V281.118l2.57,1.2119c15.9147-.7029,30.0723-1.5653,41.7191-2.61,7.14-.64,16.1041-1.5269,26.4864-2.619C533.5488,268.33,523.6515,256.1189,499.4172,256.1189Z"/><path d="M802.7071,175.3032l10.5993-11.233a1.9971,1.9971,0,0,1,.5011-.531l24.1514-25.5958-20.99-3.4982a49.425,49.425,0,0,1-39.1024,17.5727c-55.49-1.5177-191.3021-5.3577-265.094-8.5193l16.3375,4.0033Z"/><path d="M805.3067,179.3392c-.0518.0549-.1252.0777-.1816.1269-.06.0527-.0936.1241-.16.1713l-25.5363,18.2065h69.6387V176.2024H808.2668Z"/><path d="M916.8078,197.8439l-31.3547-27.0616-69.2916-2.9459-3.4953,3.704h38.7324a2.33,2.33,0,0,1,2.331,2.331v23.9725Z"/><path d="M924.8252,0l-6.8579,8.556,30.3272,20.9958a2.3278,2.3278,0,0,1,.8059,2.8591L889.1934,167.85l14.8181,12.7887a2.2855,2.2855,0,0,1,.7406-.1494h43.2408l18.2576-86.5635a2.3358,2.3358,0,0,1,1.8394-1.8075L982.8541,89.26,1000,0Z"/><polygon points="952.758 180.489 965.33 180.489 981.907 94.19 970.494 96.4 952.758 180.489"/><path d="M769.9228,200.8851a2.3335,2.3335,0,0,1,.87-2.6088l26.43-18.8435L528.318,152.0865l-39.7087-9.7192c-4.9952-.2615-9.4409-.5159-13.0848-.7589-61.1888-4.0793-155.0117-20.979-188.2285-7.5758s-70.5128,47.7856-70.5128,47.7856-22.023,3.7278-52.3018,10.2249V134.1783l-12.2378-9.6154v70.1586c-33.2876,7.4491-73.5151,17.7423-105.6236,29.854v42.3891c19.7834,5.4169,46.05,10.512,79.2541,12.7557,7.796.5267,16.6693,1.0189,26.3695,1.4751v55.78l9.1783-5.2447V281.6034c68.7068,2.9146,173.5211,4.0864,256.41,2.3418V256.1189H406.6734c-3.03,3.4646-14.8374,15.88-28.4683,15.88a40.5459,40.5459,0,0,1-10.096-1.29c-5.278.8989-60.9267,10.1774-103.54,10.1774a253.8865,253.8865,0,0,1-78.3891-12.429c-.733-.2413-1.2156-.4052-1.4318-.46-.89-.2231-2.4244-1.0472-7.1433-3.624-9.6017-5.2357-27.4758-14.9831-46.7111-22.0944-9.818-3.6286-14.4595-8.25-13.7948-13.74,1.1428-9.4561,18.3407-16.2852,34.7351-18.1518,25.3793-2.8841,137.6066-2.9271,143.2335-2.9274h0c.6988-.0273,70.7359-2.8819,101.4213.0091,25.8294,2.4394,56.3419,9.392,65.6323,11.5993V206.2937a2.3317,2.3317,0,0,1,2.331-2.331h.0114l393.928,1.738v-3.1948H772.1445A2.3328,2.3328,0,0,1,769.9228,200.8851ZM219.9883,184.4406l64.6853-45.8916h10.4895L256.7016,202.36S231.352,194.0559,219.9883,184.4406Zm149.9126,17.92H271.9988l31.9056-56.8181h65.9965Zm86.9756,0L383.45,200.6119v-55.07l73.4266,9.6153Zm75.6118-5.6817-63.8111,3.4965V155.1573l80.8566,15.2973Z"/><polygon points="917.539 192.312 963.059 192.312 964.434 185.151 909.241 185.151 917.539 192.312"/><path d="M844.8654,135.6193a2.3242,2.3242,0,0,1-.5144,2.3446L820.3947,163.35l64.4813,2.7413L944.0605,32.288,915.0456,12.2011,820.3942,130.29l22.6456,3.7742A2.3251,2.3251,0,0,1,844.8654,135.6193Z"/><rect x="422.4942" y="235.4312" width="12.3834" height="6.0005"/><rect x="422.4942" y="264.1317" width="12.3834" height="8.0128"/><rect x="422.4942" y="246.0938" width="12.3834" height="5.3632"/><path d="M283.8,212.1428c-24.9126.0737-84.554.401-116.004,1.8345a29.6174,29.6174,0,0,1,4.7436,13.4351L283.8,235.26Z"/><path d="M466.7832,251.4569h32.634c27.7234,0,38.6588,15.1165,42.8817,25.1425,75.1154-8.0222,217.9661-25.9964,316.0927-43.6659V210.3627l-391.6084-1.7289Z"/><path d="M185.9452,263.49c.1935.05.7877.2413,1.6959.5372a249.0931,249.0931,0,0,0,76.9277,12.1968c6.194,0,12.6728-.204,19.2307-.5455V239.9359L172.7025,232.1c-.2624,5.8411-2.2,12.8028-6.87,20.7212,5.5927,2.8716,10.3822,5.4832,14.0034,7.4588C182.6718,261.828,185.3488,263.2894,185.9452,263.49Z"/><path d="M152.362,215.0213c-17.5486,1.9941-30.0071,8.887-30.6354,14.0771-.3551,2.9319,3.5762,6.1462,10.7831,8.81a294.89,294.89,0,0,1,29.1618,12.8183c12.6546-21.1768,3.196-33.6266.54-36.4669C158.1917,214.4884,154.829,214.7407,152.362,215.0213Z"/><rect x="422.4942" y="256.1189" width="12.3834" height="3.3508"/><path d="M422.4942,283.8462c4.1979-.0948,8.3138-.2,12.3834-.31v-6.7295H422.4942Z"/><path d="M462.1212,223.86c-7.7448-1.8627-39.4993-9.2407-66.0693-11.7478-27.2914-2.5814-86.3336-.5372-98.5578-.0819v18.739H462.1212Z"/><rect x="439.5396" y="235.4312" width="22.5816" height="16.0257"/><path d="M288.4615,212.1309v63.2825c28.2245-1.74,57.0729-5.8594,70.8942-8.0106a33.7151,33.7151,0,0,1-5.31-3.4168H295.1631a2.33,2.33,0,0,1-2.331-2.331V212.1232C291.7335,212.1246,290.2667,212.1269,288.4615,212.1309Z"/><path d="M297.4941,259.324h57.401a2.3394,2.3394,0,0,1,1.5707.61,34.5957,34.5957,0,0,0,21.7393,7.4027c13.2644,0,25.4544-14.8647,25.5773-15.0149a2.3319,2.3319,0,0,1,1.812-.865h12.2378V235.4312H297.4941Z"/></svg>