<?xml version="1.0" encoding="UTF-8"?>
<!--
  Copyright (c) 2026 Passion Highway, Inc.. All Rights Reserved.

  This image is digitally signed and the hash recorded.
  Unauthorized reproduction, distribution, or use of this
  image is strictly prohibited and constitutes copyright
  infringement under 17 U.S.C. Section 106.

  Violators may be subject to civil liability including
  statutory damages up to $150,000 per work (17 U.S.C. Section 504)
  and criminal prosecution with fines and imprisonment
  (17 U.S.C. Section 506).

  Contact: jim@passionhighway.com
  Asset ID: PHI-AID-P46T-92621fd6
  Hash: 7797ec8f9568c4f8
-->
<svg id="Layer_1" data-name="Layer 1" xmlns="http://www.w3.org/2000/svg" viewBox="0 0 1000 305.5044">
  <metadata>
    <rdf:RDF xmlns:rdf="http://www.w3.org/1999/02/22-rdf-syntax-ns#"
             xmlns:dc="http://purl.org/dc/elements/1.1/"
             xmlns:cc="http://creativecommons.org/ns#">
      <rdf:Description>
        <dc:title>P46T Aircraft Silhouette</dc:title>
        <dc:creator>Passion Highway, Inc.</dc:creator>
        <dc:rights>Copyright (c) 2026 Passion Highway, Inc.. All Rights Reserved. Unauthorized use prohibited under 17 U.S.C. 106, 504, 506.</dc:rights>
        <dc:publisher>Passion Highway, Inc.</dc:publisher>
        <dc:identifier>PHI-AID-P46T-92621fd6</dc:identifier>
        <dc:source>Airplane-ID.com</dc:source>
        <cc:license rdf:resource="https://airplane-id.com/terms"/>
      </rdf:Description>
    </rdf:RDF>
  </metadata>

<path d="M283.792,197.9328c-1.716-.057-3.75-.1195-6.1162-.1822v42.4635h6.1162Z"/><path d="M209.1743,197.8668c-46.81,1.3451-105.4413,5.73-151.6819,17.95v39.84h8.1012c-.361-.6349-.7355-1.2576-1.06-1.9251l9.1743-5.9633,12.8595,7.8884h122.607Zm-69.266,53.0506H93.578a13.3028,13.3028,0,1,1,0-26.6055h46.33a13.3028,13.3028,0,0,1,0,26.6055Zm46.33-13.3027c-8.6137,0-15.5963-4.313-15.5963-9.633s6.9826-9.6331,15.5963-9.6331,15.5964,4.313,15.5964,9.6331S194.8523,237.6147,186.2385,237.6147Z"/><circle cx="797.7064" cy="214.2202" r="7.4923" transform="translate(-19.6452 95.2154) rotate(-6.7479)"/><path d="M777.075,174.0975l36.1513-39.6269-3.99-17.0944a2.446,2.446,0,0,1,1.5578-2.8574l14.6884-5.29,77.26-88.8165a2.44,2.44,0,0,1,1.8445-.8409h42.8134a2.447,2.447,0,0,1,2.0977,3.7031L851.7294,186.7322l31.4925,5.33a2.3789,2.3789,0,0,1,.3073-1.27l44.6484-74.6177a2.4411,2.4411,0,0,1,2.0976-1.19H949.053L994.8511,11.6208H893.1052L783.0425,132.69a55.4964,55.4964,0,0,1-42.1472,18.1849c-24.9737-.4763-66.0622-1.2041-111.6307-1.793Z"/><polygon points="997.019 6.728 1000 0 903.67 0 897.553 6.728 997.019 6.728"/><path d="M923.4115,203.8274h-84.01a3.9346,3.9346,0,0,0-2.7571,6.735,3.7541,3.7541,0,0,0,2.7857,1.12c58.6475-.7953,92.0167-.9547,111.1072-.79,2.4037-.6161,4.3363-1.1115,5.8151-1.49Z"/><path d="M782.8113,175.0684l64.3432,10.8894a2.3929,2.3929,0,0,1,.2891-1.5876L943.0858,24.4648H905.7005l-76.9448,88.4557a2.404,2.404,0,0,1-1.0177.6952l-13.2407,4.7688,3.7892,16.227a2.4472,2.4472,0,0,1-.5782,2.2052Z"/><polygon points="887.986 192.868 912.692 197.05 946.885 119.878 931.661 119.878 887.986 192.868"/><path d="M780.4281,255.0444c45.4568-12.0685,113.3031-29.5609,151.1388-39.2826-23.1828.0373-54.7344.3091-92.07.8141a8.821,8.821,0,1,1-.0955-17.6415h55.0987L780.4281,179.6287Zm17.2783-53.2095A12.3854,12.3854,0,1,1,785.3211,214.22,12.4007,12.4007,0,0,1,797.7064,201.8349Z"/><path d="M52.5994,217.1564C31.3,223.1645,12.9259,230.9379,0,240.9786c0,0,20.36,15.7017,52.5994,31.296Z"/><polygon points="410.856 235.474 380.11 235.474 347.401 263.569 347.401 266.055 410.856 266.055 410.856 235.474"/><polygon points="492.436 255.657 480.99 235.474 454.265 235.474 461.649 255.657 492.436 255.657"/><path d="M588.9908,166.9725H521.7125v58.5627h67.2783Zm-5.0458,40.7758a7.5689,7.5689,0,0,1-7.5689,7.5688H536.0092a7.5688,7.5688,0,0,1-7.5688-7.5688V182.3394a7.5688,7.5688,0,0,1,7.5688-7.5688h40.3669a7.5689,7.5689,0,0,1,7.5689,7.5688Z"/><path d="M448.93,279.5728H415.7492V294.19a2.4489,2.4489,0,0,1-2.4464,2.4465,1.3373,1.3373,0,0,1-.1386-.0048l-150.3058-8.5627a2.4145,2.4145,0,0,1-1.0916-.3631,2.2927,2.2927,0,0,1-.241-.1876,1.3568,1.3568,0,0,1-.6725-.8135c-.029-.0567-.0917-.0812-.1165-.1409-.014-.0338-.0081-.0693-.02-.1034a5.5315,5.5315,0,0,1-.1433-.9637c.0017-.0352-.0141-.0684-.0108-.1036,1.9042-19.7869,67.964-24.5126,83.4313-25.3441l33.6176-28.8752a2.4371,2.4371,0,0,1,1.5936-.5925H429.893V148.7663c-21.525.5041-37.268,1.3326-43.6545,2.61-36.6972,7.3394-96.33,46.7889-96.33,46.7889s-.4367-.02-1.2233-.0525v44.548a2.445,2.445,0,0,1-2.4465,2.4464H275.2294a2.445,2.445,0,0,1-2.4465-2.4464V197.633c-13.6184-.2981-34.3861-.4991-58.7156.103v57.9215H270.948a2.4465,2.4465,0,1,1,0,4.893H94.5441l15.0582,9.237-16.17,7.3394s-14.9736-4.6913-24.5153-16.5764H57.4924v14.043c29.1923,13.5856,67.131,26.4915,108.2568,28.1588,50.8682,2.0621,178.22,2.9652,283.1805,2.71ZM413.3028,174.7706v43.578H335.78l27.9817-43.578Zm-61.4679-6.422,7.3394,5.0459-35.3211,41.7431c-16.9725,1.8349-32.5688-11.0092-32.5688-11.0092Z"/><rect x="731.4985" y="206.7278" width="12.844" height="27.2984"/><rect x="521.7125" y="230.4281" width="67.2783" height="61.315"/><path d="M775.5352,178.8005,671.33,161.1648V285.6493c25.3572-7.0713,52.0057-14.692,68.7309-19.5943,6.9449-2.0355,19.6328-5.489,35.474-9.7088ZM746.789,238.9192H729.052a2.4451,2.4451,0,0,1-2.4465-2.4465V204.2813a2.445,2.445,0,0,1,2.4465-2.4464h17.737a2.4451,2.4451,0,0,1,2.4465,2.4464v32.1914A2.4452,2.4452,0,0,1,746.789,238.9192Z"/><path d="M267.9523,281.5015c20.3932-5.1519,63.7585-6.5069,74.5553-6.7691v-9.6892C316.1166,266.6114,278.0324,272.13,267.9523,281.5015Z"/><path d="M410.8563,284.8262l-65.9532-5.2516c-1.7014.032-40.2825.8338-64.9453,4.5681L410.8563,291.6Z"/><polygon points="410.856 270.948 347.401 270.948 347.401 274.866 410.856 279.922 410.856 270.948"/><path d="M666.4373,160.3366l-68.7145-11.6294c-20.5409-.2207-41.4319-.399-61.7309-.5L551.07,131.4985l-7.3394-4.893-19.7911,21.55c-33.442-.1159-64.6439.0006-89.1539.4993V230.581h47.63a2.4484,2.4484,0,0,1,2.1287,1.2376l14.22,25.0765a2.447,2.447,0,0,1-2.1287,3.6554H459.9388a2.4465,2.4465,0,0,1-2.2983-1.6055l-8.5866-23.471H415.7492V274.68h35.6269a2.445,2.445,0,0,1,2.4465,2.4464v14.6168H516.82V164.526a2.445,2.445,0,0,1,2.4465-2.4465h72.1712a2.445,2.445,0,0,1,2.4465,2.4465V294.19a2.445,2.445,0,0,1-2.4465,2.4465H453.8226v8.8126c79.623-.2227,145.2913-1.1211,152.9052-2.6964,8.8345-1.8277,33.1473-8.36,59.71-15.7409ZM508.8685,209.7859a8.5628,8.5628,0,0,1-8.5627,8.5627h-35.78a8.5628,8.5628,0,0,1-8.5627-8.5627V183.3333a8.5628,8.5628,0,0,1,8.5627-8.5627h35.78a8.5628,8.5628,0,0,1,8.5627,8.5627Zm93.4251,5.5312V178.44l45.466,4.9255a10.7362,10.7362,0,0,1,9.58,10.6735v21.2777Z"/><path d="M91.3328,242.9713h20.0438a5.3665,5.3665,0,0,0,5.3665-5.3665h0a5.3665,5.3665,0,0,0-5.3665-5.3665H96.9517a6.1119,6.1119,0,0,0-5.4986,3.4435l-2.0456,4.2152A2.14,2.14,0,0,0,91.3328,242.9713Z"/><rect x="929.8213" y="142.35" width="28.4117" height="4.893"/><rect x="945.9193" y="94.5241" width="32.5162" height="4.893"/><rect x="964.5451" y="51.7512" width="28.8847" height="4.893"/></svg>