<?xml version="1.0" encoding="UTF-8"?>
<!--
  Copyright (c) 2026 Passion Highway, Inc.. All Rights Reserved.

  This image is digitally signed and the hash recorded.
  Unauthorized reproduction, distribution, or use of this
  image is strictly prohibited and constitutes copyright
  infringement under 17 U.S.C. Section 106.

  Violators may be subject to civil liability including
  statutory damages up to $150,000 per work (17 U.S.C. Section 504)
  and criminal prosecution with fines and imprisonment
  (17 U.S.C. Section 506).

  Contact: jim@passionhighway.com
  Asset ID: PHI-AID-PA46-12f2dbc4
  Hash: 83768b32fc2c91b4
-->
<svg id="Layer_1" data-name="Layer 1" xmlns="http://www.w3.org/2000/svg" viewBox="0 0 993.0932 304.5892">
  <metadata>
    <rdf:RDF xmlns:rdf="http://www.w3.org/1999/02/22-rdf-syntax-ns#"
             xmlns:dc="http://purl.org/dc/elements/1.1/"
             xmlns:cc="http://creativecommons.org/ns#">
      <rdf:Description>
        <dc:title>PA46 Aircraft Silhouette</dc:title>
        <dc:creator>Passion Highway, Inc.</dc:creator>
        <dc:rights>Copyright (c) 2026 Passion Highway, Inc.. All Rights Reserved. Unauthorized use prohibited under 17 U.S.C. 106, 504, 506.</dc:rights>
        <dc:publisher>Passion Highway, Inc.</dc:publisher>
        <dc:identifier>PHI-AID-PA46-12f2dbc4</dc:identifier>
        <dc:source>Airplane-ID.com</dc:source>
        <cc:license rdf:resource="https://airplane-id.com/terms"/>
      </rdf:Description>
    </rdf:RDF>
  </metadata>

<path d="M66.3262,283.9274c15.4383,8.9752,39.6721,17.4065,76.9858,18.71,19.3743.6766,51.6549,1.2624,90.6064,1.6114v-22.245a10.2828,10.2828,0,0,1-5.6259,1.6832H182.6932A10.376,10.376,0,0,1,172.33,273.3234V221.21a10.3761,10.3761,0,0,1,10.3634-10.3635h45.5993a10.2828,10.2828,0,0,1,5.6259,1.6832V198.5288c-36.2282,1.4623-111.3053,5.8-167.5922,17.79Z"/><path d="M182.6933,215.584h45.5993a5.6259,5.6259,0,0,1,5.6259,5.6259v52.1135a5.6258,5.6258,0,0,1-5.6258,5.6258H182.6933a5.6259,5.6259,0,0,1-5.6259-5.6259V221.21A5.6259,5.6259,0,0,1,182.6933,215.584Z"/><path d="M0,243.9858s9.3774,12.291,40.8617,16.4922V222.7132C21.7838,228.4183,7.0075,235.4125,0,243.9858Z"/><path d="M45.5993,266.7944a70.3421,70.3421,0,0,0,15.9893,14.1879V217.3568c-5.5544,1.2509-10.9082,2.5784-15.9893,3.9921Z"/><path d="M618.1674,105.9139a2.37,2.37,0,0,0-3.3774-3.3265l-41.05,41.6294q2.7843.43,5.7783.8915Z"/><path d="M948.3689,14.211a2.3656,2.3656,0,0,1-.0046,2.4267L846.4882,186.7146c3.8039.6454,6.114,1.0522,7.1752,1.2419L862.477,184.1a2.3325,2.3325,0,0,1,.8143-.1943l41.0528-2.3616L993.0932,0H912.27L898.4418,14.9816l47.7943-1.9272A2.3218,2.3218,0,0,1,948.3689,14.211Z"/><path d="M809.3133,180.6743c14.62,2.3084,25.0389,4.01,32.16,5.1971L942.0491,17.9655,893.8965,19.906,773.6955,150.1342s-78.4183-.3863-166.559-.7625C677.9765,160.308,787.0475,177.1587,809.3133,180.6743Z"/><polygon points="420.628 230.389 404.774 230.389 432.198 271.181 459.381 271.181 420.628 230.389"/><path d="M454.8779,292.63a182.531,182.531,0,0,1,21.2011-3.8724l-12.2276-12.8708c-.0559.0041-.1033.0321-.16.0321H435.3827l11.8032,17.5572A57.4024,57.4024,0,0,0,454.8779,292.63Z"/><path d="M487.3794,225.6514H560.812V159.302H487.3794Zm9.1672-43.5266a11.5479,11.5479,0,0,1,11.5479-11.5479h29.9178A11.5479,11.5479,0,0,1,549.56,182.1248v19.5426a11.5479,11.5479,0,0,1-11.5479,11.5478H508.0945a11.5479,11.5479,0,0,1-11.5479-11.5478Z"/><path d="M338.4669,230.3889l-29.21,62.278c18.0565.4639,98.7789,2.4345,132.4081,1.0934l-42.6024-63.3714Z"/><path d="M840.306,200.2105h69.2161a62.4661,62.4661,0,0,0-9.9488-8.9067l2.3844-4.8775-37.9724,2.1849-9.0866,3.9742a2.3257,2.3257,0,0,1-.9484.199,2.6943,2.6943,0,0,1-.43-.0371c-.111-.0231-11.6265-2.1328-44.9469-7.3955-26.692-4.2137-178.2006-27.6023-238.9354-36.9748l-.8229.8345c-69.14-.2822-138.1931-.5246-175.5493-.5445l39.4119-42.8109a2.3689,2.3689,0,0,0-3.4838-3.2109l-42.3729,46.0273c-85.4081.1477-88.0713,11.5169-131.5594,49.1692,0,0-6.1837.1163-16.6053.5035V304.2894c74.4843.622,171.8582.3788,250.5506-1.7133l-5.8682-6.1776-.0058-.006-2.937-3.0917c-1.3093-.13-6.5489-.1018-24.4721,3.9464a71.345,71.345,0,0,1-9.8913,1.0179c-.0208,0-.04.0185-.06.0185-.0171,0-.0321-.0116-.0492-.0119-34.8125,1.9377-135.5935-.8336-140.4152-.9643a2.3671,2.3671,0,0,1-2.0774-3.3728l31.3866-66.9184a2.37,2.37,0,0,1,2.1444-1.3648h84.6844a2.3762,2.3762,0,0,1,1.7164.7356l59.28,62.4006V156.9332a2.3675,2.3675,0,0,1,2.3688-2.3688h78.17a2.3675,2.3675,0,0,1,2.3688,2.3688V299.516c23.0023-1.3761,40.991-3.08,51.5213-5.17,52.7294-10.47,227.8307-54.34,282.2181-74.0485H840.306a10.0437,10.0437,0,1,1,0-20.0874ZM296.6915,210.2542s-25.4646-.5922-37.3085-10.0674c0,0,53.89-44.4149,66.3262-43.2305v13.6206Zm98.3049-2.961h-80.539l24.28-42.0461,56.2588,10.0674Zm78.7624-6.5142a9.4753,9.4753,0,0,1-9.4752,9.4752H431.1205a9.4753,9.4753,0,0,1-9.4751-9.4752V180.0521a9.4752,9.4752,0,0,1,9.4751-9.4752h33.1631a9.4752,9.4752,0,0,1,9.4752,9.4752Zm151.0107.8884a11.5479,11.5479,0,0,1-11.548,11.5478H585.3882A11.5478,11.5478,0,0,1,573.84,201.6674v-14.805a11.5478,11.5478,0,0,1,11.5478-11.5479h27.8333a11.5479,11.5479,0,0,1,11.548,11.5479Z"/><path d="M487.3794,293.7733l8.1971,8.6288c24.0748-.68,46.2169-1.5421,65.2355-2.6123V230.3889H487.3794Z"/><path d="M938.9585,212.3917H840.5379a2.3688,2.3688,0,0,1,0-4.7376h98.4206a2.3688,2.3688,0,1,1,0,4.7376Z"/></svg>