<svg id="Layer_1" data-name="Layer 1" xmlns="http://www.w3.org/2000/svg" viewBox="0 0 1000 405.9413"><path d="M216.2741,308.3505,218.03,341.011c-17.7828,1.3186-31.7852,15.3049-31.7852,32.4,0,17.966,15.4562,32.53,34.5224,32.53s34.5225-14.5642,34.5225-32.53a31.2517,31.2517,0,0,0-7.6985-20.4594l46.6661-44.6012Zm4.4933,82.5485c-10.25,0-18.5591-7.83-18.5591-17.4879s8.3093-17.488,18.5591-17.488,18.5591,7.83,18.5591,17.488S231.0173,390.899,220.7674,390.899Z"/><ellipse cx="220.7674" cy="373.411" rx="10.2893" ry="9.6954"/><path d="M304.6553,301.74l26.5939-91.7727-3.3729.2191L302.9642,299.38c.562-.0388,1.13-.07,1.6911-.11Z"/><path d="M997,140.7975c-1.1448-2.8182-2.6479-7.1635-4.3683-12.4773H937.5838a2.3767,2.3767,0,0,1,0-4.7533h53.5307c-3.76-11.9537-8.2956-27.4572-12.5014-42.1853H924.8468l-2.0012,75.0469,76.8494,4.1353A39.1866,39.1866,0,0,0,997,140.7975Z"/><polygon points="286.831 212.851 302.911 281.901 322.85 210.512 286.831 212.851"/><path d="M925.0276,47.64a2.3752,2.3752,0,0,1,.673,1.72l-.727,27.2687h52.2855c-4.1736-14.693-7.8726-28.06-9.9592-35.65H923.324a2.3766,2.3766,0,1,1,0-4.7532h42.6722c-.3079-1.126-.4869-1.7825-.4869-1.7825C954.8145,7.1116,903.1226-23.7847,872.82,27.9072c-3.6766,6.2721-7.5511,12.6491-11.5118,19.0131H923.324A2.3854,2.3854,0,0,1,925.0276,47.64Z"/><path d="M822.3169,175.853a2.3785,2.3785,0,0,1-2.2235,2.372L365.0107,207.7745l-.0018.0006-.0211.0009-28.6929,1.8631L322.1186,258.56l595.3375-78.4015.5083-19.059-95.6475,2.2458Z"/><polygon points="181.423 219.695 174.972 253.118 281.615 255.437 269.768 213.959 181.423 219.695"/><polygon points="274.624 213.644 298.565 297.462 300.251 291.426 282.025 213.163 274.624 213.644"/><path d="M310.4551,298.8109c5.3039-.4354,10.5657-.9231,15.7385-1.5042v20.6989h-16.785V302.422l-4.7533,16.4032v1.5571a2.3753,2.3753,0,0,0,2.3767,2.3766H328.57a2.3753,2.3753,0,0,0,2.3766-2.3766v-23.65c5.0245-.615,9.9954-1.282,14.854-2.0476,98.0363-15.4482,275.69-45.1562,372.538-61.7926,54.0195-9.2794,118.56-19.1118,169.6288-27.3351l28.6633,5.538.6969-26.1265-596.6546,78.58Z"/><path d="M921.3634,212.01l32.6109,6.3007a11.6055,11.6055,0,1,0,2.0723-8.8137c-6.3576-2.0082-20.6354-6.5346-31.25-10.0169,22.5178-3.8438,39.5-7.0777,47.2485-9.367,15.16-4.4791,23.688-13.9627,26.7041-24.84l-76.03-4.0959Zm43.9974.5326a3.7878,3.7878,0,1,1-3.7878,3.7878A3.7877,3.7877,0,0,1,965.3608,212.5423Z"/><path d="M174.0583,257.8534l-7.5558,39.15c39.9143,3.5757,85.1493,5.285,127.8183,2.9157l-11.3389-39.6973Z"/><path d="M28.52,198.431H21.3616c-.54-98.2762-8.8842-119.4261-8.8842-119.4261S8.64,120.8935,8.3467,198.6379a10.3938,10.3938,0,0,0,.0142,20.3833c.5352,77.4946,6.4931,127.6527,6.4931,127.6527s6.0945-29.1138,6.5117-127.4473h5.9656s-9.5065,49.9094,38.0263,62.3868c12.4051,3.2562,30.786,6.7516,52.88,9.8683V182.3556c-30.4974,1.4071-78.3847,3.5981-80.8057,3.5981C33.8671,185.9537,28.52,198.431,28.52,198.431Zm44.4877.8913c5.7834,0,10.472,2.66,10.472,5.9416s-4.6886,5.9416-10.472,5.9416-10.4721-2.66-10.4721-5.9416S67.2239,199.3223,73.0074,199.3223Zm0,24.1879c5.7834,0,10.472,2.66,10.472,5.9416s-4.6886,5.9416-10.472,5.9416-10.4721-2.66-10.4721-5.9416S67.2239,223.51,73.0074,223.51Z"/><path d="M823.6369,103.9666h95.8509l1.3946-52.293H858.3288C846.4694,70.5013,834.0376,88.9513,823.6369,103.9666Z"/><path d="M810.2068,123.0917a35.22,35.22,0,0,1-29.7059,14.791L449.1847,128.32s22.578-23.1722-96.2539-29.708-134.8742-5.9416-142.5983,21.39L143.1925,181.2s-8.2832.385-20.2015.9356V292.1382c12.019,1.6264,25.0444,3.1292,38.7576,4.422l15.3551-79.5663a2.3742,2.3742,0,0,1,2.1793-1.9218l101.65-6.6007-.13-.557a2.3758,2.3758,0,1,1,4.6279-1.077l.3078,1.3218,38.912-2.5266a2.2018,2.2018,0,0,1,2.8837-.1874l6.6475-.4314c.0125-.0015.0246-.0012.0374-.0026l18.9835-1.2327h-15.72l16.3394-60.3072,7.6554,59.77.7685-.05-5.7432-69.7859a2.3787,2.3787,0,0,1,2.0378-2.5484c.7427-.1068,19.5237-2.444,146.0727,6.68,120.2611,8.6678,386.8275-.4456,414.017-1.41l.7308-27.4068H820.3325C816.5821,114.0972,813.1506,118.9578,810.2068,123.0917Zm-598.3889,2.5548,7.13,11.1405-55.2569,30.3021Zm-57.6335,54.3656s69.22-39.2146,70.1108-40.1057l-37.432,59.4159C180.9216,178.5267,154.1844,180.0121,154.1844,180.0121Zm37.135,23.7664,52.5831-74.567,13.9628,35.0554H240.9317v11.289H254.3l14.5569,26.143Zm142.3012-18.1219v-45.75H323.2228v63.8721H283.117l-19.9043-70.1109h87.6385Z"/><path d="M504.27,142.276c-104.5813-7.5384-135.1573-7.2321-142.8327-6.87l5.5549,67.4772.7465-.0485-2.9244-59.3634s50.8006,15.4482,51.3948,38.62c.2776,10.8294-10.2812,16.2717-21.6079,18.9985l422.9627-27.4653v-12.6a2.3774,2.3774,0,0,1,2.3209-2.3766l98.2064-2.3.4125-15.4618C889.8317,141.8988,624.3793,150.9357,504.27,142.276Z"/></svg>